<svg xmlns="http://www.w3.org/2000/svg" width="980" height="349" viewBox="0 0 980 349">
  <title>car-radio</title>
  <g id="Layer_2" data-name="Layer 2">
    <g id="Layer_1-2" data-name="Layer 1">
      <g id="jeep">
        <g id="Group_36" data-name="Group 36">
          <path id="Path_209" data-name="Path 209" d="M17.66,116.56V86.49A5.51,5.51,0,0,0,12.22,81a5.5,5.5,0,0,0-5.43,5.45V122a5.51,5.51,0,0,0,5.43,5.46H41V116.56Z" style="fill: #4f4f4f"/>
          <path id="Path_210" data-name="Path 210" d="M317.85,81a5.5,5.5,0,0,0-5.43,5.45v30.07H288.81v10.91h29a5.52,5.52,0,0,0,5.44-5.46V86.49A5.51,5.51,0,0,0,317.85,81Z" style="fill: #4f4f4f"/>
          <path id="Path_211" data-name="Path 211" d="M77.14,13a5.51,5.51,0,0,0-5.44,5.45V40.22H82.57V18.41A5.5,5.5,0,0,0,77.14,13Z" style="fill: #4f4f4f"/>
          <path id="Path_212" data-name="Path 212" d="M252.63,13a5.51,5.51,0,0,0-5.44,5.45V40.22h10.87V18.41A5.41,5.41,0,0,0,252.63,13Z" style="fill: #4f4f4f"/>
        </g>
        <path id="Path_213" data-name="Path 213" d="M286.53,43.81a12.62,12.62,0,0,0-12.11-10.75h-219A12.38,12.38,0,0,0,43.33,43.81L29.82,154.57l41.46,80.08H258.89l41.46-80.08Z" style="fill: #f36831"/>
        <path id="Path_214" data-name="Path 214" d="M285.13,122l-9.31-77a1.9,1.9,0,0,0-1.4-1.24h-219a1.87,1.87,0,0,0-1.39,1.24l-9.32,77Z" style="fill: #fff"/>
        <rect id="Rectangle_125" data-name="Rectangle 125" x="65.07" y="259.73" width="199.56" height="29.13" style="fill: #999"/>
        <g id="Group_37" data-name="Group 37">
          <path id="Path_215" data-name="Path 215" d="M7.45,252.41v85.68A10.82,10.82,0,0,0,18.32,349H61.49a10.83,10.83,0,0,0,10.88-10.91V252.41Z" style="fill: #4f4f4f"/>
          <path id="Path_216" data-name="Path 216" d="M257.33,252.41v85.68A10.82,10.82,0,0,0,268.2,349h43.18a10.83,10.83,0,0,0,10.87-10.91V252.41Z" style="fill: #4f4f4f"/>
        </g>
        <g id="Group_38" data-name="Group 38">
          <ellipse id="Ellipse_21" data-name="Ellipse 21" cx="98.24" cy="171.02" rx="18.48" ry="18.54" style="fill: #fff"/>
          <ellipse id="Ellipse_22" data-name="Ellipse 22" cx="231.49" cy="171.02" rx="18.48" ry="18.54" style="fill: #fff"/>
        </g>
        <g id="Group_39" data-name="Group 39">
          <path id="Path_217" data-name="Path 217" d="M142.66,195.17a5.52,5.52,0,0,1-5.44-5.46V152.48a5.44,5.44,0,1,1,10.87,0v37.23A5.51,5.51,0,0,1,142.66,195.17Z" style="fill: #4f4f4f"/>
          <path id="Path_218" data-name="Path 218" d="M164.86,195.17a5.51,5.51,0,0,1-5.43-5.46V152.48a5.44,5.44,0,1,1,10.87,0v37.23A5.52,5.52,0,0,1,164.86,195.17Z" style="fill: #4f4f4f"/>
          <path id="Path_219" data-name="Path 219" d="M187.07,195.17a5.51,5.51,0,0,1-5.43-5.46V152.48a5.44,5.44,0,1,1,10.87,0v37.23A5.42,5.42,0,0,1,187.07,195.17Z" style="fill: #4f4f4f"/>
        </g>
        <g id="Group_40" data-name="Group 40">
          <path id="Path_220" data-name="Path 220" d="M71.17,220.17,35.61,234.66.05,220.17V169.23a14.53,14.53,0,0,1,14.44-14.49h23.6a20.34,20.34,0,0,1,18.48,14Z" style="fill: #bf3600"/>
          <path id="Path_221" data-name="Path 221" d="M329.75,169.07v51L294.19,234.5,258.62,220l14.45-51.57a20.39,20.39,0,0,1,18.48-14h23.6A14.8,14.8,0,0,1,329.75,169.07Z" style="fill: #bf3600"/>
        </g>
        <path id="Path_222" data-name="Path 222" d="M329.71,220.16H0v39.57H329.71Z" style="fill: #c8c8c8"/>
      </g>
      <path id="Path_223" data-name="Path 223" d="M238.12,78.52,610.38,25.86v81.63Z" style="fill: #f34500"/>
      <g id="Group_266" data-name="Group 266">
        <path id="Path_1225" data-name="Path 1225" d="M973.32,0H559.6a6.64,6.64,0,0,0-6.68,6.7V124.79a6.64,6.64,0,0,0,6.68,6.69H973.32a6.64,6.64,0,0,0,6.68-6.69V6.7A6.64,6.64,0,0,0,973.32,0Z" style="fill: #4c4b4b"/>
        <path id="Path_1226" data-name="Path 1226" d="M952.82,121.05h-373a8.53,8.53,0,0,1-8.54-8.57h0V18.85a8.53,8.53,0,0,1,8.54-8.57h373a8.53,8.53,0,0,1,8.54,8.57h0v93.63A8.53,8.53,0,0,1,952.82,121.05Z" style="fill: #c7c8ca"/>
        <path id="Path_1227" data-name="Path 1227" d="M953.13,116.69H580.56a4.18,4.18,0,0,1-4.19-4.21V45.8h381v66.68a4.19,4.19,0,0,1-4.2,4.21Z" style="fill: #646465"/>
        <path id="Path_1228" data-name="Path 1228" d="M957.33,21.81A6.41,6.41,0,0,0,951,15.42l-368.53.16A6.4,6.4,0,0,0,576.06,22V33.65l63.52,7.63h6.68a37.46,37.46,0,0,1,16-3.42,39.67,39.67,0,0,1,15.84,3.42H957.17V21.81Z" style="fill: #4c4b4b"/>
        <path id="Path_1229" data-name="Path 1229" d="M718.16,67.92h-8.85a5.41,5.41,0,0,1-5.44-5.45h0A5.42,5.42,0,0,1,709.31,57h9a5.41,5.41,0,0,1,5.43,5.45h0A5.75,5.75,0,0,1,718.16,67.92Z" style="fill: #3e3e3e"/>
        <path id="Path_1230" data-name="Path 1230" d="M718.16,93.78h-8.85a5.41,5.41,0,0,1-5.44-5.45h0a5.42,5.42,0,0,1,5.44-5.45h9a5.41,5.41,0,0,1,5.43,5.45h0A5.75,5.75,0,0,1,718.16,93.78Z" style="fill: #3e3e3e"/>
        <path id="Path_1231" data-name="Path 1231" d="M940.71,103a3.9,3.9,0,1,1-3.88,3.89,3.94,3.94,0,0,1,3.88-3.89m0-2.34a6.23,6.23,0,1,0,6.21,6.23,6.14,6.14,0,0,0-6.21-6.23Z" style="fill: #2a2929"/>
        <path id="Path_1232" data-name="Path 1232" d="M626.53,62.78H587.24a3,3,0,0,0-3,3h0V85.22a3,3,0,0,0,3,3h38.83a39.57,39.57,0,0,1,.46-25.4Z" style="fill: #4c4b4b"/>
        <path id="Path_1233" data-name="Path 1233" d="M627.78,92.38H598a3,3,0,0,0-3,3h0v15.42a3,3,0,0,0,3,3h.31l43.79-5A38.22,38.22,0,0,1,627.78,92.38Z" style="fill: #4c4b4b"/>
        <path id="Path_1234" data-name="Path 1234" d="M640.82,44.56v-.63l-42.55-6.07A2.94,2.94,0,0,0,595,40.35V55.93a3,3,0,0,0,3,3h30.28A38.36,38.36,0,0,1,640.82,44.56Z" style="fill: #4c4b4b"/>
        <path id="Path_1235" data-name="Path 1235" d="M716.92,67h-8.85a5.41,5.41,0,0,1-5.44-5.45h0a5.42,5.42,0,0,1,5.44-5.46h9a5.42,5.42,0,0,1,5.44,5.46h0A5.55,5.55,0,0,1,716.92,67Z" style="fill: #2a2929"/>
        <path id="Path_1236" data-name="Path 1236" d="M716.92,93h-8.85a5.42,5.42,0,0,1-5.44-5.46h0a5.42,5.42,0,0,1,5.44-5.45h9a5.41,5.41,0,0,1,5.44,5.45h0A5.66,5.66,0,0,1,716.92,93Z" style="fill: #2a2929"/>
        <path id="Path_1237" data-name="Path 1237" d="M948,109.21a7.7,7.7,0,0,1-9.79,4.83,7.48,7.48,0,0,1-4.81-4.83H678.09a37.22,37.22,0,0,1-28.88,1.09l-48.3,6.7,352.22-.16a4.19,4.19,0,0,0,4.2-4.21v-3.27H948Z" style="fill: #4c4b4b"/>
        <path id="Path_1238" data-name="Path 1238" d="M693.16,113.57h68.49a.83.83,0,0,0,.62-.31l7-8.88c.62-.78.15-2.34-.63-2.34H700.15a.85.85,0,0,0-.63.31l-7,8.88C691.91,112.17,692.38,113.57,693.16,113.57Z" style="fill: #5d5858"/>
        <path id="Path_1239" data-name="Path 1239" d="M773.45,113.57h68.49a.83.83,0,0,0,.62-.31l7-8.88c.62-.78.15-2.34-.62-2.34H780.44a.81.81,0,0,0-.62.31l-7,8.88C772.21,112.17,772.52,113.57,773.45,113.57Z" style="fill: #5d5858"/>
        <path id="Path_1240" data-name="Path 1240" d="M853.74,113.57h68.49a.83.83,0,0,0,.62-.31l7-8.88c.62-.78.15-2.34-.62-2.34H860.73a.81.81,0,0,0-.62.31l-7,8.88C852.34,112.17,852.81,113.57,853.74,113.57Z" style="fill: #5d5858"/>
        <g id="Group_256" data-name="Group 256">
          <path id="Path_1241" data-name="Path 1241" d="M693.18,112.08h68.49a.81.81,0,0,0,.62-.31l7-8.88c.62-.78.16-2.34-.62-2.34H700.17a.83.83,0,0,0-.62.31l-7,8.88C691.94,110.52,692.41,112.08,693.18,112.08Z" style="fill: #949393"/>
        </g>
        <g id="Group_257" data-name="Group 257">
          <path id="Path_1242" data-name="Path 1242" d="M773.45,112.08h68.48a.81.81,0,0,0,.62-.31l7-8.88c.62-.78.16-2.34-.62-2.34H780.43a.83.83,0,0,0-.62.31l-7,8.88C772.2,110.52,772.67,112.08,773.45,112.08Z" style="fill: #949393"/>
        </g>
        <g id="Group_258" data-name="Group 258">
          <path id="Path_1243" data-name="Path 1243" d="M853.65,112.08h68.49a.81.81,0,0,0,.62-.31l7-8.88c.62-.78.16-2.34-.62-2.34H860.64a.83.83,0,0,0-.62.31l-7,8.88C852.41,110.52,852.88,112.08,853.65,112.08Z" style="fill: #949393"/>
        </g>
        <g id="Group_259" data-name="Group 259">
          <path id="Path_1244" data-name="Path 1244" d="M711.77,108.75h2.33v-5.14h-.62l-1.09,1.56-.62-.93,1.4-1.87h2.17v6.38h1.71v1.41h-5.13l-.15-1.41Z" style="fill: #fff"/>
          <path id="Path_1245" data-name="Path 1245" d="M743.14,107.51V110h-5.28v-2.18l1.55-2.34h1.71l.93-1.24-.62-.78h-2.17l-.78,1.09-.62-.94,1.09-1.4h3.26l1.4,2-1.87,2.65H740l-.77,1.24v.62h3.1v-1.24Z" style="fill: #fff"/>
        </g>
        <g id="Group_260" data-name="Group 260">
          <path id="Path_1246" data-name="Path 1246" d="M771,87.13V61.73h18.17l4.35,4.21v7.17l-4.35,4.2h-16V87H771Zm2.17-11.69h14.91l3-3V66.72l-3-3H773.14Z" style="fill: #fff"/>
          <path id="Path_1247" data-name="Path 1247" d="M822.68,87.13H803.89V61.73h2.18V85.1h16.61v2Z" style="fill: #fff"/>
          <path id="Path_1248" data-name="Path 1248" d="M853,87.13V78.4H833.55v8.73h-2.17V68.9l7.3-7.32H848l7.3,7.32V87.13ZM846.91,63.6h-7.3l-6.06,6.08v6.7h19.57V69.83Z" style="fill: #fff"/>
          <path id="Path_1249" data-name="Path 1249" d="M888.69,61.73V67L877.35,78.25v9H875v-9L863.68,67v-5.3H866v4.36l10.25,10.29,10.25-10.29V61.73Z" style="fill: #fff"/>
        </g>
        <g id="Group_261" data-name="Group 261">
          <path id="Path_1250" data-name="Path 1250" d="M794.46,103.46l.93-1.25h3.41l1.4,2-1.4,2,1.4,2-1.4,1.87h-3.57l-.77-1.1.77-1.09.62.94h2.33l.62-.78L798,107H795.7v-1.25H798l.77-1.09-.62-.93h-2.33l-.62.93Z" style="fill: #fff"/>
          <path id="Path_1251" data-name="Path 1251" d="M824.43,110v-1.87h-3.57v-2l2.79-3.9h1.87v4.67h1.39v1.25h-1.39V110Zm-.47-6.39-2,2.81v.46h2.33v-3.42Z" style="fill: #fff"/>
        </g>
        <g id="Group_262" data-name="Group 262">
          <path id="Path_1252" data-name="Path 1252" d="M880.37,110.13H876.8L876,109l.62-.94.62.78h2.49l.46-.62v-.78l-.46-.62h-3.42v-4.37h4.82v1.41h-3.73v1.71h3l1.09,1.4v1.87Z" style="fill: #fff"/>
          <path id="Path_1253" data-name="Path 1253" d="M903.51,105.92l.31-.47h3.11l.93,1.41v2l-.93,1.4h-3.42l-1.09-1.56v-4.67l1.24-1.71h3.27l.77,1.09-.62.93-.62-.78h-2.33l-.62.94v1.4Zm0,1.56V108l.62.77h2.33l.47-.62v-.93l-.47-.63h-2.33Z" style="fill: #fff"/>
        </g>
        <path id="Path_1254" data-name="Path 1254" d="M600.91,73.22l-5.44,2.18V73.22l-7,2.65,7,3.12v-2.5l5.44,2.5Z" style="fill: #fff"/>
        <path id="Path_1255" data-name="Path 1255" d="M619.85,76.34l-7-3.12v2.49l-5.44-2.49v5.92l5.44-2v2Z" style="fill: #fff"/>
        <path id="Path_1256" data-name="Path 1256" d="M617.68,49.85,605.1,44.09V54.53Z" style="fill: #fff"/>
        <path id="Path_1257" data-name="Path 1257" d="M587.09,78.21h-.16a.34.34,0,0,1-.31-.32h0V74.31a.34.34,0,0,1,.31-.31h.16a.34.34,0,0,1,.31.31v3.58c0,.32-.16.32-.31.32Z" style="fill: #fff"/>
        <g id="Group_263" data-name="Group 263">
          <path id="Path_1258" data-name="Path 1258" d="M609.84,108.15h-1.4a.33.33,0,0,1-.31-.31h0V98.33a.33.33,0,0,1,.31-.31h1.4a.34.34,0,0,1,.31.31h0v9.51a.34.34,0,0,1-.31.31Z" style="fill: #fff"/>
          <path id="Path_1259" data-name="Path 1259" d="M614.34,108.15h-1.4a.34.34,0,0,1-.31-.31h0V98.33a.34.34,0,0,1,.31-.31h1.4a.33.33,0,0,1,.31.31h0v9.51a.33.33,0,0,1-.31.31Z" style="fill: #fff"/>
        </g>
        <path id="Path_1260" data-name="Path 1260" d="M621.25,78.21h-.15a.33.33,0,0,1-.31-.32h0V74.31a.33.33,0,0,1,.31-.31h.15a.33.33,0,0,1,.31.31v3.58C621.56,78.21,621.41,78.21,621.25,78.21Z" style="fill: #fff"/>
        <path id="Path_1261" data-name="Path 1261" d="M645.79,106.56a36.57,36.57,0,0,1-18-30.85A34.27,34.27,0,0,1,636,52.81,27.53,27.53,0,0,1,644.39,46h0a2.2,2.2,0,0,0,.93-2.81,2,2,0,0,0-2.64-.93h0A35.07,35.07,0,0,0,633.21,50a38.12,38.12,0,0,0-5.75,8.88H596.4a2,2,0,0,0,0,4h29.51a39.84,39.84,0,0,0-2,12.77,37.43,37.43,0,0,0,2,12.47H596.4a2,2,0,0,0,0,4h30.91a49.82,49.82,0,0,0,6.37,9.66,42.58,42.58,0,0,0,10.09,8.25,1.91,1.91,0,0,0,.93.16,2.39,2.39,0,0,0,1.87-1.09,1.87,1.87,0,0,0-.78-2.65Z" style="fill: #c7c8ca"/>
        <g id="Group_265" data-name="Group 265">
          <g id="Group_264" data-name="Group 264">
            <path id="Path_1262" data-name="Path 1262" d="M710.05,143.14a.42.42,0,0,0,.47-.47.41.41,0,0,0-.47-.46.4.4,0,0,0-.46.46A.49.49,0,0,0,710.05,143.14Z" style="fill: #646465"/>
          </g>
        </g>
        <ellipse id="Ellipse_171" data-name="Ellipse 171" cx="663.65" cy="76.96" rx="36.81" ry="36.92" style="fill: #3e3e3e"/>
        <ellipse id="Ellipse_172" data-name="Ellipse 172" cx="662.25" cy="75.4" rx="36.03" ry="36.14" style="fill: #646465"/>
        <ellipse id="Ellipse_173" data-name="Ellipse 173" cx="682.29" cy="87.55" rx="5.9" ry="5.92" style="fill: #2a2929"/>
      </g>
      <rect width="980" height="349" style="fill: none"/>
    </g>
  </g>
</svg>
