<svg xmlns="http://www.w3.org/2000/svg" width="125.18" height="105.02" viewBox="0 0 125.18 105.02">
  <title>connect</title>
  <g id="Layer_2" data-name="Layer 2">
    <g id="Layer_1-2" data-name="Layer 1">
      <g id="Group_303" data-name="Group 303">
        <g id="Group_302" data-name="Group 302">
          <path id="Path_1332" data-name="Path 1332" d="M76,87.79h0L43.21,54.93h-.3A8.92,8.92,0,0,1,34,46a8.76,8.76,0,0,1,2.59-6.31L59.19,17.05,51.6,9.54h0a30.17,30.17,0,0,0-43.33,42,5.11,5.11,0,0,1,.69.8H9l51.22,51.4a4.45,4.45,0,1,0,6.29-6.31h0L27.14,57.73a2.14,2.14,0,0,1-.6-2.1A2.19,2.19,0,0,1,28.13,54a2,2,0,0,1,2.1.61L69.57,94.1a4.5,4.5,0,0,0,6.29,0h0A4.45,4.45,0,0,0,76,87.79Z" style="fill: #f34500"/>
          <path id="Path_1333" data-name="Path 1333" d="M85.34,78.27,54.39,47.21,49.2,52.42a10.59,10.59,0,0,1-1.2,1L79.05,84.68h0a4.41,4.41,0,0,0,6.29-.1,4.54,4.54,0,0,0,0-6.31Z" style="fill: #f34500"/>
          <path id="Path_1334" data-name="Path 1334" d="M94.83,68.85l-31-31.16L57.49,44,88.54,75.17h0a4.52,4.52,0,0,0,6.29,0h0a4.46,4.46,0,0,0,0-6.32Z" style="fill: #f34500"/>
          <path id="Path_1335" data-name="Path 1335" d="M116.1,8.94a29.8,29.8,0,0,0-41.74-.81L63.88,18.65h0L39.72,42.9A4.45,4.45,0,1,0,46,49.21h0L52.8,42.4h0L62.18,33h0l7.39-7.41a2.61,2.61,0,0,1,1.7-.7,2.05,2.05,0,0,1,1.59.8c0,.1,5.9,7,13.58,7.41a17,17,0,0,0,13-6,2.2,2.2,0,0,1,3.1,3.11,21.49,21.49,0,0,1-16.38,7.21A25.1,25.1,0,0,1,71,30.18l-4.2,4.31L98,65.65h0a10.39,10.39,0,0,1,1.7,2.4l17-17,.2-.2A30.06,30.06,0,0,0,116.1,8.94Z" style="fill: #4f4f4f"/>
        </g>
      </g>
      <rect x="0.18" y="0.02" width="125" height="105" style="fill: none"/>
    </g>
  </g>
</svg>
