<svg xmlns="http://www.w3.org/2000/svg" width="131" height="131" viewBox="0 0 131 131">
  <title>facebook-chrt</title>
  <g id="Layer_2" data-name="Layer 2">
    <g id="facebook">
      <path id="facebook-2" d="M113.88,1H17.13A16.11,16.11,0,0,0,1,17.12v96.75A16.12,16.12,0,0,0,17.13,130H65.5V85.63H49.38V65.5H65.5V49.37A24.15,24.15,0,0,1,89.64,25.24h16.12V45.37h-8c-4.41,0-8-.4-8,4.11V65.6h20.13l-8,20.13H89.74V130h24.14A16.11,16.11,0,0,0,130,113.87V17.12A16.18,16.18,0,0,0,113.88,1Z" style="fill: #4f4f4f"/>
      <rect width="131" height="131" style="fill: none"/>
    </g>
  </g>
</svg>
