<svg xmlns="http://www.w3.org/2000/svg" width="972" height="162" viewBox="0 0 972 162">
  <title>gender-hdr</title>
  <g id="Layer_2" data-name="Layer 2">
    <g id="Layer_1-2" data-name="Layer 1">
      <g id="Group_438" data-name="Group 438">
        <g id="Group_419" data-name="Group 419">
          <path id="Path_1758" data-name="Path 1758" d="M895.41,96.21,871,89.49H848.78L824.4,96.21a8.29,8.29,0,0,0-6.18,8V159a2.79,2.79,0,0,0,2.83,2.83h80.54V104.17A8.72,8.72,0,0,0,895.41,96.21Z" style="fill: #959595"/>
          <rect id="Rectangle_477" data-name="Rectangle 477" x="845.95" y="78.34" width="27.73" height="22.28" style="fill: #fad098"/>
          <path id="Path_1759" data-name="Path 1759" d="M846,86.13a30.65,30.65,0,0,0,27.73,0V78.34H846Z" style="fill: #d7af7d"/>
          <path id="Path_1760" data-name="Path 1760" d="M884.81,47.92V31.3h-50V47.92a5.58,5.58,0,0,0-.18,11.15h.18a24.9,24.9,0,1,0,49.8,0,5.55,5.55,0,0,0,5.48-5.66,5.06,5.06,0,0,0-5.3-5.49Z" style="fill: #ffe1b4"/>
          <path id="Path_1761" data-name="Path 1761" d="M848.78,58.89V31.12H834.83V47.75a5.57,5.57,0,0,0-.18,11.14h.18a24.89,24.89,0,0,0,24.9,24.94h0a22.66,22.66,0,0,0,6.89-1.06A24.73,24.73,0,0,1,848.78,58.89Z" style="fill: #fad098"/>
          <path id="Path_1762" data-name="Path 1762" d="M859.91,72.86A9.87,9.87,0,0,1,852.13,69a2.76,2.76,0,0,1,4.24-3.54,4.26,4.26,0,0,0,6,.89c.35-.18.53-.53.88-.89A2.76,2.76,0,0,1,867.5,69h0A9.28,9.28,0,0,1,859.91,72.86Z" style="fill: #d7af7d"/>
          <g id="Group_412" data-name="Group 412">
            <path id="Path_1763" data-name="Path 1763" d="M848.8,58.92A2.8,2.8,0,0,1,846,56.09V53.44a2.83,2.83,0,1,1,5.65,0v2.83a2.75,2.75,0,0,1-2.82,2.65Z" style="fill: #64463c"/>
            <path id="Path_1764" data-name="Path 1764" d="M871.05,58.92a2.8,2.8,0,0,1-2.83-2.83V53.44a2.83,2.83,0,0,1,5.66,0h0v2.83a3,3,0,0,1-2.83,2.65Z" style="fill: #64463c"/>
          </g>
          <path id="Path_1765" data-name="Path 1765" d="M878.63,45.27a4.55,4.55,0,0,0,5.3,2.65c.35,0,.53-.17.88-.17a7.51,7.51,0,0,1,2.83.7V31.12A11,11,0,0,0,882,21.39a8.19,8.19,0,0,0-8.12-7.07H851.6a19.38,19.38,0,0,0-19.42,19.45V48.63a5.16,5.16,0,0,1,2.82-.71,2.18,2.18,0,0,1,1.06.18,5.16,5.16,0,0,0,6-3.71h0l.88-7.26a2.74,2.74,0,0,1,3-2.47h.36a59.69,59.69,0,0,0,27.37,0A2.82,2.82,0,0,1,877,36.6v.18l1.06,6.54A4.89,4.89,0,0,0,878.63,45.27Z" style="fill: #eaecd3"/>
          <g id="Group_413" data-name="Group 413">
            <path id="Path_1766" data-name="Path 1766" d="M818.22,104.32v54.83a2.8,2.8,0,0,0,2.83,2.83h13.78V122a13.82,13.82,0,0,0-3-8.49L820.34,98.66A9.35,9.35,0,0,0,818.22,104.32Z" style="fill: #4f4f4f"/>
            <path id="Path_1767" data-name="Path 1767" d="M901.41,104.32V161.8h-16.6V122a13.87,13.87,0,0,1,3-8.49l11.48-14.85A8.32,8.32,0,0,1,901.41,104.32Z" style="fill: #4f4f4f"/>
          </g>
          <path id="Path_1768" data-name="Path 1768" d="M851.6,14.5A19.38,19.38,0,0,0,832.18,34V48.63a5.16,5.16,0,0,1,2.82-.71,2.18,2.18,0,0,1,1.06.18,5.16,5.16,0,0,0,6-3.71l.88-7.26a2.74,2.74,0,0,1,3-2.47h.36c.7.18,1.59.35,2.65.53V31.12a16.58,16.58,0,0,1,16.6-16.62Z" style="fill: #d4d9a8"/>
          <g id="Group_414" data-name="Group 414">
            <path id="Path_1769" data-name="Path 1769" d="M851.57,128.52a2.83,2.83,0,0,1,0-5.66h0a2.83,2.83,0,0,1,0,5.66Z" style="fill: #727272"/>
            <path id="Path_1770" data-name="Path 1770" d="M851.57,150.63a2.83,2.83,0,0,1,0-5.66h0a2.83,2.83,0,0,1,0,5.66Z" style="fill: #727272"/>
            <path id="Path_1771" data-name="Path 1771" d="M851.57,139.49a2.8,2.8,0,0,1-2.83-2.83,2.76,2.76,0,0,1,2.83-2.66h0a2.8,2.8,0,0,1,2.83,2.83,2.76,2.76,0,0,1-2.83,2.66Z" style="fill: #727272"/>
          </g>
          <rect id="Rectangle_478" data-name="Rectangle 478" x="857.08" y="100.63" width="5.48" height="61.19" style="fill: #4f4f4f"/>
          <path id="Path_1772" data-name="Path 1772" d="M945.21,28.64a8.16,8.16,0,0,0,.71-3c0-6.19-6.18-11.14-13.78-11.14s-13.95,4.95-13.95,11.14a8.29,8.29,0,0,0,.53,3,30.48,30.48,0,0,0-17.31,27.42h0A24.9,24.9,0,0,0,926.31,81h11.13a24.9,24.9,0,0,0,24.91-24.94h0A30,30,0,0,0,945.21,28.64Z" style="fill: #785546"/>
          <path id="Path_1773" data-name="Path 1773" d="M920.84,45.09A19.48,19.48,0,0,1,936.56,26a41.7,41.7,0,0,0-4.59-.35,48.44,48.44,0,0,0-5,.35,9.31,9.31,0,0,1-.53-3.18,10.58,10.58,0,0,1,4.59-8.31c-7.24.35-13.07,5.12-13.07,11a8.39,8.39,0,0,0,.53,3,30.48,30.48,0,0,0-17.31,27.41h0a24.89,24.89,0,0,0,24.91,24.94h5.47V64.55L920.49,53.41l.35-8.32Z" style="fill: #64463c"/>
          <path id="Path_1774" data-name="Path 1774" d="M965.52,115.31l-19.07-7.61a5.54,5.54,0,0,1-3.53-5.13V92.49H920.84v10.08a5.54,5.54,0,0,1-3.53,5.13l-19.08,7.61a8.26,8.26,0,0,0-5.3,7.78v11a2.8,2.8,0,0,0,2.83,2.83h0v22.28a2.8,2.8,0,0,0,2.83,2.83h66.76a2.79,2.79,0,0,0,2.82-2.83V136.71h0a2.8,2.8,0,0,0,2.83-2.83v-11A8.66,8.66,0,0,0,965.52,115.31Z" style="fill: #e6af78"/>
          <g id="Group_415" data-name="Group 415">
            <path id="Path_1775" data-name="Path 1775" d="M895.92,134v8.31h2.83a2.79,2.79,0,0,1,2.82,2.83v16.62h8.31V134Z" style="fill: #d29b6e"/>
            <path id="Path_1776" data-name="Path 1776" d="M968.16,134v8.31h-2.83a2.79,2.79,0,0,0-2.82,2.83v16.62h-8.3V134Z" style="fill: #d29b6e"/>
          </g>
          <path id="Path_1777" data-name="Path 1777" d="M965.52,115.13l-15.71-6.37A47.86,47.86,0,0,1,932,125.57a47.79,47.79,0,0,1-17.84-16.81l-15.72,6.37a8.27,8.27,0,0,0-5.3,7.78v11a2.8,2.8,0,0,0,2.83,2.83h11.12v25.11h50V136.71h11.12a2.8,2.8,0,0,0,2.83-2.83v-11A9.12,9.12,0,0,0,965.52,115.13Z" style="fill: #f39c79"/>
          <path id="Path_1778" data-name="Path 1778" d="M920.84,101.34a30.22,30.22,0,0,0,22.25,0v-9H920.84v9Z" style="fill: #d29b6e"/>
          <path id="Path_1779" data-name="Path 1779" d="M957.05,72.86c0-18.39-19.78-12-33.74-20.52a2.79,2.79,0,0,0-3.71.89c-2.12,3.18-6.53,8.49-12.18,8.67a5.55,5.55,0,0,0-5.66,5.48h0a5.51,5.51,0,0,0,5.48,5.48h0a18.65,18.65,0,0,0,.71,5.48,24.91,24.91,0,0,0,48.57,0A54.17,54.17,0,0,0,957.05,72.86Z" style="fill: #f0c087"/>
          <path id="Path_1780" data-name="Path 1780" d="M920.84,72.86V52a2.74,2.74,0,0,0-1.41,1.06c-2.12,3.19-6.54,8.49-12.19,8.67a5.54,5.54,0,0,0-5.65,5.48h0a5.5,5.5,0,0,0,5.47,5.48h0a18.71,18.71,0,0,0,.71,5.49,25.12,25.12,0,0,0,24.37,19.45A22.35,22.35,0,0,0,939,96.56,24.42,24.42,0,0,1,920.84,72.86Z" style="fill: #e6af78"/>
          <path id="Path_1781" data-name="Path 1781" d="M932,86.83a9.84,9.84,0,0,1-7.77-3.89,2.76,2.76,0,1,1,4.23-3.54,4.26,4.26,0,0,0,6,.89c.35-.18.53-.53.88-.89a2.76,2.76,0,0,1,4.24,3.54h0A10.31,10.31,0,0,1,932,86.83Z" style="fill: #d29b6e"/>
          <g id="Group_416" data-name="Group 416">
            <path id="Path_1782" data-name="Path 1782" d="M943.18,72.83A2.8,2.8,0,0,1,940.35,70V67.35a2.83,2.83,0,1,1,5.65,0v2.83a3,3,0,0,1-2.82,2.65Z" style="fill: #64463c"/>
            <path id="Path_1783" data-name="Path 1783" d="M920.92,72.83A2.79,2.79,0,0,1,918.1,70V67.35a2.83,2.83,0,1,1,5.65,0v2.83a2.76,2.76,0,0,1-2.83,2.65Z" style="fill: #64463c"/>
          </g>
          <g id="Group_417" data-name="Group 417">
            <path id="Path_1784" data-name="Path 1784" d="M907.07,133.57a5.48,5.48,0,0,0-1.59-3.89l-11.12-11.14a9.73,9.73,0,0,0-1.24,4.42v11a2.8,2.8,0,0,0,2.83,2.83h11.12v-3.18Z" style="fill: #f35618"/>
            <path id="Path_1785" data-name="Path 1785" d="M957.06,133.57a5.48,5.48,0,0,1,1.59-3.89l11-11.14a7.61,7.61,0,0,1,1.23,4.42v11a2.79,2.79,0,0,1-2.82,2.83H956.88l.18-3.18Z" style="fill: #f35618"/>
          </g>
          <g id="Group_418" data-name="Group 418">
            <path id="Path_1786" data-name="Path 1786" d="M845.55,88.78l14.3,11.85-9,6.72a2.82,2.82,0,0,1-3.89-.53l-8-10.08a2.69,2.69,0,0,1-.18-3.36l2.65-4.07a2.83,2.83,0,0,1,3.89-.71A.18.18,0,0,1,845.55,88.78Z" style="fill: #333"/>
            <path id="Path_1787" data-name="Path 1787" d="M874.16,88.78l-14.31,11.85,9,6.72a2.82,2.82,0,0,0,3.89-.53l8.12-10.26a2.93,2.93,0,0,0,.18-3.36l-2.65-4.07a3,3,0,0,0-3.89-.88C874.34,88.6,874.16,88.6,874.16,88.78Z" style="fill: #333"/>
          </g>
        </g>
        <g id="Group_411" data-name="Group 411">
          <path id="Path_1712" data-name="Path 1712" d="M800.55,82.48l-4.42,3H790a7.06,7.06,0,0,1,.18,1.94,8,8,0,1,1-16.07.18v-.53a5.76,5.76,0,0,0-7.95,0v.35a7.92,7.92,0,0,1-8,8,8.14,8.14,0,0,1-2.83-.53c2.83,12.73,9.89,22.28,18.73,24.23a28.4,28.4,0,0,1-3.89.35,26.46,26.46,0,0,0,18-7.25,36.24,36.24,0,0,0,10.24-16.8c3.18-.18,5.65-3.71,5.65-8a9.48,9.48,0,0,0-2.29-6.37A3.17,3.17,0,0,1,800.55,82.48ZM762.4,104.59a1.89,1.89,0,0,1,2.65-1.06h0a13.36,13.36,0,0,0,10.42,0,2,2,0,0,1,1.59,3.71,17.62,17.62,0,0,1-13.42,0,2.1,2.1,0,0,1-1.24-2.65Z" style="fill: #ffe6d2"/>
          <path id="Path_1713" data-name="Path 1713" d="M766.28,125.46h8l13.6-10.26c.18-.18.18-.18.36-.18v-2.83a26.25,26.25,0,0,1-36,0V115a.63.63,0,0,1,.36.18Z" style="fill: #ffb996"/>
          <path id="Path_1714" data-name="Path 1714" d="M758.34,79.47a8,8,0,0,1,6.53,3.36,11.33,11.33,0,0,1,11,0A8,8,0,0,1,787,81.06l.53.53h7.77l-3.18-14L788,71.69c-10.25-2.83-25.61-4.07-33.91-4.07V80.71A7.82,7.82,0,0,1,758.34,79.47Z" style="fill: #ffe6d2"/>
          <path id="Path_1715" data-name="Path 1715" d="M787.66,81.42a7.57,7.57,0,0,1,2.47,4.07h6.18l-.88-4.07Z" style="fill: #b3aba8"/>
          <path id="Path_1716" data-name="Path 1716" d="M774.23,119.09c-8.83-1.77-16.07-11.32-18.72-24.23a8,8,0,0,1-5.12-7.43c0-.71.18-1.41.18-1.94h-6.19l-4.41-3a4.71,4.71,0,0,1-1.24-1.42,8.62,8.62,0,0,0-2.29,6.37c0,4.25,2.47,7.78,5.65,8a36.16,36.16,0,0,0,10.24,16.8,27.28,27.28,0,0,0,18,7.25A28.25,28.25,0,0,0,774.23,119.09Z" style="fill: #ffd7b4"/>
          <path id="Path_1717" data-name="Path 1717" d="M777.06,107.24a2,2,0,0,0-1.59-3.71h0a13.36,13.36,0,0,1-10.42,0,2.08,2.08,0,0,0-2.65,1.06h0a2.09,2.09,0,0,0,1.06,2.65,18.08,18.08,0,0,0,13.6,0Z" style="fill: #ffb996"/>
          <path id="Path_1718" data-name="Path 1718" d="M745.27,81.42H753a5.28,5.28,0,0,1,1.23-.89V67.45h-6Z" style="fill: #ffd7b4"/>
          <path id="Path_1719" data-name="Path 1719" d="M752,46.4c.17,0,.35-.18.53-.18C752.33,46.22,752.15,46.4,752,46.4Z" style="fill: #8c5046"/>
          <path id="Path_1720" data-name="Path 1720" d="M742.79,52.94a.63.63,0,0,1,.18-.35A.63.63,0,0,0,742.79,52.94Z" style="fill: #8c5046"/>
          <path id="Path_1721" data-name="Path 1721" d="M744,51.35l.35-.35Z" style="fill: #8c5046"/>
          <path id="Path_1722" data-name="Path 1722" d="M746.15,49.58l.35-.35C746.33,49.41,746.15,49.41,746.15,49.58Z" style="fill: #8c5046"/>
          <path id="Path_1723" data-name="Path 1723" d="M742.09,53.65l.17-.35Z" style="fill: #8c5046"/>
          <path id="Path_1724" data-name="Path 1724" d="M738.55,62.49v0Z" style="fill: #8c5046"/>
          <path id="Path_1725" data-name="Path 1725" d="M738.38,63.38v0Z" style="fill: #8c5046"/>
          <path id="Path_1726" data-name="Path 1726" d="M745.44,50.11l.36-.35C745.62,49.94,745.44,49.94,745.44,50.11Z" style="fill: #8c5046"/>
          <path id="Path_1727" data-name="Path 1727" d="M744.74,50.64l.35-.35C744.91,50.47,744.91,50.64,744.74,50.64Z" style="fill: #8c5046"/>
          <path id="Path_1728" data-name="Path 1728" d="M743.5,52.06l.35-.36A.39.39,0,0,0,743.5,52.06Z" style="fill: #8c5046"/>
          <path id="Path_1729" data-name="Path 1729" d="M740.67,56c0-.18.18-.18.18-.35A.63.63,0,0,1,740.67,56Z" style="fill: #8c5046"/>
          <path id="Path_1730" data-name="Path 1730" d="M739.08,59.66c0-.17,0-.17.18-.35A.59.59,0,0,1,739.08,59.66Z" style="fill: #8c5046"/>
          <path id="Path_1731" data-name="Path 1731" d="M740.32,56.83c0-.17.18-.17.18-.35C740.32,56.66,740.32,56.66,740.32,56.83Z" style="fill: #8c5046"/>
          <path id="Path_1732" data-name="Path 1732" d="M738.73,61.61v0Z" style="fill: #8c5046"/>
          <path id="Path_1734" data-name="Path 1734" d="M741.56,54.36c0-.18.17-.18.17-.36C741.73,54.18,741.73,54.36,741.56,54.36Z" style="fill: #8c5046"/>
          <path id="Path_1735" data-name="Path 1735" d="M738.91,60.72c0-.17,0-.17.17-.35C738.91,60.37,738.91,60.55,738.91,60.72Z" style="fill: #8c5046"/>
          <path id="Path_1736" data-name="Path 1736" d="M741,55.24c0-.17.17-.17.17-.35C741.2,55.07,741.2,55.07,741,55.24Z" style="fill: #8c5046"/>
          <path id="Path_1737" data-name="Path 1737" d="M752.86,46.05c.18,0,.35-.18.53-.18A.64.64,0,0,1,752.86,46.05Z" style="fill: #8c5046"/>
          <path id="Path_1738" data-name="Path 1738" d="M751.27,46.75c.18,0,.35-.17.53-.17C751.45,46.58,751.27,46.58,751.27,46.75Z" style="fill: #8c5046"/>
          <path id="Path_1739" data-name="Path 1739" d="M750.39,47.11c.18,0,.35-.18.53-.18C750.57,46.93,750.57,46.93,750.39,47.11Z" style="fill: #8c5046"/>
          <path id="Path_1740" data-name="Path 1740" d="M739.79,57.72c0-.18,0-.18.18-.36C740,57.54,740,57.54,739.79,57.72Z" style="fill: #8c5046"/>
          <path id="Path_1741" data-name="Path 1741" d="M749.51,47.46a.63.63,0,0,1,.53-.18A.63.63,0,0,0,749.51,47.46Z" style="fill: #8c5046"/>
          <path id="Path_1742" data-name="Path 1742" d="M748.62,47.81a.64.64,0,0,0,.36-.17A.64.64,0,0,1,748.62,47.81Z" style="fill: #8c5046"/>
          <path id="Path_1743" data-name="Path 1743" d="M746.86,49.05l.35-.35Z" style="fill: #8c5046"/>
          <path id="Path_1744" data-name="Path 1744" d="M754.27,65.32v2c8.48,0,23.67,1.06,33.92,4.07l4.06-4.07,3.18,14,.88,4.07,4.42-3A4.64,4.64,0,0,0,802,80.89a5.08,5.08,0,0,0,.36-1.59v-14a20.07,20.07,0,0,0-20-20h-24a17.5,17.5,0,0,0-4.42.53.64.64,0,0,0,.53-.18l-.18,19.63Z" style="fill: #30231c"/>
          <path id="Path_1745" data-name="Path 1745" d="M738.38,64.44v0Z" style="fill: #8c5046"/>
          <path id="Path_1746" data-name="Path 1746" d="M747.56,48.52c.18-.18.53-.35.71-.53A2.41,2.41,0,0,1,747.56,48.52Z" style="fill: #8c5046"/>
          <path id="Path_1747" data-name="Path 1747" d="M766.28,131.47a2,2,0,0,0,2,1.95h4.06a2,2,0,0,0,1.94-1.95v-6h-8Z" style="fill: #ffb996"/>
          <path id="Path_1748" data-name="Path 1748" d="M769.29,133.42h-1.06a2,2,0,0,1-2-1.95v-6l-13.6-10.26c-.17-.18-.17-.18-.35-.18a2.09,2.09,0,0,0-2.65,1.06c0,.18,0,.18-.17.36l-1.24,5.13L728,127.76a7.78,7.78,0,0,0-5.65,7.6v22.11a4.11,4.11,0,0,0,4.06,4.07h42.92Z" style="fill: #bf3600"/>
          <path id="Path_1749" data-name="Path 1749" d="M812.56,127.76l-20.31-6.19L791,116.26a1.93,1.93,0,0,0-2.47-1.41c-.18,0-.18,0-.35.17a.63.63,0,0,0-.36.18l-13.6,10.26v6a2,2,0,0,1-1.94,1.95h-1.06v27.94h42.92a4.11,4.11,0,0,0,4.06-4.07V135.36A7.79,7.79,0,0,0,812.56,127.76Z" style="fill: #bf3600"/>
          <path id="Path_1750" data-name="Path 1750" d="M770.35,81.42a12.06,12.06,0,0,0-5.48,1.41,7.66,7.66,0,0,1,1.41,4.25,5.76,5.76,0,0,1,8,0,7.19,7.19,0,0,1,1.42-4.25A9.21,9.21,0,0,0,770.35,81.42Z" style="fill: #b3aba8"/>
          <path id="Path_1751" data-name="Path 1751" d="M787.66,81.42a8.17,8.17,0,0,0-5.3-2,8,8,0,0,0-8,7.61v.35a8,8,0,1,0,16.07.18v-.18c0-.71-.18-1.41-.18-1.94A13.26,13.26,0,0,0,787.66,81.42Zm-3.36,8a2,2,0,0,1-1.94,1.94h0a2,2,0,0,1-2-1.94V87.43a2,2,0,0,1,2-1.94h0a2,2,0,0,1,1.94,1.94Z" style="fill: #fff"/>
          <path id="Path_1752" data-name="Path 1752" d="M782.36,85.31h0a2,2,0,0,0-2,1.94v2a2,2,0,0,0,2,2h0a2,2,0,0,0,1.94-2v-2A2,2,0,0,0,782.36,85.31Z" style="fill: #ffb996"/>
          <path id="Path_1753" data-name="Path 1753" d="M753,81.42h-7.77l3-14-3.18,14h-.88v4.07h6.18A9,9,0,0,1,753,81.42Z" style="fill: #b3aba8"/>
          <path id="Path_1754" data-name="Path 1754" d="M766.28,87.43v-.35a7.93,7.93,0,0,0-8.3-7.61,7.52,7.52,0,0,0-3.71,1.06,7.26,7.26,0,0,0-1.23.89,7.45,7.45,0,0,0-2.47,4.07,7.06,7.06,0,0,0-.18,1.94,8,8,0,1,0,16.07.18.18.18,0,0,1-.18-.18Zm-10.06,1.95V87.43a2,2,0,0,1,1.94-1.94h0a2,2,0,0,1,1.94,1.94v1.95a2,2,0,0,1-1.94,1.94h0a2.23,2.23,0,0,1-1.94-1.94Z" style="fill: #fff"/>
          <path id="Path_1755" data-name="Path 1755" d="M758.34,91.32a2,2,0,0,0,1.94-1.94V87.43a2,2,0,0,0-1.94-1.94h0a2,2,0,0,0-2,1.94v1.95a1.77,1.77,0,0,0,2,1.94Z" style="fill: #ffb996"/>
          <path id="Path_1756" data-name="Path 1756" d="M771.23,133.42h-1.94v27.94h1.94Z" style="fill: #dcdcdc"/>
          <path id="Path_1757" data-name="Path 1757" d="M740,82.48l4.41,3V81.42h.89l3.18-14h6V45.69a.64.64,0,0,0-.53.18c-.18,0-.18,0-.35.18-.18,0-.36.17-.53.17s-.36,0-.36.18c-.17,0-.35.18-.53.18s-.17,0-.35.17c-.18,0-.35.18-.53.18l-.35.18c-.18,0-.35.17-.53.17s-.18.18-.35.18-.36.18-.53.18-.18.17-.36.17a.63.63,0,0,0-.35.18.63.63,0,0,1-.35.18c-.18.17-.53.35-.71.53l-.35.18c-.18,0-.18.17-.36.35-.17,0-.17.18-.35.18l-.35.35-.36.35-.35.36-.35.35-.36.35-.35.36-.53-.18-.35.35-.36.36-.53.53-.35.35c-.18.18-.18.36-.35.53l-.18.36c-.18.17-.18.35-.35.35,0,.18-.18.18-.18.35-.18.18-.18.36-.35.36,0,.18-.18.18-.18.35s-.18.36-.18.53-.17.18-.17.36c.17,0,0,.17,0,.35s-.18.18-.18.35-.18.36-.18.53-.17.18-.17.36a1.34,1.34,0,0,0-.36.88v.18a.94.94,0,0,0-.35.71c0,.17,0,.17-.18.35,0,.18-.17.35-.17.53s0,.18-.18.35v.89a.64.64,0,0,1-.18.53V79.3A3.28,3.28,0,0,0,740,82.48Z" style="fill: #402e26"/>
        </g>
        <g id="grandfather">
          <path id="Path_255" data-name="Path 255" d="M192.46,35.52a29.19,29.19,0,0,0-29.14,29.19h0v8.66h58.11V64.71a28.94,28.94,0,0,0-29-29.19Z" style="fill: #b5b3b1"/>
          <path id="Path_256" data-name="Path 256" d="M169.15,66h0a9.56,9.56,0,0,1,5.12-8h0s5.3-3.72,1.77-8.85a37.15,37.15,0,0,1-3.54-5.66,29.09,29.09,0,0,0-9.18,21.23v8.66h5.83V66Z" style="fill: #aaa6a2"/>
          <path id="Path_257" data-name="Path 257" d="M237.15,154.91l-5.48-27.77a11.47,11.47,0,0,0-8.48-8.67l-14.83-4.42H176.57l-14.84,4.42h0a12.41,12.41,0,0,0-7.06,5c-1.77,3-1.24,3.71-7.07,31.48-.35,1.94-.35,6.72,5.83,6.72h77.89C237.5,161.63,237.5,156.85,237.15,154.91Z" style="fill: #404040"/>
          <g id="Group_55" data-name="Group 55">
            <path id="Path_258" data-name="Path 258" d="M154,154.81c6-31.12,4.94-33.07,8.48-36.61l-.71.18h0a12.44,12.44,0,0,0-7.06,5c-1.77,3-1.24,3.72-7.07,31.48-.35,1.95-.35,6.72,5.83,6.72h6.36C153.78,161.53,153.78,156.76,154,154.81Z" style="fill: #333"/>
            <path id="Path_259" data-name="Path 259" d="M166.85,161.53v-19.8a1.86,1.86,0,1,0-3.71-.18v20Z" style="fill: #333"/>
            <path id="Path_260" data-name="Path 260" d="M221.78,161.53v-19.8a1.86,1.86,0,1,0-3.71-.18v20Z" style="fill: #333"/>
          </g>
          <path id="Path_261" data-name="Path 261" d="M202.18,104.15h0a23.29,23.29,0,0,1-19.43,0h0v6.36l5.3,12.56h9l5.3-12.56-.17-6.36Z" style="fill: #dd9554"/>
          <path id="Path_262" data-name="Path 262" d="M188.93,105.92a19.53,19.53,0,0,1-6.18-2h0v6.37l5.3,12.56h1.06l-.18-17Z" style="fill: #ce884e"/>
          <path id="Path_263" data-name="Path 263" d="M203.06,141.82a2.72,2.72,0,0,0-2.65,2.65v4.42a5.46,5.46,0,0,0,5.65,5h.18a5.33,5.33,0,0,0,5.65-5v-4.42a2.72,2.72,0,0,0-2.65-2.65Z" style="fill: #aaa6a2"/>
          <path id="Path_264" data-name="Path 264" d="M205.71,148.89v-4.42a2.71,2.71,0,0,1,2.65-2.65h-5.48a2.72,2.72,0,0,0-2.65,2.65v4.42c0,3.9,4.77,6,8.48,4.25A4.86,4.86,0,0,1,205.71,148.89Z" style="fill: #99928c"/>
          <path id="Path_265" data-name="Path 265" d="M194.4,141.82V123.07h-3.88v18.75a2,2,0,0,0,1.94,2,2.25,2.25,0,0,0,1.94-2Z" style="fill: #333"/>
          <g id="Group_56" data-name="Group 56">
            <path id="Path_266" data-name="Path 266" d="M202.2,109.92,196.73,123l4.59,3.36A1.77,1.77,0,0,0,204,126c.18-.18.18-.36.35-.54L208.38,114Z" style="fill: #aaa6a2"/>
            <path id="Path_267" data-name="Path 267" d="M182.6,109.92,188.07,123l-4.41,3.36A1.77,1.77,0,0,1,181,126c-.18-.18-.36-.36-.36-.54L176.59,114Z" style="fill: #aaa6a2"/>
          </g>
          <g id="Group_57" data-name="Group 57">
            <path id="Path_268" data-name="Path 268" d="M162,75.2c0,3.36,3.17,6,7.24,6v-12C165.12,69.19,162,71.84,162,75.2Z" style="fill: #dd9554"/>
            <path id="Path_269" data-name="Path 269" d="M223.06,75.2c0,3.36-3.18,6-7.25,6v-12C219.7,69.19,223.06,71.84,223.06,75.2Z" style="fill: #dd9554"/>
          </g>
          <g id="Group_58" data-name="Group 58">
            <path id="Path_270" data-name="Path 270" d="M162.65,72.6c-2.3,4.07,1.06,8.67,6.53,8.67V76A7.35,7.35,0,0,1,162.65,72.6Z" style="fill: #ce884e"/>
            <path id="Path_271" data-name="Path 271" d="M215.81,76v5.31c5.47,0,8.83-4.77,6.53-8.67A7.35,7.35,0,0,1,215.81,76Z" style="fill: #ce884e"/>
          </g>
          <path id="Path_272" data-name="Path 272" d="M215.78,66h0a9.57,9.57,0,0,0-5.13-8h0s-5.29-3.72-1.76-8.85a37.89,37.89,0,0,0,3.53-5.66,29,29,0,0,0-39.92,0A27.36,27.36,0,0,0,176,49.14c3.53,5.13-1.77,8.85-1.77,8.85h0a9.56,9.56,0,0,0-5.12,8h0v17.5a23.3,23.3,0,0,0,23.31,23.35,21,21,0,0,0,3.36-.18C218.43,103.26,215.6,82.92,215.78,66Z" style="fill: #ebae6d"/>
          <g id="Group_59" data-name="Group 59">
            <path id="Path_273" data-name="Path 273" d="M208.41,73.37a1.79,1.79,0,0,1,.35-2.65l5.83-4.6a1.79,1.79,0,0,1,2.65.35,2,2,0,0,1-.35,2.66l-5.83,4.59A1.8,1.8,0,0,1,208.41,73.37Z" style="fill: #9b948f"/>
            <path id="Path_274" data-name="Path 274" d="M195.69,77.26h-6.36a2.08,2.08,0,0,1-1.94-1.94,1.77,1.77,0,0,1,1.77-1.77h6.35a1.82,1.82,0,0,1,2,1.77c.17,1.06-.71,1.76-1.77,1.94Z" style="fill: #9b948f"/>
          </g>
          <path id="SVGCleanerId_0" data-name="SVGCleanerId 0" d="M181.69,67.18a8.14,8.14,0,1,0,8.12,8.14h0A7.89,7.89,0,0,0,181.69,67.18Z" style="fill: #f9ddb4"/>
          <path id="Path_275" data-name="Path 275" d="M203.06,67.18a8.14,8.14,0,1,0,8.12,8.14A8,8,0,0,0,203.06,67.18Z" style="fill: #f9ddb4"/>
          <path id="Path_276" data-name="Path 276" d="M203.06,67.18a7.91,7.91,0,0,0-6,2.66l11.48,11.49a8.11,8.11,0,0,0,.53-11.49A7.63,7.63,0,0,0,203.06,67.18Z" style="fill: #f9e6cd"/>
          <path id="Path_277" data-name="Path 277" d="M175.51,83.45V67.18h0c0-10.79,3.18-18.92,7.41-23.87h0c.18-.18,3.36-6,15.72-7.08a14.05,14.05,0,0,0-2.65-.35h0a28.48,28.48,0,0,0-23.31,7.78,27.31,27.31,0,0,0,3.53,5.66c3.54,5.13-1.76,8.84-1.76,8.84h0a9.58,9.58,0,0,0-5.13,8h0V83.63A23.32,23.32,0,0,0,192.64,107a18.85,18.85,0,0,0,3.18-.18C185.57,105.39,175.51,95.13,175.51,83.45Z" style="fill: #dd9554"/>
          <path id="Path_278" data-name="Path 278" d="M173.74,73.73l-5.83-4.6a1.89,1.89,0,0,1,2.3-3h0l5.83,4.6a1.78,1.78,0,0,1,.17,2.65,1.7,1.7,0,0,1-2.47.36Z" style="fill: #9b948f"/>
          <g id="Group_60" data-name="Group 60">
            <path id="SVGCleanerId_0-2" data-name="SVGCleanerId 0" d="M181.75,67.14a8.14,8.14,0,1,0,8.12,8.13h0A8.1,8.1,0,0,0,181.75,67.14Z" style="fill: #f9ddb4"/>
          </g>
          <path id="Path_279" data-name="Path 279" d="M181.69,67.18a7.91,7.91,0,0,0-6,2.66l11.48,11.49a8.11,8.11,0,0,0,.53-11.49A7.64,7.64,0,0,0,181.69,67.18Z" style="fill: #f9e6cd"/>
        </g>
        <g id="businessman">
          <path id="Path_297" data-name="Path 297" d="M617.26,161.53H592.53V109.36l8.3-21.93A27.61,27.61,0,0,1,628.39,115v46.69H617.26Z" style="fill: #4f4f4f"/>
          <g id="Group_65" data-name="Group 65">
            <path id="Path_298" data-name="Path 298" d="M609.09,35a8.31,8.31,0,0,1,0,16.62h-2.82V35Z" style="fill: #553a28"/>
            <path id="Path_299" data-name="Path 299" d="M606.27,51.58v11a16.52,16.52,0,0,1-13.78,16.27,13.13,13.13,0,0,1-2.65.18h-16.6a13.13,13.13,0,0,1-2.65-.18,16.65,16.65,0,0,1-13.78-16.27v-44h49.46V51.58ZM597.61,39.2a4.06,4.06,0,1,0-4.06,4.07h0a4,4,0,0,0,4.06-4.07Zm-24.73,0a4.06,4.06,0,1,0-4.06,4.07h0A4,4,0,0,0,572.88,39.2Z" style="fill: #553a28"/>
          </g>
          <path id="Path_300" data-name="Path 300" d="M592.53,18.45H556.85V2h32.86a16.41,16.41,0,0,1,16.42,16.45h-13.6Z"/>
          <path id="Path_301" data-name="Path 301" d="M600.83,87.25l-8.3,21.93-10.95-11,10.95-11Z" style="fill: #959595"/>
          <ellipse id="Ellipse_24" data-name="Ellipse 24" cx="593.42" cy="39.14" rx="4.06" ry="4.07"/>
          <path id="Path_302" data-name="Path 302" d="M592.53,109.36v52.35l-8.3-44Z" style="fill: #959595"/>
          <path id="Path_303" data-name="Path 303" d="M592.53,79.11v8.32l-10.95,11-11-11V78.94a13.89,13.89,0,0,0,2.65.17h16.43a13.94,13.94,0,0,0,2.65-.17Z" style="fill: #553a28"/>
          <path id="Path_304" data-name="Path 304" d="M592.53,109.36l-8.3,8.31,8.3,44h-21.9l8.3-44-8.3-8.31,11-11Z" style="fill: #f36831"/>
          <g id="Group_66" data-name="Group 66">
            <path id="Path_305" data-name="Path 305" d="M581.56,98.25l-10.95,11-8.3-21.93h8.3Z" style="fill: #959595"/>
            <path id="Path_306" data-name="Path 306" d="M578.73,117.53l-8.12,44V109.22Z" style="fill: #959595"/>
          </g>
          <path id="Path_307" data-name="Path 307" d="M545.9,161.53H535V114.84a27.61,27.61,0,0,1,27.56-27.59l8.3,21.93v52.35Z" style="fill: #4f4f4f"/>
          <ellipse id="Ellipse_25" data-name="Ellipse 25" cx="568.69" cy="39.14" rx="4.06" ry="4.07"/>
          <path id="Path_308" data-name="Path 308" d="M556.85,35.07V51.52H554a8.31,8.31,0,0,1,0-16.62h2.82Z" style="fill: #553a28"/>
          <g id="Group_67" data-name="Group 67">
            <rect id="Rectangle_144" data-name="Rectangle 144" x="543.07" y="112.05" width="5.48" height="49.52" style="fill: #404040"/>
            <rect id="Rectangle_145" data-name="Rectangle 145" x="614.43" y="112.05" width="5.48" height="49.52" style="fill: #404040"/>
          </g>
          <g id="Group_68" data-name="Group 68">
            <path id="Path_309" data-name="Path 309" d="M566.53,67.64l-3-4.6,8.3-5.48a2.4,2.4,0,0,1,2.65-.18L580,60.21,577.48,65l-4.06-2.13Z" style="fill: #999"/>
            <path id="Path_310" data-name="Path 310" d="M596.56,67.64,589.67,63l-4.06,2.12-2.48-4.95,5.48-2.83a3.22,3.22,0,0,1,2.83.18l8.3,5.48Z" style="fill: #999"/>
          </g>
          <g id="Group_69" data-name="Group 69">
            <rect id="Rectangle_146" data-name="Rectangle 146" x="567.8" y="10.25" width="5.48" height="8.31" style="fill: #2b2828"/>
            <rect id="Rectangle_147" data-name="Rectangle 147" x="578.75" y="10.25" width="5.48" height="8.31" style="fill: #2b2828"/>
            <rect id="Rectangle_148" data-name="Rectangle 148" x="589.7" y="10.25" width="5.48" height="8.31" style="fill: #2b2828"/>
          </g>
        </g>
        <g id="Group_400" data-name="Group 400">
          <path id="Path_1663" data-name="Path 1663" d="M536.69,146l-22.25-10.43a3.5,3.5,0,0,1-2.12-3.19v-12.2H490.77v12.2a3.5,3.5,0,0,1-2.12,3.19L466.4,146a11,11,0,0,0-6.19,9.73v.35a5.51,5.51,0,0,0,5.48,5.48h71.88a5.5,5.5,0,0,0,5.48-5.48h0v-.35A11.14,11.14,0,0,0,536.69,146Z" style="fill: #f7d291"/>
          <path id="Path_1664" data-name="Path 1664" d="M536.69,146l-13.25-6.19a25.34,25.34,0,0,1-34.26,9.55,26,26,0,0,1-9.54-9.55L466.4,146a11,11,0,0,0-6.19,9.73v.35a5.51,5.51,0,0,0,5.48,5.48h71.88a5.5,5.5,0,0,0,5.48-5.48h0v-.35A11.14,11.14,0,0,0,536.69,146Z" style="fill: #727272"/>
          <path id="Path_1665" data-name="Path 1665" d="M490.77,126.7a24.3,24.3,0,0,0,21.55,0v-6.54H490.77Z" style="fill: #f0c382"/>
          <g id="Group_397" data-name="Group 397">
            <ellipse id="Ellipse_236" data-name="Ellipse 236" cx="501.59" cy="62.5" rx="12.54" ry="12.56" style="fill: #e3aa75"/>
            <ellipse id="Ellipse_237" data-name="Ellipse 237" cx="501.59" cy="90.44" rx="28.79" ry="29.71" style="fill: #e3aa75"/>
          </g>
          <path id="Path_1666" data-name="Path 1666" d="M499.42,77C493.24,83.37,480,88,480,96.81v7.25a21.55,21.55,0,0,0,43.1,0V77Z" style="fill: #ffe1a0"/>
          <g id="Group_398" data-name="Group 398">
            <path id="Path_1667" data-name="Path 1667" d="M496.41,79.61a62.13,62.13,0,0,0,13.77,10.61A16.34,16.34,0,0,1,512,91.46c5.65,3.71,9.71,7.43,10.95,12.73V77H499.41C498.53,77.84,497.47,78.73,496.41,79.61Z" style="fill: #f7d291"/>
            <path id="Path_1668" data-name="Path 1668" d="M485.46,104V87.57c-3.18,2.65-5.48,5.48-5.48,9.2V104a21.65,21.65,0,0,0,21.55,21.57,13.89,13.89,0,0,0,2.65-.17A21.55,21.55,0,0,1,485.46,104Z" style="fill: #f7d291"/>
          </g>
          <path id="Path_1669" data-name="Path 1669" d="M501.54,114.32a9.89,9.89,0,0,1-6.89-2.3,1.75,1.75,0,0,1,2.48-2.47,8.33,8.33,0,0,0,9,0,1.71,1.71,0,0,1,2.48,0c.53.7.7,1.94,0,2.47h0A10.6,10.6,0,0,1,501.54,114.32Z" style="fill: #e3aa75"/>
          <g id="Group_399" data-name="Group 399">
            <path id="Path_1670" data-name="Path 1670" d="M491.72,101.32A1.77,1.77,0,0,1,490,99.55h0V97.61a1.77,1.77,0,1,1,3.54,0v1.77A1.82,1.82,0,0,1,491.72,101.32Z" style="fill: #6e5a64"/>
            <path id="Path_1671" data-name="Path 1671" d="M511.33,101.32a1.77,1.77,0,0,1-1.77-1.77h0V97.61a1.77,1.77,0,1,1,3.53,0v1.77a1.71,1.71,0,0,1-1.76,1.94Z" style="fill: #6e5a64"/>
          </g>
          <path id="Path_1672" data-name="Path 1672" d="M529.8,101.23a7.17,7.17,0,0,1-.17-3.89,30.5,30.5,0,0,0,.7-6.9,29.34,29.34,0,0,0-28.79-29.71,27.34,27.34,0,0,0-9.89,2c2.65,14,14,20.34,22.43,25.82,7.07,4.6,12.9,10.08,13.07,19.28a1.78,1.78,0,0,0,1.77,1.77h0a1.78,1.78,0,0,0,1.77-1.77h0A24.87,24.87,0,0,0,529.8,101.23Z" style="fill: #f5b97d"/>
          <path id="Path_1673" data-name="Path 1673" d="M476.46,141.38a28.72,28.72,0,0,0,50.34,0l-3.18-1.59a25.34,25.34,0,0,1-34.26,9.55,25.93,25.93,0,0,1-9.54-9.55Z" style="fill: #404040"/>
        </g>
        <g id="Group_404" data-name="Group 404">
          <path id="Path_1674" data-name="Path 1674" d="M355.07,114.85a50.44,50.44,0,0,0,32-11.67,3.75,3.75,0,0,0,.88-4.42,45.45,45.45,0,0,1-4.06-20h0a28.82,28.82,0,0,0-28.79-28.83h0a28.81,28.81,0,0,0-28.79,28.83h0a46.11,46.11,0,0,1-4.06,20,3.55,3.55,0,0,0,.88,4.42A51.41,51.41,0,0,0,355.07,114.85Z" style="fill: #5a4650"/>
          <path id="Path_1675" data-name="Path 1675" d="M390.22,135.19,368,124.58a3.49,3.49,0,0,1-2.12-3.18V109.19H344.29V121.4a3.49,3.49,0,0,1-2.12,3.18l-22.25,10.61a11,11,0,0,0-6.18,9.73v11.14a5.5,5.5,0,0,0,5.47,5.48H391.1a5.5,5.5,0,0,0,5.47-5.48h0V144.92A11.13,11.13,0,0,0,390.22,135.19Z" style="fill: #b67f5f"/>
          <path id="Path_1676" data-name="Path 1676" d="M344.29,115.91a24.3,24.3,0,0,0,21.55,0v-6.54H344.29Z" style="fill: #a06e50"/>
          <path id="Path_1677" data-name="Path 1677" d="M355.07,114.68h0A21.65,21.65,0,0,1,333.52,93.1V69.75h43.1V93.1a21.43,21.43,0,0,1-21.55,21.58Z" style="fill: #cd916e"/>
          <g id="Group_401" data-name="Group 401">
            <path id="Path_1678" data-name="Path 1678" d="M371.3,86a30.47,30.47,0,0,0,5.48-.53V69.74h-35.5A35.8,35.8,0,0,0,371.3,86Z" style="fill: #b67f5f"/>
            <path id="Path_1679" data-name="Path 1679" d="M339.87,93.09V69.74h-6.36V93.09a21.69,21.69,0,0,0,21.55,21.75c1.06,0,2.11-.18,3.17-.18A21.84,21.84,0,0,1,339.87,93.09Z" style="fill: #b67f5f"/>
          </g>
          <path id="Path_1680" data-name="Path 1680" d="M355.07,103.53a9.81,9.81,0,0,1-6.89-2.3,1.75,1.75,0,1,1,2.47-2.47h0a8.31,8.31,0,0,0,9,0,1.7,1.7,0,0,1,2.47,0c.53.7.71,1.94,0,2.47A10.54,10.54,0,0,1,355.07,103.53Z" style="fill: #a06e50"/>
          <g id="Group_402" data-name="Group 402">
            <path id="Path_1681" data-name="Path 1681" d="M345.25,90.51a1.78,1.78,0,0,1-1.77-1.77h0V86.79a1.77,1.77,0,1,1,3.53,0v1.77A1.82,1.82,0,0,1,345.25,90.51Z" style="fill: #5a4650"/>
            <path id="Path_1682" data-name="Path 1682" d="M364.85,90.51a1.78,1.78,0,0,1-1.77-1.77h0V86.79a1.77,1.77,0,1,1,3.54,0v1.77a1.73,1.73,0,0,1-1.77,2Z" style="fill: #5a4650"/>
          </g>
          <path id="Path_1683" data-name="Path 1683" d="M383.86,78.77a28.82,28.82,0,0,0-28.79-28.83,23.29,23.29,0,0,0-6,.71h0l-1.23.35h0a28.57,28.57,0,0,0-21.55,27.77,23.33,23.33,0,0,1-.18,3.54,25.58,25.58,0,0,0,18.19-10.26,1.9,1.9,0,0,1,2.48-.35l.17.17A35,35,0,0,0,372,82.49a32.31,32.31,0,0,0,11.66-2.13A4.81,4.81,0,0,0,383.86,78.77Z" style="fill: #64505a"/>
          <path id="Path_1684" data-name="Path 1684" d="M355.07,49.94a23.29,23.29,0,0,0-6,.71h0l-1.23.35h0a41.77,41.77,0,0,0-4.95,1.77A28.84,28.84,0,0,0,371.32,77a26.68,26.68,0,0,0,12.18-2.83A28.83,28.83,0,0,0,355.07,49.94Z" style="fill: #6e5a64"/>
          <path id="Path_1685" data-name="Path 1685" d="M390.22,135.19,375,127.94,359,144.74a5.33,5.33,0,0,1-7.59.18l-.18-.18-16.07-16.8-15.19,7.25h0l3.89,3.89a8.72,8.72,0,0,1,2.65,6.37v16.09H384V145.45a8.72,8.72,0,0,1,2.65-6.37l3.54-3.89Z" style="fill: #b9b9b9"/>
          <g id="Group_403" data-name="Group 403">
            <path id="Path_1686" data-name="Path 1686" d="M348.58,147.34a9.1,9.1,0,0,0,12.71.36l.36-.36,16.78-17.68-3.36-1.6L359,144.87a5.33,5.33,0,0,1-7.6.17l-.17-.17-16.08-16.81-3.35,1.6Z" style="fill: #dcdcdc"/>
            <path id="Path_1687" data-name="Path 1687" d="M326.32,150.7h0v10.79h3.54v-7.25a3.67,3.67,0,0,0-3.54-3.54Z" style="fill: #dcdcdc"/>
          </g>
        </g>
        <g id="Group_410" data-name="Group 410">
          <path id="Path_1688" data-name="Path 1688" d="M157.13,132.79l-24.37-11.5a3.88,3.88,0,0,1-2.3-3.54V104.49H106.8v13.26a3.88,3.88,0,0,1-2.3,3.54l-24.37,11.5a12,12,0,0,0-6.72,10.79v12.2a5.89,5.89,0,0,0,5.83,5.84h78.6a5.89,5.89,0,0,0,5.83-5.84h0v-12.2A11.56,11.56,0,0,0,157.13,132.79Z" style="fill: #f7d291"/>
          <path id="Path_1689" data-name="Path 1689" d="M157.13,132.79l-18.37-8.67-14.13,8L120,145.52a1.38,1.38,0,0,1-1.94.89c-.53-.18-.88-.53-.88-.89l-4.42-13.44-14.13-8-18.54,8.67a11.93,11.93,0,0,0-6.72,10.61v12.2a5.88,5.88,0,0,0,5.83,5.84h78.6a5.88,5.88,0,0,0,5.83-5.84h0V143.4A11.48,11.48,0,0,0,157.13,132.79Z" style="fill: #dbd9dc"/>
          <path id="Path_1690" data-name="Path 1690" d="M106.8,111.56a27.68,27.68,0,0,0,23.66,0v-7.07H106.8Z" style="fill: #f0c382"/>
          <path id="Path_1691" data-name="Path 1691" d="M95,86.8l-4.77-9.72A13.89,13.89,0,0,1,89,72.65L87.9,58.15A12,12,0,0,1,99,45.42h3.89V86.8Z" style="fill: #a06e50"/>
          <path id="Path_1692" data-name="Path 1692" d="M142.3,86.8l4.59-9.37a10.72,10.72,0,0,0,1.23-5.31V50.72a5.8,5.8,0,0,0-3.35-5.3c-9.36-4.78-23.84-5.84-33.74-6A9.78,9.78,0,0,0,101,49.13v.18h0V86.63H142.3Z" style="fill: #b67f5f"/>
          <path id="Path_1693" data-name="Path 1693" d="M101.32,61.87a23.7,23.7,0,0,0-5.47,9.9,14.59,14.59,0,0,0-.71,5.48v8.67c0,13.09,10.07,24.23,23.14,24.41a23.66,23.66,0,0,0,24-23.17V71.59a3.86,3.86,0,0,0-2.3-3.53c-12-5.49-27.38-7.26-35.68-7.26A4,4,0,0,0,101.32,61.87Z" style="fill: #ffe1a0"/>
          <g id="Group_405" data-name="Group 405">
            <path id="Path_1694" data-name="Path 1694" d="M107.87,80.87a5,5,0,1,0,4.94,4.95h0A4.93,4.93,0,0,0,107.87,80.87Z" style="fill: #fff"/>
            <path id="Path_1695" data-name="Path 1695" d="M129.42,80.87a4.94,4.94,0,0,0-4.95,4.95,4.95,4.95,0,1,0,9.89,0h0A4.83,4.83,0,0,0,129.42,80.87Z" style="fill: #fff"/>
          </g>
          <path id="Path_1696" data-name="Path 1696" d="M101,86.8V62.4a28.38,28.38,0,0,0-5.12,9.37,14.59,14.59,0,0,0-.71,5.48v8.67c0,13.09,10.07,24.23,23.14,24.41a20.91,20.91,0,0,0,3.35-.18A23.5,23.5,0,0,1,101,86.8Z" style="fill: #f7d291"/>
          <path id="Path_1697" data-name="Path 1697" d="M118.63,98.83a10.66,10.66,0,0,1-7.6-2.48,2,2,0,0,1,2.65-3h0a8.84,8.84,0,0,0,9.72,0,2,2,0,0,1,2.65,3h0A11.68,11.68,0,0,1,118.63,98.83Z" style="fill: #e3aa75"/>
          <path id="Path_1698" data-name="Path 1698" d="M107.86,83.8a2,2,0,0,1-2-2h0V79.91a1.95,1.95,0,1,1,3.89,0v1.94a1.86,1.86,0,0,1-1.94,2Z" style="fill: #5a4650"/>
          <path id="Path_1699" data-name="Path 1699" d="M101,80.79H95.14a1.95,1.95,0,0,1,0-3.89h6a2,2,0,0,1,2,1.94C102.73,80.08,102,80.79,101,80.79Z" style="fill: #aea8af"/>
          <path id="Path_1700" data-name="Path 1700" d="M129.4,83.8a2,2,0,0,1-1.94-2h0V79.91a1.95,1.95,0,1,1,3.89,0v1.94A2,2,0,0,1,129.4,83.8Z" style="fill: #5a4650"/>
          <g id="Group_406" data-name="Group 406">
            <path id="Path_1701" data-name="Path 1701" d="M142.28,80.85h-5.83a1.95,1.95,0,1,1,0-3.89h6a2,2,0,0,1,1.94,1.94,2.26,2.26,0,0,1-2.11,1.95Z" style="fill: #aea8af"/>
            <path id="Path_1702" data-name="Path 1702" d="M122.49,83.85a1.71,1.71,0,0,1-1.76-1.41A2.12,2.12,0,0,0,118.08,81a1.88,1.88,0,0,0-1.41,1.41,1.92,1.92,0,0,1-2.48,1.24,1.67,1.67,0,0,1-1.23-2.3h0a6,6,0,0,1,7.59-4.07,5.88,5.88,0,0,1,4.06,4.07,2,2,0,0,1-1.41,2.3h0A1.38,1.38,0,0,1,122.49,83.85Z" style="fill: #aea8af"/>
          </g>
          <g id="Group_407" data-name="Group 407">
            <path id="Path_1703" data-name="Path 1703" d="M107.82,90.68a8.84,8.84,0,1,1,8.83-8.84h0A8.75,8.75,0,0,1,107.82,90.68Zm0-13.79a4.95,4.95,0,1,0,0,9.9,4.94,4.94,0,0,0,5-5h0a5.06,5.06,0,0,0-5-5Z" style="fill: #c9c6ca"/>
            <path id="Path_1704" data-name="Path 1704" d="M129.37,90.68a8.84,8.84,0,1,1,8.83-8.84A8.64,8.64,0,0,1,129.37,90.68Zm0-13.79a4.94,4.94,0,0,0-5,5,4.83,4.83,0,0,0,5,5,4.94,4.94,0,0,0,4.94-5h0a4.94,4.94,0,0,0-4.94-5Z" style="fill: #c9c6ca"/>
          </g>
          <g id="Group_408" data-name="Group 408">
            <path id="Path_1705" data-name="Path 1705" d="M104.25,120.23l8.48,11.85L105,138.27a2,2,0,0,1-2.83-.36c-.17-.17-.17-.35-.35-.53l-4.59-12a1.7,1.7,0,0,1,.53-2.13l3.35-3.36a2.17,2.17,0,0,1,2.83,0C104.08,120.05,104.25,120.05,104.25,120.23Z" style="fill: #edebed"/>
            <path id="Path_1706" data-name="Path 1706" d="M133,120.23l-8.47,11.85,7.77,6.19a2,2,0,0,0,2.82-.36c.18-.17.18-.35.36-.53l4.59-12a1.71,1.71,0,0,0-.53-2.13l-3.36-3.36a2.15,2.15,0,0,0-2.82,0C133.22,120.05,133,120.05,133,120.23Z" style="fill: #edebed"/>
            <path id="Path_1707" data-name="Path 1707" d="M116.62,161.61h3.88V143.93l-.53,1.59a1.37,1.37,0,0,1-1.94.88c-.53-.17-.88-.53-.88-.88l-.53-1.59Z" style="fill: #edebed"/>
            <path id="Path_1708" data-name="Path 1708" d="M88.18,144.1,78.11,134a13.54,13.54,0,0,0-2.65,2.83l10.07,10.08a6.2,6.2,0,0,1,1.77,4.25v10.61h3.88V151.18A10,10,0,0,0,88.18,144.1Z" style="fill: #edebed"/>
            <path id="Path_1709" data-name="Path 1709" d="M151.77,146.93l10.06-10.08a10.07,10.07,0,0,0-2.65-2.83L149.12,144.1a9.34,9.34,0,0,0-2.83,6.9v10.44h3.89V150.82A5.82,5.82,0,0,1,151.77,146.93Z" style="fill: #edebed"/>
          </g>
          <g id="Group_409" data-name="Group 409">
            <path id="Path_1710" data-name="Path 1710" d="M91.1,151.76h0v9.9H95v-6a3.81,3.81,0,0,0-3.89-3.89Z" style="fill: #c9c6ca"/>
            <path id="Path_1711" data-name="Path 1711" d="M146.21,151.76h0v9.9h-3.89v-6a3.71,3.71,0,0,1,3.89-3.89Z" style="fill: #c9c6ca"/>
          </g>
        </g>
        <g id="grandmother">
          <path id="Path_237" data-name="Path 237" d="M82.42,84a10.18,10.18,0,0,1-3.71-7.43V70.68c0-17.15-13.24-32-30.38-32.89A31.71,31.71,0,0,0,15,68v8.49A9.56,9.56,0,0,1,11.24,84,17.92,17.92,0,0,0,34.73,111h24a18,18,0,0,0,24-26.88.63.63,0,0,0-.36-.18Z" style="fill: #aea8af"/>
          <path id="Path_238" data-name="Path 238" d="M82.42,84a10.18,10.18,0,0,1-3.71-7.43V70.68c0-17.15-13.24-32-30.38-32.89H46.74v73.4h12a18,18,0,0,0,24-26.89.39.39,0,0,0-.36-.35Z" style="fill: #c9c6ca"/>
          <path id="Path_239" data-name="Path 239" d="M86,132.41,61.23,120.74a4.07,4.07,0,0,1-2.3-3.54V103.76h-24V117.2a3.7,3.7,0,0,1-2.29,3.54L7.89,132.41A11.86,11.86,0,0,0,1,143.2v12.38a6,6,0,0,0,6,6H86.84a6,6,0,0,0,6-6V143.2A11.86,11.86,0,0,0,86,132.41Z" style="fill: #765a3f"/>
          <path id="Path_240" data-name="Path 240" d="M81.72,136.65,86,132.41h0l-17.3-8.14C65.47,131,57,135.77,46.92,135.77S28.38,131,25.2,124.27L7.89,132.41h0l4.24,4.24a10,10,0,0,1,3,7.08v17.86H79.07V143.73A9.58,9.58,0,0,1,81.72,136.65Z" style="fill: #f34500"/>
          <path id="Path_241" data-name="Path 241" d="M34.91,110.83a27.24,27.24,0,0,0,24,0v-7.25h-24Z" style="fill: #644f3b"/>
          <path id="Path_242" data-name="Path 242" d="M46.92,109.59h0a24.05,24.05,0,0,1-24-24h0V57.6H70.77V85.54A23.8,23.8,0,0,1,46.92,109.59Z" style="fill: #765a3f"/>
          <path id="Path_243" data-name="Path 243" d="M46.92,97.21a11.37,11.37,0,0,1-7.77-2.47,2,2,0,1,1,2.65-3h0a9.09,9.09,0,0,0,9.89,0,2,2,0,1,1,2.65,3h0A11.71,11.71,0,0,1,46.92,97.21Z" style="fill: #b67f5f"/>
          <g id="Group_51" data-name="Group 51">
            <path id="Path_244" data-name="Path 244" d="M36,82.61A2,2,0,0,1,34,80.67h0V78.55a1.95,1.95,0,1,1,3.89,0v1.94a1.83,1.83,0,0,1-2,2.12Z" style="fill: #2f282b"/>
            <path id="Path_245" data-name="Path 245" d="M57.87,82.61a2,2,0,0,1-1.94-1.94h0V78.55a1.95,1.95,0,1,1,3.89,0v1.94a2,2,0,0,1-2,2.12Z" style="fill: #2f282b"/>
          </g>
          <g id="Group_52" data-name="Group 52">
            <path id="Path_246" data-name="Path 246" d="M70.83,76.35V57.61H33.74V58l-1.42,2.48,2,2.12a43.9,43.9,0,0,0,32.49,14A29.47,29.47,0,0,0,70.83,76.35Z" style="fill: #5c4734"/>
            <path id="Path_247" data-name="Path 247" d="M29,85.55V57.61H23V85.55a24.1,24.1,0,0,0,23.67,24,23.47,23.47,0,0,0,3.36-.17A24.06,24.06,0,0,1,29,85.55Z" style="fill: #5c4734"/>
          </g>
          <g id="Group_53" data-name="Group 53">
            <path id="Path_248" data-name="Path 248" d="M15,149.58h0v12H19v-8A4.11,4.11,0,0,0,15,149.58Z" style="fill: #f36831"/>
            <path id="Path_249" data-name="Path 249" d="M78.91,149.58h0v12H74.85v-8A4,4,0,0,1,78.91,149.58Z" style="fill: #f36831"/>
          </g>
          <path id="Path_250" data-name="Path 250" d="M46.92,127.63c-6.89,0-12.89-2.83-15.36-7.42a2,2,0,1,1,3.53-1.77c1.59,3.18,6.53,5.3,11.83,5.3s10.25-2.12,11.83-5.3A2,2,0,1,1,62.46,120s0,.18-.17.18C60,124.63,54,127.63,46.92,127.63Z" style="fill: #9c969e"/>
          <path id="Path_251" data-name="Path 251" d="M48.51,37.61A31.92,31.92,0,0,0,27.85,44,44.9,44.9,0,0,0,69.71,72.45a42.12,42.12,0,0,0,9.36-1.06V70.33C78.89,53.35,65.64,38.5,48.51,37.61Z" style="fill: #dbd9dc"/>
          <g id="Group_54" data-name="Group 54">
            <path id="Path_252" data-name="Path 252" d="M54.54,38.5a37.18,37.18,0,0,0-6-.89A32,32,0,0,0,15,68v5.31A40.45,40.45,0,0,0,54.54,38.5Z" style="fill: #c9c6ca"/>
            <path id="Path_253" data-name="Path 253" d="M46.94,135.59h2v-8a2,2,0,0,0-2-1.94h0A2,2,0,0,0,45,127.63h0v8Z" style="fill: #c9c6ca"/>
          </g>
          <path id="Path_254" data-name="Path 254" d="M68.65,124.1c-3.18,6.72-11.66,11.49-21.73,11.49S28.38,130.82,25.2,124.1l-3.54,1.59c3.36,8.13,13.25,13.79,25.26,13.79s21.73-5.66,25.26-13.79Z" style="fill: #f36831"/>
        </g>
        <g id="grandmother-2" data-name="grandmother">
          <g id="Group_61" data-name="Group 61">
            <path id="Path_280" data-name="Path 280" d="M412.45,91.53a6.72,6.72,0,0,0-6.72,6.73h0a6.93,6.93,0,0,0,.71,3.18,9.08,9.08,0,0,0-4.59,11.85,9.18,9.18,0,0,0,8.3,5.3h13.6V91.53Z" style="fill: #2c2d2e"/>
            <path id="Path_281" data-name="Path 281" d="M457.48,91.53a6.72,6.72,0,0,1,6.72,6.73h0a8.36,8.36,0,0,1-.71,3,9.08,9.08,0,0,1,4.59,11.85,9.17,9.17,0,0,1-8.3,5.31h-13.6V91.53Z" style="fill: #2c2d2e"/>
          </g>
          <path id="Path_282" data-name="Path 282" d="M464.68,116.59l-15.9-8a4.31,4.31,0,0,1-2.47-4.07H423.7a4.31,4.31,0,0,1-2.47,4.07l-15.89,8a15.78,15.78,0,0,0-8.66,14.14v28.66a2.35,2.35,0,0,0,2.3,2.3h72.24a2.34,2.34,0,0,0,2.29-2.3V130.73A16.28,16.28,0,0,0,464.68,116.59Z" style="fill: #f34500"/>
          <path id="Path_283" data-name="Path 283" d="M435,118.71a22.71,22.71,0,0,0,17.48-8.31l-3.71-1.77a4.31,4.31,0,0,1-2.47-4.07H423.7a4.31,4.31,0,0,1-2.47,4.07l-3.71,1.77A22.74,22.74,0,0,0,435,118.71Z" style="fill: #fad098"/>
          <path id="Path_284" data-name="Path 284" d="M446.31,104.56H423.7a4.61,4.61,0,0,1-2.29,3.89A30.7,30.7,0,0,0,434.3,112h.53a30.35,30.35,0,0,0,13.6-3.36A5.2,5.2,0,0,1,446.31,104.56Z" style="fill: #d7af7d"/>
          <ellipse id="Ellipse_23" data-name="Ellipse 23" cx="435.01" cy="65.47" rx="31.62" ry="30.42" style="fill: #303645"/>
          <path id="Path_285" data-name="Path 285" d="M423.7,63.35a30.61,30.61,0,0,1,18-27.59,29,29,0,0,0-6.71-.71c-17.49,0-31.62,13.62-31.62,30.42S417.52,95.89,435,95.89a33.19,33.19,0,0,0,13.6-3A30.45,30.45,0,0,1,423.7,63.35Z" style="fill: #2c2d2e"/>
          <path id="Path_286" data-name="Path 286" d="M422.47,63.35a44.49,44.49,0,0,1-9.54,6.72,4.47,4.47,0,0,0-2.65,4.07v7.43c0,13.61,10.77,25.46,24.37,25.64A24.75,24.75,0,0,0,459.91,82.8v-.53c0-15.21-23-11.67-34.79-19.27A2.4,2.4,0,0,0,422.47,63.35Z" style="fill: #ffe1b4"/>
          <path id="Path_287" data-name="Path 287" d="M423.7,82.45V62.82a1.6,1.6,0,0,0-1.23.53,44.49,44.49,0,0,1-9.54,6.72,4.47,4.47,0,0,0-2.65,4.07v7.43c0,13.61,10.77,25.46,24.37,25.64a32.55,32.55,0,0,0,7.25-.88A24.79,24.79,0,0,1,423.7,82.45Z" style="fill: #fad098"/>
          <path id="Path_288" data-name="Path 288" d="M435,96.07a12.36,12.36,0,0,1-8.13-2.83,2.27,2.27,0,0,1,2.83-3.54h0a9,9,0,0,0,10.6,0,2.26,2.26,0,0,1,2.82,3.54A12.32,12.32,0,0,1,435,96.07Z" style="fill: #d7af7d"/>
          <path id="Path_289" data-name="Path 289" d="M439.42,82.45a2.44,2.44,0,0,1-1.94-1.06,3.62,3.62,0,0,0-5.12-.18l-.18.18a2.28,2.28,0,1,1-3.71-2.65A7.88,7.88,0,0,1,439.42,77a8.25,8.25,0,0,1,1.77,1.77,2.44,2.44,0,0,1-.53,3.18,1.62,1.62,0,0,1-1.24.53Z" style="fill: #7f8499"/>
          <g id="Group_62" data-name="Group 62">
            <path id="Path_290" data-name="Path 290" d="M410.76,134.36,400.69,120a15.92,15.92,0,0,0-4.06,10.61V159.3a2.34,2.34,0,0,0,2.3,2.3h13.6V139.49A11.19,11.19,0,0,0,410.76,134.36Z" style="fill: #bf3600"/>
            <path id="Path_291" data-name="Path 291" d="M459.15,134.36,469.22,120a15.61,15.61,0,0,1,4.06,10.61V159.3a2.34,2.34,0,0,1-2.29,2.3h-13.6V139.49A11.06,11.06,0,0,1,459.15,134.36Z" style="fill: #bf3600"/>
            <path id="Path_292" data-name="Path 292" d="M435,129.94a34,34,0,0,0,27.73-14.33l-4.24-2.12a29.16,29.16,0,0,1-47,0l-4.07,2.12A33.45,33.45,0,0,0,435,129.94Z" style="fill: #bf3600"/>
          </g>
          <g id="Group_63" data-name="Group 63">
            <path id="Path_293" data-name="Path 293" d="M423.69,89.24a9,9,0,1,1,9-9A9.05,9.05,0,0,1,423.69,89.24Zm0-13.44a4.56,4.56,0,0,0-4.59,4.6,4.59,4.59,0,1,0,9.18,0h0a4.56,4.56,0,0,0-4.59-4.6Z" style="fill: #959cb5"/>
            <path id="Path_294" data-name="Path 294" d="M446.3,89.24a9,9,0,1,1,9-9h0A9.05,9.05,0,0,1,446.3,89.24Zm0-13.44a4.6,4.6,0,1,0,4.59,4.6h0a4.68,4.68,0,0,0-4.59-4.6Z" style="fill: #959cb5"/>
          </g>
          <g id="Group_64" data-name="Group 64">
            <path id="Path_295" data-name="Path 295" d="M423.74,82.44a2.19,2.19,0,0,1-2.29-2.12v-.89a2.3,2.3,0,1,1,4.59,0v.89a2.2,2.2,0,0,1-2.3,2.12Z" style="fill: #64463c"/>
            <path id="Path_296" data-name="Path 296" d="M446.35,82.44a2.34,2.34,0,0,1-2.29-2.3h0v-.71a2.3,2.3,0,1,1,4.59,0v.89a2.31,2.31,0,0,1-2.3,2.12Z" style="fill: #64463c"/>
          </g>
        </g>
      </g>
      <rect width="972" height="162" style="fill: none"/>
    </g>
  </g>
</svg>
