<svg xmlns="http://www.w3.org/2000/svg" width="138" height="167" viewBox="0 0 138 167">
  <title>gender-mn</title>
  <g id="Layer_2" data-name="Layer 2">
    <g id="Layer_1-2" data-name="Layer 1">
      <g>
        <ellipse id="Ellipse_229" data-name="Ellipse 229" cx="82.2" cy="63.06" rx="55.8" ry="56.06" style="fill: #f34500"/>
        <g id="grandfather">
          <path id="Path_255" data-name="Path 255" d="M69.64,95.62A16.5,16.5,0,0,0,53.2,112.14h0v4.91H86v-4.91A16.36,16.36,0,0,0,69.64,95.62Z" style="fill: #b5b3b1"/>
          <path id="Path_256" data-name="Path 256" d="M56.49,112.84h0a5.41,5.41,0,0,1,2.89-4.5h0s3-2.1,1-5a22.14,22.14,0,0,1-2-3.2,16.45,16.45,0,0,0-5.18,12v4.91h3.29v-4.21Z" style="fill: #aaa6a2"/>
          <path id="Path_257" data-name="Path 257" d="M94.85,163.2l-3.09-15.72A6.49,6.49,0,0,0,87,142.57l-8.37-2.5H60.67l-8.37,2.5h0a7.07,7.07,0,0,0-4,2.81c-1,1.7-.7,2.1-4,17.82-.2,1.1-.2,3.8,3.29,3.8H91.57C95.05,167,95.05,164.3,94.85,163.2Z" style="fill: #404040"/>
          <g id="Group_55" data-name="Group 55">
            <path id="Path_258" data-name="Path 258" d="M47.92,163.14c3.39-17.61,2.79-18.72,4.78-20.72l-.4.1h0a7,7,0,0,0-4,2.8c-1,1.71-.7,2.11-4,17.82-.2,1.1-.2,3.81,3.29,3.81h3.59C47.82,167,47.82,164.25,47.92,163.14Z" style="fill: #333"/>
            <path id="Path_259" data-name="Path 259" d="M55.19,167V155.74a1,1,0,1,0-2.09-.1V167Z" style="fill: #333"/>
            <path id="Path_260" data-name="Path 260" d="M86.18,167V155.74a1,1,0,1,0-2.09-.1V167Z" style="fill: #333"/>
          </g>
          <path id="Path_261" data-name="Path 261" d="M75.12,134.47h0a13.11,13.11,0,0,1-11,0h0v3.6l3,7.11h5.08l3-7.11-.1-3.6Z" style="fill: #dd9554"/>
          <path id="Path_262" data-name="Path 262" d="M67.65,135.47a10.92,10.92,0,0,1-3.49-1.1h0V138l3,7.11h.6l-.1-9.61Z" style="fill: #ce884e"/>
          <path id="Path_263" data-name="Path 263" d="M75.62,155.79a1.53,1.53,0,0,0-1.49,1.5v2.5a3.07,3.07,0,0,0,3.19,2.81h.1a3,3,0,0,0,3.18-2.81v-2.5a1.53,1.53,0,0,0-1.49-1.5Z" style="fill: #aaa6a2"/>
          <path id="Path_264" data-name="Path 264" d="M77.12,159.79v-2.5a1.53,1.53,0,0,1,1.49-1.5H75.52a1.53,1.53,0,0,0-1.49,1.5v2.5c0,2.21,2.69,3.41,4.78,2.41A2.75,2.75,0,0,1,77.12,159.79Z" style="fill: #99928c"/>
          <path id="Path_265" data-name="Path 265" d="M70.74,155.79V145.18H68.55v10.61a1.1,1.1,0,0,0,1.09,1.1,1.27,1.27,0,0,0,1.1-1.1Z" style="fill: #333"/>
          <g id="Group_56" data-name="Group 56">
            <path id="Path_266" data-name="Path 266" d="M75.14,137.73l-3.09,7.41,2.59,1.9a1,1,0,0,0,1.49-.2c.1-.1.1-.2.2-.3l2.3-6.5Z" style="fill: #aaa6a2"/>
            <path id="Path_267" data-name="Path 267" d="M64.08,137.73l3.09,7.41-2.5,1.9a1,1,0,0,1-1.49-.2c-.1-.1-.2-.2-.2-.3L60.69,140Z" style="fill: #aaa6a2"/>
          </g>
          <g id="Group_57" data-name="Group 57">
            <path id="Path_268" data-name="Path 268" d="M52.42,118.08c0,1.91,1.8,3.41,4.09,3.41v-6.81C54.22,114.68,52.42,116.18,52.42,118.08Z" style="fill: #dd9554"/>
            <path id="Path_269" data-name="Path 269" d="M86.9,118.08c0,1.91-1.79,3.41-4.08,3.41v-6.81C85,114.68,86.9,116.18,86.9,118.08Z" style="fill: #dd9554"/>
          </g>
          <g id="Group_58" data-name="Group 58">
            <path id="Path_270" data-name="Path 270" d="M52.82,116.61c-1.3,2.3.6,4.91,3.69,4.91v-3A4.17,4.17,0,0,1,52.82,116.61Z" style="fill: #ce884e"/>
            <path id="Path_271" data-name="Path 271" d="M82.82,118.51v3c3.08,0,5-2.71,3.68-4.91A4.15,4.15,0,0,1,82.82,118.51Z" style="fill: #ce884e"/>
          </g>
          <path id="Path_272" data-name="Path 272" d="M82.8,112.84h0a5.43,5.43,0,0,0-2.89-4.5h0s-3-2.1-1-5a21.3,21.3,0,0,0,2-3.2,16.32,16.32,0,0,0-22.52,0,15.88,15.88,0,0,0,2,3.2c2,2.91-1,5-1,5h0a5.41,5.41,0,0,0-2.89,4.5h0v9.91A13.17,13.17,0,0,0,69.64,136a12.1,12.1,0,0,0,1.9-.1C84.29,134,82.7,122.45,82.8,112.84Z" style="fill: #ebae6d"/>
          <g id="Group_59" data-name="Group 59">
            <path id="Path_273" data-name="Path 273" d="M78.64,117.05a1,1,0,0,1,.2-1.51l3.29-2.6a1,1,0,0,1,1.49.2,1.1,1.1,0,0,1-.2,1.5l-3.29,2.61A1,1,0,0,1,78.64,117.05Z" style="fill: #9b948f"/>
            <path id="Path_274" data-name="Path 274" d="M71.46,119.25H67.88a1.18,1.18,0,0,1-1.1-1.1,1,1,0,0,1,1-1h3.58a1,1,0,0,1,1.1,1c.1.6-.4,1-1,1.1Z" style="fill: #9b948f"/>
          </g>
          <path id="SVGCleanerId_0" data-name="SVGCleanerId 0" d="M63.56,113.54a4.61,4.61,0,1,0,4.59,4.61h0A4.47,4.47,0,0,0,63.56,113.54Z" style="fill: #f9ddb4"/>
          <path id="Path_275" data-name="Path 275" d="M75.62,113.54a4.61,4.61,0,1,0,4.59,4.61A4.53,4.53,0,0,0,75.62,113.54Z" style="fill: #f9ddb4"/>
          <path id="Path_276" data-name="Path 276" d="M75.62,113.54a4.48,4.48,0,0,0-3.39,1.51l6.48,6.5a4.61,4.61,0,0,0,.3-6.5A4.32,4.32,0,0,0,75.62,113.54Z" style="fill: #f9e6cd"/>
          <path id="Path_277" data-name="Path 277" d="M60.08,122.75v-9.21h0c0-6.1,1.79-10.71,4.18-13.51h0c.1-.1,1.89-3.4,8.87-4a7.72,7.72,0,0,0-1.49-.2h0a16,16,0,0,0-13.16,4.4,15.88,15.88,0,0,0,2,3.2c2,2.91-1,5-1,5h0a5.41,5.41,0,0,0-2.89,4.5h0v9.92a13.17,13.17,0,0,0,13.15,13.21,10.87,10.87,0,0,0,1.8-.1C65.76,135.17,60.08,129.36,60.08,122.75Z" style="fill: #dd9554"/>
          <path id="Path_278" data-name="Path 278" d="M59.08,117.25l-3.29-2.6a1.07,1.07,0,0,1,1.3-1.71h0l3.28,2.61a1,1,0,0,1,.1,1.5,1,1,0,0,1-1.39.2Z" style="fill: #9b948f"/>
          <g id="Group_60" data-name="Group 60">
            <path id="SVGCleanerId_0-2" data-name="SVGCleanerId 0" d="M63.6,113.52a4.61,4.61,0,1,0,4.58,4.6h0A4.58,4.58,0,0,0,63.6,113.52Z" style="fill: #f9ddb4"/>
          </g>
          <path id="Path_279" data-name="Path 279" d="M63.56,113.54a4.45,4.45,0,0,0-3.38,1.51l6.47,6.5a4.59,4.59,0,0,0,.3-6.5A4.32,4.32,0,0,0,63.56,113.54Z" style="fill: #f9e6cd"/>
        </g>
        <g id="businessman">
          <path id="Path_297" data-name="Path 297" d="M46.44,166.65H32.49V137.11l4.68-12.41a15.61,15.61,0,0,1,15.55,15.62v26.43l-6.28-.1Z" style="fill: #4f4f4f"/>
          <g id="Group_65" data-name="Group 65">
            <path id="Path_298" data-name="Path 298" d="M41.83,95a4.71,4.71,0,0,1,0,9.41H40.24V95Z" style="fill: #553a28"/>
            <path id="Path_299" data-name="Path 299" d="M40.24,104.41v6.21a9.34,9.34,0,0,1-7.78,9.21,7.47,7.47,0,0,1-1.49.1H21.6a7.42,7.42,0,0,1-1.49-.1,9.41,9.41,0,0,1-7.78-9.21V85.69H40.24v18.72Zm-4.89-7a2.29,2.29,0,1,0-2.29,2.3h0a2.25,2.25,0,0,0,2.29-2.3Zm-14,0a2.29,2.29,0,1,0-2.29,2.3h0A2.26,2.26,0,0,0,21.4,97.41Z" style="fill: #553a28"/>
          </g>
          <path id="Path_300" data-name="Path 300" d="M32.49,85.66H12.36V76.35H30.89a9.27,9.27,0,0,1,9.27,9.31H32.49Z"/>
          <path id="Path_301" data-name="Path 301" d="M37.17,124.6,32.49,137l-6.18-6.2,6.18-6.21Z" style="fill: #959595"/>
          <ellipse id="Ellipse_24" data-name="Ellipse 24" cx="32.98" cy="97.37" rx="2.29" ry="2.3"/>
          <path id="Path_302" data-name="Path 302" d="M32.49,137.11v29.64L27.8,141.82Z" style="fill: #959595"/>
          <path id="Path_303" data-name="Path 303" d="M32.49,120v4.7l-6.18,6.21-6.18-6.21v-4.8a7.52,7.52,0,0,0,1.49.1h9.27a7.57,7.57,0,0,0,1.5-.1Z" style="fill: #553a28"/>
          <path id="Path_304" data-name="Path 304" d="M32.49,137.11l-4.69,4.71,4.69,24.93H20.13l4.68-24.93-4.68-4.71,6.18-6.2Z" style="fill: #f36831"/>
          <g id="Group_66" data-name="Group 66">
            <path id="Path_305" data-name="Path 305" d="M26.29,130.83,20.12,137l-4.69-12.42h4.69Z" style="fill: #959595"/>
            <path id="Path_306" data-name="Path 306" d="M24.7,141.74l-4.58,24.93V137Z" style="fill: #959595"/>
          </g>
          <path id="Path_307" data-name="Path 307" d="M6.18,166.65H0V140.22A15.61,15.61,0,0,1,15.55,124.6L20.23,137v29.64Z" style="fill: #4f4f4f"/>
          <ellipse id="Ellipse_25" data-name="Ellipse 25" cx="19.03" cy="97.37" rx="2.29" ry="2.3"/>
          <path id="Path_308" data-name="Path 308" d="M12.36,95.07v9.31h-1.6a4.71,4.71,0,0,1,0-9.41h0l1.6.1Z" style="fill: #553a28"/>
          <g id="Group_67" data-name="Group 67">
            <rect id="Rectangle_144" data-name="Rectangle 144" x="4.58" y="138.64" width="3.09" height="28.03" style="fill: #404040"/>
            <rect id="Rectangle_145" data-name="Rectangle 145" x="44.84" y="138.64" width="3.09" height="28.03" style="fill: #404040"/>
          </g>
          <g id="Group_68" data-name="Group 68">
            <path id="Path_309" data-name="Path 309" d="M17.82,113.5l-1.7-2.6,4.69-3.1a1.34,1.34,0,0,1,1.49-.1l3.09,1.6L24,112l-2.3-1.2Z" style="fill: #999"/>
            <path id="Path_310" data-name="Path 310" d="M34.76,113.5l-3.89-2.6-2.29,1.2-1.4-2.8,3.09-1.6a1.81,1.81,0,0,1,1.6.1l4.68,3.1Z" style="fill: #999"/>
          </g>
          <g id="Group_69" data-name="Group 69">
            <rect id="Rectangle_146" data-name="Rectangle 146" x="18.53" y="81.02" width="3.09" height="4.71" style="fill: #2b2828"/>
            <rect id="Rectangle_147" data-name="Rectangle 147" x="24.71" y="81.02" width="3.09" height="4.71" style="fill: #2b2828"/>
            <rect id="Rectangle_148" data-name="Rectangle 148" x="30.89" y="81.02" width="3.09" height="4.71" style="fill: #2b2828"/>
          </g>
        </g>
      </g>
      <rect width="138" height="167" style="fill: none"/>
      <text transform="translate(64.34 69.73)" style="font-size: 18px;fill: #fff;font-family: Ubuntu-Bold, Ubuntu;font-weight: 700">Men</text>
    </g>
  </g>
</svg>
