<svg xmlns="http://www.w3.org/2000/svg" width="138" height="167" viewBox="0 0 138 167">
  <title>gender-wmn</title>
  <g id="Layer_2" data-name="Layer 2">
    <g id="Layer_1-2" data-name="Layer 1">
      <g>
        <ellipse id="Ellipse_228" data-name="Ellipse 228" cx="79.45" cy="58.43" rx="58.55" ry="58.43" style="fill: #f34500"/>
        <g id="grandmother">
          <path id="Path_237" data-name="Path 237" d="M48.2,121.14a6,6,0,0,1-2.2-4.38v-3.44c0-10.12-7.84-18.89-18-19.41A18.75,18.75,0,0,0,8.26,111.75v5a5.63,5.63,0,0,1-2.2,4.38,10.59,10.59,0,0,0,13.91,16H34.19A10.65,10.65,0,1,0,48.4,121.25a.34.34,0,0,0-.2-.11Z" style="fill: #aea8af"/>
          <path id="Path_238" data-name="Path 238" d="M48.2,121.14a6,6,0,0,1-2.2-4.38v-3.44c0-10.12-7.84-18.89-18-19.41h-.94v43.3h7.11A10.65,10.65,0,1,0,48.4,121.35a.22.22,0,0,0-.2-.21Z" style="fill: #c9c6ca"/>
          <path id="Path_239" data-name="Path 239" d="M50.29,149.73l-14.64-6.89a2.38,2.38,0,0,1-1.36-2.08v-7.93H20.07v7.93a2.16,2.16,0,0,1-1.36,2.08L4.08,149.73A7,7,0,0,0,0,156.09v7.31a3.52,3.52,0,0,0,3.55,3.54H50.81a3.51,3.51,0,0,0,3.55-3.54v-7.31A7,7,0,0,0,50.29,149.73Z" style="fill: #765a3f"/>
          <path id="Path_240" data-name="Path 240" d="M47.78,152.23l2.51-2.5h0L40,144.93c-1.88,4-6.9,6.78-12.86,6.78s-11-2.81-12.86-6.78l-10.24,4.8h0l2.51,2.5a5.85,5.85,0,0,1,1.77,4.18v10.53H46.21V156.41A5.62,5.62,0,0,1,47.78,152.23Z" style="fill: #f34500"/>
          <path id="Path_241" data-name="Path 241" d="M20.07,137a16.21,16.21,0,0,0,14.22,0v-4.28H20.07Z" style="fill: #644f3b"/>
          <path id="Path_242" data-name="Path 242" d="M27.18,136.27h0A14.22,14.22,0,0,1,13,122.08h0V105.6H41.3v16.48A14.07,14.07,0,0,1,27.18,136.27Z" style="fill: #765a3f"/>
          <path id="Path_243" data-name="Path 243" d="M27.18,129a6.8,6.8,0,0,1-4.6-1.46,1.19,1.19,0,0,1,1.57-1.78h0a5.39,5.39,0,0,0,5.85,0,1.19,1.19,0,0,1,1.68.11,1.16,1.16,0,0,1-.11,1.67h0A7,7,0,0,1,27.18,129Z" style="fill: #b67f5f"/>
          <g id="Group_51" data-name="Group 51">
            <path id="Path_244" data-name="Path 244" d="M20.7,120.36a1.16,1.16,0,0,1-1.15-1.15h0V118a1.15,1.15,0,0,1,2.3,0v1.14a1.08,1.08,0,0,1-1.15,1.26Z" style="fill: #2f282b"/>
            <path id="Path_245" data-name="Path 245" d="M33.66,120.36a1.17,1.17,0,0,1-1.15-1.15h0V118a1.15,1.15,0,0,1,2.3,0v1.14a1.19,1.19,0,0,1-1.15,1.26Z" style="fill: #2f282b"/>
          </g>
          <g id="Group_52" data-name="Group 52">
            <path id="Path_246" data-name="Path 246" d="M41.33,116.66V105.6H19.38v.21l-.84,1.46,1.15,1.25a26.07,26.07,0,0,0,19.24,8.25A16.82,16.82,0,0,0,41.33,116.66Z" style="fill: #5c4734"/>
            <path id="Path_247" data-name="Path 247" d="M16.55,122.09V105.6H13v16.49a14.25,14.25,0,0,0,14,14.19,12.76,12.76,0,0,0,2-.11A14.21,14.21,0,0,1,16.55,122.09Z" style="fill: #5c4734"/>
          </g>
          <g id="Group_53" data-name="Group 53">
            <path id="Path_248" data-name="Path 248" d="M8.27,159.86h0V167h2.41v-4.69A2.43,2.43,0,0,0,8.27,159.86Z" style="fill: #f36831"/>
            <path id="Path_249" data-name="Path 249" d="M46.12,159.86h0V167H43.71v-4.69A2.37,2.37,0,0,1,46.12,159.86Z" style="fill: #f36831"/>
          </g>
          <path id="Path_250" data-name="Path 250" d="M27.18,146.91c-4.08,0-7.63-1.67-9.09-4.38a1.17,1.17,0,0,1,2.09-1c.94,1.88,3.87,3.13,7,3.13s6.07-1.25,7-3.13a1.19,1.19,0,1,1,2.19.94.1.1,0,0,1-.1.1C34.92,145.14,31.36,146.91,27.18,146.91Z" style="fill: #9c969e"/>
          <path id="Path_251" data-name="Path 251" d="M28.12,93.81a18.91,18.91,0,0,0-12.23,3.75,26.58,26.58,0,0,0,24.78,16.8,24.91,24.91,0,0,0,5.54-.63v-.62C46.1,103.09,38.26,94.33,28.12,93.81Z" style="fill: #dbd9dc"/>
          <g id="Group_54" data-name="Group 54">
            <path id="Path_252" data-name="Path 252" d="M31.69,94.33a22.22,22.22,0,0,0-3.55-.52A18.93,18.93,0,0,0,8.27,111.75v3.13A23.9,23.9,0,0,0,31.69,94.33Z" style="fill: #c9c6ca"/>
            <path id="Path_253" data-name="Path 253" d="M27.2,151.61h1.15v-4.7a1.16,1.16,0,0,0-1.15-1.14h0a1.15,1.15,0,0,0-1.15,1.14h0v4.7Z" style="fill: #c9c6ca"/>
          </g>
          <path id="Path_254" data-name="Path 254" d="M40,144.83c-1.88,4-6.9,6.78-12.86,6.78s-11-2.82-12.86-6.78l-2.09.94c2,4.8,7.84,8.13,15,8.13s12.86-3.33,15-8.13Z" style="fill: #f36831"/>
        </g>
        <g id="grandmother-2" data-name="grandmother">
          <g id="Group_61" data-name="Group 61">
            <path id="Path_280" data-name="Path 280" d="M59.54,125.62a4,4,0,0,0-4,4h0a4.14,4.14,0,0,0,.42,1.88,5.34,5.34,0,0,0-2.72,7,5.43,5.43,0,0,0,4.91,3.13h8.05v-16Z" style="fill: #2c2d2e"/>
            <path id="Path_281" data-name="Path 281" d="M86.2,125.62a4,4,0,0,1,4,4h0a4.94,4.94,0,0,1-.42,1.78,5.34,5.34,0,0,1,2.72,7,5.46,5.46,0,0,1-4.92,3.13h-8V125.62Z" style="fill: #2c2d2e"/>
          </g>
          <path id="Path_282" data-name="Path 282" d="M90.46,140.39l-9.41-4.69a2.55,2.55,0,0,1-1.46-2.4H66.21a2.56,2.56,0,0,1-1.47,2.4l-9.41,4.69a9.33,9.33,0,0,0-5.12,8.35v16.9A1.39,1.39,0,0,0,51.57,167H94.33a1.39,1.39,0,0,0,1.36-1.36v-16.9A9.62,9.62,0,0,0,90.46,140.39Z" style="fill: #f34500"/>
          <path id="Path_283" data-name="Path 283" d="M72.9,141.65a13.48,13.48,0,0,0,10.35-4.91l-2.2-1a2.55,2.55,0,0,1-1.46-2.4H66.21a2.56,2.56,0,0,1-1.47,2.4l-2.19,1A13.46,13.46,0,0,0,72.9,141.65Z" style="fill: #fad098"/>
          <path id="Path_284" data-name="Path 284" d="M79.59,133.3H66.21a2.75,2.75,0,0,1-1.36,2.3,18.12,18.12,0,0,0,7.63,2.08h.31a18,18,0,0,0,8-2A3.06,3.06,0,0,1,79.59,133.3Z" style="fill: #d7af7d"/>
          <ellipse id="Ellipse_23" data-name="Ellipse 23" cx="72.9" cy="110.24" rx="18.71" ry="17.95" style="fill: #303645"/>
          <path id="Path_285" data-name="Path 285" d="M66.21,109A18,18,0,0,1,76.87,92.71a17.28,17.28,0,0,0-4-.41c-10.35,0-18.72,8-18.72,17.94s8.37,18,18.72,18a19.61,19.61,0,0,0,8-1.78A18,18,0,0,1,66.21,109Z" style="fill: #2c2d2e"/>
          <path id="Path_286" data-name="Path 286" d="M65.48,109a26.44,26.44,0,0,1-5.65,4,2.62,2.62,0,0,0-1.57,2.39v4.39c0,8,6.38,15,14.43,15.13a14.63,14.63,0,0,0,15-14.4v-.32c0-9-13.59-6.88-20.6-11.37A1.41,1.41,0,0,0,65.48,109Z" style="fill: #ffe1b4"/>
          <path id="Path_287" data-name="Path 287" d="M66.21,120.26V108.68a.92.92,0,0,0-.73.31,26.44,26.44,0,0,1-5.65,4,2.62,2.62,0,0,0-1.57,2.39v4.39c0,8,6.38,15,14.43,15.13a18.94,18.94,0,0,0,4.29-.53A14.62,14.62,0,0,1,66.21,120.26Z" style="fill: #fad098"/>
          <path id="Path_288" data-name="Path 288" d="M72.9,128.29a7.29,7.29,0,0,1-4.81-1.67,1.33,1.33,0,1,1,1.67-2.08h0a5.36,5.36,0,0,0,6.27,0,1.34,1.34,0,1,1,1.68,2.08A7.29,7.29,0,0,1,72.9,128.29Z" style="fill: #d7af7d"/>
          <path id="Path_289" data-name="Path 289" d="M75.51,120.26a1.45,1.45,0,0,1-1.15-.63,2.14,2.14,0,0,0-3-.1l-.1.1a1.35,1.35,0,1,1-2.2-1.56,4.68,4.68,0,0,1,6.48-1,5.22,5.22,0,0,1,1,1,1.43,1.43,0,0,1-.32,1.88,1,1,0,0,1-.73.31Z" style="fill: #7f8499"/>
          <g id="Group_62" data-name="Group 62">
            <path id="Path_290" data-name="Path 290" d="M58.55,150.88l-6-8.45a9.39,9.39,0,0,0-2.41,6.26v16.9A1.39,1.39,0,0,0,51.54,167h8.05v-13A6.58,6.58,0,0,0,58.55,150.88Z" style="fill: #bf3600"/>
            <path id="Path_291" data-name="Path 291" d="M87.19,150.88l6-8.45a9.19,9.19,0,0,1,2.4,6.26v16.9A1.38,1.38,0,0,1,94.2,167h-8v-13A6.47,6.47,0,0,1,87.19,150.88Z" style="fill: #bf3600"/>
            <path id="Path_292" data-name="Path 292" d="M72.87,148.27a20.13,20.13,0,0,0,16.41-8.45l-2.51-1.25a17.29,17.29,0,0,1-27.81,0l-2.4,1.25A19.81,19.81,0,0,0,72.87,148.27Z" style="fill: #bf3600"/>
          </g>
          <g id="Group_63" data-name="Group 63">
            <path id="Path_293" data-name="Path 293" d="M66.2,124.26a5.32,5.32,0,1,1,5.33-5.32A5.35,5.35,0,0,1,66.2,124.26Zm0-7.93a2.7,2.7,0,0,0-2.72,2.72,2.72,2.72,0,0,0,5.44,0h0a2.7,2.7,0,0,0-2.72-2.72Z" style="fill: #959cb5"/>
            <path id="Path_294" data-name="Path 294" d="M79.58,124.26a5.32,5.32,0,1,1,5.33-5.32h0A5.35,5.35,0,0,1,79.58,124.26Zm0-7.93a2.72,2.72,0,1,0,2.72,2.72h0a2.77,2.77,0,0,0-2.72-2.72Z" style="fill: #959cb5"/>
          </g>
          <g id="Group_64" data-name="Group 64">
            <path id="Path_295" data-name="Path 295" d="M66.23,120.25A1.3,1.3,0,0,1,64.87,119v-.52a1.36,1.36,0,0,1,2.72,0V119a1.3,1.3,0,0,1-1.36,1.25Z" style="fill: #64463c"/>
            <path id="Path_296" data-name="Path 296" d="M79.61,120.25a1.38,1.38,0,0,1-1.36-1.35h0v-.42a1.36,1.36,0,0,1,2.72,0V119a1.35,1.35,0,0,1-1.36,1.25Z" style="fill: #64463c"/>
          </g>
        </g>
      </g>
      <rect width="138" height="167" style="fill: none"/>
      <text transform="translate(47 64.73)" style="font-size: 18px;fill: #fff;font-family: Ubuntu-Bold, Ubuntu;font-weight: 700"><tspan style="letter-spacing: -0.03298611111111111em">W</tspan><tspan x="16.47" y="0">omen</tspan></text>
    </g>
  </g>
</svg>
