<svg xmlns="http://www.w3.org/2000/svg" width="871" height="870.88" viewBox="0 0 871 870.88">
  <title>inline-pie-graph</title>
  <g id="Layer_2" data-name="Layer 2">
    <g id="Layer_1-2" data-name="Layer 1">
      <g id="internet-slice">
        <path id="Path_89" data-name="Path 89" d="M435.57,1C195.67,1,1,195.67,1,435.57S195.67,870.15,435.57,870.15c10,0,19.71-.3,29.71-.9L435.57,435.57Z" style="fill: #4f4f4f"/>
        <path id="Path_94" data-name="Path 94" d="M165.81,317.34,58,371.22,234.33,459.3l107.76-53.89Z" style="fill: #fff"/>
        <path id="Path_95" data-name="Path 95" d="M234.34,459.31v19.56L58,390.79V371.23Z" style="fill: #ccc"/>
        <path id="Path_96" data-name="Path 96" d="M342.12,405.42V425L234.34,478.87V459.31Z" style="fill: #b3b3b3"/>
        <path id="Path_97" data-name="Path 97" d="M327.49,432.29V537.54l-9.85,4.92V437.22Z" style="fill: #5e5f62"/>
        <path id="Path_98" data-name="Path 98" d="M317.64,437.22V542.46l-9.86-4.92V442Z" style="fill: #a5a5a4"/>
        <path id="Path_99" data-name="Path 99" d="M258.82,466.63V571.87L249,576.8V471.55Z" style="fill: #5e5f62"/>
        <path id="Path_100" data-name="Path 100" d="M249.11,471.55V576.8l-9.85-4.93V476.33Z" style="fill: #a5a5a4"/>
        <path id="Path_101" data-name="Path 101" d="M151.18,437.33v12.24l-9.85,4.93V432.41Z" style="fill: #5e5f62"/>
        <path id="Path_102" data-name="Path 102" d="M141.3,432.43v22.09l-9.85-4.92V427.5Z" style="fill: #a5a5a4"/>
        <path id="Path_103" data-name="Path 103" d="M72.78,398.13v90.61l-9.85-4.92V393.2Z" style="fill: #a5a5a4"/>
        <path id="Path_104" data-name="Path 104" d="M82.51,403v80.76l-9.85,4.93V398.1Z" style="fill: #5e5f62"/>
        <path id="Path_76" data-name="Path 76" d="M251.09,306.32l-82-47.62L161.82,265l16.27,67.77-39.41,22.69v8.66l82,47.63,48.81-28.22Z" style="fill: #d8d8da"/>
        <path id="Path_77" data-name="Path 77" d="M220.78,411.61l-82-47.62v-8.66l82,47.62Z" style="fill: #c6c5cb"/>
        <path id="Path_78" data-name="Path 78" d="M260,380.11l-82-47.62-16.27-67.78,82,47.63Z" style="fill: #acabb1"/>
        <path id="Path_79" data-name="Path 79" d="M243.77,312.49l-82-47.63,7.32-6.27,82,47.63Z" style="fill: #77767e"/>
        <path id="Path_80" data-name="Path 80" d="M251.09,306.22l18.51,77-48.82,28.21V402.8l39.41-22.69-16.27-67.77Z" style="fill: #898890"/>
        <path id="Path_81" data-name="Path 81" d="M322.45,181.07,115.54,66.86,96,71.19h0v178.7h0v24L306.33,398.28V205h0V186.59l-163.92-90,164.07,90,3.13-1-3.28,1.19V398.28l16-8.51.15-208.7Z" style="fill: #c6c5cb"/>
        <path id="Path_82" data-name="Path 82" d="M188.24,310.65c-2.69-1.49-4.78-.3-4.78,2.83a10.39,10.39,0,0,0,4.78,8.36c2.69,1.5,4.78.3,4.78-2.83A10.85,10.85,0,0,0,188.24,310.65Z" style="fill: #1d1d1f"/>
        <path id="Path_83" data-name="Path 83" d="M306.33,186.59V398.13l16-8.51V181.07Z" style="fill: #acabb1"/>
        <path id="Path_84" data-name="Path 84" d="M115.54,66.86,96,71.19l210.35,115.4,16-5.52Z" style="fill: #d8d8da"/>
        <path id="Path_85" data-name="Path 85" d="M115.54,66.86,96,71.19l210.35,115.4,16-5.52Z" style="fill: #cccccd"/>
        <path id="Path_86" data-name="Path 86" d="M306.33,371.11,96,249.89V71.19l210.35,115.4Z" style="fill: #1d1d1f"/>
        <path id="Path_87" data-name="Path 87" d="M297.07,353.79,103.59,241.53V84.63L297.07,190.92Z" style="fill: #3e3d43"/>
      </g>
      <path id="radio-podcast-slice" d="M465.13,869.25A432.9,432.9,0,0,0,636.37,821L435.57,435.57Z" style="fill: #d93e00"/>
      <path id="magazines-slice" d="M636.07,821c8.51-4.33,16.72-9.1,24.93-14L435.57,435.57Z" style="fill: #bf3600"/>
      <path id="newspaper-slice" d="M661.3,807a428.86,428.86,0,0,0,97.48-80.76L435.87,435.57Z" style="fill: #f37949"/>
      <g id="television-slice">
        <path id="tv-slice" d="M435.57,1V435.57L758.48,726.24A432.88,432.88,0,0,0,870,435.57C870.15,195.67,675.48,1,435.57,1Z" style="fill: #f39c79;opacity: 0.800000011920929;isolation: isolate"/>
        <path id="Path_1336" data-name="Path 1336" d="M669.21,343l-30,15.07h0l-32.09-16v-6l-64.2-32.1V277.93l-14-7-26,13.14-20-10-16,8.06v20l-16,8.06v86.29l16,8.06,20-10,.75-1.64,103.45,51.8v22.1l16,8.06,16-8.06v-22.4l28.06-14v6l16,8.06,16-8.06V350Z" style="fill: #f35618"/>
        <path id="Path_1337" data-name="Path 1337" d="M683.24,352.12v62.26l-76.13,38.06v-62.1Z" style="fill: #f36831"/>
        <path id="Path_1338" data-name="Path 1338" d="M591,344.06V444.38l-103.45-51.8-20.9-10.45V281.81Z" style="fill: #f37949"/>
        <path id="Path_1339" data-name="Path 1339" d="M607.11,390.24v62.1l-16-8.06V382.17Z" style="fill: #d93e00"/>
        <path id="Path_1340" data-name="Path 1340" d="M466.63,318v64.19l-16-8.06V309.92Z" style="fill: #d93e00"/>
        <path id="Path_1341" data-name="Path 1341" d="M466.63,382.13v22.09l-16-8.06V374.07Z" style="fill: #a5a5a4"/>
        <path id="Path_1342" data-name="Path 1342" d="M487.53,392.58l-.75,1.64-20,10V382.13Z" style="fill: #5e5f62"/>
        <path id="Path_1343" data-name="Path 1343" d="M607.11,452.29v22.1l-16-8.06V444.38Z" style="fill: #a5a5a4"/>
        <path id="Path_1344" data-name="Path 1344" d="M623.08,444.38v22.1l-16,8.06v-22.1Z" style="fill: #5e5f62"/>
        <path id="Path_1345" data-name="Path 1345" d="M667.27,422.29v22.09l-16-8.06v-6Z" style="fill: #a5a5a4"/>
        <path id="Path_1346" data-name="Path 1346" d="M683.24,414.23v22.09l-16,8.06V422.29Z" style="fill: #5e5f62"/>
        <path id="Path_1347" data-name="Path 1347" d="M607.07,336.08v38.07l-16,8.06V344.14Z" style="fill: #f36831"/>
        <path id="Path_1348" data-name="Path 1348" d="M542.87,279.8v24l-24-12.1Z" style="fill: #f36831"/>
        <path id="Path_117" data-name="Path 117" d="M660,288.68l57.78-28.82.44-.15L660.1,230.6,602,259.71l.45.15-.45.75v58.07l8.06,4,8.06-4v-11l34,17v18.22l8.06,4,8.06-4V324.8l34-17v11.05l8.06,4,8.06-4V267.78L710.11,272l-8.06,4,.45.74v12.1l-13-6.57L702.2,276l16.42-8.21v-8.07Zm-42.1,0v-12.1l.45-.74L631,282.11Z" style="fill: #4f4f4f"/>
        <path id="Path_118" data-name="Path 118" d="M652,316.74v8.06l-42.1-21.05v-7l1-.45Z" style="fill: #a5a5a4"/>
        <path id="Path_119" data-name="Path 119" d="M652,292.8v24l-41.05-20.6,7-3.44v-4l13-6.57Z" style="fill: #d1d4d1"/>
        <path id="Path_120" data-name="Path 120" d="M709.13,296.24l-41.06,20.6v-24l21-10.45,13,6.57v4Z" style="fill: #d1d4d1"/>
        <path id="Path_121" data-name="Path 121" d="M718.17,267.78,701.75,276l-12.69,6.27L660,296.74v-8.06L718,259.57v8.21Z" style="fill: #333"/>
        <path id="Path_122" data-name="Path 122" d="M660,288.68v8.06l-29.11-14.48L618.15,276l-8.06-4-8.36-4.18v-7l.45-.75Z" style="fill: #404040"/>
        <path id="Path_123" data-name="Path 123" d="M660,296.74V346.9l-8.06-4V292.71Z" style="fill: #959595"/>
        <path id="Path_124" data-name="Path 124" d="M668,292.72v50.16l-8.06,4V296.75Z" style="fill: #4f4f4f"/>
        <path id="Path_125" data-name="Path 125" d="M618,307.8v11.05l-8.06,4V303.77Z" style="fill: #4f4f4f"/>
        <path id="Path_126" data-name="Path 126" d="M610.24,272l-.45.74v50.16l-8.06-4V267.78Z" style="fill: #959595"/>
        <path id="Path_127" data-name="Path 127" d="M618.3,276l-.45.74v16l-8.06,4v-24l.45-.74Z" style="fill: #4f4f4f"/>
        <path id="Path_128" data-name="Path 128" d="M710.11,294.8v8.95L668,324.8v-8.06l41.06-20.6Z" style="fill: #5e5f62"/>
        <path id="Path_129" data-name="Path 129" d="M718.17,268.67v50.16l-8.06,4V272.7l-.44-.74,8.36-4.18v.89Z" style="fill: #4f4f4f"/>
        <path id="Path_130" data-name="Path 130" d="M710,303.83v19.11l-8.06-4V307.86Z" style="fill: #959595"/>
        <path id="Path_131" data-name="Path 131" d="M710,272.78v23l-1,.45-7-3.44V276.66l-.45-.75,8.06-4Z" style="fill: #959595"/>
        <path id="Path_132" data-name="Path 132" d="M637.7,237.24,615,250.53v2.39l62.85,36.27,22.69-13.28v-2.39Z" style="fill: #57565c"/>
        <path id="Path_133" data-name="Path 133" d="M700.41,273.52v2.39l-22.7,13.28v-2.38Z" style="fill: #57565c"/>
        <path id="Path_134" data-name="Path 134" d="M677.65,286.8v2.39L614.8,252.91v-2.39Z" style="fill: #77767e"/>
        <path id="Path_135" data-name="Path 135" d="M700.49,273.51,677.8,286.8,615,250.52l22.69-13.29Z" style="fill: #acabb1"/>
        <path id="Path_136" data-name="Path 136" d="M669.13,225.63l-4.78,2.83-15.22-8.8.15,37,15.22,8.81,4.78-2.69Z" style="fill: #57565c"/>
        <path id="Path_137" data-name="Path 137" d="M664.5,265.34l-15.22-8.81-.15-37,15.22,8.8Z" style="fill: #77767e"/>
        <path id="Path_138" data-name="Path 138" d="M664.35,228.46l-15.22-8.8,4.77-2.84,15.23,8.81Z" style="fill: #77767e"/>
        <path id="Path_139" data-name="Path 139" d="M664.5,265.34l-.15-37,4.78-2.83.15,37Z" style="fill: #57565c"/>
        <path id="Path_140" data-name="Path 140" d="M728,186.92,596.14,114.37l-5.22,1.19h0v91.82L723,285.45l4.92-2.68Z" style="fill: #77767e"/>
        <path id="Path_141" data-name="Path 141" d="M590.92,115.56,723,188V285.3L590.92,207.23Z" style="fill: #898890"/>
        <path id="Path_142" data-name="Path 142" d="M723,188V285.3l4.92-2.68v-95.7Z" style="fill: #77767e"/>
        <path id="Path_143" data-name="Path 143" d="M596.14,114.37l-5.22,1.19L723,188l4.92-1.05Z" style="fill: #acabb1"/>
        <path id="Path_144" data-name="Path 144" d="M593.9,120.94V205l124.66,71.95V191.1Z" style="fill: #2e2e30"/>
        <path id="Path_145" data-name="Path 145" d="M716.32,277.84c-.6-.3-1.05,0-1.05.6a2.56,2.56,0,0,0,1.05,1.94c.59.3,1,0,1-.6a2.18,2.18,0,0,0-1-1.94" style="fill: #e0e0e2"/>
      </g>
      <rect width="871" height="870.88" style="fill: none"/>
      <text transform="translate(196.14 688.25)" style="font-size: 80px;fill: #fff;font-family: HelveticaNeue, Helvetica Neue">51%<tspan style="font-size: 35px"><tspan x="0" y="42">Inte</tspan><tspan x="58.34" y="42" style="letter-spacing: 0.017996651785714284em">r</tspan><tspan x="70.63" y="42">net</tspan></tspan></text>
    </g>
  </g>
</svg>
