<svg xmlns="http://www.w3.org/2000/svg" width="195" height="193" viewBox="0 0 195 193">
  <title>laptop-wmn</title>
  <g id="Layer_2" data-name="Layer 2">
    <g id="Group_359" data-name="Group 359">
      <rect width="195" height="193" style="fill: none"/>
      <g id="Group_390" data-name="Group 390">
        <path id="Path_1612" data-name="Path 1612" d="M31.61,136V53.37A4.43,4.43,0,0,1,36,49H158.86a4.43,4.43,0,0,1,4.37,4.37V136Z"/>
        <rect id="Rectangle_466" data-name="Rectangle 466" x="38.98" y="56.25" width="117.01" height="72.36" style="fill: #fff"/>
        <path id="Path_1613" data-name="Path 1613" d="M99.29,52.62a1.87,1.87,0,1,1-1.87-1.87h0a1.84,1.84,0,0,1,1.87,1.87Z" style="fill: #3e4959"/>
        <path id="Path_1614" data-name="Path 1614" d="M98.17,52.62a.75.75,0,0,1-1.5,0,.81.81,0,0,1,.75-.75h0A.72.72,0,0,1,98.17,52.62Z" style="fill: #fff"/>
        <rect id="Rectangle_467" data-name="Rectangle 467" x="17" y="135.98" width="160.97" height="3" style="fill: #e6e5e5"/>
        <g id="Group_370" data-name="Group 370">
          <path id="Path_1615" data-name="Path 1615" d="M178,138.88a5.14,5.14,0,0,1-5.12,5.12H22.15A5.12,5.12,0,0,1,17,138.88Z" style="fill: #cccbca"/>
          <rect id="Rectangle_468" data-name="Rectangle 468" x="82.84" y="135.88" width="29.22" height="1.5" style="fill: #cccbca"/>
        </g>
        <path id="facebook" d="M109.66,81.12H88.3a3.63,3.63,0,0,0-3.62,3.62v21.37a3.63,3.63,0,0,0,3.62,3.63H99V100H95.42v-4.5H99V91.86a5.34,5.34,0,0,1,5.37-5.37H108V91h-1.88c-1,0-1.75-.12-1.75.87v3.63h4.5l-1.75,4.5h-2.62v9.75h5.37a3.6,3.6,0,0,0,3.62-3.5h0V84.87c-.37-2.13-1.87-3.75-3.87-3.75Z" style="fill: #4f4f4f"/>
        <path id="Path_1616" data-name="Path 1616" d="M74.19,109.61h-24A2.24,2.24,0,0,1,48,107.36v-24a2.24,2.24,0,0,1,2.25-2.25h24a2.24,2.24,0,0,1,2.25,2.25v24A2.24,2.24,0,0,1,74.19,109.61Z" style="fill: #bf3600"/>
        <path id="twitter" d="M73.07,89.49a10.77,10.77,0,0,1-2.62.75,4.54,4.54,0,0,0,2-2.5,8,8,0,0,1-2.88,1,4.49,4.49,0,0,0-7.74,3.12,2.63,2.63,0,0,0,.13,1,12.79,12.79,0,0,1-9.25-4.62,4.27,4.27,0,0,0,1.38,5.87,5.22,5.22,0,0,1-2-.5h0A4.43,4.43,0,0,0,55.71,98a3.57,3.57,0,0,1-1.12.12,2.23,2.23,0,0,1-.88-.12,4.73,4.73,0,0,0,4.12,3.12A8.84,8.84,0,0,1,52.34,103a2.36,2.36,0,0,1-1-.13,13,13,0,0,0,6.87,2A12.59,12.59,0,0,0,71,92.36v-.75A5.75,5.75,0,0,0,73.07,89.49Z" style="fill: #fff"/>
        <path id="rect6158" d="M125.64,80.87a5.91,5.91,0,0,0-6,6h0v16.49a5.91,5.91,0,0,0,6,6h16.49a5.91,5.91,0,0,0,6-6h0V86.87a5.91,5.91,0,0,0-6-6H125.64Z" style="fill: #f34500"/>
        <path id="path6165" d="M133.88,89.74a5.38,5.38,0,1,0,5.37,5.37A5.33,5.33,0,0,0,133.88,89.74Zm0,1.87a3.5,3.5,0,0,1,3.5,3.5,3.57,3.57,0,0,1-3.5,3.5,3.49,3.49,0,0,1-3.49-3.5,3.42,3.42,0,0,1,3.49-3.5Z" style="fill: #fff"/>
        <path id="path6167" d="M139.5,88.12a1.24,1.24,0,0,0-1.24,1.25,1.25,1.25,0,1,0,2.49,0h0C140.88,88.74,140.25,88.12,139.5,88.12Z" style="fill: #fff"/>
        <path id="path6184" d="M130.39,105.61a7.15,7.15,0,0,1-4.5-1.12,5.55,5.55,0,0,1-2.37-3.63,29.9,29.9,0,0,1-.25-5.75c0-4.37.13-5.62.5-6.75a5.65,5.65,0,0,1,2.62-3c1.5-.74,2.62-.87,8.37-.74,4.62,0,5.12.12,6.37.74a5.43,5.43,0,0,1,3,4.13,61.41,61.41,0,0,1,.13,8.25c-.13,3.25-.13,3.75-.87,5a4.87,4.87,0,0,1-1,1.24,3.5,3.5,0,0,1-1.38,1,6.62,6.62,0,0,1-2.62.63C137.63,105.61,132.14,105.74,130.39,105.61Zm8.36-1.87a3.72,3.72,0,0,0,3.25-2.13,5.52,5.52,0,0,0,.5-2.5c.13-1.5.13-6.62,0-8a4.58,4.58,0,0,0-1.12-3.37,4.27,4.27,0,0,0-3-1.13c-1-.12-8.12-.12-9.12,0a4.46,4.46,0,0,0-3,1.13,3.92,3.92,0,0,0-1.13,2.12c-.12.63-.25,8.25-.12,9.63.12,1.87.62,2.87,1.75,3.62a5.77,5.77,0,0,0,2.87.75c1.62,0,8.62-.12,9.11-.12Z" style="fill: #fff"/>
      </g>
    </g>
  </g>
</svg>
