<svg xmlns="http://www.w3.org/2000/svg" width="195" height="193" viewBox="0 0 195 193">
  <title>laptop-sports</title>
  <g id="Layer_2" data-name="Layer 2">
    <g id="Group_359" data-name="Group 359">
      <rect width="195" height="193" style="fill: none"/>
      <g>
        <path id="Path_1612" data-name="Path 1612" d="M30,143.27V58.49A4.54,4.54,0,0,1,34.45,54H160.38a4.53,4.53,0,0,1,4.48,4.49v84.78Z"/>
        <rect id="Rectangle_466" data-name="Rectangle 466" x="37.52" y="61.44" width="119.92" height="74.26" style="fill: #959595"/>
        <path id="Path_1613" data-name="Path 1613" d="M99.34,57.72a1.92,1.92,0,1,1-1.92-1.92h0a1.89,1.89,0,0,1,1.92,1.92Z" style="fill: #3e4959"/>
        <path id="Path_1614" data-name="Path 1614" d="M98.19,57.72a.77.77,0,1,1-.77-.77h0A.74.74,0,0,1,98.19,57.72Z" style="fill: #fff"/>
        <rect id="Rectangle_467" data-name="Rectangle 467" x="15" y="143.27" width="164.97" height="3.08" style="fill: #e6e5e5"/>
        <g id="Group_370" data-name="Group 370">
          <path id="Path_1615" data-name="Path 1615" d="M180,146.24a5.28,5.28,0,0,1-5.25,5.26H20.28A5.09,5.09,0,0,1,16.57,150,5.17,5.17,0,0,1,15,146.24Z" style="fill: #cccbca"/>
          <rect id="Rectangle_468" data-name="Rectangle 468" x="82.48" y="143.16" width="29.95" height="1.54" style="fill: #cccbca"/>
        </g>
        <g id="Group_342" data-name="Group 342">
          <path id="Path_1522" data-name="Path 1522" d="M39,78.56l-2-3.72L79.83,51l2,3.72Z" style="fill: #fff"/>
          <path id="Path_1523" data-name="Path 1523" d="M39.52,68.68,37.47,65,71.13,46.24,73.18,50Z" style="fill: #fff"/>
          <path id="Path_1524" data-name="Path 1524" d="M43.23,85.87l-2-3.72L84.06,58.29l2,3.72Z" style="fill: #fff"/>
          <path id="Path_1525" data-name="Path 1525" d="M90.58,69.07,46.69,93.56l-2-3.72,43.9-24.49Z" style="fill: #fff"/>
          <path id="Path_1526" data-name="Path 1526" d="M51.29,100.62l-2-3.72L92.12,73l2,3.72Z" style="fill: #fff"/>
          <path id="Path_1527" data-name="Path 1527" d="M93,87,60.89,104.85l-2-3.72L91,83.3Z" style="fill: #fff"/>
          <path id="Path_1528" data-name="Path 1528" d="M69.34,104.47l-3.71,2L39,58.55l3.71-2Z" style="fill: #fff"/>
          <path id="Path_1529" data-name="Path 1529" d="M79.45,105.11l-3.71,2L44.89,51.62l3.72-2Z" style="fill: #fff"/>
          <path id="Path_1530" data-name="Path 1530" d="M86.74,101,83,103.06,52.19,47.52l3.71-2.05Z" style="fill: #fff"/>
          <path id="Path_1531" data-name="Path 1531" d="M92.38,94l-3.72,2L61,46.24l3.71-2.05Z" style="fill: #fff"/>
        </g>
        <path id="Path_1532" data-name="Path 1532" d="M48.27,44.64h0c-14.2,8-17.91,28.21-8.31,45.53,7.8,14.11,20.22,20.91,34.17,21.93,5.63.39,10.62,6.8,11.26,8.08L94,135.7h9.6s-8.83-15.9-10.88-19.49c-.76-1.29-3.58-8.85-.89-13.86,6.4-12.44,7.29-26.67-.64-40.78C81.68,44.38,62.48,36.81,48.27,44.64ZM89.74,86.58c-1.28,6.67-4.74,11.93-10,14.88h0c-5.12,2.82-11.52,3.07-17.92.64a33.43,33.43,0,0,1-16.51-15,33.87,33.87,0,0,1-4-22.06c1.28-6.67,4.74-11.93,10-14.88h0c5.12-2.82,11.51-3.07,17.91-.64a33.39,33.39,0,0,1,16.51,15A33.47,33.47,0,0,1,89.74,86.58Z" style="fill: #dcdcdc"/>
        <g id="Group_344" data-name="Group 344">
          <path id="Path_1537" data-name="Path 1537" d="M48.3,44.64h0c-.25.13-.64.38-.89.51,14.07-7,32.63.52,42,17.44,7.81,14.11,7,28.35.51,40.66-2.68,5,.26,12.7.9,13.85,2,3.72,10.49,18.6,10.49,18.6h2.18s-8.83-15.9-10.88-19.49c-.77-1.29-3.58-8.85-.89-13.86C98.21,90,99.11,75.8,91.17,61.7,81.7,44.38,62.38,36.69,48.3,44.64Z" style="fill: #b9b9b9"/>
        </g>
        <path id="Path_1538" data-name="Path 1538" d="M58.77,80.68A15.77,15.77,0,0,0,45.84,72.6a3,3,0,0,0-2.94,2.05h0a6.8,6.8,0,0,1-8.58,4.75h0A2.91,2.91,0,0,0,31,80.81a15.78,15.78,0,1,0,27.77,15,15.19,15.19,0,0,0,0-15.13Z" style="fill: #f37949"/>
        <path id="Path_1539" data-name="Path 1539" d="M58.77,80.68a17.4,17.4,0,0,0-1.28-1.93,15.92,15.92,0,0,1-9.22,20.4,15.73,15.73,0,0,1-18-5.13,10.6,10.6,0,0,0,1,2,15.87,15.87,0,0,0,21.5,6.16,15.68,15.68,0,0,0,6-21.55Z" style="fill: #f36831"/>
        <path id="Path_1540" data-name="Path 1540" d="M52.11,81.58A8.56,8.56,0,0,0,49,78.24a16.43,16.43,0,0,1-4.6-4.36,2.26,2.26,0,0,0-2.69-.9,17.62,17.62,0,0,0-4.87,1.93A23.43,23.43,0,0,0,33.3,77.6a2.47,2.47,0,0,0-.51,2.57,17.13,17.13,0,0,1,1.28,6.28,12.21,12.21,0,0,0,1.15,4.36,9.62,9.62,0,0,0,16.89-9.23Z" style="fill: #f34500"/>
        <path id="Path_1541" data-name="Path 1541" d="M52.11,81.58a4.14,4.14,0,0,0-.64-1A9.49,9.49,0,0,1,46.23,93,9.37,9.37,0,0,1,35,89.78a3.7,3.7,0,0,0,.52,1,9.51,9.51,0,1,0,16.63-9.23Z" style="fill: #bf3600"/>
        <path id="Path_1542" data-name="Path 1542" d="M41.11,95.81a10.15,10.15,0,0,1-6-4.74,11.28,11.28,0,0,1-1.28-4.49A18.74,18.74,0,0,0,32,79.14a.56.56,0,0,1,.13-.64c.13-.13.51,0,.64.13h0a20.73,20.73,0,0,1,1.92,7.82,9,9,0,1,0,18-.38,9.25,9.25,0,0,0-4.09-7.44A19.68,19.68,0,0,1,43,73c-.13-.25-.13-.51.13-.64s.51-.13.64.13A19,19,0,0,0,49,77.86a11.7,11.7,0,0,1,3.2,3.46,10.12,10.12,0,0,1-4,13.72h0A9.78,9.78,0,0,1,41.11,95.81Z" style="fill: #f1ebde"/>
        <polygon id="Rectangle_439" data-name="Rectangle 439" points="85.26 120.18 92.68 116.08 103.43 135.7 93.96 135.7 85.26 120.18" style="fill: #656d78"/>
        <g id="Group_343" data-name="Group 343">
          <path id="Path_1535" data-name="Path 1535" d="M93.56,134.77l7.3-4.11-2-3.72-7.3,4.11Z" style="fill: #434a54"/>
          <path id="Path_1536" data-name="Path 1536" d="M87.42,123.87l2,3.72,7.3-4.11-2.05-3.72Z" style="fill: #434a54"/>
        </g>
      </g>
    </g>
  </g>
</svg>
