<svg xmlns="http://www.w3.org/2000/svg" width="195" height="193" viewBox="0 0 195 193">
  <title>mag-wmn</title>
  <g id="Layer_2" data-name="Layer 2">
    <g id="Group_359" data-name="Group 359">
      <rect width="195" height="193" style="fill: none"/>
      <g>
        <path id="Path_1350" data-name="Path 1350" d="M145.45,148.11,111,152.78a3.49,3.49,0,0,1-1-6.92,10.55,10.55,0,0,0,9-11.81L107.77,51a3.47,3.47,0,0,1,3-3.93h0l20.69-2.82a3.48,3.48,0,0,1,3.93,3h0l13.12,97A3.58,3.58,0,0,1,145.45,148.11Z" style="fill: #dcdcdc"/>
        <path d="M125.88,133.15c-.28-2-1.79-10.75-2.64-12.44a17.59,17.59,0,0,0-14.41-9.61l-.5-3.66v-.23l-7.46-55.35a3.48,3.48,0,0,0-3.92-3L55.57,54.51a10.5,10.5,0,0,0-9,11.81l9.31,69.19c0,.05.05.17.05.22l1.85,13.67a10.49,10.49,0,0,0,11.78,9L111,152.78A17.43,17.43,0,0,0,125.88,133.15Z" style="fill: #f38b61"/>
        <polygon points="56.96 93.75 60.23 92.27 64.03 100.67 60.76 102.16 56.96 93.75" style="fill: #404040"/>
        <polygon points="66.74 111.03 81.96 104.11 84.67 110.11 69.45 117.03 66.74 111.03" style="fill: #f34500"/>
        <polygon points="74.38 107.55 81.99 104.09 84.7 110.08 77.09 113.54 74.38 107.55" style="fill: #bf3600"/>
        <g>
          <path d="M79.85,108l-8.69,3.94a7.13,7.13,0,0,1-9.48-3.6l-3-6.58h0a13.38,13.38,0,0,1,12.61.84l1.24.79.17-1.41a13.37,13.37,0,0,1,7.68-10.07h0l3,6.59A7.14,7.14,0,0,1,79.85,108Z" style="fill: #595959"/>
          <path d="M84.56,109.8l-15.25,6.92L63.7,153.4l0,.11h0a98.93,98.93,0,0,0,52-23.63h0l-.06-.11Z" style="fill: #595959"/>
        </g>
        <polygon points="72.22 86.83 75.48 85.35 79.28 93.75 76.01 95.24 72.22 86.83" style="fill: #333"/>
        <g>
          <path d="M75.47,110l4.38-2a7.22,7.22,0,0,0,3.59-9.5l-3-6.59h0A13.41,13.41,0,0,0,72.78,102l-.22,1.41Z" style="fill: #4f4f4f"/>
          <path d="M84.56,109.8l-7.63,3.43,14.58,32.23a98.52,98.52,0,0,0,24.28-15.69h0l-.06-.11Z" style="fill: #4f4f4f"/>
        </g>
        <path id="Path_1352" data-name="Path 1352" d="M95,34.65a3.49,3.49,0,0,0-3,3.88v.06L102.84,119a17.26,17.26,0,0,1,23,14.12L114.61,50.06C113.38,40.5,104.57,33.36,95,34.65Z" style="fill: #a8a8a8"/>
        <g id="Group_307" data-name="Group 307">
          <path id="Path_1353" data-name="Path 1353" d="M86,71.55,65.28,74.36a3.49,3.49,0,0,1-1-6.92h0L85,64.63a3.48,3.48,0,0,1,3.93,3,3.43,3.43,0,0,1-3,3.94Z" style="fill: #fff"/>
          <path id="Path_1354" data-name="Path 1354" d="M87.82,85.44,67.13,88.26a3.49,3.49,0,0,1-.95-6.92h0l20.69-2.82a3.49,3.49,0,0,1,.95,6.92Z" style="fill: #fff"/>
        </g>
      </g>
    </g>
  </g>
</svg>
