<svg xmlns="http://www.w3.org/2000/svg" width="195" height="193" viewBox="0 0 195 193">
  <title>mag-men</title>
  <g id="Layer_2" data-name="Layer 2">
    <g id="Group_359" data-name="Group 359">
      <rect width="195" height="193" style="fill: none"/>
      <g>
        <path id="Path_1350" data-name="Path 1350" d="M145.45,148.11,111,152.78a3.49,3.49,0,0,1-1-6.92,10.55,10.55,0,0,0,9-11.81L107.77,51a3.47,3.47,0,0,1,3-3.93h0l20.69-2.82a3.48,3.48,0,0,1,3.93,3h0l13.12,97A3.58,3.58,0,0,1,145.45,148.11Z" style="fill: #dcdcdc"/>
        <path d="M125.88,133.15c-.28-2-1.79-10.75-2.64-12.44a17.59,17.59,0,0,0-14.41-9.61l-.5-3.66v-.23l-7.46-55.35a3.48,3.48,0,0,0-3.92-3L55.57,54.51a10.5,10.5,0,0,0-9,11.81l9.31,69.19c0,.05.05.17.05.22l1.85,13.67a10.49,10.49,0,0,0,11.78,9L111,152.78A17.43,17.43,0,0,0,125.88,133.15Z" style="fill: #f38b61"/>
        <polygon points="55.4 131.46 60 133.6 69.64 134.44 67.9 126.11 53.05 114.08 55.4 131.46" style="fill: #3d2d00"/>
        <path d="M52.93,108.06a.72.72,0,0,0-.33-.11.78.78,0,0,0-.34,0l.84,6.13,14.86,12L66.5,119Z"/>
        <path id="Path_1352" data-name="Path 1352" d="M95,34.65a3.49,3.49,0,0,0-3,3.88v.06L102.84,119a17.26,17.26,0,0,1,23,14.12L114.61,50.06C113.38,40.5,104.57,33.36,95,34.65Z" style="fill: #a8a8a8"/>
        <g id="Group_307" data-name="Group 307">
          <path id="Path_1353" data-name="Path 1353" d="M86,71.55,65.28,74.36a3.49,3.49,0,0,1-1-6.92h0L85,64.63a3.48,3.48,0,0,1,3.93,3,3.43,3.43,0,0,1-3,3.94Z" style="fill: #fff"/>
          <path id="Path_1354" data-name="Path 1354" d="M87.82,85.44,67.13,88.26a3.49,3.49,0,0,1-.95-6.92h0l20.69-2.82a3.49,3.49,0,0,1,.95,6.92Z" style="fill: #fff"/>
        </g>
        <path id="Path_1504" data-name="Path 1504" d="M66.39,118.91l-6.45,14.74,10.54,4.95L75,141.19l7.51-9.68-3.14-2.19Z" style="fill: #b9b9b9"/>
        <path id="Path_1505" data-name="Path 1505" d="M66.39,118.91l-2,4.39,14.18,11.42.84.56,3-3.82-3.09-2.14Z" style="fill: #959595"/>
        <path id="Path_1506" data-name="Path 1506" d="M79.4,133.37,77,132a5.26,5.26,0,0,1-2.46-5.56l.16-.79,6,3.94Z" style="fill: #b63400"/>
        <path id="Path_1507" data-name="Path 1507" d="M99,119l-7.29,4.5-11.5,4.95a1.65,1.65,0,0,0-.84.9l-2.24,6.75a2.6,2.6,0,0,1-.56,1,2.76,2.76,0,0,1-2.47,1l-2-.17a1.72,1.72,0,0,0-1.57.67c-.06.11-.17.23-.06.4A17,17,0,0,0,73,143.83a50.51,50.51,0,0,0,5.21,4.22h0l.73.68a.77.77,0,0,0,1-.06c1.8-1.91,7.85-8.61,12.28-12.94s9.09-12.37,10.43-14.73a1,1,0,0,0-.17-1.07h0l-.45-.4-.39-.39A2.36,2.36,0,0,0,99,119Z" style="fill: #f34500"/>
        <path id="Path_1508" data-name="Path 1508" d="M99,119l-7.29,4.5-11.5,4.95a1.65,1.65,0,0,0-.84.9l-1.57,4.67,16.77-6.75,6.95-4.34c.45-.84.84-1.46,1.12-1.91a1,1,0,0,0-.17-1.07l-.45-.39-.39-.39A2.26,2.26,0,0,0,99,119Z" style="fill: #b63400"/>
        <path id="Path_1509" data-name="Path 1509" d="M83.94,144.34a5.65,5.65,0,0,0-1.29-1.24c-3.81-2.87-8.19-.67-9.92.45,0,.11.16.17.22.28a50.51,50.51,0,0,0,5.21,4.22l.73.68a.77.77,0,0,0,1-.06C80.69,147.88,82.15,146.25,83.94,144.34Z" style="fill: #f39c79"/>
        <path id="Path_1510" data-name="Path 1510" d="M90.61,134.27C88,136.8,82.43,143.33,80,145.69a3.78,3.78,0,0,1-2,1l-1.23.28,1.45,1.07.73.68a.77.77,0,0,0,1-.06l.23-.22a.27.27,0,0,1,.39-.06l1.23.73a.59.59,0,0,0,.73-.11l.45-.51a.54.54,0,0,0,.06-.73l-.79-1.18a.45.45,0,0,1,0-.45c.45-.51,1-1,1.46-1.58a.28.28,0,0,1,.39-.05l1.29.73a.59.59,0,0,0,.73-.11l.45-.51a.54.54,0,0,0,.06-.73l-.85-1.29a.45.45,0,0,1,0-.45c2-2.2,4.21-4.45,6.17-6.3,1.12-1.13,2.19-2.37,3.2-3.6a.44.44,0,0,1,.45-.12l1,.4a.64.64,0,0,0,.61-.17l.34-.45a.62.62,0,0,0,0-.62l-.67-.79a.42.42,0,0,1-.06-.45c.39-.56.78-1.12,1.18-1.63a.43.43,0,0,1,.45-.11l1,.34a.52.52,0,0,0,.56-.17l.28-.45a.44.44,0,0,0-.06-.57l-.67-.73a.44.44,0,0,1-.06-.45c.34-.62.4-.78.73-1.29a.35.35,0,0,1,.45-.11l.84.28A.51.51,0,0,0,102,125l.28-.45a.41.41,0,0,0,0-.56l-.67-.73a.41.41,0,0,1-.06-.45c.39-.68.73-1.19.9-1.58a1,1,0,0,0-.17-1.07l-.9-.79C101.6,119.2,95.83,129.21,90.61,134.27Z" style="fill: #4f4f4f"/>
        <ellipse id="Ellipse_202" data-name="Ellipse 202" cx="83.55" cy="109.07" rx="12.34" ry="12.38" style="fill: #b9b9b9"/>
        <g id="Group_338" data-name="Group 338">
          <path id="Path_1511" data-name="Path 1511" d="M71.31,107.49a12.84,12.84,0,0,0-.07,2.4,12.33,12.33,0,0,1,24,3.06,12.34,12.34,0,1,0-23.43-7.77A16.12,16.12,0,0,0,71.31,107.49Z" style="fill: #727272"/>
          <path id="Path_1512" data-name="Path 1512" d="M63.23,135.17l6.19-13.83-3-2.38L60,133.64Z" style="fill: #727272"/>
        </g>
        <path id="Path_1513" data-name="Path 1513" d="M69.36,121.33l-3-2.42-2,4.39,2.91,2.36Z" style="fill: #595959"/>
        <ellipse id="Ellipse_203" data-name="Ellipse 203" cx="82.31" cy="135.73" rx="2.97" ry="2.98" style="fill: #fff"/>
        <g id="Group_339" data-name="Group 339">
          <path id="Path_1514" data-name="Path 1514" d="M83.15,129.41a.83.83,0,0,1-.91.7.78.78,0,0,1-.69-.83l.15-1.8a.76.76,0,0,1,.86-.74.77.77,0,0,1,.74.87l-.15,1.8Z" style="fill: #4f4f4f"/>
          <path id="Path_1515" data-name="Path 1515" d="M85.73,128.31a.82.82,0,0,1-.9.7.79.79,0,0,1-.7-.83l.16-1.8a.8.8,0,1,1,1.59.13l-.15,1.8Z" style="fill: #4f4f4f"/>
          <path id="Path_1516" data-name="Path 1516" d="M88.43,127.16a.82.82,0,0,1-.9.71.79.79,0,0,1-.69-.83l.15-1.81a.77.77,0,0,1,.86-.74.77.77,0,0,1,.74.87l-.16,1.8Z" style="fill: #4f4f4f"/>
          <path id="Path_1517" data-name="Path 1517" d="M91.21,125.93a.83.83,0,0,1-.91.71.79.79,0,0,1-.69-.83l.15-1.81a.8.8,0,1,1,1.6.13l-.15,1.8Z" style="fill: #4f4f4f"/>
          <path id="Path_1518" data-name="Path 1518" d="M82.29,100l3-3.13h-.16A11.8,11.8,0,0,0,77,98.7l3.69,1.58,1.15,4.5-2.69,3-4.34-.57-2-3.93a12.22,12.22,0,0,0-1.09,8.81l3-3.28,4.33.58L80.89,113l-2.22,4.1-4,.64a12.13,12.13,0,0,0,7.42,3.79l.2,0-2.13-3.79,2.21-4.11L86,112.9l3.57,3.34-.66,4.19A12.27,12.27,0,0,0,95,114.18l-4.31.87-3.57-3.34.51-4.11,4.29-2.29,4,2a12.24,12.24,0,0,0-4.3-7.56L91.15,104l-4.29,2.29-3.34-1.64Z" style="fill: #4f4f4f"/>
        </g>
        <g id="Group_340" data-name="Group 340">
          <path id="Path_1519" data-name="Path 1519" d="M73.9,105.44l-1.18-2.23h0a16.26,16.26,0,0,0-.76,1.73l0,0c0,.08,0,.12-.1.2s0,0,0,.08,0,.13-.11.21,0,.08,0,.08,0,.12-.07.16,0,.08,0,.13a.11.11,0,0,0,0,.15s0,.08,0,.13,0,.08,0,.2,0,.08,0,.16v.16a.31.31,0,0,0,0,.2s0,.08,0,.12a.11.11,0,0,0,0,.16l-.11.8c0,.08,0,.12,0,.2v.08c0,.08,0,.12,0,.2s0,0,0,.08a.56.56,0,0,1,0,.28l0,0V109l0,0v.23l0,.05v.24l0,0v.24h0A11.9,11.9,0,0,1,73.9,105.44Z"/>
          <path id="Path_1520" data-name="Path 1520" d="M91,103.76l-.46.27a5.36,5.36,0,0,1,1.23,1.15l3.91,1.92a10.27,10.27,0,0,0-.65-2.43h0c0-.08-.09-.15-.09-.23l0,0-.09-.23,0,0c0-.08-.09-.15-.1-.23l0,0a.45.45,0,0,1-.1-.23l0,0a1.08,1.08,0,0,1-.1-.23l0,0c0-.08-.09-.15-.1-.23l0,0c0-.08-.09-.15-.17-.23h0a12.28,12.28,0,0,0-.89-1.37l0,0-.13-.19,0,0-.17-.15,0,0a.17.17,0,0,1-.09-.15l0,0a.23.23,0,0,1-.09-.15l-.08-.08-.17-.14-.08-.08-.17-.15-.09-.07-.17-.15-.08-.07L92,99.74l0,0-.17-.15,0,0-.16-.15h0Z"/>
          <path id="Path_1521" data-name="Path 1521" d="M84.7,96.74c-.07,0-.12,0-.2,0s-.08,0-.12,0-.12,0-.2,0-.08,0-.12,0a.12.12,0,0,0-.16,0s-.08,0-.12,0-.12,0-.2,0-.08,0-.12,0-.12,0-.24,0,0,0-.08,0l-.31,0h0l-.32,0s0,0-.08,0-.12,0-.16,0-.08,0-.11,0-.12,0-.16,0-.08,0-.12,0-.11.05-.16,0-.08,0-.11,0-.12,0-.16,0a.06.06,0,0,0-.08,0h-.24a.6.6,0,0,0-.27.06h0l-.28,0a0,0,0,0,0-.07,0c-.05,0-.12.05-.2.05a.06.06,0,0,0-.08,0s-.08,0-.19,0a.06.06,0,0,0-.08,0s-.08,0-.2,0-.08,0-.08,0-.08,0-.19,0-.08,0-.08,0-.12,0-.2,0,0,0-.08,0a.49.49,0,0,0-.23.1h0l-.23.1s0,0-.08,0l-.19.06h-.08s-.08,0-.16.09-.07,0-.07,0-.08,0-.16.09-.08,0-.07.08-.07.09-.12,0-.08,0-.07.09a.23.23,0,0,1-.15.09s0,0-.08,0a.42.42,0,0,0-.23.18l3.69,1.57.33,1.33a11.87,11.87,0,0,1,1.58-.11l-.38-1.45,3-3.12-.48,0C84.83,96.78,84.78,96.74,84.7,96.74Z"/>
        </g>
      </g>
    </g>
  </g>
</svg>
