<svg xmlns="http://www.w3.org/2000/svg" width="972" height="390" viewBox="0 0 972 390">
  <title>magazine-hdr</title>
  <g id="Layer_2" data-name="Layer 2">
    <g id="Layer_1-2" data-name="Layer 1">
      <g>
        <path id="Path_1349" data-name="Path 1349" d="M318.87,321.73a8.4,8.4,0,0,1-4.15-.34,11.19,11.19,0,0,1-8-9L278.1,99.78a32.3,32.3,0,0,1,27.64-36.3L433.23,46.2a10.7,10.7,0,0,1,12.09,9.16h0l23,170.09a10.71,10.71,0,0,1-9.16,12.1,10.87,10.87,0,0,1-7.94-2.07l-39.74-30.25L326,317.41A9.68,9.68,0,0,1,318.87,321.73Z" style="fill: #f34500"/>
        <path id="Path_1350" data-name="Path 1350" d="M582.66,351.12,476.42,365.47a10.74,10.74,0,0,1-2.94-21.27,32.42,32.42,0,0,0,27.64-36.3L466.57,52.59a10.72,10.72,0,0,1,9.16-12.1h0l63.74-8.64A10.72,10.72,0,0,1,551.57,41h0L592,339A11,11,0,0,1,582.66,351.12Z" style="fill: #dcdcdc"/>
        <path id="Path_1351" data-name="Path 1351" d="M522.37,305.14a53.6,53.6,0,0,1-45.95,60.33L348.93,382.75a32.28,32.28,0,0,1-36.28-27.66l-6.39-47,94.66-124.29a10.75,10.75,0,0,1,15-2.07l48.2,36.82a10.8,10.8,0,0,1,4.15,7.08l1.55,11.76a54.22,54.22,0,0,1,44.4,29.56C516.84,272.12,521.51,299.09,522.37,305.14Z" style="fill: #333"/>
        <path id="Path_1352" data-name="Path 1352" d="M427.36,2.47A10.7,10.7,0,0,0,418,14.39v.18l33.34,247.18a55.2,55.2,0,0,1,10.54-2.59,53.57,53.57,0,0,1,60.29,46L487.65,49.83C483.85,20.44,456.72-1.51,427.36,2.47Z" style="fill: #a8a8a8"/>
        <g id="Group_307" data-name="Group 307">
          <path id="Path_1353" data-name="Path 1353" d="M399.42,115.85l-63.75,8.65a10.73,10.73,0,0,1-2.93-21.26h0l63.74-8.65a10.71,10.71,0,0,1,12.09,9.16,10.52,10.52,0,0,1-9.15,12.1Z" style="fill: #fff"/>
          <path id="Path_1354" data-name="Path 1354" d="M405.12,158.55l-63.75,8.64a10.73,10.73,0,0,1-2.93-21.26h0l63.74-8.64a10.73,10.73,0,0,1,2.94,21.26Z" style="fill: #fff"/>
        </g>
        <path id="Path_1355" data-name="Path 1355" d="M545.17,359.93V94.25a4.8,4.8,0,0,1,4.67-4.84h30.23a4.8,4.8,0,0,1,4.84,4.67h0V359.76a4.8,4.8,0,0,1-4.67,4.84H550.18a4.63,4.63,0,0,1-5-4.67Z" style="fill: #4f4f4f"/>
        <path id="Path_1356" data-name="Path 1356" d="M584.91,370V104.11a4.79,4.79,0,0,1,4.66-4.84h10.19a4.79,4.79,0,0,1,4.84,4.66h0V369.61a4.79,4.79,0,0,1-4.66,4.84h-10.2a4.63,4.63,0,0,1-4.83-4.49Z" style="fill: #727272"/>
        <path id="Path_1357" data-name="Path 1357" d="M604.77,370V79.39a4.8,4.8,0,0,1,4.67-4.84h19a4.8,4.8,0,0,1,4.84,4.66h0V369.79a4.8,4.8,0,0,1-4.67,4.84h-19A4.8,4.8,0,0,1,604.77,370Z" style="fill: #b9b9b9"/>
        <path id="Path_1358" data-name="Path 1358" d="M633.45,382.23V91.83A4.8,4.8,0,0,1,638.12,87h29A4.8,4.8,0,0,1,672,91.66h0V382.23a4.8,4.8,0,0,1-4.67,4.84h-29a4.83,4.83,0,0,1-4.84-4.84Z" style="fill: #dcdcdc"/>
        <path id="Path_1359" data-name="Path 1359" d="M672.15,382.23V132.63a4.79,4.79,0,0,1,4.66-4.84h13.3a4.79,4.79,0,0,1,4.84,4.66h0V382.23a4.79,4.79,0,0,1-4.66,4.84H677a4.72,4.72,0,0,1-4.83-4.84Z" style="fill: #b9b9b9"/>
        <path id="Path_1360" data-name="Path 1360" d="M735.38,372.55,689.6,99.44a5,5,0,0,1,4-5.53h0l29.71-4.84a5,5,0,0,1,5.53,4h0l45.78,273.12a5,5,0,0,1-4,5.53h0l-29.72,4.84A4.82,4.82,0,0,1,735.38,372.55Z" style="fill: #4f4f4f"/>
        <path id="Path_1361" data-name="Path 1361" d="M776.84,379.12,731.06,106a5,5,0,0,1,4-5.53h0l10.19-1.73a5,5,0,0,1,5.53,4h0l45.78,273.12a5,5,0,0,1-4,5.53h0l-10.2,1.73a4.87,4.87,0,0,1-5.52-4Z" style="fill: #727272"/>
        <path id="Path_1362" data-name="Path 1362" d="M884.29,386,754.21,115.86a4.72,4.72,0,0,1,2.24-6.4l17.1-8.29a4.72,4.72,0,0,1,6.4,2.24L910,373.59a4.73,4.73,0,0,1-2.25,6.4l-17.1,8.29A5,5,0,0,1,884.29,386Z" style="fill: #b9b9b9"/>
        <path id="Path_1363" data-name="Path 1363" d="M915.56,387.25,785.47,117.07a4.73,4.73,0,0,1,2.25-6.4L814,98.06a4.71,4.71,0,0,1,6.39,2.24L950.45,370.48a4.71,4.71,0,0,1-2.24,6.39L922,389.49A4.71,4.71,0,0,1,915.56,387.25Z" style="fill: #dcdcdc"/>
        <path id="Path_1364" data-name="Path 1364" d="M949.94,373.07,837.47,139.71a4.72,4.72,0,0,1,2.25-6.39l11.92-5.71a4.72,4.72,0,0,1,6.39,2.25L970.49,363.22a4.71,4.71,0,0,1-2.24,6.39l-11.92,5.71A4.76,4.76,0,0,1,949.94,373.07Z" style="fill: #b9b9b9"/>
        <path id="Path_1365" data-name="Path 1365" d="M276.71,144.21a18.07,18.07,0,0,1-18-18v-6a18,18,0,1,1,35.93,0h0v6A18,18,0,0,1,276.71,144.21Zm0-36a12,12,0,0,0-11.92,11.93h0v6a11.92,11.92,0,1,0,23.84,0v-6a12.06,12.06,0,0,0-11.92-11.93Z" style="fill: #dbd9dc"/>
        <path id="Path_1366" data-name="Path 1366" d="M261.17,93.39H190.34a6,6,0,0,0-6.05,6V100L189,160.28a12,12,0,0,0,11.92,11.07h49.58a12,12,0,0,0,11.92-11.07L267,100a6,6,0,0,0-5.53-6.4C261.51,93.39,261.34,93.39,261.17,93.39Z" style="fill: #edebed"/>
        <path id="Path_1367" data-name="Path 1367" d="M215.91,145.07l-2.25-51.68H190.17a6,6,0,0,0-6,6V100l4.66,60.32a12,12,0,0,0,11.92,11.07h49.58a11.92,11.92,0,0,0,10.37-6h-24A21.28,21.28,0,0,1,215.91,145.07Z" style="fill: #dbd9dc"/>
        <g id="Group_308" data-name="Group 308">
          <path id="Path_1368" data-name="Path 1368" d="M222.83,84.42a3,3,0,0,1-2.93-2.94h0a9.91,9.91,0,0,1,4-7.78c1.38-1.38,2.07-1.9,2.07-3.28s-.51-2.08-2.07-3.28A9.4,9.4,0,0,1,221.63,54a13.62,13.62,0,0,1,2.24-2.25c1.38-1.38,2.07-1.9,2.07-3.28a2.94,2.94,0,0,1,5.88,0,9.93,9.93,0,0,1-4,7.78c-1.38,1.38-2.07,1.9-2.07,3.28s.52,2.07,2.07,3.28A9.4,9.4,0,0,1,230.09,76a13.31,13.31,0,0,1-2.25,2.25c-1.38,1.38-2.07,1.9-2.07,3.28a3.14,3.14,0,0,1-2.94,2.94Z" style="fill: #edebed"/>
          <path id="Path_1369" data-name="Path 1369" d="M214.54,73.36a3.32,3.32,0,0,1-2.42-1.21,21,21,0,0,1-3.62-18.5,3,3,0,0,1,5.7,1.56,15.26,15.26,0,0,0,2.59,13.31,2.87,2.87,0,0,1-.52,4.15h0A2,2,0,0,1,214.54,73.36Z" style="fill: #edebed"/>
          <path id="Path_1370" data-name="Path 1370" d="M238.9,81.31A3,3,0,0,1,236,78.2a4.07,4.07,0,0,1,.35-1.38,14.82,14.82,0,0,0-1.56-15.73,2.89,2.89,0,0,1,0-3.64,13.24,13.24,0,0,0,2.94-6.56,3,3,0,0,1,5.88,1,19.52,19.52,0,0,1-2.77,7.44,20.58,20.58,0,0,1,.86,20.22A2.79,2.79,0,0,1,238.9,81.31Z" style="fill: #edebed"/>
        </g>
        <path id="Path_1371" data-name="Path 1371" d="M106.9,173.25l2.93,7.26a9,9,0,0,0,8.3,5.7H279.48a9,9,0,0,0,8.29-5.7l2.94-7.26a1.4,1.4,0,0,0-.87-1.9c-.17,0-.34-.18-.51-.18h-181a1.55,1.55,0,0,0-1.55,1.56A.64.64,0,0,1,106.9,173.25Z" style="fill: #edebed"/>
        <path id="Path_1372" data-name="Path 1372" d="M171.85,180.51l-2.93-7.26a1.39,1.39,0,0,1,.86-1.9c.17,0,.35-.18.52-.18H108.11a1.56,1.56,0,0,0-1.56,1.56.62.62,0,0,0,.18.52l2.93,7.26a9,9,0,0,0,8.29,5.7h62.2A9.33,9.33,0,0,1,171.85,180.51Z" style="fill: #dbd9dc"/>
        <path id="Path_1373" data-name="Path 1373" d="M221.78,162.7l-9.85-11.23-17.62,19.7h31.1A15.63,15.63,0,0,0,221.78,162.7Z" style="fill: #f37949"/>
        <path id="Path_1374" data-name="Path 1374" d="M214.18,145.59a52.56,52.56,0,0,0-24-10.37l-7.09-.52-.17,36.47h17.27l14.69-20.91a3.35,3.35,0,0,0-.69-4.67Z" style="fill: #f38b61"/>
        <path id="Path_1375" data-name="Path 1375" d="M118.3,162.7l9.85-11.23,17.62,19.7h-31.1A17,17,0,0,1,118.3,162.7Z" style="fill: #f37949"/>
        <path id="Path_1376" data-name="Path 1376" d="M125.9,145.59a52.56,52.56,0,0,1,24-10.37l7.09-.52.17,36.47H139.89l-14.68-20.91A3.5,3.5,0,0,1,125.9,145.59Z" style="fill: #f38b61"/>
        <path id="Path_1377" data-name="Path 1377" d="M190,130.38a61,61,0,0,0-20-4,61,61,0,0,0-20,4A3.52,3.52,0,0,0,147.5,134l5,37.16h34.73l5-37.16A3.22,3.22,0,0,0,190,130.38Z" style="fill: #f39c79"/>
        <path id="Path_1378" data-name="Path 1378" d="M30.71,294.25h-10a4.79,4.79,0,0,0-4.83,4.67h0v30.25A4.8,4.8,0,0,0,20.52,334H171.16L150.6,294.25Z" style="fill: #f56a33"/>
        <path id="Path_1379" data-name="Path 1379" d="M349.44,328.13v-29a4.8,4.8,0,0,0-4.66-4.84H329.23Z" style="fill: #f56a33"/>
        <path id="Path_1380" data-name="Path 1380" d="M140.58,275.06H30.71a4.79,4.79,0,0,0-4.83,4.67h0v10.2a4.8,4.8,0,0,0,4.66,4.84H150.6Z" style="fill: #b86240"/>
        <path id="Path_1381" data-name="Path 1381" d="M329.06,294.94h25.39a4.79,4.79,0,0,0,4.84-4.67h0v-10.2a4.8,4.8,0,0,0-4.66-4.84H317.14Z" style="fill: #b86240"/>
        <path id="Path_1382" data-name="Path 1382" d="M125.73,247.06H5.84A4.8,4.8,0,0,0,1,251.73H1v19a4.8,4.8,0,0,0,4.66,4.84H140.41Z" style="fill: #ca8a70"/>
        <path id="Path_1383" data-name="Path 1383" d="M317.14,275.75h37.31a4.79,4.79,0,0,0,4.84-4.66h0v-19a4.8,4.8,0,0,0-4.66-4.84H299.86Z" style="fill: #ca8a70"/>
        <path id="Path_1384" data-name="Path 1384" d="M105.86,209H18.28a4.79,4.79,0,0,0-4.84,4.67h0v29a4.8,4.8,0,0,0,4.66,4.84H125.73Z" style="fill: #fab599"/>
        <path id="Path_1385" data-name="Path 1385" d="M299.86,247.75h67a4.8,4.8,0,0,0,4.84-4.67h0V214a4.8,4.8,0,0,0-4.67-4.84H276.71Z" style="fill: #fab599"/>
        <path id="Path_1386" data-name="Path 1386" d="M371.73,204.88V191.57a4.8,4.8,0,0,0-4.67-4.84H262.89l13.82,22.82h90.35A4.55,4.55,0,0,0,371.73,204.88Z" style="fill: #ca8a70"/>
        <path id="Path_1387" data-name="Path 1387" d="M94.11,186.73H58.87A4.79,4.79,0,0,0,54,191.4h0v13.31a4.8,4.8,0,0,0,4.66,4.84h46.82Z" style="fill: #ca8a70"/>
        <path id="Path_1388" data-name="Path 1388" d="M150.78,294.25,171.34,334H344.61a4.79,4.79,0,0,0,4.83-4.67h0v-1.21l-20.21-33.71-178.45-.17Z" style="fill: #b85026"/>
        <path id="Path_1389" data-name="Path 1389" d="M150.78,294.94H329.06l-11.92-19.88H140.58Z" style="fill: #8a4a30"/>
        <path id="Path_1390" data-name="Path 1390" d="M140.58,275.75H317.14L300,247.06H125.73Z" style="fill: #986854"/>
        <path id="Path_1391" data-name="Path 1391" d="M125.73,247.75H299.86L276.54,209H105.86Z" style="fill: #bb8873"/>
        <path id="Path_1392" data-name="Path 1392" d="M276.71,209.72,262.89,186.9H94.11l11.75,22.82Z" style="fill: #986854"/>
      </g>
      <rect width="972" height="390" style="fill: none"/>
    </g>
  </g>
</svg>
