<svg xmlns="http://www.w3.org/2000/svg" width="214" height="183" viewBox="0 0 214 183">
  <title>media-print</title>
  <g id="Layer_2" data-name="Layer 2">
    <g id="Layer_1-2" data-name="Layer 1">
      <g>
        <path d="M15.5,32.48,25,32.1,61.38,165.66a5.15,5.15,0,0,1-1.91,3.43c-2.67,1.27-6.35.64-9-2.54-2.93-2.54-4.83-11.31-4.83-11.31Z" style="fill: #b9b9b9"/>
        <polygon points="19.95 28.41 30.75 28.54 60.61 159.82 63.54 163.63 61.38 165.53 54.64 161.22 49.43 146.98 19.95 28.41" style="fill: #bfbfbf"/>
        <polygon points="28.84 23.46 46.89 23.71 69.51 154.73 72.43 158.55 70.27 160.58 62.01 161.85 56.55 145.71 28.84 23.46" style="fill: #ccc"/>
        <path d="M61.38,165.54h-.26c-7.75-.77-9.78-9.15-11.44-16l-.25-.76C47.91,142.28,20.2,29.56,20,28.42H21.6c.25,1.14,28.34,113.22,29.86,119.83l.26.76c1.52,6.49,3.17,13.73,9.53,14.36C62.77,163.5,63.41,165.54,61.38,165.54Z" style="fill: #bfbfbf"/>
        <path d="M67.73,165.92h-.25c-7.76-1-9.54-9.41-10.93-16.27l-.13-.76C55,142.28,28.46,24.6,28.21,23.46H30c.25,1.14,27.19,118.44,28.59,124.92l.13.76c1.27,6.48,2.79,13.85,9,14.62C69.13,164,69.76,166,67.73,165.92Z" style="fill: #ccc"/>
        <path d="M47.27,17.61,184.9,13.29l13.6,118.57s.38,13.85-6.23,14.87S59.22,169,59.22,169l2.41-1.91,1.91-3.43.12-10.55L46.38,19Z" style="fill: #dcdcdc"/>
        <rect x="57.18" y="40.87" width="119.58" height="2.03" transform="translate(-2.03 6.17) rotate(-3)" style="fill: #bf3600"/>
        <g>
          <polygon points="113.86 47.86 67.6 50.4 67.86 51.42 113.99 48.88 113.86 47.86" style="fill: #727272"/>
          <polygon points="114.75 54.59 68.75 58.15 69 59.17 114.88 55.74 114.75 54.59" style="fill: #727272"/>
          <polygon points="115.77 61.97 70.02 65.9 70.14 66.92 115.89 62.98 115.77 61.97" style="fill: #727272"/>
          <polygon points="116.91 70.48 71.16 73.66 71.29 74.67 117.04 71.5 116.91 70.48" style="fill: #727272"/>
          <polygon points="117.8 77.6 72.31 81.41 72.43 82.42 117.93 78.61 117.8 77.6" style="fill: #727272"/>
          <polygon points="118.82 84.84 73.45 89.16 73.58 90.18 118.94 85.86 118.82 84.84" style="fill: #727272"/>
          <polygon points="119.83 93.1 74.59 97.04 74.72 98.06 119.96 94.12 119.83 93.1" style="fill: #727272"/>
          <polygon points="114.37 51.67 68.24 54.21 68.36 55.36 114.5 52.69 114.37 51.67" style="fill: #727272"/>
          <polygon points="115.26 58.15 69.38 61.97 69.51 62.98 115.39 59.17 115.26 58.15" style="fill: #727272"/>
          <polygon points="116.28 66.16 70.53 69.72 70.65 70.86 116.4 67.17 116.28 66.16" style="fill: #727272"/>
          <polygon points="117.42 74.67 71.67 77.6 71.8 78.61 117.55 75.69 117.42 74.67" style="fill: #727272"/>
          <polygon points="118.31 81.53 72.81 85.35 73.07 86.36 118.44 82.68 118.31 81.53" style="fill: #727272"/>
          <polygon points="119.45 89.41 73.96 93.1 74.21 94.12 119.58 90.43 119.45 89.41" style="fill: #727272"/>
          <polygon points="120.34 96.78 75.1 100.85 75.36 102 120.47 97.93 120.34 96.78" style="fill: #727272"/>
          <polygon points="121.36 104.28 76.37 109.24 76.5 110.25 121.48 105.43 121.36 104.28" style="fill: #727272"/>
          <polygon points="122.38 112.16 77.52 116.99 77.77 118.01 122.63 113.18 122.38 112.16" style="fill: #727272"/>
          <polygon points="123.52 119.91 78.66 124.74 78.91 125.89 123.65 120.93 123.52 119.91" style="fill: #727272"/>
          <polygon points="124.53 127.79 79.93 132.62 80.06 133.64 124.66 128.81 124.53 127.79" style="fill: #727272"/>
          <polygon points="125.55 135.54 81.07 140.37 81.2 141.39 125.68 136.56 125.55 135.54" style="fill: #727272"/>
          <polygon points="126.57 143.04 82.22 148.13 82.34 149.14 126.69 144.06 126.57 143.04" style="fill: #727272"/>
          <polygon points="127.33 149.27 83.36 155.75 83.49 156.77 127.46 150.29 127.33 149.27" style="fill: #727272"/>
          <polygon points="121.87 108.22 77.01 113.18 77.13 114.19 121.99 109.24 121.87 108.22" style="fill: #727272"/>
          <polygon points="123.01 116.1 78.15 120.93 78.28 121.95 123.14 117.12 123.01 116.1" style="fill: #727272"/>
          <polygon points="124.03 123.85 79.29 128.68 79.42 129.7 124.15 124.87 124.03 123.85" style="fill: #727272"/>
          <polygon points="125.04 131.6 80.44 136.43 80.56 137.58 125.17 132.75 125.04 131.6" style="fill: #727272"/>
          <polygon points="126.06 139.48 81.58 144.31 81.71 145.33 126.19 140.5 126.06 139.48" style="fill: #727272"/>
          <polygon points="126.95 146.22 82.73 151.94 82.85 152.95 127.08 147.24 126.95 146.22" style="fill: #727272"/>
          <polygon points="127.84 152.83 83.87 159.69 84 160.71 127.97 153.84 127.84 152.83" style="fill: #727272"/>
        </g>
        <path d="M56.93,169.6h-.26s2.93-2.54,3.82-3.56c3.17-3.55,2.54-12.83,1.9-16L45.11,17.74h2.16L64.43,149.65c.12.51,2,12.58-2.42,17.66C60.61,168.84,59.72,169.09,56.93,169.6Z" style="fill: #dcdcdc"/>
        <g id="Group_232" data-name="Group 232">
          <path id="Path_1094" data-name="Path 1094" d="M88.35,38.23l-.13-13.47,3.69-.25,2.92,4.83a48.47,48.47,0,0,1,2.41,4.45h0c-.12-1.91-.25-3.69-.25-5.6V24.25l2.92-.12L100,37.6l-3.31.13-3-5.09a40.38,40.38,0,0,1-2.42-4.57h0c.13,1.78.13,3.68.13,5.84V38l-3.05.25Z" style="fill: #333"/>
          <path id="Path_1095" data-name="Path 1095" d="M111.86,31.12l-5.21.25v3.18l5.84-.38v2.54l-8.89.51-.13-13.47,8.64-.51v2.54l-5.46.25v2.8l5.21-.25Z" style="fill: #333"/>
          <path id="Path_1096" data-name="Path 1096" d="M118,36.58l-3.43-13.34L118,23l1.14,5.47c.26,1.52.64,3.3.89,4.57h0a40.41,40.41,0,0,1,.89-4.83L122,22.6l3.31-.12,1.14,5.59c.26,1.52.51,3.05.89,4.57h0c.13-1.52.51-3.05.76-4.7l1.15-5.59,3.17-.13L128.89,36l-3.43.25-1.15-5.72c-.25-1.4-.51-2.54-.76-4.06h0c-.38,1.39-.51,2.79-.89,4.06l-1.27,5.85Z" style="fill: #333"/>
          <path id="Path_1097" data-name="Path 1097" d="M135,32.39a6.54,6.54,0,0,0,3.55.63c1.4-.12,2.29-.76,2.29-1.65s-.76-1.27-2.29-1.78c-2.28-.63-3.81-1.78-3.81-3.81,0-2.29,1.91-4.19,5.21-4.32a6.73,6.73,0,0,1,3.56.51l-.76,2.41a7.49,7.49,0,0,0-2.92-.51c-1.4.13-2,.77-2,1.4,0,.89.76,1.15,2.67,1.78,2.42.76,3.69,1.91,3.69,3.81,0,2.29-1.78,4.2-5.6,4.45a9.9,9.9,0,0,1-3.94-.51Z" style="fill: #333"/>
        </g>
        <rect x="96.08" y="45.19" width="4.19" height="116.15" transform="translate(-12.87 13.99) rotate(-7.65)" style="fill: #dcdcdc"/>
        <g>
          <polygon points="176.13 102.89 131.27 107.84 131.4 108.86 176.26 103.9 176.13 102.89" style="fill: #727272"/>
          <polygon points="177.15 110.76 132.41 115.59 132.54 116.61 177.27 111.78 177.15 110.76" style="fill: #727272"/>
          <polygon points="178.16 118.52 133.56 123.34 133.69 124.36 178.29 119.53 178.16 118.52" style="fill: #727272"/>
          <polygon points="179.18 126.27 134.7 131.1 134.83 132.24 179.43 127.41 179.18 126.27" style="fill: #727272"/>
          <polygon points="180.2 133.76 135.84 138.97 135.97 139.99 180.32 134.91 180.2 133.76" style="fill: #727272"/>
          <polygon points="181.09 140.12 136.99 146.6 137.12 147.62 181.21 141.14 181.09 140.12" style="fill: #727272"/>
          <polygon points="175.62 99.07 130.63 103.9 130.76 104.92 175.75 100.09 175.62 99.07" style="fill: #727272"/>
          <polygon points="176.64 106.82 131.78 111.65 132.03 112.8 176.76 107.84 176.64 106.82" style="fill: #727272"/>
          <polygon points="177.66 114.7 132.92 119.53 133.18 120.55 177.78 115.72 177.66 114.7" style="fill: #727272"/>
          <polygon points="178.67 122.45 134.19 127.28 134.32 128.3 178.8 123.47 178.67 122.45" style="fill: #727272"/>
          <polygon points="179.81 130.21 135.34 135.04 135.46 136.05 179.94 131.22 179.81 130.21" style="fill: #727272"/>
          <polygon points="180.71 137.07 136.48 142.79 136.61 143.81 180.83 138.09 180.71 137.07" style="fill: #727272"/>
          <polygon points="181.59 143.55 137.62 150.41 137.75 151.43 181.72 144.57 181.59 143.55" style="fill: #727272"/>
        </g>
        <rect x="153.76" y="95.89" width="4.19" height="55.91" transform="translate(-15.09 21.83) rotate(-7.64)" style="fill: #dcdcdc"/>
        <polygon points="120.85 46.84 169.14 44.3 175.11 92.34 127.97 97.04 120.85 46.84" style="fill: #333"/>
      </g>
      <rect width="214" height="183" style="fill: none"/>
    </g>
  </g>
</svg>
