<svg xmlns="http://www.w3.org/2000/svg" xmlns:xlink="http://www.w3.org/1999/xlink" width="172" height="104" viewBox="0 0 172 104">
  <defs>
    <linearGradient id="linear-gradient" x1="-61.22" y1="200.49" x2="-62.28" y2="201.76" gradientTransform="matrix(61.41, 0, 0, -61.41, 3863.7, 12368.34)" gradientUnits="userSpaceOnUse">
      <stop offset="0" stop-color="#fcaf17"/>
      <stop offset="0.43" stop-color="#f04923"/>
    </linearGradient>
  </defs>
  <title>ml-logo-rgb</title>
  <g id="Layer_2" data-name="Layer 2">
    <g id="ML-Logo">
      <path id="Path_172" data-name="Path 172" d="M26.62,80a5.94,5.94,0,0,0-.57-1.54A4.63,4.63,0,0,0,24.9,77a5.56,5.56,0,0,0-1.76-1,8,8,0,0,0-2.47-.34,8.53,8.53,0,0,0-3.92.79A10.05,10.05,0,0,0,14.57,78a5.15,5.15,0,0,0-1.65-1.5,7,7,0,0,0-3.47-.76,8.5,8.5,0,0,0-3.85.79,9.62,9.62,0,0,0-1.83,1.2,1.82,1.82,0,0,0-.7-1.19,2.87,2.87,0,0,0-1.64-.49H.9V94.69h3V81.15a1.08,1.08,0,0,1,.22-.72,5.55,5.55,0,0,1,1.83-1.35,6.1,6.1,0,0,1,2.69-.59,5.14,5.14,0,0,1,2.61.54,2.73,2.73,0,0,1,1.2,1.65,6.44,6.44,0,0,1,.25,1.25c0,.5.07,1,.07,1.49V94.68h3V83.43c0-.57,0-1.12-.05-1.66a11,11,0,0,0-.21-1.4,8.36,8.36,0,0,1,1.69-1.2,5.41,5.41,0,0,1,2.67-.68,5.08,5.08,0,0,1,2.6.54,2.79,2.79,0,0,1,1.2,1.65,6,6,0,0,1,.25,1.25c.05.5.07,1,.07,1.5V94.68h3V83.43q0-.9-.06-1.77A9.8,9.8,0,0,0,26.62,80Z" style="fill: #4f4f4f"/>
      <path id="Path_173" data-name="Path 173" d="M43.41,78.27a6.47,6.47,0,0,0-2.32-1.83,7.56,7.56,0,0,0-3.38-.69,8.83,8.83,0,0,0-3.09.55A7.71,7.71,0,0,0,31.92,78,8.28,8.28,0,0,0,30,81a12,12,0,0,0-.7,4.29A14,14,0,0,0,30,89.77,8.24,8.24,0,0,0,31.8,92.9a7.2,7.2,0,0,0,2.83,1.81,10.75,10.75,0,0,0,3.51.56,9.91,9.91,0,0,0,2.6-.32,9.18,9.18,0,0,0,2-.78,5.28,5.28,0,0,0,1.33-1,1.6,1.6,0,0,0,.55-1.09,1.65,1.65,0,0,0-.29-.76,6.41,6.41,0,0,0-.65-.83l-.32-.36-.28.38a3.78,3.78,0,0,1-.54.59,5.49,5.49,0,0,1-1,.7,6.1,6.1,0,0,1-1.43.57,7.16,7.16,0,0,1-2,.24,6.23,6.23,0,0,1-2.55-.49,4.49,4.49,0,0,1-1.75-1.36,6.18,6.18,0,0,1-1.06-2.17,11.38,11.38,0,0,1-.4-2.46H44.94l0-.34a19,19,0,0,0,.11-2,11.57,11.57,0,0,0-.39-3A7.41,7.41,0,0,0,43.41,78.27ZM32.5,83.79a6.16,6.16,0,0,1,1.44-4,4.62,4.62,0,0,1,3.61-1.48,4.9,4.9,0,0,1,2.26.46A3.56,3.56,0,0,1,41.21,80,5.14,5.14,0,0,1,42,81.85a11.51,11.51,0,0,1,.21,1.94Z" style="fill: #4f4f4f"/>
      <path id="Path_174" data-name="Path 174" d="M62.28,67.15a1.94,1.94,0,0,0-.75-.33,4.07,4.07,0,0,0-.61-.07h-.13l-.32,0-.31.06V77.32A6.34,6.34,0,0,0,57.75,76a8.75,8.75,0,0,0-5,.2A7.4,7.4,0,0,0,50,77.89,8.74,8.74,0,0,0,48,81a12.5,12.5,0,0,0-.77,4.73,13.12,13.12,0,0,0,.63,4.39,8.16,8.16,0,0,0,1.76,3,6.83,6.83,0,0,0,2.6,1.7,8.88,8.88,0,0,0,3.07.52A7.73,7.73,0,0,0,57.35,95,8.25,8.25,0,0,0,59,94.4a5.82,5.82,0,0,0,1.17-.81l0,0v1.12H63.1V69.05a2.56,2.56,0,0,0-.23-1.16A2.13,2.13,0,0,0,62.28,67.15Zm-2.11,23a1.47,1.47,0,0,1-.34.75,3.67,3.67,0,0,1-.93.83,5.47,5.47,0,0,1-1.4.67,5.89,5.89,0,0,1-1.77.27,5.36,5.36,0,0,1-2.49-.55,4.6,4.6,0,0,1-1.66-1.5,6.79,6.79,0,0,1-.94-2.32,14.58,14.58,0,0,1-.29-3,8,8,0,0,1,1.44-5.19,5.76,5.76,0,0,1,5.7-1.47,6.54,6.54,0,0,1,1.27.56,5,5,0,0,1,.9.68c.21.19.36.36.52.51Z" style="fill: #4f4f4f"/>
      <path id="Path_175" data-name="Path 175" d="M69.75,73.24a2.25,2.25,0,0,0,0-3A2,2,0,0,0,67,70.1l-.12.13a2.23,2.23,0,0,0,0,3,2,2,0,0,0,2.78.11Z" style="fill: #4f4f4f"/>
      <path id="Path_176" data-name="Path 176" d="M70.24,92.65c-.14-.16-.36-.63-.36-2V78.43A2.1,2.1,0,0,0,69,76.51a3,3,0,0,0-1.61-.46h-.5V90.56c0,.51,0,1,.06,1.5a4.14,4.14,0,0,0,.36,1.38,2.43,2.43,0,0,0,.9,1,2.87,2.87,0,0,0,1.64.41,4.4,4.4,0,0,0,.81,0,5,5,0,0,0,.86-.16l.29-.08V93.15l-.37,0A1.73,1.73,0,0,1,70.24,92.65Z" style="fill: #4f4f4f"/>
      <path id="Path_177" data-name="Path 177" d="M75.35,80.36l.4-.36.11-.08a7.16,7.16,0,0,1,2-1,8.78,8.78,0,0,1,3.05-.48,6.25,6.25,0,0,1,2.1.3,2.77,2.77,0,0,1,1.17.79,3,3,0,0,1,.6,1.2A7.29,7.29,0,0,1,85,82.29v.51l-.44,0a23,23,0,0,0-4.15.23A12.76,12.76,0,0,0,77,84a7.58,7.58,0,0,0-2.73,2,5.23,5.23,0,0,0-1.12,3.44,5.82,5.82,0,0,0,.6,2.81A4.92,4.92,0,0,0,75.26,94a5.55,5.55,0,0,0,1.95.84,9.61,9.61,0,0,0,1.94.22,8.51,8.51,0,0,0,3.74-.77,10,10,0,0,0,2.17-1.41,2.31,2.31,0,0,0,1,1.41,4.35,4.35,0,0,0,3.67.41l.29-.07v-1.5l-.36,0a4.52,4.52,0,0,1-.82-.13.82.82,0,0,1-.44-.29,2,2,0,0,1-.36-.79,6.54,6.54,0,0,1-.14-1.59V82.64a12.28,12.28,0,0,0-.32-2.9,4.78,4.78,0,0,0-3.29-3.54A10.5,10.5,0,0,0,81,75.76a13.83,13.83,0,0,0-3,.34,10.31,10.31,0,0,0-2.59.89,4.57,4.57,0,0,0-.77.53,1.07,1.07,0,0,0-.42.85,2.69,2.69,0,0,0,.6,1.48L75,80Zm4.19,12.11a4.26,4.26,0,0,1-1.66-.27,2.76,2.76,0,0,1-1-.69,2.43,2.43,0,0,1-.51-1,4.77,4.77,0,0,1-.15-1.18,3,3,0,0,1,.67-2.11A4.85,4.85,0,0,1,78.75,86a9.72,9.72,0,0,1,2.65-.66,24.36,24.36,0,0,1,3-.17H85V89.8s0,.22-.36.6a5.09,5.09,0,0,1-1.18.94,8.1,8.1,0,0,1-1.77.81,6.65,6.65,0,0,1-2.12.32Z" style="fill: #4f4f4f"/>
      <path id="Path_178" data-name="Path 178" d="M101.08,92.66c-.13-.15-.36-.59-.36-1.87V69.08a2.57,2.57,0,0,0-.25-1.22,2.23,2.23,0,0,0-.61-.72,1.89,1.89,0,0,0-.75-.34,3.08,3.08,0,0,0-.61-.06h-.13a1.64,1.64,0,0,0-.32.05l-.31.06v23.7q0,.78.06,1.5a3.78,3.78,0,0,0,.34,1.37,2.52,2.52,0,0,0,.92,1,3,3,0,0,0,1.66.4,5.29,5.29,0,0,0,.8,0,5,5,0,0,0,.87-.16l.28-.08V93.14l-.36,0A1.86,1.86,0,0,1,101.08,92.66Z" style="fill: #4f4f4f"/>
      <path id="Path_179" data-name="Path 179" d="M119,78.74a7.07,7.07,0,0,0-2.61-2.18,8.62,8.62,0,0,0-3.87-.8,8.53,8.53,0,0,0-3.79.8A8,8,0,0,0,106,78.74a9.41,9.41,0,0,0-1.61,3.15,13,13,0,0,0-.54,3.71,14.32,14.32,0,0,0,.46,3.62,8.62,8.62,0,0,0,1.48,3.1,7.29,7.29,0,0,0,2.66,2.17,9.76,9.76,0,0,0,7.83,0,7.47,7.47,0,0,0,2.66-2.2,8.93,8.93,0,0,0,1.48-3.13,14.77,14.77,0,0,0,.45-3.62,14.25,14.25,0,0,0-.45-3.62A9.42,9.42,0,0,0,119,78.74Zm-6.64,13.92a5,5,0,0,1-2.65-.63A4.74,4.74,0,0,1,108,90.38a7.25,7.25,0,0,1-.85-2.3,14.24,14.24,0,0,1-.24-2.61,13,13,0,0,1,.28-2.56,7.3,7.3,0,0,1,.9-2.29A4.94,4.94,0,0,1,109.77,79a5.1,5.1,0,0,1,2.62-.62,5.17,5.17,0,0,1,2.69.62,4.44,4.44,0,0,1,1.62,1.6,6.9,6.9,0,0,1,.82,2.29,15.83,15.83,0,0,1,.22,2.57,16.22,16.22,0,0,1-.22,2.61,6.63,6.63,0,0,1-.84,2.3A4.71,4.71,0,0,1,115,92a5.11,5.11,0,0,1-2.73.63Z" style="fill: #4f4f4f"/>
      <path id="Path_180" data-name="Path 180" d="M136.34,76.47a1.59,1.59,0,0,0-.73.9,4.72,4.72,0,0,0-.89-.65,8.33,8.33,0,0,0-1.57-.67,8.56,8.56,0,0,0-5.06.18,7.31,7.31,0,0,0-2.73,1.63,9,9,0,0,0-2,3,11.83,11.83,0,0,0-.79,4.63,12.83,12.83,0,0,0,.63,4.26,8.47,8.47,0,0,0,1.77,3,6.84,6.84,0,0,0,2.63,1.74,9.17,9.17,0,0,0,3.11.54,7.87,7.87,0,0,0,2.05-.24,7.63,7.63,0,0,0,1.55-.59,5.09,5.09,0,0,0,1.13-.76l.09-.08c0,.45,0,.94,0,1.48a16.8,16.8,0,0,1-.19,1.89c-.4,2.72-2.25,4-5.66,4a8.06,8.06,0,0,1-2.24-.29,6.37,6.37,0,0,1-1.58-.69,4.33,4.33,0,0,1-1.23-1l-.24-.3-.3.25a4.55,4.55,0,0,0-.6.64,1.58,1.58,0,0,0-.42,1,1.44,1.44,0,0,0,.16.67,2.14,2.14,0,0,0,.55.65,6.38,6.38,0,0,0,2.29,1.17,12.25,12.25,0,0,0,3.66.5,9.82,9.82,0,0,0,5.66-1.43,6.72,6.72,0,0,0,2.74-4.11,14.28,14.28,0,0,0,.31-2.15c.05-.72.08-1.53.08-2.34V76.16l-.31-.06a2.62,2.62,0,0,0-1.81.37Zm-.83,3.86v9.58a1.25,1.25,0,0,1-.29.72,3.51,3.51,0,0,1-.89.83,5.74,5.74,0,0,1-1.42.66,5.68,5.68,0,0,1-1.83.27,5.28,5.28,0,0,1-2.5-.55,4.57,4.57,0,0,1-1.65-1.5,6.7,6.7,0,0,1-.94-2.26,12.43,12.43,0,0,1-.3-2.85,8,8,0,0,1,1.44-5.18,5,5,0,0,1,4.11-1.71,5.44,5.44,0,0,1,1.6.24,5.87,5.87,0,0,1,1.26.55,5,5,0,0,1,.91.68Z" style="fill: #4f4f4f"/>
      <path id="Path_181" data-name="Path 181" d="M144.92,73.24a2.25,2.25,0,0,0,0-3,2,2,0,0,0-2.77-.13,1.59,1.59,0,0,0-.13.13,2.25,2.25,0,0,0,0,3,2,2,0,0,0,2.78.11Z" style="fill: #4f4f4f"/>
      <path id="Path_182" data-name="Path 182" d="M145.4,92.65c-.14-.16-.36-.63-.36-2V78.43a2.11,2.11,0,0,0-.83-1.92,3.1,3.1,0,0,0-1.62-.46h-.5V90.56c0,.52,0,1,.06,1.5a4.11,4.11,0,0,0,.34,1.38,2.49,2.49,0,0,0,.9,1,2.9,2.9,0,0,0,1.65.41,4.25,4.25,0,0,0,.8,0,5.13,5.13,0,0,0,.87-.16l.28-.08V93.15l-.36,0a1.71,1.71,0,0,1-1.23-.49Z" style="fill: #4f4f4f"/>
      <path id="Path_183" data-name="Path 183" d="M161.89,80.72l-.12-.15A5.13,5.13,0,0,0,160,79a6.44,6.44,0,0,0-5.28,0,4.94,4.94,0,0,0-1.74,1.47,6.47,6.47,0,0,0-1,2.24,12.21,12.21,0,0,0-.33,2.82,12,12,0,0,0,.33,2.86,6.77,6.77,0,0,0,1,2.27,4.83,4.83,0,0,0,1.76,1.51,5.62,5.62,0,0,0,2.62.55,5.47,5.47,0,0,0,2-.31,6.73,6.73,0,0,0,1.41-.73,5.22,5.22,0,0,0,1.11-1l.24-.29.3.24a6.67,6.67,0,0,1,.59.6,1.39,1.39,0,0,1,.42,1,1.9,1.9,0,0,1-.81,1.32,8.18,8.18,0,0,1-5.46,1.86,11.72,11.72,0,0,1-2.64-.34,7,7,0,0,1-2.83-1.41,8.13,8.13,0,0,1-2.23-3,12,12,0,0,1-.9-5.06,12.26,12.26,0,0,1,.44-3.46,9.4,9.4,0,0,1,1.15-2.59,7.06,7.06,0,0,1,1.68-1.81,10,10,0,0,1,1.89-1.12,8.8,8.8,0,0,1,1.89-.58,8.91,8.91,0,0,1,1.63-.15,8.53,8.53,0,0,1,3.35.56,8,8,0,0,1,2.05,1.17,2.36,2.36,0,0,1,.65.72,1.58,1.58,0,0,1,.18.73,1.81,1.81,0,0,1-.24.84c-.13.25-.27.51-.43.77l-.11.19-.37.57Z" style="fill: #4f4f4f"/>
      <path id="Path_184" data-name="Path 184" d="M165.34,78.6a2.51,2.51,0,0,1,.23-1.11,2.37,2.37,0,0,1,.61-.85,2.82,2.82,0,0,1,.89-.55,3,3,0,0,1,2.1,0,2.82,2.82,0,0,1,.89.55,2.37,2.37,0,0,1,.61.85,2.82,2.82,0,0,1,0,2.23,2.5,2.5,0,0,1-.61.86,2.8,2.8,0,0,1-.89.54,2.92,2.92,0,0,1-2.1,0,2.8,2.8,0,0,1-.89-.54,2.5,2.5,0,0,1-.61-.86A2.53,2.53,0,0,1,165.34,78.6Zm.72,0a2.34,2.34,0,0,0,.16.86,2.14,2.14,0,0,0,.43.67,2,2,0,0,0,2.85.05l0-.05a2,2,0,0,0,.44-.67,2.35,2.35,0,0,0,.17-.86,2.26,2.26,0,0,0-.17-.85,2.11,2.11,0,0,0-.44-.67,2,2,0,0,0-2.85,0,1.92,1.92,0,0,0-.47.7,2.23,2.23,0,0,0-.14.85Zm1-1.52h1.14a1.57,1.57,0,0,1,.88.2.77.77,0,0,1,.31.7,1.13,1.13,0,0,1-.06.36.81.81,0,0,1-.17.24.89.89,0,0,1-.25.14,1.16,1.16,0,0,1-.31.07l.81,1.32h-.63L168,78.82h-.36v1.29h-.6Zm.6,1.27h.78a.55.55,0,0,0,.18-.06.27.27,0,0,0,.13-.13.54.54,0,0,0,0-.22.25.25,0,0,0-.06-.2.58.58,0,0,0-.15-.11.46.46,0,0,0-.2,0,.74.74,0,0,0-.21,0h-.51Z" style="fill: #4f4f4f"/>
      <ellipse id="Ellipse_18" data-name="Ellipse 18" cx="82.11" cy="30.95" rx="30.3" ry="30.34" style="fill: #fff"/>
      <path id="Path_185" data-name="Path 185" d="M106.26,12.61A30.3,30.3,0,0,0,57.2,13.69,136,136,0,0,1,71,22.41q-3.89-.32-7.4-.79a66.75,66.75,0,0,0-7.74-5.77A30.32,30.32,0,0,0,82.11,61.29c.36,0,.72,0,1.08,0a50.32,50.32,0,0,0-3.41-17c3.78.36,7.88.62,12.35.77a45.25,45.25,0,0,1,4.54,12.6,30.88,30.88,0,0,0,4-2.61,46.87,46.87,0,0,0-4.19-9.9q5.91,0,12.65-.24a29.9,29.9,0,0,0,1.66-3.92q-9.06.47-16.69.43A78.53,78.53,0,0,0,78.68,25.67c5.88.18,12.4.08,19.67-.3A93.89,93.89,0,0,1,112,36a31.49,31.49,0,0,0,.41-4.64A102.55,102.55,0,0,0,103.25,25q4.05-.36,8.4-.87a28.4,28.4,0,0,0-.94-3.27q-6.51.81-12.36,1.3c-4.7-2.58-9.69-5-14.88-7.19A147.27,147.27,0,0,0,106,12.64ZM89.87,41.25q-6.3-.22-11.68-.76A57.58,57.58,0,0,0,66.89,24.7c2.55.32,5.26.58,8.11.78A77,77,0,0,1,89.87,41.25ZM74.56,22.62A141.88,141.88,0,0,0,60.46,14a158.67,158.67,0,0,0,18.23,1.07H79a161.09,161.09,0,0,1,14.66,7.42C86.57,22.82,80.26,22.86,74.56,22.62Z" style="fill: url(#linear-gradient)"/>
      <rect width="172" height="104" style="fill: none"/>
    </g>
  </g>
</svg>
