<svg xmlns="http://www.w3.org/2000/svg" xmlns:xlink="http://www.w3.org/1999/xlink" width="135" height="82" viewBox="0 0 135 82">
  <defs>
    <style>
      .cls-1 {
        fill: #fff;
      }

      .cls-2 {
        fill: url(#linear-gradient);
      }

      .cls-3 {
        fill: none;
      }
    </style>
    <linearGradient id="linear-gradient" x1="81.62" y1="243.95" x2="30.75" y2="305.02" gradientTransform="matrix(1, 0, 0, -1, 0, 289)" gradientUnits="userSpaceOnUse">
      <stop offset="0" stop-color="#fcaf17"/>
      <stop offset="0.43" stop-color="#f04923"/>
    </linearGradient>
  </defs>
  <title>ml-logo</title>
  <g id="Layer_2" data-name="Layer 2">
    <g id="Layer_1-2" data-name="Layer 1">
      <path class="cls-1" d="M21.13,62.84a4.42,4.42,0,0,0-.45-1.21,3.76,3.76,0,0,0-.9-1.08,4.41,4.41,0,0,0-1.39-.73,6.25,6.25,0,0,0-1.92-.29,6.81,6.81,0,0,0-3.08.63,7.63,7.63,0,0,0-1.7,1.16,4,4,0,0,0-1.3-1.16,5.35,5.35,0,0,0-2.72-.6,6.56,6.56,0,0,0-3,.63,7.24,7.24,0,0,0-1.44.93,1.42,1.42,0,0,0-.54-.93,2.16,2.16,0,0,0-1.25-.4H1V74.35H3.35V63.75a.79.79,0,0,1,.17-.57,4.39,4.39,0,0,1,1.44-1,4.71,4.71,0,0,1,2.12-.46,4,4,0,0,1,2,.43,2.16,2.16,0,0,1,.93,1.3,4.7,4.7,0,0,1,.2,1c0,.39.05.79.05,1.16v8.79h2.35V65.56c0-.45,0-.88-.06-1.3a7.1,7.1,0,0,0-.17-1.11,7.22,7.22,0,0,1,1.33-.93,4.27,4.27,0,0,1,2.1-.54,3.91,3.91,0,0,1,2,.43,2.12,2.12,0,0,1,.93,1.3,4.14,4.14,0,0,1,.2,1c0,.39.06.79.06,1.16v8.79h2.35V65.56c0-.45,0-.94-.06-1.39a8.6,8.6,0,0,0-.23-1.33Zm13.12-1.33a5.1,5.1,0,0,0-1.81-1.44,6.08,6.08,0,0,0-2.63-.54,7,7,0,0,0-2.43.43,6,6,0,0,0-2.12,1.36,6.49,6.49,0,0,0-1.47,2.34A9.64,9.64,0,0,0,23.25,67a11.41,11.41,0,0,0,.51,3.48,6.56,6.56,0,0,0,1.45,2.43,5.51,5.51,0,0,0,2.2,1.41,8.53,8.53,0,0,0,2.74.43,7.82,7.82,0,0,0,2-.26,6.92,6.92,0,0,0,1.58-.62,4.24,4.24,0,0,0,1-.71,1.25,1.25,0,0,0,.43-.85,1.16,1.16,0,0,0-.23-.59,4.56,4.56,0,0,0-.51-.65l-.25-.28-.23.31-.42.45a4.1,4.1,0,0,1-.77.54,5,5,0,0,1-1.1.45,5.61,5.61,0,0,1-1.53.17,4.79,4.79,0,0,1-2-.37,3.53,3.53,0,0,1-1.35-1.07A5,5,0,0,1,26,69.6a8.36,8.36,0,0,1-.31-1.92h9.75v-.26a13.3,13.3,0,0,0,.09-1.55,9.36,9.36,0,0,0-.31-2.35,5.85,5.85,0,0,0-1-2Zm-8.54,4.3a4.79,4.79,0,0,1,1.14-3.08,3.58,3.58,0,0,1,2.82-1.16,4,4,0,0,1,1.76.37,2.91,2.91,0,0,1,1.1,1,4,4,0,0,1,.59,1.44,8.51,8.51,0,0,1,.17,1.5Zm23.3-13a1.36,1.36,0,0,0-.59-.25l-.48-.06h-.37l-.25.06v8.17l-.68-.48a5.33,5.33,0,0,0-1.22-.54,6.84,6.84,0,0,0-3.93.14,6,6,0,0,0-2.12,1.3,6.82,6.82,0,0,0-1.58,2.41,10,10,0,0,0-.6,3.67,10.76,10.76,0,0,0,.51,3.43A6.33,6.33,0,0,0,39.09,73a5.27,5.27,0,0,0,2,1.33,7.09,7.09,0,0,0,2.41.4,6.09,6.09,0,0,0,1.64-.2,6.63,6.63,0,0,0,1.24-.48,4.72,4.72,0,0,0,.91-.62h0v.9h2.29v-20a2.12,2.12,0,0,0-.17-.9,1.59,1.59,0,0,0-.46-.57ZM47.35,70.76a1.17,1.17,0,0,1-.26.59,2.82,2.82,0,0,1-.73.65,4.64,4.64,0,0,1-1.11.51,4.27,4.27,0,0,1-1.38.2,4.08,4.08,0,0,1-1.95-.42,3.46,3.46,0,0,1-1.3-1.16,5.21,5.21,0,0,1-.74-1.81A11.56,11.56,0,0,1,39.65,67a6.05,6.05,0,0,1,1.14-4,4.57,4.57,0,0,1,4.46-1.16,4.83,4.83,0,0,1,1,.42,4.74,4.74,0,0,1,.71.54l.4.4Zm7.52-13.18a1.75,1.75,0,0,0,0-2.34,1.52,1.52,0,0,0-2.16-.11.52.52,0,0,0-.1.11,1.72,1.72,0,0,0,0,2.34,1.51,1.51,0,0,0,2.15.11Zm.39,15.16c-.11-.11-.28-.48-.28-1.53V61.63a1.66,1.66,0,0,0-.65-1.5,2.38,2.38,0,0,0-1.27-.37h-.4V71.1c0,.4,0,.79.06,1.19A3.28,3.28,0,0,0,53,73.36a2,2,0,0,0,.71.82,2.28,2.28,0,0,0,1.3.31h.62l.68-.14.23,0V73.16h-.29A1.35,1.35,0,0,1,55.26,72.74Zm4-9.59.31-.28.09-.06A5.9,5.9,0,0,1,61.2,62a6.88,6.88,0,0,1,2.38-.36,4.81,4.81,0,0,1,1.64.22,2.2,2.2,0,0,1,.93.63,2.3,2.3,0,0,1,.45.93,5,5,0,0,1,.14,1.27v.4H66.4a16.87,16.87,0,0,0-3.25.17,9.67,9.67,0,0,0-2.63.76,5.9,5.9,0,0,0-2.12,1.58,4.1,4.1,0,0,0-.87,2.69A4.49,4.49,0,0,0,58,72.49a3.84,3.84,0,0,0,1.18,1.35,4.14,4.14,0,0,0,1.53.65,7.1,7.1,0,0,0,1.53.17,6.62,6.62,0,0,0,2.94-.59,7.85,7.85,0,0,0,1.7-1.1,1.78,1.78,0,0,0,.76,1.1,3.4,3.4,0,0,0,2.85.31l.23-.06V73.16h-.28l-.65-.08a.63.63,0,0,1-.34-.23,1.4,1.4,0,0,1-.28-.62A5.22,5.22,0,0,1,69.06,71v-6a9.58,9.58,0,0,0-.25-2.27A4,4,0,0,0,67.9,61a3.86,3.86,0,0,0-1.67-1.05,8.07,8.07,0,0,0-2.54-.34,10.65,10.65,0,0,0-2.32.26,8,8,0,0,0-2,.7,3.26,3.26,0,0,0-.6.43.86.86,0,0,0-.34.65,2.14,2.14,0,0,0,.48,1.16l.09.14Zm3.28,9.48a3.4,3.4,0,0,1-1.3-.23,2,2,0,0,1-.76-.54,1.75,1.75,0,0,1-.4-.73A3.29,3.29,0,0,1,60,70.2a2.42,2.42,0,0,1,.53-1.64,3.69,3.69,0,0,1,1.48-1A7.32,7.32,0,0,1,64,67a19.93,19.93,0,0,1,2.32-.14h.48v3.64s0,.17-.28.49a4.47,4.47,0,0,1-.94.73,6.34,6.34,0,0,1-1.38.62A5.44,5.44,0,0,1,62.53,72.63Zm16.85.14c-.11-.11-.28-.48-.28-1.47v-17a1.89,1.89,0,0,0-.2-1,1.74,1.74,0,0,0-.48-.57,1.55,1.55,0,0,0-.59-.25l-.48-.06H77l-.25.06V71.07c0,.4,0,.79,0,1.19A3.05,3.05,0,0,0,77,73.33a1.87,1.87,0,0,0,.73.82,2.39,2.39,0,0,0,1.3.32h.62l.68-.15.23,0V73.14h-.28A1.48,1.48,0,0,1,79.38,72.77Zm14-10.89a5.53,5.53,0,0,0-2-1.69,6.76,6.76,0,0,0-3-.63,6.64,6.64,0,0,0-3,.63,6.23,6.23,0,0,0-2.12,1.69,7.21,7.21,0,0,0-1.27,2.46,10.48,10.48,0,0,0-.43,2.89,11.67,11.67,0,0,0,.37,2.82A7,7,0,0,0,83,72.49a5.81,5.81,0,0,0,2.09,1.69,6.88,6.88,0,0,0,3.06.62,6.7,6.7,0,0,0,3.08-.65,5.81,5.81,0,0,0,2.09-1.72A6.87,6.87,0,0,0,94.51,70a11.45,11.45,0,0,0,.37-2.86,11.19,11.19,0,0,0-.37-2.82,7.17,7.17,0,0,0-1.16-2.41Zm-5.2,10.89a4,4,0,0,1-2.06-.48A3.79,3.79,0,0,1,84.78,71a5.35,5.35,0,0,1-.67-1.81,10.77,10.77,0,0,1-.2-2,9.74,9.74,0,0,1,.22-2,5.49,5.49,0,0,1,.71-1.78,3.85,3.85,0,0,1,1.3-1.27,3.93,3.93,0,0,1,2.09-.48,4.16,4.16,0,0,1,2.1.48,3.59,3.59,0,0,1,1.27,1.24,5.45,5.45,0,0,1,.62,1.79,12.18,12.18,0,0,1,.17,2,11.54,11.54,0,0,1-.17,2A5.11,5.11,0,0,1,91.57,71a3.85,3.85,0,0,1-1.3,1.3,4.12,4.12,0,0,1-2.09.51ZM107,60.1a1.21,1.21,0,0,0-.56.71,3.55,3.55,0,0,0-.71-.51,6.16,6.16,0,0,0-5.17-.37,5.59,5.59,0,0,0-2.12,1.27,6.94,6.94,0,0,0-1.59,2.35,9.3,9.3,0,0,0-.62,3.62,10,10,0,0,0,.51,3.34,6.45,6.45,0,0,0,1.38,2.34,5.3,5.3,0,0,0,2.07,1.36,6.94,6.94,0,0,0,2.43.42A5.94,5.94,0,0,0,105.4,74a3.43,3.43,0,0,0,.87-.59l.06-.06c0,.34,0,.73,0,1.16a10.17,10.17,0,0,1-.14,1.47c-.31,2.12-1.75,3.17-4.44,3.17A6.1,6.1,0,0,1,100,78.9a4.88,4.88,0,0,1-1.24-.53,3.15,3.15,0,0,1-1-.77l-.19-.22-.23.2a3.24,3.24,0,0,0-.48.5,1.25,1.25,0,0,0-.31.77,1.14,1.14,0,0,0,.11.54,1.83,1.83,0,0,0,.42.5,5.23,5.23,0,0,0,1.81.91,9.23,9.23,0,0,0,2.86.39,7.76,7.76,0,0,0,4.44-1.1,5.25,5.25,0,0,0,2.15-3.22,10.52,10.52,0,0,0,.25-1.67c0-.57.06-1.19.06-1.84V59.87l-.25,0a2.05,2.05,0,0,0-1.45.28Zm-.62,3v7.49a1,1,0,0,1-.22.56,3,3,0,0,1-.71.66,5,5,0,0,1-1.1.5,4.46,4.46,0,0,1-1.45.2,4.14,4.14,0,0,1-1.95-.42A3.54,3.54,0,0,1,99.6,71a5.24,5.24,0,0,1-.73-1.78,10,10,0,0,1-.23-2.24,6.12,6.12,0,0,1,1.13-4A4,4,0,0,1,103,61.57a4,4,0,0,1,1.25.17,5.08,5.08,0,0,1,1,.42,5.31,5.31,0,0,1,.71.54Zm7.35-5.55a1.75,1.75,0,0,0,0-2.34,1.51,1.51,0,0,0-2.15-.11.57.57,0,0,0-.11.11,1.75,1.75,0,0,0,0,2.34,1.52,1.52,0,0,0,2.16.11A.52.52,0,0,0,113.68,57.58Zm.37,15.16c-.11-.11-.28-.48-.28-1.53V61.63a1.66,1.66,0,0,0-.65-1.5,2.38,2.38,0,0,0-1.27-.37h-.4V71.1c0,.4,0,.79.06,1.19a3,3,0,0,0,.25,1.07,1.88,1.88,0,0,0,.71.82,2.26,2.26,0,0,0,1.3.31h.62l.68-.14.23,0V73.16H115a1.35,1.35,0,0,1-1-.42ZM127,63.44l-.08-.12a4.14,4.14,0,0,0-1.42-1.24,4.4,4.4,0,0,0-2.12-.45,4.31,4.31,0,0,0-2,.42A3.82,3.82,0,0,0,120,63.21,5.13,5.13,0,0,0,119.2,65a9.21,9.21,0,0,0-.26,2.21,9.31,9.31,0,0,0,.26,2.23,5,5,0,0,0,.79,1.78,3.85,3.85,0,0,0,1.38,1.19,4.51,4.51,0,0,0,2,.43,4.21,4.21,0,0,0,1.53-.26A5,5,0,0,0,126,72a4.89,4.89,0,0,0,.88-.82l.2-.23.22.2.45.45a1.11,1.11,0,0,1,.34.76,1.38,1.38,0,0,1-.65,1,6.41,6.41,0,0,1-4.27,1.44,9,9,0,0,1-2.06-.25,5.61,5.61,0,0,1-2.21-1.1,6.56,6.56,0,0,1-1.75-2.35,9.68,9.68,0,0,1-.71-4,9.87,9.87,0,0,1,.34-2.71,7.62,7.62,0,0,1,.91-2A5.63,5.63,0,0,1,119,61a7.53,7.53,0,0,1,1.47-.88,6.25,6.25,0,0,1,1.47-.45,7.69,7.69,0,0,1,1.27-.12,6.76,6.76,0,0,1,2.63.46,6.21,6.21,0,0,1,1.61.9,1.85,1.85,0,0,1,.51.57,1.22,1.22,0,0,1,.14.56,1.45,1.45,0,0,1-.19.65l-.34.6-.09.14-.28.45Zm2.69-1.67a2.06,2.06,0,0,1,.17-.88,2,2,0,0,1,.48-.65,2.27,2.27,0,0,1,.68-.42,2.32,2.32,0,0,1,1.64,0,2.22,2.22,0,0,1,.71.42,2.2,2.2,0,0,1,.48.65,2.15,2.15,0,0,1-.48,2.41,2.22,2.22,0,0,1-.71.42,2.32,2.32,0,0,1-1.64,0,2,2,0,0,1-1.16-1.1A2.08,2.08,0,0,1,129.66,61.77Zm.57,0a1.77,1.77,0,0,0,.11.68,1.55,1.55,0,0,0,.34.53,1.35,1.35,0,0,0,.51.34,1.57,1.57,0,0,0,1.24,0,1.35,1.35,0,0,0,.51-.34,1.55,1.55,0,0,0,.34-.53,1.8,1.8,0,0,0,.14-.68,1.58,1.58,0,0,0-.14-.65,1.75,1.75,0,0,0-.34-.51,1.54,1.54,0,0,0-1.13-.48,1.45,1.45,0,0,0-.62.11,1.63,1.63,0,0,0-.51.34,1.57,1.57,0,0,0-.34.51,2,2,0,0,0-.09.68Zm.76-1.19h.9a1.23,1.23,0,0,1,.68.17.6.6,0,0,1,.23.54.67.67,0,0,1-.06.28.48.48,0,0,1-.14.2l-.2.11-.25.06.62,1h-.42l-.57-1h-.28v1H131Zm.48,1h.59l.14-.06.09-.11a.47.47,0,0,0,0-.17.2.2,0,0,0-.06-.14l-.11-.08h-.71Z"/>
      <ellipse class="cls-1" cx="64.54" cy="24.53" rx="23.7" ry="23.72"/>
      <path class="cls-2" d="M83.43,10.19A23.68,23.68,0,0,0,45.06,11a108.49,108.49,0,0,1,10.77,6.81c-2-.16-4-.36-5.8-.62A52.91,52.91,0,0,0,44,12.74,23.7,23.7,0,0,0,64.54,48.25h.85A39.48,39.48,0,0,0,62.7,34.93c3,.29,6.16.48,9.67.6a35.43,35.43,0,0,1,3.54,9.84,25.21,25.21,0,0,0,3.11-2,37.5,37.5,0,0,0-3.28-7.75c3.09,0,6.39,0,9.89-.17a22.33,22.33,0,0,0,1.33-3q-7.08.39-13.06.34a61.4,61.4,0,0,0-12-12.24c4.61.14,9.7.05,15.38-.23A73.09,73.09,0,0,1,88,28.49a23.17,23.17,0,0,0,.31-3.62A79.92,79.92,0,0,0,81.08,20q3.17-.28,6.56-.68a25.5,25.5,0,0,0-.73-2.55c-3.4.42-6.62.76-9.68,1-3.67-2-7.57-3.9-11.65-5.63a116.21,116.21,0,0,0,17.65-1.83ZM70.62,32.59c-3.28-.12-6.34-.31-9.14-.6a45,45,0,0,0-8.85-12.33c2,.26,4.1.46,6.34.63a59.73,59.73,0,0,1,11.65,12.3ZM58.63,18a112.76,112.76,0,0,0-11-6.73,121.2,121.2,0,0,0,14.25.82h.2q5.88,2.61,11.48,5.8c-5.49.26-10.43.28-14.9.11Z"/>
      <path class="cls-3" d="M0,0H135V82H0Z"/>
    </g>
  </g>
</svg>
