<svg xmlns="http://www.w3.org/2000/svg" width="195" height="193" viewBox="0 0 195 193">
  <title>news-men</title>
  <g id="Layer_2" data-name="Layer 2">
    <g id="Group_359" data-name="Group 359">
      <rect width="195" height="193" style="fill: none"/>
      <g id="newspaper">
        <path id="Path_224" data-name="Path 224" d="M31.5,122V38.67A2.74,2.74,0,0,1,34.17,36H160.83a2.74,2.74,0,0,1,2.67,2.67V122Z"/>
        <g id="Group_41" data-name="Group 41">
          <path id="Path_225" data-name="Path 225" d="M163.5,122v10.68a2.74,2.74,0,0,1-2.67,2.67H34.17a2.74,2.74,0,0,1-2.67-2.67V122Z" style="fill: #dbdbdb"/>
          <rect id="Rectangle_129" data-name="Rectangle 129" x="69.29" y="154.33" width="56.51" height="2.67" style="fill: #dbdbdb"/>
        </g>
        <path id="Path_226" data-name="Path 226" d="M116.26,154.39H78.74l2.67-18.95h32.18Z" style="fill: #bababa"/>
        <rect id="Rectangle_130" data-name="Rectangle 130" x="36.85" y="41.34" width="121.3" height="75.34" style="fill: #fff"/>
        <path id="Path_227" data-name="Path 227" d="M113.59,135.44H81.41L79.9,146,114,138.82Z" style="fill: #999"/>
        <path id="Path_231" data-name="Path 231" d="M129,110.54H67.51V49.16H129" style="fill: #e2e2e2"/>
        <rect id="Rectangle_134" data-name="Rectangle 134" x="65.9" y="47.56" width="61.5" height="61.37" style="fill: #fff"/>
        <path id="Path_232" data-name="Path 232" d="M127.85,109.38H65.37V47h62.48Zm-61.5-1h60.52V48H66.35Z" style="fill: #9e9e9e"/>
        <g id="Group_43" data-name="Group 43" style="opacity: 0.5">
          <rect id="Rectangle_135" data-name="Rectangle 135" x="95.46" y="72.08" width="24.87" height="1.51" style="fill: #9e9e9e"/>
        </g>
        <g id="Group_44" data-name="Group 44" style="opacity: 0.5">
          <rect id="Rectangle_136" data-name="Rectangle 136" x="95.46" y="77.83" width="24.87" height="1.51" style="fill: #9e9e9e"/>
        </g>
        <g id="Group_45" data-name="Group 45" style="opacity: 0.5">
          <rect id="Rectangle_137" data-name="Rectangle 137" x="95.46" y="89.32" width="24.87" height="1.51" style="fill: #9e9e9e"/>
        </g>
        <g id="Group_46" data-name="Group 46" style="opacity: 0.5">
          <rect id="Rectangle_138" data-name="Rectangle 138" x="95.46" y="83.58" width="24.87" height="1.51" style="fill: #9e9e9e"/>
        </g>
        <g id="Group_47" data-name="Group 47" style="opacity: 0.5">
          <rect id="Rectangle_139" data-name="Rectangle 139" x="72.86" y="100.82" width="47.51" height="1.51" style="fill: #9e9e9e"/>
        </g>
        <g id="Group_48" data-name="Group 48" style="opacity: 0.5">
          <rect id="Rectangle_140" data-name="Rectangle 140" x="72.86" y="95.08" width="47.51" height="1.51" style="fill: #9e9e9e"/>
        </g>
        <rect id="Rectangle_141" data-name="Rectangle 141" x="72.86" y="72.56" width="17.11" height="17.88" style="fill: #333"/>
        <g id="Group_49" data-name="Group 49">
          <rect id="Rectangle_142" data-name="Rectangle 142" x="81.41" y="81.43" width="8.56" height="8.89" style="fill: #f39c79"/>
          <rect id="Rectangle_143" data-name="Rectangle 143" x="72.86" y="72.53" width="8.56" height="8.89" style="fill: #f39c79"/>
        </g>
        <g id="Group_50" data-name="Group 50">
          <path id="Path_233" data-name="Path 233" d="M73.41,65.65V54h3.12l2.41,4.27a38.87,38.87,0,0,1,1.87,4h.09a43,43,0,0,1-.27-4.81V54H83V65.65H80.28l-2.5-4.45c-.71-1.33-1.42-2.67-2-4.09h-.09c.09,1.51.09,3.2.09,5.07v3.47Z" style="fill: #f34500"/>
          <path id="Path_234" data-name="Path 234" d="M93.11,60.76H88.83v2.75h4.82v2.14H86.16V54h7.22v2.13H88.83v2.4h4.28Z" style="fill: #f34500"/>
          <path id="Path_235" data-name="Path 235" d="M98.19,65.65,95.43,54h2.85l.89,4.8c.27,1.42.54,2.85.72,4.09h0a38.08,38.08,0,0,1,.8-4.09l1-4.8h2.76l1,4.89c.27,1.33.45,2.58.63,3.91h0c.17-1.33.44-2.67.71-4.09l1-4.8h2.67l-3.12,11.74h-2.85l-1-5a22.78,22.78,0,0,1-.53-3.56h0a21,21,0,0,1-.72,3.56l-1.07,5Z" style="fill: #f34500"/>
          <path id="Path_236" data-name="Path 236" d="M112.45,63a6.57,6.57,0,0,0,2.94.71c1.25,0,1.88-.53,1.88-1.24s-.54-1.16-2-1.61c-2-.71-3.21-1.77-3.21-3.46,0-2,1.69-3.47,4.45-3.47a6.64,6.64,0,0,1,2.94.62l-.62,2a5.82,5.82,0,0,0-2.41-.54c-1.15,0-1.69.54-1.69,1.16s.62,1.07,2.14,1.6c2,.8,3,1.87,3,3.47,0,1.95-1.52,3.64-4.72,3.64a8,8,0,0,1-3.3-.71Z" style="fill: #f34500"/>
        </g>
      </g>
    </g>
  </g>
</svg>
