<svg xmlns="http://www.w3.org/2000/svg" width="192" height="143" viewBox="0 0 192 143">
  <title>news-ftr-wmn</title>
  <g id="Layer_2" data-name="Layer 2">
    <g id="Layer_1-2" data-name="Layer 1">
      <g id="grandmother">
        <path id="Path_237" data-name="Path 237" d="M73.44,73.06a9.15,9.15,0,0,1-3.35-6.69V61.11c0-15.45-12-28.83-27.4-29.63A28.58,28.58,0,0,0,12.58,58.72v7.65a8.61,8.61,0,0,1-3.34,6.69A16.15,16.15,0,0,0,30.43,97.43H52.09A16.24,16.24,0,1,0,73.75,73.22a.47.47,0,0,0-.31-.16Z" style="fill: #aea8af"/>
        <path id="Path_238" data-name="Path 238" d="M73.44,73.06a9.15,9.15,0,0,1-3.35-6.69V61.11c0-15.45-12-28.83-27.4-29.63H41.26V97.59H52.09A16.24,16.24,0,1,0,73.75,73.38a.33.33,0,0,0-.31-.32Z" style="fill: #c9c6ca"/>
        <path id="Path_239" data-name="Path 239" d="M76.62,116.7l-22.3-10.51A3.67,3.67,0,0,1,52.25,103V90.9H30.59V103a3.33,3.33,0,0,1-2.08,3.19L6.21,116.7A10.69,10.69,0,0,0,0,126.42v11.15A5.37,5.37,0,0,0,5.42,143h72a5.37,5.37,0,0,0,5.41-5.42V126.42A10.68,10.68,0,0,0,76.62,116.7Z" style="fill: #765a3f"/>
        <path id="Path_240" data-name="Path 240" d="M72.8,120.53l3.82-3.83h0L61,109.38c-2.87,6.05-10.51,10.35-19.59,10.35s-16.73-4.3-19.6-10.35L6.21,116.7h0L10,120.53a8.92,8.92,0,0,1,2.7,6.37V143H70.41V126.9A8.63,8.63,0,0,1,72.8,120.53Z" style="fill: #f34500"/>
        <path id="Path_241" data-name="Path 241" d="M30.59,97.27a24.66,24.66,0,0,0,21.66,0V90.74H30.59Z" style="fill: #644f3b"/>
        <path id="Path_242" data-name="Path 242" d="M41.42,96.15h0A21.68,21.68,0,0,1,19.75,74.49h0V49.32H62.92V74.49A21.44,21.44,0,0,1,41.42,96.15Z" style="fill: #765a3f"/>
        <path id="Path_243" data-name="Path 243" d="M41.42,85a10.24,10.24,0,0,1-7-2.23,1.8,1.8,0,1,1,2.39-2.7h0a8.23,8.23,0,0,0,8.92,0,1.8,1.8,0,1,1,2.39,2.7h0A10.53,10.53,0,0,1,41.42,85Z" style="fill: #b67f5f"/>
        <g id="Group_51" data-name="Group 51">
          <path id="Path_244" data-name="Path 244" d="M31.54,71.85a1.76,1.76,0,0,1-1.75-1.75h0V68.19a1.75,1.75,0,0,1,3.5,0v1.75a1.63,1.63,0,0,1-1.75,1.91Z" style="fill: #2f282b"/>
          <path id="Path_245" data-name="Path 245" d="M51.3,71.85a1.77,1.77,0,0,1-1.76-1.75h0V68.19a1.76,1.76,0,0,1,3.51,0v1.75a1.81,1.81,0,0,1-1.75,1.91Z" style="fill: #2f282b"/>
        </g>
        <g id="Group_52" data-name="Group 52">
          <path id="Path_246" data-name="Path 246" d="M63,66.21V49.33H29.53v.32l-1.28,2.23L30,53.79A39.71,39.71,0,0,0,59.31,66.38,28.62,28.62,0,0,0,63,66.21Z" style="fill: #5c4734"/>
          <path id="Path_247" data-name="Path 247" d="M25.22,74.5V49.33H19.81V74.5A21.72,21.72,0,0,0,41.15,96.16a20.2,20.2,0,0,0,3-.16A21.67,21.67,0,0,1,25.22,74.5Z" style="fill: #5c4734"/>
        </g>
        <g id="Group_53" data-name="Group 53">
          <path id="Path_248" data-name="Path 248" d="M12.61,132.17h0V143h3.66v-7.17A3.7,3.7,0,0,0,12.61,132.17Z" style="fill: #f36831"/>
          <path id="Path_249" data-name="Path 249" d="M70.27,132.17h0V143H66.61v-7.17A3.6,3.6,0,0,1,70.27,132.17Z" style="fill: #f36831"/>
        </g>
        <path id="Path_250" data-name="Path 250" d="M41.42,112.4c-6.22,0-11.63-2.55-13.86-6.69a1.78,1.78,0,1,1,3.18-1.59c1.44,2.86,5.9,4.78,10.68,4.78s9.24-1.92,10.67-4.78a1.82,1.82,0,0,1,3.35,1.43.16.16,0,0,1-.16.16C53.21,109.69,47.79,112.4,41.42,112.4Z" style="fill: #9c969e"/>
        <path id="Path_251" data-name="Path 251" d="M42.85,31.32a28.83,28.83,0,0,0-18.64,5.73A40.5,40.5,0,0,0,62,62.7a38.59,38.59,0,0,0,8.44-1v-1C70.25,45.5,58.3,32.12,42.85,31.32Z" style="fill: #dbd9dc"/>
        <g id="Group_54" data-name="Group 54">
          <path id="Path_252" data-name="Path 252" d="M48.29,32.12a34.15,34.15,0,0,0-5.42-.8,28.85,28.85,0,0,0-30.26,27.4V63.5A36.46,36.46,0,0,0,48.29,32.12Z" style="fill: #c9c6ca"/>
          <path id="Path_253" data-name="Path 253" d="M41.44,119.57h1.75V112.4a1.77,1.77,0,0,0-1.75-1.75h0a1.76,1.76,0,0,0-1.75,1.75h0v7.17Z" style="fill: #c9c6ca"/>
        </g>
        <path id="Path_254" data-name="Path 254" d="M61,109.22c-2.87,6-10.51,10.35-19.59,10.35s-16.73-4.3-19.6-10.35l-3.18,1.43c3,7.33,12,12.42,22.78,12.42S61,118,64.2,110.65Z" style="fill: #f36831"/>
      </g>
      <g id="grandmother-2" data-name="grandmother">
        <g id="Group_61" data-name="Group 61">
          <path id="Path_280" data-name="Path 280" d="M136.92,79.82a6.05,6.05,0,0,0-6,6.05h0a6.26,6.26,0,0,0,.64,2.87,8.16,8.16,0,0,0-4.14,10.67,8.27,8.27,0,0,0,7.48,4.78h12.27V79.82Z" style="fill: #2c2d2e"/>
          <path id="Path_281" data-name="Path 281" d="M177.55,79.82a6.05,6.05,0,0,1,6,6.05h0a7.53,7.53,0,0,1-.64,2.71,8.16,8.16,0,0,1,4.14,10.67,8.27,8.27,0,0,1-7.48,4.78H167.35V79.82Z" style="fill: #2c2d2e"/>
        </g>
        <path id="Path_282" data-name="Path 282" d="M184,102.38,169.7,95.21a3.87,3.87,0,0,1-2.23-3.66H147.08a3.89,3.89,0,0,1-2.23,3.66l-14.34,7.17a14.22,14.22,0,0,0-7.8,12.74v25.81a2.11,2.11,0,0,0,2.07,2.07h65.15a2.11,2.11,0,0,0,2.07-2.07V115.12A14.69,14.69,0,0,0,184,102.38Z" style="fill: #f34500"/>
        <path id="Path_283" data-name="Path 283" d="M157.27,104.29A20.48,20.48,0,0,0,173,96.8l-3.34-1.59a3.87,3.87,0,0,1-2.23-3.66H147.08a3.89,3.89,0,0,1-2.23,3.66L141.5,96.8A20.51,20.51,0,0,0,157.27,104.29Z" style="fill: #fad098"/>
        <path id="Path_284" data-name="Path 284" d="M167.47,91.55H147.08a4.15,4.15,0,0,1-2.07,3.5,27.64,27.64,0,0,0,11.63,3.19h.47a27.41,27.41,0,0,0,12.27-3A4.66,4.66,0,0,1,167.47,91.55Z" style="fill: #d7af7d"/>
        <ellipse id="Ellipse_23" data-name="Ellipse 23" cx="157.27" cy="56.34" rx="28.51" ry="27.4" style="fill: #303645"/>
        <path id="Path_285" data-name="Path 285" d="M147.08,54.43a27.56,27.56,0,0,1,16.25-24.85,26,26,0,0,0-6.06-.64c-15.77,0-28.51,12.27-28.51,27.4s12.74,27.4,28.51,27.4A29.78,29.78,0,0,0,169.54,81,27.43,27.43,0,0,1,147.08,54.43Z" style="fill: #2c2d2e"/>
        <path id="Path_286" data-name="Path 286" d="M146,54.43a39.78,39.78,0,0,1-8.6,6A4,4,0,0,0,135,64.15v6.69c0,12.26,9.72,22.94,22,23.1a22.3,22.3,0,0,0,22.78-22v-.47c0-13.7-20.7-10.52-31.38-17.37A2.18,2.18,0,0,0,146,54.43Z" style="fill: #ffe1b4"/>
        <path id="Path_287" data-name="Path 287" d="M147.08,71.63V54a1.45,1.45,0,0,0-1.12.48,39.78,39.78,0,0,1-8.6,6A4,4,0,0,0,135,64.15v6.69c0,12.26,9.72,22.94,22,23.1a29.34,29.34,0,0,0,6.54-.8A22.32,22.32,0,0,1,147.08,71.63Z" style="fill: #fad098"/>
        <path id="Path_288" data-name="Path 288" d="M157.27,83.9A11.12,11.12,0,0,1,150,81.35a2,2,0,0,1,2.54-3.18h0a8.13,8.13,0,0,0,9.56,0,2,2,0,1,1,2.55,3.18A11.13,11.13,0,0,1,157.27,83.9Z" style="fill: #d7af7d"/>
        <path id="Path_289" data-name="Path 289" d="M161.26,71.63a2.2,2.2,0,0,1-1.76-.95,3.28,3.28,0,0,0-4.62-.16l-.16.16a2.05,2.05,0,1,1-3.34-2.39,7.12,7.12,0,0,1,9.88-1.59,7.49,7.49,0,0,1,1.59,1.59,2.19,2.19,0,0,1-.48,2.87,1.44,1.44,0,0,1-1.11.47Z" style="fill: #7f8499"/>
        <g id="Group_62" data-name="Group 62">
          <path id="Path_290" data-name="Path 290" d="M135.4,118.39l-9.08-12.9a14.34,14.34,0,0,0-3.66,9.56v25.8a2.11,2.11,0,0,0,2.07,2.07H137V123A10,10,0,0,0,135.4,118.39Z" style="fill: #bf3600"/>
          <path id="Path_291" data-name="Path 291" d="M179.05,118.39l9.08-12.9a14,14,0,0,1,3.66,9.56v25.8a2.1,2.1,0,0,1-2.07,2.07H177.46V123A10,10,0,0,1,179.05,118.39Z" style="fill: #bf3600"/>
          <path id="Path_292" data-name="Path 292" d="M157.23,114.41a30.68,30.68,0,0,0,25-12.9l-3.83-1.92a26.31,26.31,0,0,1-42.37,0l-3.66,1.92A30.15,30.15,0,0,0,157.23,114.41Z" style="fill: #bf3600"/>
        </g>
        <g id="Group_63" data-name="Group 63">
          <path id="Path_293" data-name="Path 293" d="M147.06,77.75a8.13,8.13,0,1,1,8.13-8.12A8.15,8.15,0,0,1,147.06,77.75Zm0-12.11a4.12,4.12,0,0,0-4.14,4.14,4.15,4.15,0,1,0,8.29,0h0a4.12,4.12,0,0,0-4.15-4.14Z" style="fill: #959cb5"/>
          <path id="Path_294" data-name="Path 294" d="M167.45,77.75a8.13,8.13,0,1,1,8.13-8.12h0A8.16,8.16,0,0,1,167.45,77.75Zm0-12.11a4.15,4.15,0,1,0,4.15,4.14h0a4.23,4.23,0,0,0-4.15-4.14Z" style="fill: #959cb5"/>
        </g>
        <g id="Group_64" data-name="Group 64">
          <path id="Path_295" data-name="Path 295" d="M147.11,71.62A2,2,0,0,1,145,69.71v-.79a2.08,2.08,0,0,1,4.15,0v.79a2,2,0,0,1-2.08,1.91Z" style="fill: #64463c"/>
          <path id="Path_296" data-name="Path 296" d="M167.5,71.62a2.11,2.11,0,0,1-2.07-2.07h0v-.63a2.08,2.08,0,0,1,4.15,0v.79a2.08,2.08,0,0,1-2.08,1.91Z" style="fill: #64463c"/>
        </g>
      </g>
      <rect width="192" height="143" style="fill: none"/>
    </g>
  </g>
</svg>
