<svg xmlns="http://www.w3.org/2000/svg" width="195" height="193" viewBox="0 0 195 193">
  <title>news-wmn</title>
  <g id="Layer_2" data-name="Layer 2">
    <g id="Group_359" data-name="Group 359">
      <g id="news-tv">
        <path id="Path_1585" data-name="Path 1585" d="M102.09,145.42V115.86H93v29.43H71.67v2.85h51.66v-2.85H102.09Z" style="fill: #666"/>
        <path id="Path_1586" data-name="Path 1586" d="M93,131.56v13.73s1,1.61,4.47,1.61,4.47-1.48,4.47-1.48S95.76,146.65,93,131.56Z" style="fill: #555"/>
        <g id="Group_355" data-name="Group 355">
          <rect id="Rectangle_445" data-name="Rectangle 445" x="12.94" y="46.84" width="169.12" height="84.84" style="fill: #edf0f2"/>
          <path id="Path_1587" data-name="Path 1587" d="M184.05,133.67H11V44.86h173.1Zm-169.12-4H180.07V48.82H14.93Z"/>
        </g>
        <path id="Path_1588" data-name="Path 1588" d="M181.19,125,118.11,63.66a35,35,0,0,0-49.29-1.11,35.59,35.59,0,0,0-8.69,13.36H57.39a35.08,35.08,0,0,0,0,23.62l5,4.82a39.3,39.3,0,0,0,5.71,7.8l19.37,18.92h93.75V125Z" style="fill: #d6d7d9"/>
        <path id="Path_1589" data-name="Path 1589" d="M125.81,75.91a34.46,34.46,0,1,0,2.11,11.75A37.51,37.51,0,0,0,125.81,75.91Zm-32.9,41.92a30.05,30.05,0,1,1,30.17-30,31.5,31.5,0,0,1-2.36,11.75A30.11,30.11,0,0,1,92.91,117.83Z" style="fill: #1c2ede"/>
        <path id="Path_1590" data-name="Path 1590" d="M123.33,85.8v-.25H111.9a50.21,50.21,0,0,0-1.36-9.64H121l-.13-.37a38.52,38.52,0,0,0-2-3.84l-.13-.12h-9.56a25.14,25.14,0,0,0-2.48-5.2,20.33,20.33,0,0,0-9.44-8.78h-.12a15.94,15.94,0,0,0-2.49-.24,19.05,19.05,0,0,0-3.85,0c-.74.12-1.61.12-2.48.24h-.12c-3.6,1.36-7,4.33-9.44,8.78a40,40,0,0,0-2.48,5.2H66.83l-.12.12a36.57,36.57,0,0,0-2,3.84l-.12.37H75a50.78,50.78,0,0,0-1.37,9.64H62.24v.25c0,.62-.13,1.24-.13,1.86a8.86,8.86,0,0,0,.13,1.85v.25H73.66A49.55,49.55,0,0,0,75,99.41H64.6l.12.37a36.41,36.41,0,0,0,2,3.83l.12.13h9.56a25.3,25.3,0,0,0,2.48,5.19,20.32,20.32,0,0,0,9.44,8.78h.13a15.64,15.64,0,0,0,2.48.25c.62,0,1.24.12,1.86.12a9.69,9.69,0,0,0,1.86-.12c.75-.13,1.62-.13,2.49-.25h.12c3.6-1.36,7-4.33,9.44-8.78a39.82,39.82,0,0,0,2.48-5.19h9.56l.13-.13a38.35,38.35,0,0,0,2-3.83l.13-.37H110.54a51.68,51.68,0,0,0,1.36-9.65h11.43v-.25c0-.62.12-1.23.12-1.85A9.69,9.69,0,0,0,123.33,85.8Zm-18.75,18.06c-2.36,5.56-5.71,9.4-9.44,10.39V103.86Zm3-14a42.45,42.45,0,0,1-1.49,9.65H95.14V89.88ZM95,71.58V61.19c3.72,1.11,7.07,4.82,9.43,10.39Zm12.54,14H95.14V75.91h10.93A63.2,63.2,0,0,1,107.56,85.55ZM90.67,103.86v10.26C87,113,83.59,109.3,81.23,103.74h9.44Zm0-14v9.77H79.74A43.5,43.5,0,0,1,78.25,90l12.42-.13Zm0-14v9.64H78.25a42.45,42.45,0,0,1,1.49-9.64Zm0-14.72V71.58H81.23C83.59,66,87.07,62.3,90.67,61.19Z" style="fill: #f37949"/>
        <g id="Group_356" data-name="Group 356">
          <path id="Path_1591" data-name="Path 1591" d="M123.28,85.84v-.25H111.86a50.2,50.2,0,0,0-1.36-9.65h10.43l-.13-.37a35.45,35.45,0,0,0-2-3.83l-.12-.13h-9.56a25.3,25.3,0,0,0-2.48-5.19,19.55,19.55,0,0,0-8.45-8.29l-1-.37h-.12a15.9,15.9,0,0,0-2.49-.25c-.62,0-1.24-.12-1.86-.12v60.73A9,9,0,0,0,94.6,118c.75-.12,1.62-.12,2.49-.25h.12l1-.37a19.53,19.53,0,0,0,8.45-8.28,41.29,41.29,0,0,0,2.48-5.2h9.68l.13-.12a39.62,39.62,0,0,0,2-3.84l.12-.37H110.62A52.44,52.44,0,0,0,112,89.92h11.42v-.25c0-.62.12-1.24.12-1.86S123.41,86.45,123.28,85.84ZM104.54,71.61H95.1V61.22C98.7,62.34,102.18,66.05,104.54,71.61ZM95.1,114.16V103.77h9.44C102.18,109.33,98.7,113.17,95.1,114.16ZM106,99.56H95.1V89.79h12.42A44.06,44.06,0,0,1,106,99.56Zm-10.93-14V75.94H106a44.18,44.18,0,0,1,1.49,9.65Z" style="fill: #f34500"/>
          <path id="Path_1592" data-name="Path 1592" d="M92.86,52.94a34.75,34.75,0,1,0,34.89,34.75h0A34.85,34.85,0,0,0,92.86,52.94Zm0,64.93A30.12,30.12,0,1,1,123,87.69h0A30.18,30.18,0,0,1,92.86,117.87Z" style="fill: #f34500"/>
        </g>
        <path id="Path_1593" data-name="Path 1593" d="M92.91,52.9v4.7a26.48,26.48,0,0,1,5.46.5,30.13,30.13,0,0,1,20.11,13.48,28.17,28.17,0,0,1,2.24,4.33,32.35,32.35,0,0,1,2.36,9.64,12.45,12.45,0,0,1,.12,2.11,11.65,11.65,0,0,1-.12,2.1,29,29,0,0,1-2.36,9.65,36.46,36.46,0,0,1-2.24,4.33,30.73,30.73,0,0,1-20.11,13.6,42.23,42.23,0,0,1-5.46.49v4.7a34.82,34.82,0,1,0,0-69.63Z" style="fill: #bf3600"/>
        <path id="Path_1594" data-name="Path 1594" d="M130.53,87.66a34.1,34.1,0,0,1-2.11,11.75H57.27a35.11,35.11,0,0,1,0-23.63h71.15A32.89,32.89,0,0,1,130.53,87.66Z" style="fill: #fff"/>
        <path id="Path_1595" data-name="Path 1595" d="M130.53,87.66a34.1,34.1,0,0,1-2.11,11.75H92.91V75.91h35.51A31.73,31.73,0,0,1,130.53,87.66Z" style="fill: #dcdcdc"/>
        <g id="Group_357" data-name="Group 357">
          <path id="Path_1596" data-name="Path 1596" d="M68.43,86v7.91H66.08V81.55h1.86l6.45,8.16V81.55h2.36V93.91H74.89Z" style="fill: #f37949"/>
          <path id="Path_1597" data-name="Path 1597" d="M88.92,91.81v2.1H80.23V81.55h8.44v2.1H82.59v3H87.8v2H82.59v3.21Z" style="fill: #f37949"/>
          <path id="Path_1598" data-name="Path 1598" d="M96.12,81.55h2.24l1.37,4.08,1.36-4.08h2.24l-2.11,5.69,1.61,4,3.6-9.77H109L104,93.79h-2L99.85,88.6l-2.24,5.19h-2l-5-12.37h2.61l3.6,9.65,1.49-4Z" style="fill: #f37949"/>
        </g>
        <g id="Group_358" data-name="Group 358">
          <path id="Path_1599" data-name="Path 1599" d="M106.28,81.49l-3.48,9.65-1.61-4,2.11-5.69h-2.24l-1.49,4.2-1.36-4.08H96l2.11,5.69-1.49,3.84L93,81.49h-.12v6.06l2.6,6.31h2l2.11-5.2,2.24,5.2h2l5.09-12.37Z" style="fill: #f34500"/>
          <path id="Path_1600" data-name="Path 1600" d="M118.2,84.7a2,2,0,0,0-.5-.37L117,84a6,6,0,0,0-2.11-.49,3.31,3.31,0,0,0-1.49.37,1.57,1.57,0,0,0-.49,1,.93.93,0,0,0,.25.62c.12.24.37.37.49.49s.62.25.87.37a12.67,12.67,0,0,0,1.24.37c.62.13,1.12.37,1.62.5a3.8,3.8,0,0,1,1.24.62,3.52,3.52,0,0,1,.87,1.11,3.09,3.09,0,0,1,.25,1.48,4,4,0,0,1-.38,1.74,2.91,2.91,0,0,1-1,1.11,7.85,7.85,0,0,1-1.49.62,8.67,8.67,0,0,1-1.74.24,10.26,10.26,0,0,1-2.73-.37,6.63,6.63,0,0,1-2.48-1.23L111,90.39a1.06,1.06,0,0,0,.63.37,3.55,3.55,0,0,0,1,.5,2.37,2.37,0,0,0,1.24.37,5.5,5.5,0,0,0,1.37.25c1.36,0,2-.37,2-1.24A.93.93,0,0,0,117,90a1.22,1.22,0,0,0-.62-.49c-.37-.13-.62-.25-1-.37s-.87-.25-1.37-.37a7.46,7.46,0,0,1-1.49-.5,4.76,4.76,0,0,1-1.11-.62,2.57,2.57,0,0,1-.62-1,3.49,3.49,0,0,1-.25-1.23,3.38,3.38,0,0,1,.37-1.61,4.83,4.83,0,0,1,1-1.24,2.85,2.85,0,0,1,1.49-.74,2.88,2.88,0,0,1,1.74-.25,7.44,7.44,0,0,1,2.36.37,10,10,0,0,1,2,1Z" style="fill: #f34500"/>
        </g>
        <path id="Path_1601" data-name="Path 1601" d="M184.05,133.67H11V44.86h173.1Zm-169.12-4H180.07V48.82H14.93Z"/>
      </g>
      <rect width="195" height="193" style="fill: none"/>
    </g>
  </g>
</svg>
