<svg xmlns="http://www.w3.org/2000/svg" width="192" height="143" viewBox="0 0 192 143">
  <title>news-ftr-mn</title>
  <g id="Layer_2" data-name="Layer 2">
    <g id="Layer_1-2" data-name="Layer 1">
      <g id="grandfather">
        <path id="Path_255" data-name="Path 255" d="M154.11,36.51a24.67,24.67,0,0,0-24.64,24.65h0v7.32H178.6V61.16a24.45,24.45,0,0,0-24.49-24.65Z" style="fill: #b5b3b1"/>
        <path id="Path_256" data-name="Path 256" d="M134.4,62.2h0a8.07,8.07,0,0,1,4.33-6.72h0s4.48-3.13,1.49-7.47a32.1,32.1,0,0,1-3-4.78,24.52,24.52,0,0,0-7.76,17.93v7.32h4.93V62.2Z" style="fill: #aaa6a2"/>
        <path id="Path_257" data-name="Path 257" d="M191.9,137.33l-4.63-23.45a9.7,9.7,0,0,0-7.17-7.32l-12.55-3.73H140.67l-12.55,3.73h0a10.52,10.52,0,0,0-6,4.18c-1.49,2.54-1.05,3.14-6,26.58-.29,1.65-.29,5.68,4.93,5.68H187C192.19,143,192.19,139,191.9,137.33Z" style="fill: #404040"/>
        <g id="Group_55" data-name="Group 55">
          <path id="Path_258" data-name="Path 258" d="M121.55,137.25c5.08-26.29,4.18-27.93,7.17-30.92l-.6.15h0a10.52,10.52,0,0,0-6,4.18c-1.49,2.54-1.05,3.14-6,26.59-.29,1.64-.29,5.67,4.93,5.67h5.38C121.4,142.92,121.4,138.89,121.55,137.25Z" style="fill: #333"/>
          <path id="Path_259" data-name="Path 259" d="M132.45,142.92V126.19a1.57,1.57,0,1,0-3.13-.14v16.87Z" style="fill: #333"/>
          <path id="Path_260" data-name="Path 260" d="M178.9,142.92V126.19a1.57,1.57,0,1,0-3.13-.14v16.87Z" style="fill: #333"/>
        </g>
        <path id="Path_261" data-name="Path 261" d="M162.32,94.46h0a19.7,19.7,0,0,1-16.42,0h0v5.38l4.48,10.6H158l4.48-10.6-.15-5.38Z" style="fill: #dd9554"/>
        <path id="Path_262" data-name="Path 262" d="M151.12,96a16.3,16.3,0,0,1-5.22-1.65h0v5.38l4.48,10.6h.89L151.12,96Z" style="fill: #ce884e"/>
        <path id="Path_263" data-name="Path 263" d="M163.07,126.27a2.3,2.3,0,0,0-2.24,2.24v3.74a4.6,4.6,0,0,0,4.78,4.18h.15a4.5,4.5,0,0,0,4.78-4.18v-3.74a2.3,2.3,0,0,0-2.24-2.24Z" style="fill: #aaa6a2"/>
        <path id="Path_264" data-name="Path 264" d="M165.31,132.25v-3.74a2.3,2.3,0,0,1,2.24-2.24h-4.63a2.3,2.3,0,0,0-2.24,2.24v3.74c0,3.28,4,5.08,7.17,3.58A4.11,4.11,0,0,1,165.31,132.25Z" style="fill: #99928c"/>
        <path id="Path_265" data-name="Path 265" d="M155.75,126.27V110.44h-3.28v15.83a1.66,1.66,0,0,0,1.64,1.65,1.89,1.89,0,0,0,1.64-1.65Z" style="fill: #333"/>
        <g id="Group_56" data-name="Group 56">
          <path id="Path_266" data-name="Path 266" d="M162.35,99.34l-4.63,11,3.88,2.84a1.49,1.49,0,0,0,2.24-.3c.15-.15.15-.3.3-.45l3.43-9.71Z" style="fill: #aaa6a2"/>
          <path id="Path_267" data-name="Path 267" d="M145.77,99.34l4.63,11-3.74,2.84a1.49,1.49,0,0,1-2.24-.3c-.14-.15-.29-.3-.29-.45l-3.44-9.71Z" style="fill: #aaa6a2"/>
        </g>
        <g id="Group_57" data-name="Group 57">
          <path id="Path_268" data-name="Path 268" d="M128.3,70c0,2.84,2.69,5.08,6.13,5.08V64.94C131,64.94,128.3,67.18,128.3,70Z" style="fill: #dd9554"/>
          <path id="Path_269" data-name="Path 269" d="M180,70c0,2.84-2.69,5.08-6.12,5.08V64.94C177.14,64.94,180,67.18,180,70Z" style="fill: #dd9554"/>
        </g>
        <g id="Group_58" data-name="Group 58">
          <path id="Path_270" data-name="Path 270" d="M128.9,67.83c-1.94,3.43.89,7.31,5.52,7.31V70.66A6.23,6.23,0,0,1,128.9,67.83Z" style="fill: #ce884e"/>
          <path id="Path_271" data-name="Path 271" d="M173.85,70.66v4.48c4.63,0,7.47-4,5.53-7.32A6.24,6.24,0,0,1,173.85,70.66Z" style="fill: #ce884e"/>
        </g>
        <path id="Path_272" data-name="Path 272" d="M173.82,62.2h0a8.09,8.09,0,0,0-4.33-6.72h0S165,52.35,168,48a32.1,32.1,0,0,0,3-4.78,24.56,24.56,0,0,0-33.76,0,23.22,23.22,0,0,0,3,4.78c3,4.34-1.49,7.47-1.49,7.47h0a8.07,8.07,0,0,0-4.33,6.72h0V77A19.69,19.69,0,0,0,154.11,96.7a19.3,19.3,0,0,0,2.84-.14C176.06,93.72,173.67,76.54,173.82,62.2Z" style="fill: #ebae6d"/>
        <g id="Group_59" data-name="Group 59">
          <path id="Path_273" data-name="Path 273" d="M167.59,68.47a1.52,1.52,0,0,1,.3-2.24l4.93-3.88a1.51,1.51,0,0,1,2.24.3,1.64,1.64,0,0,1-.3,2.24l-4.93,3.88A1.52,1.52,0,0,1,167.59,68.47Z" style="fill: #9b948f"/>
          <path id="Path_274" data-name="Path 274" d="M156.84,71.76h-5.38a1.77,1.77,0,0,1-1.64-1.64,1.5,1.5,0,0,1,1.49-1.5h5.38a1.53,1.53,0,0,1,1.64,1.5c.15.89-.59,1.49-1.49,1.64Z" style="fill: #9b948f"/>
        </g>
        <path id="SVGCleanerId_0" data-name="SVGCleanerId 0" d="M145,63.25a6.87,6.87,0,1,0,6.87,6.87h0A6.67,6.67,0,0,0,145,63.25Z" style="fill: #f9ddb4"/>
        <path id="Path_275" data-name="Path 275" d="M163.07,63.25a6.87,6.87,0,1,0,6.87,6.87A6.76,6.76,0,0,0,163.07,63.25Z" style="fill: #f9ddb4"/>
        <path id="Path_276" data-name="Path 276" d="M163.07,63.25A6.68,6.68,0,0,0,158,65.49l9.71,9.71a6.86,6.86,0,0,0,.45-9.71A6.46,6.46,0,0,0,163.07,63.25Z" style="fill: #f9e6cd"/>
        <path id="Path_277" data-name="Path 277" d="M139.77,77V63.25h0c0-9.11,2.69-16,6.27-20.17h0c.15-.14,2.84-5.07,13.3-6a11.58,11.58,0,0,0-2.24-.3h0a24.15,24.15,0,0,0-19.72,6.57,22.8,22.8,0,0,0,3,4.78c3,4.34-1.49,7.47-1.49,7.47h0a8.1,8.1,0,0,0-4.34,6.72h0V77.14a19.7,19.7,0,0,0,19.72,19.71A16.18,16.18,0,0,0,157,96.7C148.29,95.51,139.77,86.85,139.77,77Z" style="fill: #dd9554"/>
        <path id="Path_278" data-name="Path 278" d="M138.28,68.77l-4.93-3.88a1.6,1.6,0,1,1,1.94-2.54h0l4.93,3.88a1.5,1.5,0,0,1,.15,2.24,1.44,1.44,0,0,1-2.09.3Z" style="fill: #9b948f"/>
        <g id="Group_60" data-name="Group 60">
          <path id="SVGCleanerId_0-2" data-name="SVGCleanerId 0" d="M145.05,63.21a6.87,6.87,0,1,0,6.87,6.87h0A6.86,6.86,0,0,0,145.05,63.21Z" style="fill: #f9ddb4"/>
        </g>
        <path id="Path_279" data-name="Path 279" d="M145,63.25a6.68,6.68,0,0,0-5.08,2.24l9.71,9.71a6.86,6.86,0,0,0,.45-9.71A6.46,6.46,0,0,0,145,63.25Z" style="fill: #f9e6cd"/>
      </g>
      <g id="businessman">
        <path id="Path_297" data-name="Path 297" d="M69.6,142.85H48.69V98.79l7-18.52A23.34,23.34,0,0,1,79,103.57V143H69.6Z" style="fill: #4f4f4f"/>
        <g id="Group_65" data-name="Group 65">
          <path id="Path_298" data-name="Path 298" d="M62.69,36a7,7,0,0,1,0,14H60.3V36Z" style="fill: #553a28"/>
          <path id="Path_299" data-name="Path 299" d="M60.3,50v9.26A13.94,13.94,0,0,1,48.65,73a11.2,11.2,0,0,1-2.24.15h-14A11.3,11.3,0,0,1,30.13,73,14.06,14.06,0,0,1,18.48,59.26V22.07H60.3V50ZM53,39.55A3.44,3.44,0,1,0,49.55,43h0A3.37,3.37,0,0,0,53,39.55Zm-20.91,0A3.44,3.44,0,1,0,28.64,43h0A3.37,3.37,0,0,0,32.07,39.55Z" style="fill: #553a28"/>
        </g>
        <path id="Path_300" data-name="Path 300" d="M48.69,22H18.52V8.13H46.3A13.87,13.87,0,0,1,60.19,22H48.69Z"/>
        <path id="Path_301" data-name="Path 301" d="M55.71,80.12l-7,18.52-9.26-9.26,9.26-9.26Z" style="fill: #959595"/>
        <circle id="Ellipse_24" data-name="Ellipse 24" cx="49.44" cy="39.5" r="3.43"/>
        <path id="Path_302" data-name="Path 302" d="M48.69,98.79V143l-7-37.19Z" style="fill: #959595"/>
        <path id="Path_303" data-name="Path 303" d="M48.69,73.25v7l-9.26,9.26-9.26-9.26V73.1a11.25,11.25,0,0,0,2.24.15H48.69Z" style="fill: #553a28"/>
        <path id="Path_304" data-name="Path 304" d="M48.69,98.79l-7,7,7,37.19H30.17l7-37.19-7-7,9.26-9.26Z" style="fill: #f36831"/>
        <g id="Group_66" data-name="Group 66">
          <path id="Path_305" data-name="Path 305" d="M39.41,89.42l-9.26,9.26-7-18.52h7Z" style="fill: #959595"/>
          <path id="Path_306" data-name="Path 306" d="M37,105.69l-6.87,37.19V98.68Z" style="fill: #959595"/>
        </g>
        <path id="Path_307" data-name="Path 307" d="M9.26,142.85H0V103.42a23.33,23.33,0,0,1,23.3-23.3l7,18.52v44.21Z" style="fill: #4f4f4f"/>
        <circle id="Ellipse_25" data-name="Ellipse 25" cx="28.53" cy="39.5" r="3.43"/>
        <path id="Path_308" data-name="Path 308" d="M18.52,36.06V50H16.13a7,7,0,1,1,0-14h0l2.39.15Z" style="fill: #553a28"/>
        <g id="Group_67" data-name="Group 67">
          <rect id="Rectangle_144" data-name="Rectangle 144" x="6.87" y="101.07" width="4.63" height="41.82" style="fill: #404040"/>
          <rect id="Rectangle_145" data-name="Rectangle 145" x="67.21" y="101.07" width="4.63" height="41.82" style="fill: #404040"/>
        </g>
        <g id="Group_68" data-name="Group 68">
          <path id="Path_309" data-name="Path 309" d="M26.7,63.56l-2.54-3.88,7-4.63a2,2,0,0,1,2.24-.15l4.63,2.39-2.09,4-3.43-1.79Z" style="fill: #999"/>
          <path id="Path_310" data-name="Path 310" d="M52.09,63.56l-5.82-3.88-3.44,1.79-2.09-4.18,4.63-2.39a2.69,2.69,0,0,1,2.39.15l7,4.63Z" style="fill: #999"/>
        </g>
        <g id="Group_69" data-name="Group 69">
          <rect id="Rectangle_146" data-name="Rectangle 146" x="27.78" y="15.1" width="4.63" height="7.02" style="fill: #2b2828"/>
          <rect id="Rectangle_147" data-name="Rectangle 147" x="37.04" y="15.1" width="4.63" height="7.02" style="fill: #2b2828"/>
          <rect id="Rectangle_148" data-name="Rectangle 148" x="46.3" y="15.1" width="4.63" height="7.02" style="fill: #2b2828"/>
        </g>
      </g>
      <rect width="192" height="143" style="fill: none"/>
    </g>
  </g>
</svg>
