<svg xmlns="http://www.w3.org/2000/svg" width="972" height="306" viewBox="0 0 972 306">
  <title>news-hdr</title>
  <g id="Layer_2" data-name="Layer 2">
    <g id="Layer_1-2" data-name="Layer 1">
      <g>
        <g>
          <path d="M456.09,77.15l14.37-.59L525.38,278a7,7,0,0,1-3,5c-4,1.92-9.48.89-13.77-3.85-4.29-3.84-7.25-17-7.25-17Z" style="fill: #b9b9b9"/>
          <polygon points="462.9 71.08 479.04 71.23 524.2 269.31 528.64 275.08 525.38 278.04 515.31 271.38 507.32 249.93 462.9 71.08" style="fill: #bfbfbf"/>
          <polygon points="476.23 63.54 503.47 63.98 537.52 261.77 541.96 267.54 538.71 270.35 526.27 272.42 518.13 248.16 476.23 63.54" style="fill: #ccc"/>
          <path d="M525.38,278h-.44c-11.85-1.18-14.81-13.9-17.18-24.11l-.29-1.19C505.1,243,463.35,72.86,462.9,71.23h2.52c.45,1.78,42.79,171,45.16,180.77l.29,1.19c2.22,9.76,4.89,20.71,14.36,21.6C527.3,274.93,528.49,278,525.38,278Z" style="fill: #bfbfbf"/>
          <path d="M534.86,278.48h-.45C522.72,277,520.05,264.14,518,253.93l-.3-1.19c-2.07-9.91-42.34-187.57-42.64-189.2h2.67c.44,1.77,41,178.7,43.08,188.61l.3,1.19c2.07,9.76,4.29,20.85,13.62,22C536.93,275.53,538,278.63,534.86,278.48Z" style="fill: #ccc"/>
          <path d="M503.91,54.81l207.86-6.66,20.43,179s.59,21-9.47,22.49c-9.92,1.63-200.9,33.58-200.9,33.58l3.7-3,2.81-5.18.3-16L502.58,56.88Z" style="fill: #dcdcdc"/>
          <rect x="519" y="89.87" width="180.61" height="3.11" transform="translate(-3.94 31.94) rotate(-2.99)" style="fill: #bf3600"/>
          <g>
            <polygon points="604.59 100.38 534.86 104.07 535 105.7 604.88 102 604.59 100.38" style="fill: #727272"/>
            <polygon points="605.92 110.58 536.48 115.76 536.78 117.39 606.21 112.21 605.92 110.58" style="fill: #727272"/>
            <polygon points="607.4 121.68 538.26 127.45 538.56 129.07 607.69 123.3 607.4 121.68" style="fill: #727272"/>
            <polygon points="609.17 134.55 540.04 139.28 540.33 140.91 609.32 136.03 609.17 134.55" style="fill: #727272"/>
            <polygon points="610.65 145.2 541.81 150.97 541.96 152.59 610.8 146.82 610.65 145.2" style="fill: #727272"/>
            <polygon points="611.99 156.15 543.59 162.65 543.74 164.28 612.28 157.77 611.99 156.15" style="fill: #727272"/>
            <polygon points="613.76 168.57 545.22 174.49 545.51 176.12 613.91 170.05 613.76 168.57" style="fill: #727272"/>
            <polygon points="605.33 106 535.74 109.99 535.89 111.62 605.62 107.62 605.33 106" style="fill: #727272"/>
            <polygon points="606.66 115.91 537.37 121.68 537.67 123.16 606.95 117.39 606.66 115.91" style="fill: #727272"/>
            <polygon points="608.29 127.89 539.15 133.36 539.45 134.99 608.43 129.52 608.29 127.89" style="fill: #727272"/>
            <polygon points="609.91 140.76 540.92 145.2 541.22 146.82 610.21 142.24 609.91 140.76" style="fill: #727272"/>
            <polygon points="611.39 151.26 542.7 156.88 542.85 158.51 611.54 152.74 611.39 151.26" style="fill: #727272"/>
            <polygon points="613.02 162.95 544.48 168.72 544.63 170.2 613.17 164.58 613.02 162.95" style="fill: #727272"/>
            <polygon points="614.5 174.34 546.11 180.41 546.4 181.88 614.65 175.82 614.5 174.34" style="fill: #727272"/>
            <polygon points="615.99 185.58 548.03 192.98 548.18 194.46 616.13 187.21 615.99 185.58" style="fill: #727272"/>
            <polygon points="617.47 197.42 549.81 204.67 549.96 206.29 617.76 198.9 617.47 197.42" style="fill: #727272"/>
            <polygon points="619.09 209.1 551.44 216.5 551.73 217.98 619.24 210.73 619.09 209.1" style="fill: #727272"/>
            <polygon points="620.72 220.94 553.21 228.19 553.51 229.81 620.87 222.42 620.72 220.94" style="fill: #727272"/>
            <polygon points="622.2 232.63 554.99 240.02 555.29 241.5 622.5 234.25 622.2 232.63" style="fill: #727272"/>
            <polygon points="623.68 244.02 556.77 251.71 556.91 253.19 623.98 245.5 623.68 244.02" style="fill: #727272"/>
            <polygon points="625.02 253.48 558.39 263.25 558.69 264.73 625.16 254.96 625.02 253.48" style="fill: #727272"/>
            <polygon points="616.73 191.5 548.92 198.9 549.07 200.38 617.02 193.13 616.73 191.5" style="fill: #727272"/>
            <polygon points="618.35 203.34 550.7 210.58 550.84 212.21 618.5 204.81 618.35 203.34" style="fill: #727272"/>
            <polygon points="619.83 215.02 552.33 222.42 552.62 223.9 620.13 216.65 619.83 215.02" style="fill: #727272"/>
            <polygon points="621.46 226.86 554.1 234.1 554.4 235.73 621.61 228.34 621.46 226.86" style="fill: #727272"/>
            <polygon points="623.09 238.54 555.88 245.79 556.17 247.42 623.24 240.17 623.09 238.54" style="fill: #727272"/>
            <polygon points="624.42 248.75 557.65 257.48 557.8 259.11 624.57 250.38 624.42 248.75" style="fill: #727272"/>
            <polygon points="625.76 258.66 559.28 269.17 559.58 270.64 625.9 260.29 625.76 258.66" style="fill: #727272"/>
          </g>
          <path d="M518.57,284h-.44s4.29-3.85,5.77-5.48c4.74-5.47,3.7-19.23,3-24.11L500.8,54.81l3.26-.15L530,253.78c.15.74,3,19.08-3.7,26.63C524.2,282.92,522.86,283.22,518.57,284Z" style="fill: #dcdcdc"/>
          <g id="Group_232" data-name="Group 232">
            <path id="Path_1094" data-name="Path 1094" d="M566,85.77l-.15-20.42,5.48-.29,4.44,7.25A56.56,56.56,0,0,1,579.3,79h0a82.07,82.07,0,0,1-.44-8.43V64.47l4.44-.3.15,20.41-5,.3-4.59-7.54a60.25,60.25,0,0,1-3.7-7h0c.14,2.67.14,5.62.14,8.88v6.06l-4.29.45Z" style="fill: #333"/>
            <path id="Path_1095" data-name="Path 1095" d="M601.51,75.12l-7.84.44v4.88L602.4,80v3.84l-13.47.74-.15-20.41L602,63.43v3.85l-8.15.29v4.29l7.85-.44Z" style="fill: #333"/>
            <path id="Path_1096" data-name="Path 1096" d="M610.84,83.25l-5.18-20,5.18-.29,1.63,8.28c.44,2.37,1,5,1.18,7h0c.3-2.22.74-4.58,1.33-7.25l1.78-8.43,5-.29,1.63,8.58c.45,2.36.89,4.58,1.19,6.8h0c.29-2.37.74-4.58,1.18-7.1l1.78-8.43,4.88-.3-5.33,20.71-5.18.3-1.77-8.58c-.45-2.07-.89-3.85-1.19-6.21h0c-.44,2.36-.59,4.29-1.18,6.36L616,83.25Z" style="fill: #333"/>
            <path id="Path_1097" data-name="Path 1097" d="M636.45,77a13.16,13.16,0,0,0,5.33,1c2.22-.15,3.41-1,3.41-2.37s-1-1.92-3.56-2.66c-3.55-1-5.77-2.67-5.77-5.63,0-3.4,3-6.36,8-6.65a11.47,11.47,0,0,1,5.48.74l-1,3.7a10.64,10.64,0,0,0-4.44-.74c-2.07.14-3.11,1-3.11,2.07,0,1.33,1.19,1.77,4,2.66,3.7,1,5.63,3,5.63,5.62,0,3.4-2.67,6.36-8.44,6.81a13.22,13.22,0,0,1-5.92-.89Z" style="fill: #333"/>
          </g>
          <rect x="577.8" y="96.36" width="6.37" height="175.3" transform="translate(-19.31 78.91) rotate(-7.64)" style="fill: #dcdcdc"/>
          <g>
            <polygon points="698.6 183.51 630.79 190.76 631.09 192.39 698.89 184.99 698.6 183.51" style="fill: #727272"/>
            <polygon points="700.22 195.2 632.57 202.6 632.86 204.07 700.37 196.83 700.22 195.2" style="fill: #727272"/>
            <polygon points="701.7 207.03 634.34 214.28 634.64 215.91 702 208.51 701.7 207.03" style="fill: #727272"/>
            <polygon points="703.33 218.72 636.12 226.12 636.27 227.6 703.48 220.35 703.33 218.72" style="fill: #727272"/>
            <polygon points="704.81 230.11 637.9 237.8 638.04 239.28 705.11 231.59 704.81 230.11" style="fill: #727272"/>
            <polygon points="706.14 239.58 639.52 249.34 639.82 250.82 706.29 241.06 706.14 239.58" style="fill: #727272"/>
            <polygon points="697.85 177.59 630.05 184.99 630.2 186.47 698 179.22 697.85 177.59" style="fill: #727272"/>
            <polygon points="699.34 189.43 631.68 196.68 631.97 198.31 699.63 190.91 699.34 189.43" style="fill: #727272"/>
            <polygon points="700.96 201.12 633.45 208.51 633.75 209.99 701.11 202.74 700.96 201.12" style="fill: #727272"/>
            <polygon points="702.59 212.95 635.23 220.2 635.38 221.83 702.74 214.43 702.59 212.95" style="fill: #727272"/>
            <polygon points="704.07 224.64 637.01 231.89 637.15 233.51 704.37 226.26 704.07 224.64" style="fill: #727272"/>
            <polygon points="705.4 234.84 638.64 243.57 638.93 245.2 705.7 236.47 705.4 234.84" style="fill: #727272"/>
            <polygon points="706.74 244.76 640.41 255.26 640.71 256.74 707.03 246.38 706.74 244.76" style="fill: #727272"/>
          </g>
          <rect x="664.97" y="172.83" width="6.37" height="84.32" transform="translate(-22.65 90.71) rotate(-7.64)" style="fill: #dcdcdc"/>
          <polygon points="615.1 98.89 688.23 94.9 697.11 167.39 626.05 174.49 615.1 98.89" style="fill: #333"/>
        </g>
        <path id="Path_1088" data-name="Path 1088" d="M1,211.92V46.68a5.31,5.31,0,0,1,5.33-5.33H256.82a5.3,5.3,0,0,1,5.33,5.33V211.92Z"/>
        <g id="Group_224" data-name="Group 224">
          <path id="Path_1089" data-name="Path 1089" d="M262.15,211.82V233a5.29,5.29,0,0,1-5.33,5.32H6.33A5.3,5.3,0,0,1,1,233V211.82Z" style="fill: #dbdbdb"/>
          <rect id="Rectangle_349" data-name="Rectangle 349" x="75.62" y="275.88" width="111.78" height="5.33" style="fill: #dbdbdb"/>
        </g>
        <path id="Path_1090" data-name="Path 1090" d="M168.74,275.82H94.42l5.33-37.57h63.66Z" style="fill: #bababa"/>
        <rect id="Rectangle_350" data-name="Rectangle 350" x="11.51" y="52" width="239.98" height="149.26" style="fill: #fff"/>
        <path id="Path_1091" data-name="Path 1091" d="M163.41,238.4H99.75l-3,20.85,67.51-14.2Z" style="fill: #999"/>
        <path id="Path_1092" data-name="Path 1092" d="M198.94,189H77.24V67.39h121.7" style="fill: #e2e2e2"/>
        <rect id="Rectangle_351" data-name="Rectangle 351" x="73.99" y="64.28" width="121.69" height="121.6" style="fill: #fff"/>
        <path id="Path_1093" data-name="Path 1093" d="M196.72,186.91H73V63.24H196.72ZM75,184.7H194.64V65.31H75Z" style="fill: #9e9e9e"/>
        <g id="Group_225" data-name="Group 225" style="opacity: 0.5">
          <rect id="Rectangle_352" data-name="Rectangle 352" x="132.61" y="112.86" width="49.3" height="3.11" style="fill: #9e9e9e"/>
        </g>
        <g id="Group_226" data-name="Group 226" style="opacity: 0.5">
          <rect id="Rectangle_353" data-name="Rectangle 353" x="132.61" y="124.27" width="49.3" height="3.11" style="fill: #9e9e9e"/>
        </g>
        <g id="Group_227" data-name="Group 227" style="opacity: 0.5">
          <rect id="Rectangle_354" data-name="Rectangle 354" x="132.61" y="147.01" width="49.3" height="3.11" style="fill: #9e9e9e"/>
        </g>
        <g id="Group_228" data-name="Group 228" style="opacity: 0.5">
          <rect id="Rectangle_355" data-name="Rectangle 355" x="132.61" y="135.6" width="49.3" height="3.11" style="fill: #9e9e9e"/>
        </g>
        <g id="Group_229" data-name="Group 229" style="opacity: 0.5">
          <rect id="Rectangle_356" data-name="Rectangle 356" x="87.85" y="169.76" width="94.01" height="3.11" style="fill: #9e9e9e"/>
        </g>
        <g id="Group_230" data-name="Group 230" style="opacity: 0.5">
          <rect id="Rectangle_357" data-name="Rectangle 357" x="87.85" y="158.42" width="94.01" height="3.11" style="fill: #9e9e9e"/>
        </g>
        <rect id="Rectangle_358" data-name="Rectangle 358" x="87.9" y="113.84" width="33.9" height="35.36" style="fill: #333"/>
        <g id="Group_231" data-name="Group 231">
          <rect id="Rectangle_359" data-name="Rectangle 359" x="104.73" y="131.52" width="16.88" height="17.75" style="fill: #f39c79"/>
          <rect id="Rectangle_360" data-name="Rectangle 360" x="87.85" y="113.77" width="16.88" height="17.75" style="fill: #f39c79"/>
        </g>
        <g id="Group_232-2" data-name="Group 232">
          <path id="Path_1094-2" data-name="Path 1094" d="M89,100.27V77.19H95l4.89,8.43a75.88,75.88,0,0,1,3.85,7.84h0c-.3-3.25-.44-6.36-.44-9.62V77h4.88v23.08h-5.48l-5-8.88a83.89,83.89,0,0,1-4-8.13h0c.15,3.1.15,6.36.15,10v7l-4.88.15Z" style="fill: #f34500"/>
          <path id="Path_1095-2" data-name="Path 1095" d="M127.91,90.35h-8.59v5.48H129v4.29H114.14V77H128.5v4.29h-9v4.88h8.59Z" style="fill: #f34500"/>
          <path id="Path_1096-2" data-name="Path 1096" d="M138,100.27,132.5,77.19h5.63l1.77,9.47c.45,2.66,1,5.76,1.34,8h0c.29-2.51.88-5.17,1.48-8.13L144.64,77h5.48l1.77,9.76c.45,2.67.89,5.18,1.34,7.84h0c.29-2.66.89-5.17,1.33-8l1.92-9.47h5.33l-5.92,23.08h-5.62l-1.93-9.92c-.44-2.36-.89-4.43-1.18-7.1h0c-.45,2.67-.74,4.88-1.34,7.1l-2.07,9.92Z" style="fill: #f34500"/>
          <path id="Path_1097-2" data-name="Path 1097" d="M166.11,94.79a13.32,13.32,0,0,0,5.77,1.48c2.37,0,3.7-1,3.7-2.51s-1.18-2.22-3.85-3.26c-3.85-1.33-6.36-3.4-6.36-6.8,0-3.85,3.25-7,8.73-7A13.64,13.64,0,0,1,180,77.93l-1.18,4.14A13,13,0,0,0,174,80.89c-2.22,0-3.4,1-3.4,2.22,0,1.47,1.33,2.07,4.29,3.25,4,1.48,6.07,3.7,6.07,6.8,0,3.85-3,7.11-9.33,7.11a16,16,0,0,1-6.51-1.34Z" style="fill: #f34500"/>
        </g>
        <g id="Group_233" data-name="Group 233">
          <path id="Path_1098" data-name="Path 1098" d="M389.93,36a1,1,0,0,1,0-1.48h0a1,1,0,0,1,1.48,0h0l10.81,10.8a1,1,0,0,1,0,1.48h0a1,1,0,0,1-1.48,0h0Z" style="fill: #333"/>
          <path id="Path_1099" data-name="Path 1099" d="M361.5,7.6a1,1,0,0,1,0-1.48h0a1,1,0,0,1,1.48,0h0l10.81,10.8a1,1,0,0,1,0,1.48h0a1,1,0,0,1-1.48,0h0Z" style="fill: #333"/>
        </g>
        <g id="Group_234" data-name="Group 234">
          <path id="Path_1100" data-name="Path 1100" d="M380,43a1.42,1.42,0,0,1,1.18-1.33h0a1.42,1.42,0,0,1,1.33,1.19h0V63.66A1.43,1.43,0,0,1,381.34,65h0A1.42,1.42,0,0,1,380,63.81h0Z" style="fill: #727272"/>
          <path id="Path_1101" data-name="Path 1101" d="M398.22,24.76a1.43,1.43,0,0,0-1.34,1.18h0a1.43,1.43,0,0,0,1.19,1.33h20.87a1.41,1.41,0,0,0,1.33-1.18h0a1.42,1.42,0,0,0-1.18-1.33H398.22Z" style="fill: #727272"/>
        </g>
        <path id="Path_1102" data-name="Path 1102" d="M358.09,83.07A57.19,57.19,0,0,0,438.48,2.74,1.84,1.84,0,0,0,437,2a1.71,1.71,0,0,0-1.48.59L357.94,80.11a2.12,2.12,0,0,0-.59,1.48A1.81,1.81,0,0,0,358.09,83.07Z" style="fill: #959595"/>
        <path id="Path_1103" data-name="Path 1103" d="M435.52,2.59l-15.7,15.68V78.92H434l.14-.14a57.05,57.05,0,0,0,4.3-76A1.84,1.84,0,0,0,437,2,2.64,2.64,0,0,0,435.52,2.59Z" style="fill: #b9b9b9"/>
        <path id="Path_1104" data-name="Path 1104" d="M357.35,81.59a1.81,1.81,0,0,0,.74,1.48,75.42,75.42,0,0,0,8,5.32l77.73-77.66a46.9,46.9,0,0,0-5.33-8A1.84,1.84,0,0,0,437,2a1.71,1.71,0,0,0-1.48.59L357.94,80.11A2.12,2.12,0,0,0,357.35,81.59Z" style="fill: #727272"/>
        <path id="Path_1105" data-name="Path 1105" d="M358.09,83.07a75.42,75.42,0,0,0,8,5.32l77.73-77.66a46.9,46.9,0,0,0-5.33-8" style="fill: #404040"/>
        <path id="Path_1106" data-name="Path 1106" d="M441.29,6.59a36.55,36.55,0,0,0-2.81-3.85L419.82,21.38V34.69l24-23.81c-.74-1.48-1.63-2.81-2.52-4.29Z" style="fill: #595959"/>
        <path id="Path_1107" data-name="Path 1107" d="M377.63,42.24a3.27,3.27,0,0,1-.15-4.59l.15-.15,15.25-15.23a3.27,3.27,0,0,1,4.59-.15l.15.15h0a3.25,3.25,0,0,1,.14,4.58l-.14.15L382.37,42.24a3.62,3.62,0,0,1-4.74,0Z" style="fill: #ea3c13"/>
        <path id="Path_1108" data-name="Path 1108" d="M397.47,27,382.22,42.24a3.31,3.31,0,0,1-4.74,0h0a3.27,3.27,0,0,1-.15-4.59l.15-.15" style="fill: #f34500"/>
        <path id="Path_1109" data-name="Path 1109" d="M371.41,36a3.3,3.3,0,0,1,0-4.73l15.25-15.24a3.31,3.31,0,0,1,4.74,0h0a3.27,3.27,0,0,1,.15,4.59l-.15.15L376.15,36a3.59,3.59,0,0,1-4.74,0Z" style="fill: #ea3c13"/>
        <path id="Path_1110" data-name="Path 1110" d="M391.25,20.79,376.15,36a3.3,3.3,0,0,1-4.74,0h0a3.3,3.3,0,0,1,0-4.73" style="fill: #f34500"/>
        <circle id="Ellipse_148" data-name="Ellipse 148" cx="375.26" cy="20.05" r="3.55" style="fill: #ea3c13"/>
        <path id="Path_1111" data-name="Path 1111" d="M375.26,23.45a3.48,3.48,0,0,1-3.4-3.55,3.35,3.35,0,0,1,3.4-3.4" style="fill: #f34500"/>
        <g id="Group_235" data-name="Group 235">
          <circle id="Ellipse_149" data-name="Ellipse 149" cx="441.69" cy="31.21" r="1.63" style="fill: #fff"/>
          <circle id="Ellipse_150" data-name="Ellipse 150" cx="433.84" cy="39.05" r="1.63" style="fill: #fff"/>
          <circle id="Ellipse_151" data-name="Ellipse 151" cx="425.85" cy="46.89" r="1.63" style="fill: #fff"/>
          <circle id="Ellipse_152" data-name="Ellipse 152" cx="418" cy="54.88" r="1.63" style="fill: #fff"/>
          <circle id="Ellipse_153" data-name="Ellipse 153" cx="410.16" cy="62.72" r="1.63" style="fill: #fff"/>
          <circle id="Ellipse_154" data-name="Ellipse 154" cx="402.31" cy="70.56" r="1.63" style="fill: #fff"/>
          <circle id="Ellipse_155" data-name="Ellipse 155" cx="394.46" cy="78.4" r="1.63" style="fill: #fff"/>
          <circle id="Ellipse_156" data-name="Ellipse 156" cx="386.62" cy="86.24" r="1.63" style="fill: #fff"/>
        </g>
        <path id="Path_1112" data-name="Path 1112" d="M442.18,127V97.12a9.18,9.18,0,0,0-18.36,0V127Z" style="fill: #b9b9b9"/>
        <path id="Path_1113" data-name="Path 1113" d="M442.18,97.12a9.18,9.18,0,0,0-18.36,0V127" style="fill: #959595"/>
        <ellipse id="Ellipse_157" data-name="Ellipse 157" cx="433" cy="80.26" rx="13.03" ry="13.02" style="fill: #abd0d6"/>
        <path id="SVGCleanerId_0" data-name="SVGCleanerId 0" d="M442.18,89.58a13.09,13.09,0,0,1-18.51-18.5" style="fill: #99c4c6"/>
        <ellipse id="Ellipse_158" data-name="Ellipse 158" cx="433" cy="80.26" rx="13.03" ry="13.02" style="fill: #dcdcdc"/>
        <path id="Path_1114" data-name="Path 1114" d="M423.67,97.12a13.06,13.06,0,0,0,18.36,0A9.22,9.22,0,0,0,432.85,88,9.13,9.13,0,0,0,423.67,97.12Z" style="fill: #595959"/>
        <g id="Group_236" data-name="Group 236">
          <path id="SVGCleanerId_0-2" data-name="SVGCleanerId 0" d="M442.24,89.58a13.08,13.08,0,0,1-18.5-18.49" style="fill: #b9b9b9"/>
        </g>
        <ellipse id="Ellipse_159" data-name="Ellipse 159" cx="433" cy="80.4" rx="7.4" ry="7.4" style="fill: #959595"/>
        <path id="Path_1115" data-name="Path 1115" d="M438.18,75.08a7.43,7.43,0,1,1-10.51,10.5" style="fill: #b9b9b9"/>
        <path id="Path_1116" data-name="Path 1116" d="M408.72,125.08a2,2,0,0,1,1.92-1.92h44.42a2,2,0,0,1,1.92,1.92h0a2,2,0,0,1-1.92,1.92H410.64a2,2,0,0,1-1.92-1.92Z" style="fill: #2b4649"/>
        <path id="Path_1117" data-name="Path 1117" d="M272.07,151.56V135.73A9.73,9.73,0,0,1,281.7,126H468.38a9.73,9.73,0,0,1,9.77,9.61h0v15.83a9.72,9.72,0,0,1-9.62,9.76H281.84a9.63,9.63,0,0,1-9.77-9.61Z" style="fill: #ea3c13"/>
        <path id="Path_1118" data-name="Path 1118" d="M272.07,154.37V138.54a9.73,9.73,0,0,1,9.63-9.76H468.38a9.73,9.73,0,0,1,9.77,9.61h0v16a9.72,9.72,0,0,1-9.62,9.76H281.84a9.85,9.85,0,0,1-9.77-9.76Z" style="fill: #f34500"/>
        <path id="Path_1119" data-name="Path 1119" d="M210,207.63a6.92,6.92,0,0,1,6.81-7H480.08a6.92,6.92,0,0,1,7,6.81h0V253a6.91,6.91,0,0,1-6.81,7h-268a6.91,6.91,0,0,1-7-6.8h0Z" style="fill: #d93e00"/>
        <path id="Path_1120" data-name="Path 1120" d="M202.94,262.36v-3a4.84,4.84,0,0,1,4.58-4.73H486a4.61,4.61,0,0,1,4.59,4.58h0v3A4.84,4.84,0,0,1,486,267H207.67a4.56,4.56,0,0,1-4.73-4.59Z" style="fill: #6e7577"/>
        <path id="Path_1121" data-name="Path 1121" d="M404.28,258.66a28.87,28.87,0,0,1,57.74,0"/>
        <path id="Path_1122" data-name="Path 1122" d="M433.15,228.78a29.9,29.9,0,0,1,29.9,29.88h-2.37a27.69,27.69,0,0,0-55.37,0H403A30.25,30.25,0,0,1,433.15,228.78Z" style="fill: #8e8e8e"/>
        <ellipse id="Ellipse_160" data-name="Ellipse 160" cx="433.15" cy="259.85" rx="26.06" ry="26.04" style="fill: #203547"/>
        <path id="Path_1123" data-name="Path 1123" d="M451.51,278.19a26,26,0,0,1-36.72-36.69" style="fill: #122130"/>
        <ellipse id="Ellipse_161" data-name="Ellipse 161" cx="433.15" cy="259.85" rx="16.43" ry="16.42" style="fill: #6e7577"/>
        <path id="Path_1124" data-name="Path 1124" d="M444.7,271.38a16.32,16.32,0,1,1-23.1-23.07" style="fill: #4c5456"/>
        <ellipse id="Ellipse_162" data-name="Ellipse 162" cx="433.15" cy="259.85" rx="14.36" ry="14.35" style="fill: #ced8dd"/>
        <path id="Path_1125" data-name="Path 1125" d="M443.21,269.9a14.33,14.33,0,0,1-20.28-20.26" style="fill: #b2bbc1"/>
        <path id="Path_1126" data-name="Path 1126" d="M433.15,253.19a6.63,6.63,0,0,1,6.66,6.66h0c0,3.69-3,7.69-6.66,7.69s-6.66-4-6.66-7.69a6.63,6.63,0,0,1,6.66-6.66Z" style="fill: #888f91;opacity: 0.20000000298023224;isolation: isolate"/>
        <ellipse id="Ellipse_163" data-name="Ellipse 163" cx="433.15" cy="259.85" rx="6.66" ry="6.66" style="fill: #e7eff2"/>
        <path id="Path_1127" data-name="Path 1127" d="M433.15,266.5a6.66,6.66,0,0,1,0-13.31" style="fill: #dae6ea"/>
        <path id="Path_1128" data-name="Path 1128" d="M431.22,245.64c.3,2.07,1,3.55,1.93,3.55s1.63-1.48,1.92-3.55a8.21,8.21,0,0,0-1.92-.14A8.34,8.34,0,0,0,431.22,245.64Z" style="fill: #666e70"/>
        <path id="Path_1129" data-name="Path 1129" d="M433.15,245.5a9,9,0,0,0-1.93.14c.3,2.07,1,3.55,1.93,3.55" style="fill: #535a5b"/>
        <path id="Path_1130" data-name="Path 1130" d="M433.15,270.35c-.89,0-1.63,1.48-1.93,3.55a16.53,16.53,0,0,0,3.85,0C434.78,271.83,434,270.35,433.15,270.35Z" style="fill: #666e70"/>
        <path id="Path_1131" data-name="Path 1131" d="M433.15,270.35c-.89,0-1.63,1.48-1.93,3.55" style="fill: #535a5b"/>
        <path id="Path_1132" data-name="Path 1132" d="M441.73,248.31c-1.33,1.62-1.77,3.25-1.18,3.84s2.22.15,3.85-1.18A21.64,21.64,0,0,0,441.73,248.31Z" style="fill: #666e70"/>
        <path id="Path_1133" data-name="Path 1133" d="M441.73,248.31c-1.33,1.62-1.77,3.25-1.18,3.84" style="fill: #535a5b"/>
        <path id="Path_1134" data-name="Path 1134" d="M423.08,269.9a5.74,5.74,0,0,0,1.48,1.19c1.33-1.63,1.78-3.26,1.19-3.85s-2.23-.15-3.85,1.19C422.19,268.87,422.64,269.31,423.08,269.9Z" style="fill: #666e70"/>
        <path id="Path_1135" data-name="Path 1135" d="M425.75,267.24c-.6-.59-2.23-.15-3.85,1.19a5.66,5.66,0,0,0,1.18,1.47" style="fill: #535a5b"/>
        <path id="Path_1136" data-name="Path 1136" d="M447.51,259.85a8.34,8.34,0,0,0-.15-1.93c-2.07.3-3.55,1-3.55,1.93s1.48,1.62,3.55,1.92C447.36,261,447.51,260.44,447.51,259.85Z" style="fill: #666e70"/>
        <path id="Path_1137" data-name="Path 1137" d="M447.51,259.85a8.34,8.34,0,0,0-.15-1.93c-2.07.3-3.55,1-3.55,1.93" style="fill: #535a5b"/>
        <path id="Path_1138" data-name="Path 1138" d="M419.08,257.77a16.53,16.53,0,0,0,0,3.85c2.08-.3,3.56-1,3.56-1.92S421,258.07,419.08,257.77Z" style="fill: #666e70"/>
        <path id="Path_1139" data-name="Path 1139" d="M422.49,259.85c0-.89-1.48-1.63-3.55-1.93" style="fill: #535a5b"/>
        <path id="Path_1140" data-name="Path 1140" d="M440.7,267.24c-.59.59-.15,2.22,1.18,3.85a11.43,11.43,0,0,0,2.67-2.66C442.92,267.09,441.29,266.65,440.7,267.24Z" style="fill: #666e70"/>
        <path id="Path_1141" data-name="Path 1141" d="M440.7,267.24c-.59.59-.15,2.22,1.18,3.85" style="fill: #535a5b"/>
        <path id="Path_1142" data-name="Path 1142" d="M421.75,251.12c1.63,1.33,3.25,1.77,3.85,1.18s.15-2.22-1.19-3.85A14.94,14.94,0,0,0,421.75,251.12Z" style="fill: #666e70"/>
        <path id="Path_1143" data-name="Path 1143" d="M425.75,252.3c.59-.59.14-2.22-1.19-3.85" style="fill: #535a5b"/>
        <path id="Path_1144" data-name="Path 1144" d="M233.28,258.66a28.87,28.87,0,0,1,57.74,0"/>
        <path id="Path_1145" data-name="Path 1145" d="M262.15,228.78a29.9,29.9,0,0,1,29.91,29.88h-2.37a27.69,27.69,0,0,0-55.37,0H232A30.06,30.06,0,0,1,262.15,228.78Z" style="fill: #8e8e8e"/>
        <ellipse id="Ellipse_164" data-name="Ellipse 164" cx="262.15" cy="259.85" rx="26.06" ry="26.04" style="fill: #203547"/>
        <path id="Path_1146" data-name="Path 1146" d="M280.51,278.19A26,26,0,0,1,243.8,241.5" style="fill: #122130"/>
        <ellipse id="Ellipse_165" data-name="Ellipse 165" cx="262.15" cy="259.85" rx="16.43" ry="16.42" style="fill: #6e7577"/>
        <path id="Path_1147" data-name="Path 1147" d="M273.7,271.38a16.32,16.32,0,1,1-23.09-23.07" style="fill: #4c5456"/>
        <ellipse id="Ellipse_166" data-name="Ellipse 166" cx="262.15" cy="259.85" rx="14.36" ry="14.35" style="fill: #ced8dd"/>
        <path id="Path_1148" data-name="Path 1148" d="M272.22,269.9a14.33,14.33,0,0,1-20.28-20.26" style="fill: #b2bbc1"/>
        <path id="Path_1149" data-name="Path 1149" d="M262.15,253.19a6.64,6.64,0,0,1,6.67,6.66h0c0,3.69-3,7.69-6.67,7.69s-6.66-4-6.66-7.69a6.63,6.63,0,0,1,6.66-6.66Z" style="fill: #888f91;opacity: 0.20000000298023224;isolation: isolate"/>
        <ellipse id="Ellipse_167" data-name="Ellipse 167" cx="262.15" cy="259.85" rx="6.66" ry="6.66" style="fill: #e7eff2"/>
        <path id="Path_1150" data-name="Path 1150" d="M262.15,266.5a6.66,6.66,0,0,1,0-13.31" style="fill: #dae6ea"/>
        <path id="Path_1151" data-name="Path 1151" d="M260.23,245.64c.3,2.07,1,3.55,1.92,3.55s1.63-1.48,1.93-3.55a8.3,8.3,0,0,0-1.93-.14A8.87,8.87,0,0,0,260.23,245.64Z" style="fill: #666e70"/>
        <path id="Path_1152" data-name="Path 1152" d="M262.15,245.5a8.87,8.87,0,0,0-1.92.14c.3,2.07,1,3.55,1.92,3.55" style="fill: #535a5b"/>
        <path id="Path_1153" data-name="Path 1153" d="M262.15,270.35c-.88,0-1.62,1.48-1.92,3.55a16.53,16.53,0,0,0,3.85,0C263.78,271.83,263,270.35,262.15,270.35Z" style="fill: #666e70"/>
        <path id="Path_1154" data-name="Path 1154" d="M262.15,270.35c-.88,0-1.62,1.48-1.92,3.55" style="fill: #535a5b"/>
        <path id="Path_1155" data-name="Path 1155" d="M270.74,248.31c-1.33,1.62-1.78,3.25-1.18,3.84s2.22.15,3.85-1.18A21.64,21.64,0,0,0,270.74,248.31Z" style="fill: #666e70"/>
        <path id="Path_1156" data-name="Path 1156" d="M270.74,248.31c-1.33,1.62-1.78,3.25-1.18,3.84" style="fill: #535a5b"/>
        <path id="Path_1157" data-name="Path 1157" d="M252.09,269.9a5.58,5.58,0,0,0,1.48,1.19c1.33-1.63,1.77-3.26,1.18-3.85s-2.22-.15-3.85,1.19C251.2,268.87,251.64,269.31,252.09,269.9Z" style="fill: #666e70"/>
        <path id="Path_1158" data-name="Path 1158" d="M254.75,267.24c-.59-.59-2.22-.15-3.85,1.19a5.69,5.69,0,0,0,1.19,1.47" style="fill: #535a5b"/>
        <path id="Path_1159" data-name="Path 1159" d="M276.51,259.85a8.92,8.92,0,0,0-.14-1.93c-2.08.3-3.56,1-3.56,1.93s1.48,1.62,3.56,1.92C276.37,261,276.51,260.44,276.51,259.85Z" style="fill: #666e70"/>
        <path id="Path_1160" data-name="Path 1160" d="M276.51,259.85a8.92,8.92,0,0,0-.14-1.93c-2.08.3-3.56,1-3.56,1.93" style="fill: #535a5b"/>
        <path id="Path_1161" data-name="Path 1161" d="M248.09,257.77a16.53,16.53,0,0,0,0,3.85c2.07-.3,3.55-1,3.55-1.92S250,258.07,248.09,257.77Z" style="fill: #666e70"/>
        <path id="Path_1162" data-name="Path 1162" d="M251.49,259.85c0-.89-1.48-1.63-3.55-1.93" style="fill: #535a5b"/>
        <path id="Path_1163" data-name="Path 1163" d="M269.7,267.24c-.59.59-.14,2.22,1.19,3.85a11.58,11.58,0,0,0,2.66-2.66C271.92,267.09,270.3,266.65,269.7,267.24Z" style="fill: #666e70"/>
        <path id="Path_1164" data-name="Path 1164" d="M269.7,267.24c-.59.59-.14,2.22,1.19,3.85" style="fill: #535a5b"/>
        <path id="Path_1165" data-name="Path 1165" d="M250.75,251.12c1.63,1.33,3.26,1.77,3.85,1.18s.15-2.22-1.18-3.85A22.4,22.4,0,0,0,250.75,251.12Z" style="fill: #666e70"/>
        <path id="Path_1166" data-name="Path 1166" d="M254.6,252.3c.6-.59.15-2.22-1.18-3.85" style="fill: #535a5b"/>
        <g id="Group_237" data-name="Group 237">
          <path id="Path_1167" data-name="Path 1167" d="M261.87,144.87a9.28,9.28,0,0,1,9.33-9.32H472.69a9.28,9.28,0,0,1,9.32,9.32v63.46a9.28,9.28,0,0,1-9.32,9.32H243.21a9.28,9.28,0,0,1-9.32-9.32Z" style="fill: #f34500"/>
          <path id="Path_1168" data-name="Path 1168" d="M221,206a9.28,9.28,0,0,1,9.32-9.32h25a9.28,9.28,0,0,1,9.33,9.32h0V212a9.28,9.28,0,0,1-9.33,9.32h-25A9.28,9.28,0,0,1,221,212h0Z" style="fill: #f34500"/>
        </g>
        <path id="Path_1169" data-name="Path 1169" d="M479.63,220.5a4.62,4.62,0,0,1,4.59-4.59h0a4.61,4.61,0,0,1,4.59,4.59h0v20.85a4.61,4.61,0,0,1-4.59,4.59h0c-2.66,0-4.73,0-4.73-2.52V220.5Z" style="fill: #d93e00"/>
        <path id="Path_1170" data-name="Path 1170" d="M484.37,246.09h0c-2.66,0-4.74,0-4.74-2.52V220.35a4.62,4.62,0,0,1,4.59-4.59h0" style="fill: #bf3600"/>
        <path id="Path_1171" data-name="Path 1171" d="M240.84,196.38H328a5.24,5.24,0,0,0,5.19-5.18h0V152.45a5.25,5.25,0,0,0-5.19-5.18H261L239.5,196.09A3.73,3.73,0,0,0,240.84,196.38Z" style="fill: #b9b9b9"/>
        <g id="Group_238" data-name="Group 238">
          <path id="Path_1172" data-name="Path 1172" d="M302.43,147.24h-22.2l48.85,48.82a5.2,5.2,0,0,0,3.85-4.88V177.86Z" style="fill: #dcdcdc"/>
          <path id="Path_1173" data-name="Path 1173" d="M333.08,169.87V156.56l-9.18-9.32H310.43Z" style="fill: #dcdcdc"/>
          <path id="Path_1174" data-name="Path 1174" d="M245.88,181.12l-6.66,14.94a5.47,5.47,0,0,0,1.48.29h20.43Z" style="fill: #dcdcdc"/>
          <path id="Path_1175" data-name="Path 1175" d="M302.14,196.35h10.95l-49.15-49.11h-3.11l-2.37,5.47Z" style="fill: #dcdcdc"/>
        </g>
        <path id="Path_1176" data-name="Path 1176" d="M274.59,138.39a2.54,2.54,0,0,1,3.26-1.92h0a2.53,2.53,0,0,1,1.92,3.25h0L264.08,201a2.53,2.53,0,0,1-3.26,1.92h0a2.52,2.52,0,0,1-1.92-3.25h0Z" style="fill: #f34500"/>
        <g id="Group_239" data-name="Group 239">
          <path id="Path_1177" data-name="Path 1177" d="M319.07,208a3.13,3.13,0,0,1,3.11-3.11h7.4a3.13,3.13,0,0,1,3.11,3.11h0a3.12,3.12,0,0,1-3.11,3.1h-7.4A3.33,3.33,0,0,1,319.07,208Z" style="fill: #dcb1a0"/>
          <path id="Path_1178" data-name="Path 1178" d="M372.66,208a3.13,3.13,0,0,1,3.11-3.11h7.4a3.13,3.13,0,0,1,3.11,3.11h0a3.12,3.12,0,0,1-3.11,3.1h-7.4a3.22,3.22,0,0,1-3.11-3.1Z" style="fill: #dcb1a0"/>
        </g>
        <path id="Path_1179" data-name="Path 1179" d="M353.65,149.34a2,2,0,0,1,2.07-2.07h0a2,2,0,0,1,2.07,2.07v97.78a2,2,0,0,1-2.07,2.07h0a2,2,0,0,1-2.07-2.07Z" style="fill: #f56a33"/>
        <g id="Group_240" data-name="Group 240">
          <path id="Path_1180" data-name="Path 1180" d="M459.23,205.81a1,1,0,0,1,.88-1h6.22a1,1,0,0,1,1,.89h0a1,1,0,0,1-.89,1h-6.22a1.25,1.25,0,0,1-1-.88Z" style="fill: #dcb1a0"/>
          <path id="Path_1181" data-name="Path 1181" d="M459.23,210.84a1,1,0,0,1,.88-1h6.22a1,1,0,0,1,1,.89h0a1,1,0,0,1-.89,1h-6.22a1.07,1.07,0,0,1-1-.88Z" style="fill: #dcb1a0"/>
          <path id="Path_1182" data-name="Path 1182" d="M459.23,215.87a1,1,0,0,1,.88-1h6.22a1,1,0,0,1,1,.89h0a1,1,0,0,1-.89,1h-6.22a1.07,1.07,0,0,1-1-.88Z" style="fill: #dcb1a0"/>
        </g>
        <path id="Path_1183" data-name="Path 1183" d="M207.23,219.76a3.92,3.92,0,0,1,3.85-3.85h0a3.92,3.92,0,0,1,3.85,3.85v19.08a3.92,3.92,0,0,1-3.85,3.85h0a3.92,3.92,0,0,1-3.85-3.85h0Z" style="fill: #f36831"/>
        <path id="Path_1184" data-name="Path 1184" d="M211.23,215.76h0a3.92,3.92,0,0,1,3.85,3.85v19.08a3.92,3.92,0,0,1-3.85,3.85h0" style="fill: #f39c79"/>
        <path id="Path_1185" data-name="Path 1185" d="M368.16,196.23V147.12a3.82,3.82,0,0,1,3.84-3.85h93.13a3.82,3.82,0,0,1,3.84,3.85v49.11a3.91,3.91,0,0,1-3.84,3.85H372a3.82,3.82,0,0,1-3.84-3.85Z" style="fill: #f56a33"/>
        <path id="Path_1186" data-name="Path 1186" d="M469.12,196.23a3.91,3.91,0,0,1-3.85,3.85H372.15a3.92,3.92,0,0,1-3.85-3.85V147.12a3.83,3.83,0,0,1,3.85-3.85h0" style="fill: #d93e00"/>
        <g id="Group_246" data-name="Group 246">
          <path id="Path_1187" data-name="Path 1187" d="M789.8,206.81,719.62,220A14,14,0,0,1,703.49,209L675.65,61a14,14,0,0,1,11-16.12l70.17-13.17a13.92,13.92,0,0,1,16.14,11l27.83,147.93a13.83,13.83,0,0,1-11,16.27Z"/>
          <g id="Group_242" data-name="Group 242">
            <rect id="Rectangle_361" data-name="Rectangle 361" x="694.37" y="50.84" width="86.01" height="140.54" transform="translate(-9.68 138.48) rotate(-10.66)" style="fill: #ccc"/>
            <path id="Path_1188" data-name="Path 1188" d="M736,44.19l-17.32,3.25A1.36,1.36,0,0,1,717,46.26h0a1.37,1.37,0,0,1,1.19-1.63l17.17-3.25A1.36,1.36,0,0,1,737,42.56h0A1.26,1.26,0,0,1,736,44.19Z" style="fill: #ccc"/>
            <circle id="Ellipse_168" data-name="Ellipse 168" cx="710.36" cy="47.59" r="1.48" style="fill: #ccc"/>
            <path id="Path_1189" data-name="Path 1189" d="M753.74,208.39a6.7,6.7,0,1,1,5.33-7.84h0a6.58,6.58,0,0,1-5.33,7.84C753.89,208.24,753.89,208.39,753.74,208.39Zm-2.22-12a5.42,5.42,0,1,0,6.37,4.29,5.39,5.39,0,0,0-6.37-4.29Z" style="fill: #ccc"/>
          </g>
          <rect id="Rectangle_362" data-name="Rectangle 362" x="708.52" y="139.06" width="72.39" height="42.9" transform="translate(-16.84 140.52) rotate(-10.66)" style="fill: #fff"/>
          <rect id="Rectangle_363" data-name="Rectangle 363" x="714.29" y="146.16" width="55.96" height="2.07" transform="translate(-14.42 139.83) rotate(-10.66)"/>
          <g id="Group_243" data-name="Group 243">
            <rect id="Rectangle_364" data-name="Rectangle 364" x="715.57" y="152.94" width="55.96" height="2.07" transform="translate(-15.65 140.19) rotate(-10.66)" style="fill: #e5e5e5"/>
            <rect id="Rectangle_365" data-name="Rectangle 365" x="716.61" y="158.12" width="55.96" height="2.07" transform="matrix(0.98, -0.18, 0.18, 0.98, -16.59, 140.47)" style="fill: #e5e5e5"/>
            <rect id="Rectangle_366" data-name="Rectangle 366" x="717.5" y="163.3" width="55.96" height="2.07" transform="translate(-17.53 140.72) rotate(-10.66)" style="fill: #e5e5e5"/>
            <rect id="Rectangle_367" data-name="Rectangle 367" x="718.54" y="168.62" width="55.96" height="2.07" transform="translate(-18.5 141.01) rotate(-10.66)" style="fill: #e5e5e5"/>
            <rect id="Rectangle_368" data-name="Rectangle 368" x="719.42" y="173.8" width="55.96" height="2.07" transform="translate(-19.44 141.26) rotate(-10.66)" style="fill: #e5e5e5"/>
          </g>
          <rect id="Rectangle_369" data-name="Rectangle 369" x="699.49" y="91.27" width="72.39" height="42.9" transform="translate(-8.16 138.02) rotate(-10.66)" style="fill: #fff"/>
          <rect id="Rectangle_370" data-name="Rectangle 370" x="705.26" y="98.23" width="55.96" height="2.07" transform="translate(-5.71 137.34) rotate(-10.66)"/>
          <g id="Group_244" data-name="Group 244">
            <rect id="Rectangle_371" data-name="Rectangle 371" x="706.53" y="105.07" width="55.96" height="2.07" transform="translate(-6.95 137.69) rotate(-10.66)" style="fill: #e5e5e5"/>
            <rect id="Rectangle_372" data-name="Rectangle 372" x="707.57" y="110.25" width="55.96" height="2.07" transform="translate(-7.89 137.97) rotate(-10.66)" style="fill: #e5e5e5"/>
            <rect id="Rectangle_373" data-name="Rectangle 373" x="708.46" y="115.58" width="55.96" height="2.07" transform="translate(-8.86 138.23) rotate(-10.66)" style="fill: #e5e5e5"/>
            <rect id="Rectangle_374" data-name="Rectangle 374" x="709.49" y="120.75" width="55.96" height="2.07" transform="translate(-9.8 138.51) rotate(-10.66)" style="fill: #e5e5e5"/>
            <rect id="Rectangle_375" data-name="Rectangle 375" x="710.38" y="125.93" width="55.96" height="2.07" transform="translate(-10.74 138.76) rotate(-10.66)" style="fill: #e5e5e5"/>
          </g>
          <rect id="Rectangle_376" data-name="Rectangle 376" x="692.09" y="60.36" width="72.39" height="25.89" transform="translate(-0.99 135.97) rotate(-10.66)" style="fill: #f34500"/>
          <g id="Group_245" data-name="Group 245">
            <path id="Path_1190" data-name="Path 1190" d="M708.93,83.46l-2.52-13.32,1.93-.29,5.48,5.91a25.39,25.39,0,0,1,3.1,3.85h0c-.44-1.77-.88-3.55-1.18-5.32l-1-5.63,1.63-.29,2.52,13.16-1.78.3-5.48-5.92c-1.18-1.33-2.36-2.66-3.25-3.84h0c.44,1.62.74,3.25,1.18,5.47l1,5.62Z" style="fill: #fff"/>
            <path id="Path_1191" data-name="Path 1191" d="M722,76.36a3.15,3.15,0,0,0,3.4,2.81.55.55,0,0,0,.45-.15,5.29,5.29,0,0,0,2.51-1l.6,1.19a7.26,7.26,0,0,1-3.11,1.18,4.57,4.57,0,0,1-5.48-3.25c0-.15-.15-.45-.15-.6-.59-2.81.74-5.47,3.55-5.91,3.11-.59,4.45,1.92,4.74,3.7,0,.29.15.59,0,.88Zm4.88-2.22a2.42,2.42,0,0,0-2.66-2.37h-.3A2.8,2.8,0,0,0,721.81,75Z" style="fill: #fff"/>
            <path id="Path_1192" data-name="Path 1192" d="M730.54,69.55l2.23,4.59c.44,1,.88,1.92,1.33,2.81h0a23.36,23.36,0,0,1,.29-3.11l.6-5.18,1.48-.29,2.37,4.44a10.77,10.77,0,0,1,1.33,3h0a24.68,24.68,0,0,1,.15-3.25l.44-5,1.63-.3-1.33,10.06-1.48.3L737.5,73.4a11,11,0,0,1-1.33-3h0a23.8,23.8,0,0,1-.3,3.25l-.74,4.89-1.48.29-4.73-9Z" style="fill: #fff"/>
            <path id="Path_1193" data-name="Path 1193" d="M745.5,74.73a4.44,4.44,0,0,0,2.37.3c1.33-.15,1.77-1,1.62-1.78-.14-.89-.74-1.18-2.07-1.33-1.77-.3-2.81-1-3-2.22A3,3,0,0,1,747,66.3h.15a3.21,3.21,0,0,1,2.36,0l-.14,1.33a3.24,3.24,0,0,0-2.08-.15,1.38,1.38,0,0,0-1.33,1.63c.15.74.74,1,2.07,1.33,1.78.3,2.67,1,3,2.37.3,1.62-.74,3.1-3,3.55a6.23,6.23,0,0,1-2.81-.15Z" style="fill: #fff"/>
          </g>
        </g>
        <path id="Path_1194" data-name="Path 1194" d="M770.55,297.27V163.39a8.58,8.58,0,0,1,8.58-8.58h20.73a8.58,8.58,0,0,1,8.58,8.58V297.27a8.58,8.58,0,0,1-8.58,8.58H779.13a8.49,8.49,0,0,1-8.58-8.58Z" style="fill: #ff5b1a"/>
        <path id="Path_1195" data-name="Path 1195" d="M777.21,163.54c0-4.73,2.51-8.58,5.47-8.58H796c3.11,0,5.48,3.85,5.48,8.58V297.42c0,4.73-2.52,8.58-5.48,8.58H782.68c-3.1,0-5.47-3.85-5.47-8.58Z" style="fill: #d64505"/>
        <path id="Path_1196" data-name="Path 1196" d="M757.67,227.89a8.58,8.58,0,0,1,8.58-8.58h46.49a8.59,8.59,0,0,1,8.59,8.58h0a8.59,8.59,0,0,1-8.59,8.58H766.25A8.58,8.58,0,0,1,757.67,227.89Z" style="fill: #aa2102"/>
        <path id="Path_1197" data-name="Path 1197" d="M736.35,221.83v-42a8.59,8.59,0,0,1,8.58-8.58h89.13a8.59,8.59,0,0,1,8.58,8.58v42a8.59,8.59,0,0,1-8.58,8.58H744.93a8.59,8.59,0,0,1-8.58-8.58Z" style="fill: #d64505"/>
        <path id="Path_1198" data-name="Path 1198" d="M842.64,221.83a8.59,8.59,0,0,1-8.58,8.58H744.93a8.59,8.59,0,0,1-8.58-8.58v-42" style="fill: #c63205"/>
        <g id="Group_247" data-name="Group 247">
          <path id="Path_1199" data-name="Path 1199" d="M736.35,179.93a8.59,8.59,0,0,1,8.58-8.58h89.13a8.59,8.59,0,0,1,8.58,8.58" style="fill: #ff5b1a"/>
        </g>
        <path id="Path_1200" data-name="Path 1200" d="M789.35,104.37a39.94,39.94,0,0,1,40,39.79h0c0,22-17.91,18.49-40,18.49s-40,3.55-40-18.49A40.15,40.15,0,0,1,789.35,104.37Z" style="fill: #323535"/>
        <path id="Path_1201" data-name="Path 1201" d="M789.35,113.54c22.06,0,40,8.58,40,30.62s-17.91,23.38-40,23.38-40-1.34-40-23.38S767.44,113.54,789.35,113.54Z"/>
        <path id="Path_1202" data-name="Path 1202" d="M755.15,218.87V185.44a2.65,2.65,0,0,1,2.66-2.67h63.37a2.65,2.65,0,0,1,2.66,2.67h0v33.43a2.65,2.65,0,0,1-2.66,2.66H757.67a2.62,2.62,0,0,1-2.52-2.66Z" style="fill: #c63205"/>
        <path id="Path_1203" data-name="Path 1203" d="M823.84,218.87a2.65,2.65,0,0,1-2.66,2.66H757.67a2.65,2.65,0,0,1-2.67-2.66h0V185.44a2.66,2.66,0,0,1,2.67-2.67h0" style="fill: #aa2102"/>
        <g id="Group_248" data-name="Group 248">
          <path id="Path_1204" data-name="Path 1204" d="M792.59,302c-12.43,0-22.5-10.65-22.5-24V261.61c0-13.16,10.07-24,22.5-24H830.2c12.43,0,22.5,10.65,22.5,24V278c0,13.17-10.07,24-22.5,24Z" style="fill: #f9bda0"/>
          <path id="Path_1205" data-name="Path 1205" d="M828.87,302.14h-60a8.59,8.59,0,0,1-8.59-8.58h0a8.59,8.59,0,0,1,8.59-8.58h60a8.59,8.59,0,0,1,8.58,8.58h0A8.58,8.58,0,0,1,828.87,302.14Z" style="fill: #f9bda0"/>
          <path id="Path_1206" data-name="Path 1206" d="M760.76,270.93a8.58,8.58,0,0,1-8.58-8.58h0a8.59,8.59,0,0,1,8.58-8.58h69.29a8.59,8.59,0,0,1,8.59,8.58h0a8.59,8.59,0,0,1-8.59,8.58Z" style="fill: #f9bda0"/>
          <path id="Path_1207" data-name="Path 1207" d="M762.24,287.2a8.58,8.58,0,0,1-8.58-8.58h0a8.59,8.59,0,0,1,8.58-8.58h69.29a8.59,8.59,0,0,1,8.59,8.58h0a8.59,8.59,0,0,1-8.59,8.58H762.24Z" style="fill: #f9bda0"/>
          <path id="Path_1208" data-name="Path 1208" d="M834.79,254.81H765.5a8.59,8.59,0,0,1-8.59-8.58h0a8.59,8.59,0,0,1,8.59-8.58h69.29a8.58,8.58,0,0,1,8.58,8.58h0a8.59,8.59,0,0,1-8.58,8.58Z" style="fill: #f9bda0"/>
          <path id="Path_1209" data-name="Path 1209" d="M818.21,234.39c-4.74,8.14,12.43,11.84,12.43,11.84l22.21,2.66s-9.48-12.43-15.1-19.38a8.7,8.7,0,0,1-3.85.89H820.43C819.83,231.58,819,232.91,818.21,234.39Z" style="fill: #f9bda0"/>
        </g>
        <rect id="Rectangle_377" data-name="Rectangle 377" x="846.05" y="238.84" width="10.36" height="60.06" style="fill: #a8a8a8"/>
        <path id="Path_1210" data-name="Path 1210" d="M846.05,298.9V238.84h10.36" style="fill: #a8a8a8"/>
        <rect id="Rectangle_378" data-name="Rectangle 378" x="853.3" y="233.07" width="58.03" height="69.38" style="fill: #f34500"/>
        <path id="Path_1211" data-name="Path 1211" d="M853.3,302.6V233.07h58" style="fill: #bf3600"/>
        <g id="Group_249" data-name="Group 249">
          <ellipse id="Ellipse_169" data-name="Ellipse 169" cx="872.82" cy="267.9" rx="5.63" ry="5.62" style="fill: #333"/>
          <path id="Path_1212" data-name="Path 1212" d="M897.69,262.13a5.7,5.7,0,1,1,.15,11.39h-.15a5.62,5.62,0,0,1-5.62-5.62A5.47,5.47,0,0,1,897.69,262.13Z" style="fill: #333"/>
        </g>
        <g id="Group_251" data-name="Group 251">
          <path id="Path_1213" data-name="Path 1213" d="M889.23,155.4a45.17,45.17,0,0,0,0,64.06c17.77,17.6,46.49,17.75,64.11,0a45.31,45.31,0,1,0-64.11-64.06Zm57.44,57.4c-5.92,5.92-22.94,2.07-37.9-12.87-12.14-12.13-16.87-25.59-15.25-33.43l43.38,43.34,6.66-6.66-43.37-43.34c8.88-2.22,23.39,5.18,33.6,15.24,12,11.83,20.29,30.32,12.88,37.72Zm-50.78,0a36,36,0,0,1-10.06-31.07,71.67,71.67,0,0,0,41,41,35.43,35.43,0,0,1-30.94-9.91Zm60.85-19.68a71.69,71.69,0,0,0-41-41,35.58,35.58,0,0,1,41,29.43A37.84,37.84,0,0,1,956.74,193.12Z" style="fill: #f34500"/>
          <ellipse id="Ellipse_170" data-name="Ellipse 170" cx="920.77" cy="187.94" rx="41.88" ry="2.66" transform="translate(136.59 705.82) rotate(-44.98)" style="fill: #f34500"/>
        </g>
        <path id="Path_1214" data-name="Path 1214" d="M971,233.22a7.58,7.58,0,0,1-7.55,7.54H879.36a7.57,7.57,0,0,1-7.55-7.54h0V207.33a7.58,7.58,0,0,1,7.55-7.55h84.09a7.59,7.59,0,0,1,7.55,7.55h0v25.89Z" style="fill: #4f4f4f"/>
        <path id="Path_1215" data-name="Path 1215" d="M963.45,199.78a7.59,7.59,0,0,1,7.55,7.55h0v25.89a7.58,7.58,0,0,1-7.55,7.54H879.36a7.57,7.57,0,0,1-7.55-7.54h0" style="fill: #727272"/>
        <g id="Group_252" data-name="Group 252">
          <path id="Path_1216" data-name="Path 1216" d="M900.8,223.88h-5.18v-11.1a.84.84,0,0,0-.74-.89h-3a.83.83,0,0,0-.89.74h0v14.65a.83.83,0,0,0,.74.89h9a1,1,0,0,0,.89-.89v-2.81c0-.3-.45-.59-.89-.59Z" style="fill: #fff"/>
          <path id="Path_1217" data-name="Path 1217" d="M912.79,211.89h-3a.83.83,0,0,0-.89.74h0v14.65a.84.84,0,0,0,.74.89h3a1,1,0,0,0,.89-.89V212.63C913.68,212.34,913.23,211.89,912.79,211.89Z" style="fill: #fff"/>
          <path id="Path_1218" data-name="Path 1218" d="M933.81,211.89h-3c-.29,0-.74.15-.74.59l-2.52,6.37-2.51-6.37a1,1,0,0,0-.74-.59h-3a1.1,1.1,0,0,0-.74.3.65.65,0,0,0,0,.74L927,228a.83.83,0,0,0,.74.44.82.82,0,0,0,.74-.44l6.37-15.09a.65.65,0,0,0,0-.74A3.77,3.77,0,0,0,933.81,211.89Z" style="fill: #fff"/>
          <path id="Path_1219" data-name="Path 1219" d="M951,223.88h-5V222.1h4.59a.83.83,0,0,0,.89-.74h0V218.7a.83.83,0,0,0-.74-.89H946.1v-1.18H951a.83.83,0,0,0,.88-.74h0v-2.81a.82.82,0,0,0-.74-.89H942.4a.82.82,0,0,0-.89.74h0v14.64a.83.83,0,0,0,.74.89h8.88a1,1,0,0,0,.89-.89v-2.81a1.27,1.27,0,0,0-1-.88Z" style="fill: #fff"/>
        </g>
        <path id="Path_1220" data-name="Path 1220" d="M883.21,207.48a3.82,3.82,0,0,1-3.85,3.84h0a3.82,3.82,0,0,1-3.85-3.84h0a3.83,3.83,0,0,1,3.85-3.85h0a3.83,3.83,0,0,1,3.85,3.85Z" style="fill: #f94a28"/>
        <path id="Path_1221" data-name="Path 1221" d="M879.36,203.63h0a4.06,4.06,0,0,1,4,3.85h0a3.82,3.82,0,0,1-3.85,3.84h0" style="fill: #f39c79"/>
        <g id="Group_253" data-name="Group 253">
          <path id="Path_1222" data-name="Path 1222" d="M892.24,137.06a1.41,1.41,0,0,1-1.19,1.33h0A21.63,21.63,0,0,0,869.44,160a1.2,1.2,0,0,1-1.33,1.18,1.28,1.28,0,0,1-1.19-1.18,24,24,0,0,1,24-24c.59-.15,1.18.44,1.33,1Z" style="fill: #4f4f4f"/>
          <path id="Path_1223" data-name="Path 1223" d="M891.94,143.27a1,1,0,0,1-.89.89,15.69,15.69,0,0,0-15.69,15.68.89.89,0,1,1-1.77,0,17.55,17.55,0,0,1,17.61-17.6,1.15,1.15,0,0,1,.74,1Z" style="fill: #4f4f4f"/>
          <path id="Path_1224" data-name="Path 1224" d="M891.65,148.6a.64.64,0,0,1-.6.59h0a10.61,10.61,0,0,0-10.65,10.65h0a.6.6,0,1,1-1.19,0h0A11.87,11.87,0,0,1,891.05,148h0c.3-.15.6.15.6.59Z" style="fill: #4f4f4f"/>
        </g>
      </g>
      <rect width="972" height="306" style="fill: none"/>
    </g>
  </g>
</svg>
