<svg xmlns="http://www.w3.org/2000/svg" width="146" height="164" viewBox="0 0 146 164">
  <title>people-print</title>
  <g id="Layer_2" data-name="Layer 2">
    <g id="Layer_1-2" data-name="Layer 1">
      <ellipse id="Ellipse_26" data-name="Ellipse 26" cx="81.82" cy="59.87" rx="55.68" ry="55.87" style="fill: #f34500"/>
      <g id="businessman">
        <path id="Path_297" data-name="Path 297" d="M47.83,163.9H33.91V134.47l4.68-12.38A15.56,15.56,0,0,1,54.1,137.66V164l-6.27-.1Z" style="fill: #4f4f4f"/>
        <g id="Group_65" data-name="Group 65">
          <path id="Path_298" data-name="Path 298" d="M43.24,92.5a4.69,4.69,0,0,1,0,9.38h-1.6V92.5Z" style="fill: #553a28"/>
          <path id="Path_299" data-name="Path 299" d="M41.64,101.87v6.19a9.31,9.31,0,0,1-7.75,9.18,7.47,7.47,0,0,1-1.49.1H23.05a7.47,7.47,0,0,1-1.49-.1,9.39,9.39,0,0,1-7.75-9.18V83.22H41.64v18.65Zm-4.87-7a2.29,2.29,0,1,0-2.28,2.29h0a2.24,2.24,0,0,0,2.28-2.29Zm-13.92,0a2.29,2.29,0,1,0-2.28,2.29h0A2.24,2.24,0,0,0,22.85,94.89Z" style="fill: #553a28"/>
        </g>
        <path id="Path_300" data-name="Path 300" d="M33.91,83.18H13.83V73.9H32.32a9.25,9.25,0,0,1,9.25,9.28H33.91Z"/>
        <path id="Path_301" data-name="Path 301" d="M38.59,122l-4.68,12.38-6.16-6.19L33.91,122Z" style="fill: #959595"/>
        <ellipse id="Ellipse_24" data-name="Ellipse 24" cx="34.41" cy="94.86" rx="2.29" ry="2.29"/>
        <path id="Path_302" data-name="Path 302" d="M33.91,134.47V164l-4.67-24.84Z" style="fill: #959595"/>
        <path id="Path_303" data-name="Path 303" d="M33.91,117.41v4.69l-6.16,6.18-6.17-6.18v-4.79a7.57,7.57,0,0,0,1.5.1h9.24a7.42,7.42,0,0,0,1.49-.1Z" style="fill: #553a28"/>
        <path id="Path_304" data-name="Path 304" d="M33.91,134.47l-4.67,4.69L33.91,164H21.58l4.68-24.84-4.68-4.69,6.17-6.19Z" style="fill: #f36831"/>
        <g id="Group_66" data-name="Group 66">
          <path id="Path_305" data-name="Path 305" d="M27.74,128.2l-6.17,6.19L16.9,122h4.67Z" style="fill: #959595"/>
          <path id="Path_306" data-name="Path 306" d="M26.15,139.08l-4.58,24.84V134.39Z" style="fill: #959595"/>
        </g>
        <path id="Path_307" data-name="Path 307" d="M7.66,163.9H1.5V137.56A15.56,15.56,0,0,1,17,122l4.67,12.38V163.9Z" style="fill: #4f4f4f"/>
        <ellipse id="Ellipse_25" data-name="Ellipse 25" cx="20.49" cy="94.86" rx="2.29" ry="2.29"/>
        <path id="Path_308" data-name="Path 308" d="M13.83,92.56v9.28H12.24a4.69,4.69,0,0,1,0-9.38h1.59Z" style="fill: #553a28"/>
        <g id="Group_67" data-name="Group 67">
          <rect id="Rectangle_144" data-name="Rectangle 144" x="6.07" y="135.99" width="3.08" height="27.94" style="fill: #404040"/>
          <rect id="Rectangle_145" data-name="Rectangle 145" x="46.24" y="135.99" width="3.08" height="27.94" style="fill: #404040"/>
        </g>
        <g id="Group_68" data-name="Group 68">
          <path id="Path_309" data-name="Path 309" d="M19.28,110.93l-1.69-2.59,4.67-3.09a1.34,1.34,0,0,1,1.49-.1l3.08,1.59-1.39,2.7-2.29-1.2Z" style="fill: #999"/>
          <path id="Path_310" data-name="Path 310" d="M36.18,110.93l-3.88-2.59L30,109.54l-1.39-2.8,3.09-1.59a1.79,1.79,0,0,1,1.59.1L38,108.34Z" style="fill: #999"/>
        </g>
        <g id="Group_69" data-name="Group 69">
          <rect id="Rectangle_146" data-name="Rectangle 146" x="19.99" y="78.56" width="3.08" height="4.69" style="fill: #2b2828"/>
          <rect id="Rectangle_147" data-name="Rectangle 147" x="26.16" y="78.56" width="3.08" height="4.69" style="fill: #2b2828"/>
          <rect id="Rectangle_148" data-name="Rectangle 148" x="32.32" y="78.56" width="3.08" height="4.69" style="fill: #2b2828"/>
        </g>
      </g>
      <g id="grandmother">
        <g id="Group_61" data-name="Group 61">
          <path id="Path_280" data-name="Path 280" d="M62.79,124.43A3.78,3.78,0,0,0,59,128.22h0A4,4,0,0,0,59.4,130a5.05,5.05,0,0,0,2.09,9.68h7.66V124.43Z" style="fill: #2c2d2e"/>
          <path id="Path_281" data-name="Path 281" d="M88.14,124.43a3.78,3.78,0,0,1,3.78,3.79h0a4.71,4.71,0,0,1-.4,1.69,5.05,5.05,0,0,1-2.09,9.68H81.78V124.43Z" style="fill: #2c2d2e"/>
        </g>
        <path id="Path_282" data-name="Path 282" d="M92.19,138.56l-9-4.49a2.45,2.45,0,0,1-1.39-2.3H69.12a2.43,2.43,0,0,1-1.39,2.3l-9,4.49a8.91,8.91,0,0,0-4.87,8V162.7A1.32,1.32,0,0,0,55.2,164H95.87a1.32,1.32,0,0,0,1.29-1.3V146.54A9.19,9.19,0,0,0,92.19,138.56Z" style="fill: #f34500"/>
        <path id="Path_283" data-name="Path 283" d="M75.49,139.75a12.76,12.76,0,0,0,9.84-4.69l-2.09-1a2.45,2.45,0,0,1-1.39-2.3H69.12a2.43,2.43,0,0,1-1.39,2.3l-2.09,1A12.77,12.77,0,0,0,75.49,139.75Z" style="fill: #fad098"/>
        <path id="Path_284" data-name="Path 284" d="M81.85,131.77H69.12a2.6,2.6,0,0,1-1.29,2.2,17.17,17.17,0,0,0,7.26,2h.3A17.1,17.1,0,0,0,83,134.07,3,3,0,0,1,81.85,131.77Z" style="fill: #d7af7d"/>
        <ellipse id="Ellipse_23" data-name="Ellipse 23" cx="75.49" cy="109.72" rx="17.8" ry="17.16" style="fill: #303645"/>
        <path id="Path_285" data-name="Path 285" d="M69.12,108.53A17.27,17.27,0,0,1,79.26,93a16.11,16.11,0,0,0-3.77-.4c-9.85,0-17.8,7.68-17.8,17.16s8,17.16,17.8,17.16a18.52,18.52,0,0,0,7.65-1.69A17.17,17.17,0,0,1,69.12,108.53Z" style="fill: #2c2d2e"/>
        <path id="Path_286" data-name="Path 286" d="M68.43,108.53a25.22,25.22,0,0,1-5.37,3.79,2.5,2.5,0,0,0-1.49,2.29v4.19c0,7.68,6.06,14.37,13.72,14.47A14,14,0,0,0,89.51,119.5v-.3c0-8.58-12.93-6.58-19.59-10.87A1.35,1.35,0,0,0,68.43,108.53Z" style="fill: #ffe1b4"/>
        <path id="Path_287" data-name="Path 287" d="M69.12,119.3V108.23a.89.89,0,0,0-.69.3,25.22,25.22,0,0,1-5.37,3.79,2.5,2.5,0,0,0-1.49,2.29v4.19c0,7.68,6.06,14.37,13.72,14.47a18.14,18.14,0,0,0,4.07-.5A14,14,0,0,1,69.12,119.3Z" style="fill: #fad098"/>
        <path id="Path_288" data-name="Path 288" d="M75.49,127a7,7,0,0,1-4.58-1.59,1.4,1.4,0,0,1-.2-1.8,1.37,1.37,0,0,1,1.79-.2h0a5.06,5.06,0,0,0,6,0,1.28,1.28,0,0,1,1.59,2A6.94,6.94,0,0,1,75.49,127Z" style="fill: #d7af7d"/>
        <path id="Path_289" data-name="Path 289" d="M78,119.3a1.36,1.36,0,0,1-1.09-.6,2,2,0,0,0-2.89-.1l-.09.1a1.28,1.28,0,1,1-2.09-1.49,4.42,4.42,0,0,1,6.16-1,4.74,4.74,0,0,1,1,1,1.39,1.39,0,0,1-.3,1.79.91.91,0,0,1-.7.3Z" style="fill: #7f8499"/>
        <g id="Group_62" data-name="Group 62">
          <path id="Path_290" data-name="Path 290" d="M61.84,148.59l-5.67-8.09a9,9,0,0,0-2.29,6v16.16a1.32,1.32,0,0,0,1.29,1.3h7.66V151.48A6.32,6.32,0,0,0,61.84,148.59Z" style="fill: #bf3600"/>
          <path id="Path_291" data-name="Path 291" d="M89.08,148.59l5.67-8.09a8.85,8.85,0,0,1,2.28,6v16.16a1.32,1.32,0,0,1-1.29,1.3H88.08V151.48A6.22,6.22,0,0,1,89.08,148.59Z" style="fill: #bf3600"/>
          <path id="Path_292" data-name="Path 292" d="M75.46,146.09A19.12,19.12,0,0,0,91.07,138l-2.39-1.2a16.41,16.41,0,0,1-26.45,0L60,138A18.79,18.79,0,0,0,75.46,146.09Z" style="fill: #bf3600"/>
        </g>
        <g id="Group_63" data-name="Group 63">
          <path id="Path_293" data-name="Path 293" d="M69.11,123.13A5.09,5.09,0,1,1,74.18,118,5.1,5.1,0,0,1,69.11,123.13Zm0-7.58a2.57,2.57,0,0,0-2.58,2.59,2.59,2.59,0,1,0,5.17,0h0a2.57,2.57,0,0,0-2.59-2.59Z" style="fill: #959cb5"/>
          <path id="Path_294" data-name="Path 294" d="M81.84,123.13A5.09,5.09,0,1,1,86.91,118h0A5.1,5.1,0,0,1,81.84,123.13Zm0-7.58a2.6,2.6,0,1,0,2.59,2.59h0a2.64,2.64,0,0,0-2.59-2.59Z" style="fill: #959cb5"/>
        </g>
        <g id="Group_64" data-name="Group 64">
          <path id="Path_295" data-name="Path 295" d="M69.15,119.29a1.23,1.23,0,0,1-1.3-1.19v-.5a1.3,1.3,0,1,1,2.59,0v.5a1.23,1.23,0,0,1-1.29,1.19Z" style="fill: #64463c"/>
          <path id="Path_296" data-name="Path 296" d="M81.87,119.29A1.31,1.31,0,0,1,80.58,118h0v-.4a1.29,1.29,0,1,1,2.58,0v.5a1.28,1.28,0,0,1-1.29,1.19Z" style="fill: #64463c"/>
        </g>
      </g>
      <text transform="translate(55.53 48.37)" style="font-size: 20px;fill: #fff;font-family: HelveticaNeue-Bold, Helvetica Neue;font-weight: 700">Ages<tspan x="0" y="25">64-66</tspan></text>
      <rect width="146" height="164" style="fill: none"/>
    </g>
  </g>
</svg>
