<svg xmlns="http://www.w3.org/2000/svg" width="146" height="164" viewBox="0 0 146 164">
  <title>people-online</title>
  <g id="Layer_2" data-name="Layer 2">
    <g id="Layer_1-2" data-name="Layer 1">
      <rect width="146" height="164" style="fill: none"/>
      <g>
        <ellipse id="Ellipse_27" data-name="Ellipse 27" cx="90" cy="56.92" rx="56" ry="55.92" style="fill: #f34500"/>
        <g id="grandfather">
          <path id="Path_255" data-name="Path 255" d="M77.4,92.8a16.51,16.51,0,0,0-16.5,16.48h0v4.89H93.8v-4.89A16.36,16.36,0,0,0,77.4,92.8Z" style="fill: #b5b3b1"/>
          <path id="Path_256" data-name="Path 256" d="M64.2,110h0a5.42,5.42,0,0,1,2.9-4.5h0s3-2.09,1-5a21.79,21.79,0,0,1-2-3.19,16.37,16.37,0,0,0-5.2,12v4.89h3.3V110Z" style="fill: #aaa6a2"/>
          <path id="Path_257" data-name="Path 257" d="M102.7,160.21l-3.1-15.68a6.48,6.48,0,0,0-4.8-4.9l-8.4-2.49h-18L60,139.63h0a7,7,0,0,0-4,2.8c-1,1.7-.7,2.1-4,17.78-.2,1.09-.2,3.79,3.3,3.79H99.4C102.9,164,102.9,161.3,102.7,160.21Z" style="fill: #404040"/>
          <g id="Group_55" data-name="Group 55">
            <path id="Path_258" data-name="Path 258" d="M55.6,160.15c3.4-17.57,2.8-18.67,4.8-20.67l-.4.1h0a7,7,0,0,0-4,2.8c-1,1.7-.7,2.09-4,17.77-.2,1.1-.2,3.8,3.3,3.8h3.6C55.5,164,55.5,161.25,55.6,160.15Z" style="fill: #333"/>
            <path id="Path_259" data-name="Path 259" d="M62.9,164V152.76a1.05,1.05,0,0,0-2.1-.1V164Z" style="fill: #333"/>
            <path id="Path_260" data-name="Path 260" d="M94,164V152.76a1.05,1.05,0,0,0-2.1-.1V164Z" style="fill: #333"/>
          </g>
          <path id="Path_261" data-name="Path 261" d="M82.9,131.55h0a13.28,13.28,0,0,1-11,0h0v3.59l3,7.09H80l3-7.09-.1-3.59Z" style="fill: #dd9554"/>
          <path id="Path_262" data-name="Path 262" d="M75.4,132.55a11,11,0,0,1-3.5-1.1h0V135l3,7.09h.6l-.1-9.58Z" style="fill: #ce884e"/>
          <path id="Path_263" data-name="Path 263" d="M83.4,152.82a1.54,1.54,0,0,0-1.5,1.49v2.5a3.08,3.08,0,0,0,3.2,2.8h.1a3,3,0,0,0,3.2-2.8v-2.5a1.54,1.54,0,0,0-1.5-1.49Z" style="fill: #aaa6a2"/>
          <path id="Path_264" data-name="Path 264" d="M84.9,156.81v-2.5a1.54,1.54,0,0,1,1.5-1.49H83.3a1.54,1.54,0,0,0-1.5,1.49v2.5c0,2.2,2.7,3.4,4.8,2.4A2.74,2.74,0,0,1,84.9,156.81Z" style="fill: #99928c"/>
          <path id="Path_265" data-name="Path 265" d="M78.5,152.82V142.23H76.3v10.59a1.1,1.1,0,0,0,1.1,1.09,1.25,1.25,0,0,0,1.1-1.09Z" style="fill: #333"/>
          <g id="Group_56" data-name="Group 56">
            <path id="Path_266" data-name="Path 266" d="M82.92,134.81l-3.1,7.39,2.6,1.89a1,1,0,0,0,1.5-.2c.1-.1.1-.2.2-.3l2.3-6.49Z" style="fill: #aaa6a2"/>
            <path id="Path_267" data-name="Path 267" d="M71.82,134.81l3.1,7.39-2.5,1.89a1,1,0,0,1-1.5-.2c-.1-.1-.2-.2-.2-.3l-2.3-6.49Z" style="fill: #aaa6a2"/>
          </g>
          <g id="Group_57" data-name="Group 57">
            <path id="Path_268" data-name="Path 268" d="M60.13,115.2c0,1.9,1.8,3.4,4.1,3.4v-6.79C61.93,111.81,60.13,113.31,60.13,115.2Z" style="fill: #dd9554"/>
            <path id="Path_269" data-name="Path 269" d="M94.73,115.2c0,1.9-1.8,3.4-4.1,3.4v-6.79C92.83,111.81,94.73,113.31,94.73,115.2Z" style="fill: #dd9554"/>
          </g>
          <g id="Group_58" data-name="Group 58">
            <path id="Path_270" data-name="Path 270" d="M60.52,113.74c-1.3,2.29.6,4.89,3.7,4.89v-3A4.17,4.17,0,0,1,60.52,113.74Z" style="fill: #ce884e"/>
            <path id="Path_271" data-name="Path 271" d="M90.62,115.63v3c3.1,0,5-2.7,3.7-4.89A4.17,4.17,0,0,1,90.62,115.63Z" style="fill: #ce884e"/>
          </g>
          <path id="Path_272" data-name="Path 272" d="M90.6,110h0a5.42,5.42,0,0,0-2.9-4.5h0s-3-2.09-1-5a21.79,21.79,0,0,0,2-3.19,16.44,16.44,0,0,0-22.6,0,15.7,15.7,0,0,0,2,3.19c2,2.9-1,5-1,5h0a5.42,5.42,0,0,0-2.9,4.5h0v9.88a13.19,13.19,0,0,0,13.2,13.19,12.1,12.1,0,0,0,1.9-.1C92.1,131.05,90.5,119.56,90.6,110Z" style="fill: #ebae6d"/>
          <g id="Group_59" data-name="Group 59">
            <path id="Path_273" data-name="Path 273" d="M86.43,114.17a1,1,0,0,1,.2-1.5l3.3-2.59a1,1,0,0,1,1.5.2,1.09,1.09,0,0,1-.2,1.49l-3.3,2.6A1,1,0,0,1,86.43,114.17Z" style="fill: #9b948f"/>
            <path id="Path_274" data-name="Path 274" d="M79.23,116.37h-3.6a1.18,1.18,0,0,1-1.1-1.1,1,1,0,0,1,1-1h3.6a1,1,0,0,1,1.1,1c.1.6-.4,1-1,1.1Z" style="fill: #9b948f"/>
          </g>
          <path id="SVGCleanerId_0" data-name="SVGCleanerId 0" d="M71.3,110.68a4.59,4.59,0,1,0,4.6,4.59h0A4.46,4.46,0,0,0,71.3,110.68Z" style="fill: #f9ddb4"/>
          <path id="Path_275" data-name="Path 275" d="M83.4,110.68a4.59,4.59,0,1,0,4.6,4.59A4.52,4.52,0,0,0,83.4,110.68Z" style="fill: #f9ddb4"/>
          <path id="Path_276" data-name="Path 276" d="M83.4,110.68a4.47,4.47,0,0,0-3.4,1.49l6.5,6.49a4.58,4.58,0,0,0,.3-6.49A4.32,4.32,0,0,0,83.4,110.68Z" style="fill: #f9e6cd"/>
          <path id="Path_277" data-name="Path 277" d="M67.8,119.86v-9.18h0c0-6.1,1.8-10.69,4.2-13.49h0c.1-.09,1.9-3.39,8.9-4a7.72,7.72,0,0,0-1.5-.2h0a16.16,16.16,0,0,0-13.2,4.39,15.5,15.5,0,0,0,2,3.2c2,2.9-1,5-1,5h0a5.42,5.42,0,0,0-2.9,4.5h0V120a13.19,13.19,0,0,0,13.2,13.19,10.87,10.87,0,0,0,1.8-.1C73.5,132.25,67.8,126.45,67.8,119.86Z" style="fill: #dd9554"/>
          <path id="Path_278" data-name="Path 278" d="M66.8,114.37l-3.3-2.6a1,1,0,0,1-.2-1.49,1,1,0,0,1,1.5-.2h0l3.3,2.59a1,1,0,0,1,.1,1.5,1,1,0,0,1-1.4.2Z" style="fill: #9b948f"/>
          <g id="Group_60" data-name="Group 60">
            <path id="SVGCleanerId_0-2" data-name="SVGCleanerId 0" d="M71.34,110.65a4.6,4.6,0,1,0,4.6,4.59h0A4.59,4.59,0,0,0,71.34,110.65Z" style="fill: #f9ddb4"/>
          </g>
          <path id="Path_279" data-name="Path 279" d="M71.3,110.68a4.47,4.47,0,0,0-3.4,1.49l6.5,6.49a4.58,4.58,0,0,0,.3-6.49A4.32,4.32,0,0,0,71.3,110.68Z" style="fill: #f9e6cd"/>
        </g>
        <g id="grandmother">
          <path id="Path_237" data-name="Path 237" d="M46.1,119.94a5.71,5.71,0,0,1-2.1-4.19v-3.3c0-9.68-7.5-18.07-17.2-18.57A17.93,17.93,0,0,0,7.9,111v4.79a5.37,5.37,0,0,1-2.1,4.19,10.13,10.13,0,1,0,13.3,15.28H32.7A10.19,10.19,0,1,0,46.3,120a.35.35,0,0,0-.2-.1Z" style="fill: #aea8af"/>
          <path id="Path_238" data-name="Path 238" d="M46.1,119.94a5.71,5.71,0,0,1-2.1-4.19v-3.3c0-9.68-7.5-18.07-17.2-18.57h-.9v41.44h6.8a10.19,10.19,0,1,0,13.6-15.18.22.22,0,0,0-.2-.2Z" style="fill: #c9c6ca"/>
          <path id="Path_239" data-name="Path 239" d="M48.1,147.3l-14-6.59a2.3,2.3,0,0,1-1.3-2v-7.59H19.2v7.59a2.07,2.07,0,0,1-1.3,2l-14,6.59A6.7,6.7,0,0,0,0,153.39v7a3.37,3.37,0,0,0,3.4,3.4H48.6a3.37,3.37,0,0,0,3.4-3.4v-7A6.7,6.7,0,0,0,48.1,147.3Z" style="fill: #765a3f"/>
          <path id="Path_240" data-name="Path 240" d="M45.7,149.7l2.4-2.4h0l-9.8-4.59c-1.8,3.8-6.6,6.49-12.3,6.49s-10.5-2.69-12.3-6.49L3.9,147.3h0l2.4,2.4a5.61,5.61,0,0,1,1.7,4v10.08H44.2V153.7A5.42,5.42,0,0,1,45.7,149.7Z" style="fill: #f34500"/>
          <path id="Path_241" data-name="Path 241" d="M19.2,135.12a15.47,15.47,0,0,0,13.6,0V131H19.2Z" style="fill: #644f3b"/>
          <path id="Path_242" data-name="Path 242" d="M26,134.42h0a13.6,13.6,0,0,1-13.6-13.58h0V105.06H39.5v15.78A13.45,13.45,0,0,1,26,134.42Z" style="fill: #765a3f"/>
          <path id="Path_243" data-name="Path 243" d="M26,127.43a6.45,6.45,0,0,1-4.4-1.4,1.1,1.1,0,0,1-.1-1.59,1.12,1.12,0,0,1,1.6-.1h0a5.16,5.16,0,0,0,5.6,0,1.12,1.12,0,0,1,1.6.1,1.1,1.1,0,0,1-.1,1.59h0A6.64,6.64,0,0,1,26,127.43Z" style="fill: #b67f5f"/>
          <g id="Group_51" data-name="Group 51">
            <path id="Path_244" data-name="Path 244" d="M19.8,119.19a1.11,1.11,0,0,1-1.1-1.1h0v-1.2a1.1,1.1,0,1,1,2.2,0V118a1,1,0,0,1-1.1,1.2Z" style="fill: #2f282b"/>
            <path id="Path_245" data-name="Path 245" d="M32.2,119.19a1.11,1.11,0,0,1-1.1-1.1h0v-1.2a1.1,1.1,0,1,1,2.2,0V118a1.13,1.13,0,0,1-1.1,1.2Z" style="fill: #2f282b"/>
          </g>
          <g id="Group_52" data-name="Group 52">
            <path id="Path_246" data-name="Path 246" d="M39.54,115.65V105.07h-21v.2l-.8,1.4,1.1,1.2a24.91,24.91,0,0,0,18.4,7.88A17,17,0,0,0,39.54,115.65Z" style="fill: #5c4734"/>
            <path id="Path_247" data-name="Path 247" d="M15.84,120.85V105.07h-3.4v15.78a13.63,13.63,0,0,0,13.4,13.58,12.75,12.75,0,0,0,1.9-.1A13.59,13.59,0,0,1,15.84,120.85Z" style="fill: #5c4734"/>
          </g>
          <g id="Group_53" data-name="Group 53">
            <path id="Path_248" data-name="Path 248" d="M7.91,157h0v6.79h2.3V159.3A2.33,2.33,0,0,0,7.91,157Z" style="fill: #f36831"/>
            <path id="Path_249" data-name="Path 249" d="M44.11,157h0v6.79h-2.3V159.3A2.26,2.26,0,0,1,44.11,157Z" style="fill: #f36831"/>
          </g>
          <path id="Path_250" data-name="Path 250" d="M26,144.61c-3.9,0-7.3-1.6-8.7-4.2a1.12,1.12,0,0,1,2-1c.9,1.79,3.7,3,6.7,3s5.8-1.2,6.7-3a1.14,1.14,0,0,1,2.1.89.1.1,0,0,1-.1.1C33.4,142.91,30,144.61,26,144.61Z" style="fill: #9c969e"/>
          <path id="Path_251" data-name="Path 251" d="M26.9,93.78a18.14,18.14,0,0,0-11.7,3.59,25.42,25.42,0,0,0,23.7,16.08,23.93,23.93,0,0,0,5.3-.6v-.6C44.1,102.67,36.6,94.28,26.9,93.78Z" style="fill: #dbd9dc"/>
          <g id="Group_54" data-name="Group 54">
            <path id="Path_252" data-name="Path 252" d="M30.31,94.28a21.49,21.49,0,0,0-3.4-.5A18.11,18.11,0,0,0,7.91,111v3A22.88,22.88,0,0,0,30.31,94.28Z" style="fill: #c9c6ca"/>
            <path id="Path_253" data-name="Path 253" d="M26,149.1h1.1v-4.49a1.11,1.11,0,0,0-1.1-1.1h0a1.11,1.11,0,0,0-1.1,1.1h0v4.49Z" style="fill: #c9c6ca"/>
          </g>
          <path id="Path_254" data-name="Path 254" d="M38.3,142.61c-1.8,3.8-6.6,6.49-12.3,6.49s-10.5-2.69-12.3-6.49l-2,.9c1.9,4.59,7.5,7.79,14.3,7.79s12.3-3.2,14.3-7.79Z" style="fill: #f36831"/>
        </g>
        <text transform="translate(53.05 62.37)" style="font-size: 20px;fill: #fff;font-family: HelveticaNeue-Bold, Helvetica Neue;font-weight: 700">Over 66</text>
      </g>
    </g>
  </g>
</svg>
