<svg xmlns="http://www.w3.org/2000/svg" width="195" height="193" viewBox="0 0 195 193">
  <title>phone-wmn-men</title>
  <g id="Layer_2" data-name="Layer 2">
    <g id="Group_359" data-name="Group 359">
      <rect width="195" height="193" style="fill: none"/>
      <g>
        <path id="Path_1617" data-name="Path 1617" d="M74.5,153a7.94,7.94,0,0,1-8-7.86V48a7.94,7.94,0,0,1,7.91-8H120.5a7.94,7.94,0,0,1,8,7.86h0V145a7.94,7.94,0,0,1-7.91,8H74.5Z"/>
        <rect id="Rectangle_471" data-name="Rectangle 471" x="90.61" y="142.17" width="13.79" height="4.6" style="fill: #4c4c4c"/>
        <ellipse id="Ellipse_235" data-name="Ellipse 235" cx="97.45" cy="48.43" rx="2.22" ry="2.2" style="fill: #4c4c4c"/>
        <rect id="Rectangle_472" data-name="Rectangle 472" x="71.13" y="57.25" width="52.94" height="78.59" style="fill: #f7f7f7"/>
        <path id="facebook" d="M116.54,86.77H101.12a2.64,2.64,0,0,0-2.61,2.49v15.43a2.62,2.62,0,0,0,2.51,2.59h7.81v-7h-2.6V97h2.7V94.44a3.85,3.85,0,0,1,3.85-3.83h2.61v3.16H114c-.68,0-1.35-.1-1.35.57v2.5h3.18l-1.35,3.25h-1.93v7h3.86a2.62,2.62,0,0,0,2.6-2.49v-.1h0V89.17a2.46,2.46,0,0,0-2.51-2.4Z" style="fill: #4f4f4f"/>
        <path id="Path_1618" data-name="Path 1618" d="M92.24,82.75H80.29A4.31,4.31,0,0,1,76,78.43V66.64a4.31,4.31,0,0,1,4.34-4.31H92.24a4.3,4.3,0,0,1,4.34,4.31V78.53a4.17,4.17,0,0,1-4.34,4.22Z" style="fill: #bf3600"/>
        <path id="Path_1619" data-name="Path 1619" d="M92,107.19H80a4.31,4.31,0,0,1-4.34-4.32V91.08A4.31,4.31,0,0,1,80,86.77H92a4.3,4.3,0,0,1,4.33,4.31V103A4.34,4.34,0,0,1,92,107.19Z" style="fill: #f39c79"/>
        <path id="Path_1620" data-name="Path 1620" d="M114.81,82.84h-12a4.3,4.3,0,0,1-4.34-4.31V66.64a4.31,4.31,0,0,1,4.34-4.31h12a4.31,4.31,0,0,1,4.34,4.31V78.53A4.3,4.3,0,0,1,114.81,82.84Z" style="fill: #b9b9b9"/>
        <path id="Path_1621" data-name="Path 1621" d="M114.81,131.63h-12a4.31,4.31,0,0,1-4.34-4.32V115.53a4.31,4.31,0,0,1,4.34-4.32h12a4.31,4.31,0,0,1,4.34,4.32v11.88A4.29,4.29,0,0,1,114.81,131.63Z" style="fill: #727272"/>
        <path id="twitter" d="M94.08,68.47a4.48,4.48,0,0,1-1.84.47,3.17,3.17,0,0,0,1.45-1.72,6,6,0,0,1-2,.77,3.08,3.08,0,0,0-2.41-1A3.35,3.35,0,0,0,86,70.19h0a1.72,1.72,0,0,0,.09.67,9.24,9.24,0,0,1-6.65-3.26,3.15,3.15,0,0,0,1,4.22,2.78,2.78,0,0,1-1.44-.38v.09a3.09,3.09,0,0,0,2.6,3.07,2.32,2.32,0,0,1-.77.1,1.19,1.19,0,0,1-.58-.1,3.21,3.21,0,0,0,3,2.2,6.53,6.53,0,0,1-4,1.35,2,2,0,0,1-.77-.1,8.89,8.89,0,0,0,4.91,1.44,9,9,0,0,0,9.16-8.92V70A4,4,0,0,0,94.08,68.47Z" style="fill: #fff"/>
        <path id="rect6158" d="M80.19,112.17A4.19,4.19,0,0,0,76,116.29h0v11.5A4.19,4.19,0,0,0,80.1,132H91.67a4.19,4.19,0,0,0,4.24-4.12h0v-11.5a4.19,4.19,0,0,0-4.15-4.22H80.19Z" style="fill: #f34500"/>
        <path id="path6165" d="M86,118.3A3.76,3.76,0,0,0,82.22,122,3.81,3.81,0,0,0,86,125.78a3.74,3.74,0,1,0,0-7.48Zm0,1.25A2.49,2.49,0,1,1,83.47,122,2.48,2.48,0,0,1,86,119.55Z" style="fill: #fff"/>
        <path id="path6167" d="M89.93,117.25a.87.87,0,1,0,.87.86h0A.86.86,0,0,0,89.93,117.25Z" style="fill: #fff"/>
        <path id="path6184" d="M83.47,129.33a5.05,5.05,0,0,1-3.09-.77,4,4,0,0,1-1.63-2.49,27.21,27.21,0,0,1-.2-4c0-3.06.1-3.93.39-4.69a3.88,3.88,0,0,1,1.83-2.11c1.06-.48,1.83-.58,5.88-.58,3.18,0,3.57.1,4.53.48A3.87,3.87,0,0,1,93.31,118a38.05,38.05,0,0,1,.09,5.75c-.09,2.2-.09,2.59-.58,3.45a5,5,0,0,1-.67.86,2.13,2.13,0,0,1-1,.67,3.93,3.93,0,0,1-1.83.48A39.92,39.92,0,0,1,83.47,129.33Zm6-1.35a2.68,2.68,0,0,0,2.31-1.43,5.41,5.41,0,0,0,.39-1.73c.09-1,.09-4.6,0-5.56a3.15,3.15,0,0,0-.77-2.39,3.25,3.25,0,0,0-2-.87c-.77-.09-5.69-.09-6.36,0a2.68,2.68,0,0,0-2.8,2.3c-.09.48-.19,5.76-.09,6.71a2.7,2.7,0,0,0,1.25,2.5,3,3,0,0,0,2,.47c.68.1,5.6.1,6.08,0Z" style="fill: #fff"/>
      </g>
    </g>
  </g>
</svg>
