<svg xmlns="http://www.w3.org/2000/svg" width="32" height="39" viewBox="0 0 32 39">
  <title>pinterest-chrt</title>
  <g id="Layer_2" data-name="Layer 2">
    <g id="facebook">
      <path id="pinterest" d="M16.51,1C6.39,1,1,7.5,1,14.58,1,17.87,2.83,22,5.77,23.27c.44.2.68.11.78-.3s.48-1.83.66-2.55a.66.66,0,0,0-.15-.64,8.44,8.44,0,0,1-1.75-5.11c0-4.94,3.92-9.74,10.59-9.74,5.77,0,9.81,3.75,9.81,9.13,0,6.07-3.21,10.27-7.37,10.27a3.31,3.31,0,0,1-3.56-3,3.24,3.24,0,0,1,.08-1c.66-2.67,1.95-5.54,1.95-7.47a2.86,2.86,0,0,0-2.56-3.14,2.82,2.82,0,0,0-.41,0C11.5,9.64,9.59,12,9.59,15.1a8,8,0,0,0,.7,3.33L7.54,29.58c-.73,3,.1,7.79.17,8.2a.24.24,0,0,0,.44.11c.23-.3,3-4.31,3.83-7.21.28-1.06,1.46-5.34,1.46-5.34.77,1.4,3,2.57,5.38,2.57C25.89,27.91,31,21.68,31,14,31,6.54,24.65,1,16.51,1" style="fill: #999"/>
      <rect width="32" height="39" style="fill: none"/>
    </g>
  </g>
</svg>
