<svg xmlns="http://www.w3.org/2000/svg" width="21" height="21" viewBox="0 0 21 21">
  <title>snapchat-chrt</title>
  <g id="Layer_2" data-name="Layer 2">
    <g id="facebook">
      <path id="snapchat" d="M20.11,15.19a5.8,5.8,0,0,1-3.93-3.34v0a.84.84,0,0,1-.09-.69c.14-.35.7-.53,1.07-.65l.3-.1a2.34,2.34,0,0,0,.8-.48.76.76,0,0,0,.24-.55.87.87,0,0,0-.64-.76,1.32,1.32,0,0,0-.44-.08,1.06,1.06,0,0,0-.4.08,2.08,2.08,0,0,1-.84.24.63.63,0,0,1-.27-.06c0-.12,0-.25,0-.39V8.33a10.26,10.26,0,0,0-.25-4.09,5.47,5.47,0,0,0-1.23-1.77,5.13,5.13,0,0,0-1.46-1A5.64,5.64,0,0,0,10.69,1H10.3A5.68,5.68,0,0,0,8,1.49a5.27,5.27,0,0,0-1.46,1A5.41,5.41,0,0,0,5.34,4.24a10.08,10.08,0,0,0-.26,4.09h0l0,.45a1,1,0,0,1-.33.06,2.31,2.31,0,0,1-.89-.24.81.81,0,0,0-.34-.08,1.39,1.39,0,0,0-.6.17.86.86,0,0,0-.42.55.76.76,0,0,0,.28.71,2.33,2.33,0,0,0,.75.43,1.63,1.63,0,0,0,.29.1c.37.12.93.31,1.08.65a.88.88,0,0,1-.1.69v0a6.54,6.54,0,0,1-1,1.58,6,6,0,0,1-1.21,1.1,4.33,4.33,0,0,1-1.7.67.48.48,0,0,0-.4.5.73.73,0,0,0,.05.2h0a1.25,1.25,0,0,0,.68.58,7.37,7.37,0,0,0,2,.52,3.17,3.17,0,0,1,.12.44,4.52,4.52,0,0,0,.11.47.52.52,0,0,0,.54.4,2.44,2.44,0,0,0,.46-.07,6,6,0,0,1,1-.12,3.81,3.81,0,0,1,.75.07,3.49,3.49,0,0,1,1.4.73A4.46,4.46,0,0,0,10.38,20h.24a4.51,4.51,0,0,0,2.77-1.09h0a3.36,3.36,0,0,1,1.4-.73,4.54,4.54,0,0,1,.75-.07,5.18,5.18,0,0,1,1,.12,2.49,2.49,0,0,0,.46.05h0a.5.5,0,0,0,.51-.39c.05-.16.08-.31.12-.47a1.62,1.62,0,0,1,.12-.43,7.81,7.81,0,0,0,1.95-.52,1.25,1.25,0,0,0,.68-.58.8.8,0,0,0,.05-.21A.48.48,0,0,0,20.11,15.19Z" style="fill: #999"/>
      <rect width="21" height="21" style="fill: none"/>
    </g>
  </g>
</svg>
