<svg xmlns="http://www.w3.org/2000/svg" width="52" height="52" viewBox="0 0 52 52"><g data-name="Layer 2"><g data-name="Layer 3"><path d="M0 0h52v52H0z" fill="none"/><circle cx="26" cy="26" r="25" fill="#f34500"/><path d="M40.2 17.2a10.1 10.1 0 0 1-3.4.9 5.9 5.9 0 0 0 2.6-3.2 9.8 9.8 0 0 1-3.7 1.4 6 6 0 0 0-4.3-1.8 5.8 5.8 0 0 0-5.8 5.8 5.068 5.068 0 0 0 .2 1.3 16.5 16.5 0 0 1-12-6 5.5 5.5 0 0 0-.8 2.9 5.9 5.9 0 0 0 2.6 4.8 5.9 5.9 0 0 1-2.6-.7 5.9 5.9 0 0 0 4.6 5.7l-1.5.2H15a5.9 5.9 0 0 0 5.4 4 11.8 11.8 0 0 1-7.2 2.5h-1.4a17.1 17.1 0 0 0 8.9 2.6 16.4 16.4 0 0 0 16.6-16.2V20.2a11.816 11.816 0 0 0 2.9-3z" fill="#fff"/></g></g></svg>