<svg xmlns="http://www.w3.org/2000/svg" width="652" height="221" viewBox="0 0 652 221">
  <title>social-hdr</title>
  <g id="Layer_2" data-name="Layer 2">
    <g id="Layer_1-2" data-name="Layer 1">
      <path id="Path_935" data-name="Path 935" d="M234,125.94,78.17,75l1.2-3.4,155.83,51Z" style="fill: #f34500"/>
      <polygon id="Rectangle_299" data-name="Rectangle 299" points="406.13 86.06 459.22 43.53 461.46 46.34 408.38 88.87 406.13 86.06" style="fill: #f34500"/>
      <rect id="Rectangle_296" data-name="Rectangle 296" x="394.23" y="124.64" width="184.29" height="2.9" style="fill: #f34500"/>
      <polygon id="Rectangle_297" data-name="Rectangle 297" points="538.87 107.65 540.92 105.6 632.26 197.06 630.22 199.11 538.87 107.65" style="fill: #f34500"/>
      <ellipse id="Ellipse_83" data-name="Ellipse 83" cx="324.25" cy="115.75" rx="90.55" ry="90.66" style="fill: #f37949"/>
      <path id="Path_899" data-name="Path 899" d="M359.79,171.82V160.33L287,119.55a10.77,10.77,0,0,0-4.2-2.3h0a6.65,6.65,0,0,0-8.38,4.39,7.61,7.61,0,0,0-.3,2.1v43.08a11.37,11.37,0,0,0,1.1,4,4.44,4.44,0,0,0,.49.9l.6.9,3.3,4.4,3.79,5.1h0l1.1,1.4a21.47,21.47,0,0,1,4.29,12.89V210.9a1.32,1.32,0,0,0,1.3,1.3h50.22a1.32,1.32,0,0,0,1.29-1.3V195.51C341.82,195.61,359.79,186.62,359.79,171.82Z" style="fill: #fce0a2"/>
      <path id="Path_900" data-name="Path 900" d="M359.79,171.82V160.33l-14.17-8v19.39c0,14.8-18,23.79-18,23.79V210.9a1.32,1.32,0,0,1-1.3,1.3h14.18a1.32,1.32,0,0,0,1.29-1.3V195.51C341.82,195.61,359.79,186.62,359.79,171.82Z" style="fill: #f2ca91"/>
      <path id="Path_901" data-name="Path 901" d="M282.52,203.61V215.2a2.46,2.46,0,0,0,2.4,2.5h60.7a2.45,2.45,0,0,0,2.49-2.4h0V203.71a2.45,2.45,0,0,0-2.39-2.5H285a2.34,2.34,0,0,0-2.5,2.4Z" style="fill: #404040"/>
      <path id="Path_902" data-name="Path 902" d="M348.11,203.61a2.45,2.45,0,0,0-2.39-2.5H334V217.6h11.68a2.45,2.45,0,0,0,2.49-2.4h0V203.61Z" style="fill: #333"/>
      <path id="Path_903" data-name="Path 903" d="M357.8,171.82l-68.59-.1a3.58,3.58,0,0,1-3.59-3.6L285.82,57a3.58,3.58,0,0,1,3.59-3.59l68.59.1a3.58,3.58,0,0,1,3.59,3.59l-.2,111.25A3.63,3.63,0,0,1,357.8,171.82Z" style="fill: #fff"/>
      <path id="Path_904" data-name="Path 904" d="M306.58,93.16H294.2a2.47,2.47,0,0,1-2.49-2.5V78.36a2.47,2.47,0,0,1,2.49-2.49h12.38a2.47,2.47,0,0,1,2.5,2.49v12.4a2.46,2.46,0,0,1-2.5,2.4Z" style="fill: #a8a8a8"/>
      <path id="Path_905" data-name="Path 905" d="M306.58,120.25H294.2a2.47,2.47,0,0,1-2.49-2.5v-12.4a2.47,2.47,0,0,1,2.49-2.5h12.38a2.48,2.48,0,0,1,2.5,2.5v12.4a2.48,2.48,0,0,1-2.5,2.5Z" style="fill: #a8a8a8"/>
      <path id="Path_906" data-name="Path 906" d="M306.58,149.33H294.2a2.47,2.47,0,0,1-2.49-2.5V134.44a2.47,2.47,0,0,1,2.49-2.5h12.38a2.48,2.48,0,0,1,2.5,2.5v12.39a2.61,2.61,0,0,1-2.5,2.5Z" style="fill: #a8a8a8"/>
      <path id="Path_907" data-name="Path 907" d="M331.14,93.16H318.76a2.47,2.47,0,0,1-2.49-2.5V78.36a2.47,2.47,0,0,1,2.49-2.49h12.38a2.47,2.47,0,0,1,2.5,2.49v12.4a2.46,2.46,0,0,1-2.5,2.4Z" style="fill: #a8a8a8"/>
      <path id="Path_908" data-name="Path 908" d="M331.14,120.25H318.76a2.47,2.47,0,0,1-2.49-2.5v-12.4a2.47,2.47,0,0,1,2.49-2.5h12.38a2.48,2.48,0,0,1,2.5,2.5v12.4a2.48,2.48,0,0,1-2.5,2.5Z" style="fill: #a8a8a8"/>
      <path id="Path_909" data-name="Path 909" d="M331.14,149.33H318.76a2.47,2.47,0,0,1-2.49-2.5V134.44a2.47,2.47,0,0,1,2.49-2.5h12.38a2.48,2.48,0,0,1,2.5,2.5v12.39a2.61,2.61,0,0,1-2.5,2.5Z" style="fill: #a8a8a8"/>
      <path id="Path_910" data-name="Path 910" d="M341.22,75.77a2.47,2.47,0,0,0-2.49,2.49v12.4a2.47,2.47,0,0,0,2.49,2.5h6V75.77Z" style="fill: #a8a8a8"/>
      <path id="Path_911" data-name="Path 911" d="M341.22,102.85a2.47,2.47,0,0,0-2.49,2.5v12.4a2.47,2.47,0,0,0,2.49,2.5h6v-17.4Z" style="fill: #a8a8a8"/>
      <path id="Path_912" data-name="Path 912" d="M341.22,131.84a2.47,2.47,0,0,0-2.49,2.5v12.39a2.47,2.47,0,0,0,2.49,2.5h5.89V131.84Z" style="fill: #a8a8a8"/>
      <path id="Path_913" data-name="Path 913" d="M358,53.58H343.82a3.57,3.57,0,0,1,3.59,3.59v18.7h6.29a2.47,2.47,0,0,1,2.5,2.49v12.4a2.48,2.48,0,0,1-2.5,2.5h-6.29v9.59h6.29a2.48,2.48,0,0,1,2.5,2.5v12.4a2.48,2.48,0,0,1-2.5,2.5h-6.39v11.59h6.39a2.48,2.48,0,0,1,2.5,2.5v12.39a2.48,2.48,0,0,1-2.5,2.5h-6.39v19a3.56,3.56,0,0,1-3.19,3.5H357.9a3.58,3.58,0,0,0,3.59-3.6V57A3.45,3.45,0,0,0,358,53.58Z" style="fill: #dcdcdc"/>
      <path id="Path_914" data-name="Path 914" d="M356.2,90.66V78.36a2.47,2.47,0,0,0-2.5-2.49h-6.29V93.26h6.29A2.56,2.56,0,0,0,356.2,90.66Z" style="fill: #7e7e7e"/>
      <path id="Path_915" data-name="Path 915" d="M356.2,117.75v-12.4a2.48,2.48,0,0,0-2.5-2.5h-6.29v17.4h6.39A2.46,2.46,0,0,0,356.2,117.75Z" style="fill: #7e7e7e"/>
      <path id="Path_916" data-name="Path 916" d="M356.2,146.73V134.34a2.48,2.48,0,0,0-2.5-2.5h-6.39v17.39h6.39A2.42,2.42,0,0,0,356.2,146.73Z" style="fill: #7e7e7e"/>
      <path id="Path_917" data-name="Path 917" d="M285.72,160.23v7.89a3.58,3.58,0,0,0,3.59,3.6l68.59.1a3.58,3.58,0,0,0,3.59-3.6v-7.89Z" style="fill: #404040"/>
      <path id="Path_918" data-name="Path 918" d="M361.39,160.33H347.21v8a3.56,3.56,0,0,1-3.19,3.5H358.1A3.26,3.26,0,0,0,360,171a3.72,3.72,0,0,0,1.3-2.8Z" style="fill: #333"/>
      <path id="Path_919" data-name="Path 919" d="M361.49,67.07v-10a3.58,3.58,0,0,0-3.59-3.59l-68.59-.1A3.58,3.58,0,0,0,285.72,57V67Z" style="fill: #404040"/>
      <path id="Path_920" data-name="Path 920" d="M358,53.58H343.82a3.57,3.57,0,0,1,3.59,3.59v9.9h14.18v-10a3.55,3.55,0,0,0-2-3.19A4.09,4.09,0,0,0,358,53.58Z" style="fill: #256984"/>
      <path id="Path_921" data-name="Path 921" d="M283.52,182.22l-7.09-9.6a11.49,11.49,0,0,1-2.19-6.7V123.74a6.69,6.69,0,0,1,6.69-6.69,6.43,6.43,0,0,1,2,.3h0a11.52,11.52,0,0,1,8,9.69l2.89,25.09s14.78,8.7,14.78,23.19Z" style="fill: #fce0a2"/>
      <g id="Group_187" data-name="Group 187">
        <path id="Path_922" data-name="Path 922" d="M351.68,165.35l-.8-1.1a7.23,7.23,0,0,1,1.79-10.09l8.19-5.7a7.21,7.21,0,0,1,10.08,1.8l.8,1.1A7.23,7.23,0,0,1,370,161.45l-8.19,5.7a7.21,7.21,0,0,1-10.08-1.8Z" style="fill: #fce0a2"/>
        <path id="Path_923" data-name="Path 923" d="M349.88,147.36l-.8-1.1a7.22,7.22,0,0,1,1.8-10.09l8.18-5.7a7.22,7.22,0,0,1,10.09,1.8l.8,1.1a7.24,7.24,0,0,1-1.8,10.09l-8.19,5.7A7.4,7.4,0,0,1,349.88,147.36Z" style="fill: #fce0a2"/>
        <path id="Path_924" data-name="Path 924" d="M348.58,128.87l-.8-1.1a7.25,7.25,0,0,1,1.8-10.1l8.19-5.69a7.21,7.21,0,0,1,10.08,1.8l.8,1.1a7.23,7.23,0,0,1-1.8,10.09l-8.19,5.7A7.21,7.21,0,0,1,348.58,128.87Z" style="fill: #fce0a2"/>
      </g>
      <path id="Path_925" data-name="Path 925" d="M327.25,62.67h-7.19a2.46,2.46,0,0,1-2.5-2.4h0a2.54,2.54,0,0,1,2.5-2.5h7.19a2.45,2.45,0,0,1,2.49,2.4h0A2.47,2.47,0,0,1,327.25,62.67Z" style="fill: #fff"/>
      <path id="Path_926" data-name="Path 926" d="M563,127.54h24.76l-1.4,1.4a1.34,1.34,0,0,0,0,2h0a1,1,0,0,0,1,.4,1.28,1.28,0,0,0,1-.4l4-3.9h0l.1-.1h0a1.14,1.14,0,0,0,.3-.8v-.2a1.14,1.14,0,0,0-.3-.8h0l-.1-.1h0l-4-3.89a1.48,1.48,0,1,0-2.1,2.09h0l1.4,1.4H562.85l17.47-17.49v2a1.45,1.45,0,0,0,1.4,1.5h0a1.45,1.45,0,0,0,1.5-1.4h0v-5.6h0v-.1a1.14,1.14,0,0,0-.3-.8.1.1,0,0,0-.1-.1l-.1-.1a1.14,1.14,0,0,0-.8-.3h-5.49a1.37,1.37,0,0,0-1.4,1.4v.1a1.45,1.45,0,0,0,1.5,1.4h2l-17.47,17.49V97.86l1.4,1.4a1,1,0,0,0,1,.39,1.31,1.31,0,0,0,1-.39,1.34,1.34,0,0,0,0-2h0l-3.9-4h-.1a.1.1,0,0,1-.1-.1h0a1.41,1.41,0,0,0-.69-.2h-.3a1.85,1.85,0,0,0-.7.2h0a.1.1,0,0,0-.1.1h-.1l-3.9,4a1.56,1.56,0,0,0,0,2.1,1.54,1.54,0,0,0,2,0L558,98v24.78l-17.47-17.49h2a1.45,1.45,0,1,0,.1-2.9H537a2.25,2.25,0,0,0-.79.2h-.1a.1.1,0,0,0-.1.1l-.1.1a1.14,1.14,0,0,0-.3.8v.1h0v5.6a1.45,1.45,0,0,0,1.49,1.4h0a1.37,1.37,0,0,0,1.4-1.4v-2.1L556,124.64" style="fill: #f34500"/>
      <path id="Path_928" data-name="Path 928" d="M555.86,127.54,538.39,145v-2a1.45,1.45,0,0,0-1.4-1.5h0a1.45,1.45,0,0,0-1.49,1.4h0v5.59h0v.1a1.14,1.14,0,0,0,.3.8.1.1,0,0,0,.1.1l.1.1h6.38a1.45,1.45,0,0,0-.1-2.9h-2l17.47-17.49V154l-1.4-1.4a1.45,1.45,0,0,0-2.1,0,1.47,1.47,0,0,0,0,2.1h0l3.9,4h.1a.1.1,0,0,1,.1.1h0a1.45,1.45,0,0,0,.7.2h.3a1.76,1.76,0,0,0,.69-.2h0a.1.1,0,0,0,.1-.1h.1l3.9-4a1.48,1.48,0,0,0-2.1-2.1h0l-1.4,1.4V129.24" style="fill: #f34500"/>
      <ellipse id="Ellipse_84" data-name="Ellipse 84" cx="559.36" cy="126.14" rx="15.37" ry="15.39" style="fill: #f34500"/>
      <ellipse id="Ellipse_85" data-name="Ellipse 85" cx="559.36" cy="83.86" rx="6.19" ry="6.2" style="fill: #333"/>
      <g id="Group_188" data-name="Group 188">
        <ellipse id="Ellipse_86" data-name="Ellipse 86" cx="559.39" cy="168.36" rx="6.19" ry="6.2" style="fill: #333"/>
        <ellipse id="Ellipse_87" data-name="Ellipse 87" cx="601.62" cy="126.08" rx="6.19" ry="6.2" style="fill: #333"/>
      </g>
      <ellipse id="Ellipse_88" data-name="Ellipse 88" cx="621.85" cy="190.81" rx="30.15" ry="30.19" style="fill: #f36831"/>
      <ellipse id="Ellipse_89" data-name="Ellipse 89" cx="44.72" cy="49.38" rx="44.72" ry="44.78" style="fill: #bf3600"/>
      <g id="Group_189" data-name="Group 189">
        <ellipse id="Ellipse_90" data-name="Ellipse 90" cx="529.58" cy="96.19" rx="6.19" ry="6.2" style="fill: #333"/>
        <ellipse id="Ellipse_91" data-name="Ellipse 91" cx="529.58" cy="155.96" rx="6.19" ry="6.2" style="fill: #333"/>
      </g>
      <ellipse id="Ellipse_92" data-name="Ellipse 92" cx="589.31" cy="96.16" rx="6.19" ry="6.2" style="fill: #b9b9b9"/>
      <path id="Path_929" data-name="Path 929" d="M559.36,141.44a15.23,15.23,0,0,0,10-3.7,8.6,8.6,0,0,0-8.69-8.2h-2.59a8.74,8.74,0,0,0-8.69,8.2A15.64,15.64,0,0,0,559.36,141.44Z" style="fill: #dcdcdc"/>
      <path id="Path_930" data-name="Path 930" d="M565.65,131.14a15.26,15.26,0,0,1-10.39,9.8,3.55,3.55,0,0,0,1,.2h0a5.85,5.85,0,0,0,1.3.2H562a.6.6,0,0,0,.4-.1.76.76,0,0,0,.4-.1c.2-.1.2,0,.4-.1s.2,0,.4-.1a.37.37,0,0,0,.3-.1l.4-.1a.37.37,0,0,0,.3-.1c.1,0,.3-.1.4-.1h.1a14.94,14.94,0,0,0,2.19-1.1h0c.2-.1.3-.2.5-.3h.1c.2-.1.3-.2.5-.3h.1a1.76,1.76,0,0,0,.5-.4h0c.2-.1.3-.3.5-.4A9,9,0,0,0,565.65,131.14Z" style="fill: #b9b9b9"/>
      <ellipse id="Ellipse_93" data-name="Ellipse 93" cx="559.36" cy="123.84" rx="5.79" ry="5.8" style="fill: #dcdcdc"/>
      <ellipse id="Ellipse_94" data-name="Ellipse 94" cx="480.59" cy="30.09" rx="30.05" ry="30.09" style="fill: #f34500"/>
      <path id="Path_931" data-name="Path 931" d="M480.59,60.07A29.46,29.46,0,0,0,500,52.88a17,17,0,0,0-16.88-16.1H478a16.91,16.91,0,0,0-16.87,16.1A29.53,29.53,0,0,0,480.59,60.07Z" style="fill: #dcdcdc"/>
      <path id="Path_932" data-name="Path 932" d="M492.57,39.78A30.25,30.25,0,0,1,472.4,59a13.32,13.32,0,0,0,1.9.5h.1a23.36,23.36,0,0,0,2.6.4h5.69a2.71,2.71,0,0,0,.89-.1,1.27,1.27,0,0,0,.6-.1,2.2,2.2,0,0,0,.8-.1,1.48,1.48,0,0,1,.7-.1c.3,0,.5-.1.8-.1l.7-.1a1.85,1.85,0,0,0,.7-.2,1.85,1.85,0,0,0,.7-.2c.2-.1.4-.1.59-.2s.5-.1.8-.2.3-.1.5-.2.5-.2.8-.3c.1,0,.2,0,.2-.1a34.68,34.68,0,0,0,4.39-2.1.1.1,0,0,0,.1-.1c.3-.2.7-.39,1-.59a.1.1,0,0,0,.1-.1l.9-.6a.1.1,0,0,0,.1-.1,5.5,5.5,0,0,0,.9-.7l.1-.1c.3-.3.6-.5.9-.8A16.9,16.9,0,0,0,492.57,39.78Z" style="fill: #b9b9b9"/>
      <ellipse id="Ellipse_95" data-name="Ellipse 95" cx="480.59" cy="25.59" rx="11.28" ry="11.29" style="fill: #dcdcdc"/>
      <ellipse id="Ellipse_96" data-name="Ellipse 96" cx="177.1" cy="190.31" rx="20.86" ry="20.89" style="fill: #f34500"/>
      <path id="Path_933" data-name="Path 933" d="M177.1,211.2a20.62,20.62,0,0,0,13.48-5A11.76,11.76,0,0,0,178.8,195h-3.5a11.83,11.83,0,0,0-11.78,11.2A21.48,21.48,0,0,0,177.1,211.2Z" style="fill: #dcdcdc"/>
      <path id="Path_934" data-name="Path 934" d="M185.49,197.11a20.82,20.82,0,0,1-14.08,13.29l1.3.3h.1l1.8.3h5a1.27,1.27,0,0,0,.6-.1c.2,0,.3,0,.4-.1a.73.73,0,0,0,.49-.1c.1-.1.3,0,.5-.1a.9.9,0,0,1,.5-.1c.2,0,.3-.1.5-.1l.4-.1a.76.76,0,0,0,.5-.2c.1,0,.2-.1.4-.1s.4-.1.6-.19h.2a13.94,13.94,0,0,0,3-1.5h.1l.7-.4h.1a4.35,4.35,0,0,1,.7-.4l.1-.1c.2-.2.4-.3.6-.5h0l.7-.5A12.15,12.15,0,0,0,185.49,197.11Z" style="fill: #b9b9b9"/>
      <ellipse id="Ellipse_97" data-name="Ellipse 97" cx="177.1" cy="187.22" rx="7.89" ry="7.9" style="fill: #dcdcdc"/>
      <rect id="Rectangle_298" data-name="Rectangle 298" x="193.85" y="170.03" width="54.12" height="3.6" transform="translate(-50.61 103.96) rotate(-23.84)" style="fill: #f34500"/>
      <g id="Group_190" data-name="Group 190">
        <g id="Layer_2-2" data-name="Layer 2">
          <g id="Layer_1-2-2" data-name="Layer 1-2">
            <rect id="Rectangle_300" data-name="Rectangle 300" x="337.96" y="29.18" width="67.39" height="58.07" style="fill: none"/>
            <path id="facebook" d="M382,85.85h10.38A6.91,6.91,0,0,0,399.26,79h0V37.47a6.91,6.91,0,0,0-6.89-6.89H350.94a7,7,0,0,0-7,6.89V79a6.91,6.91,0,0,0,6.89,6.89H382Z" style="fill: #fff"/>
          </g>
        </g>
        <g id="Layer_2-3" data-name="Layer 2">
          <g id="Layer_1-2-3" data-name="Layer 1-2">
            <rect id="Rectangle_301" data-name="Rectangle 301" x="337.74" y="29" width="67.79" height="58.37" style="fill: none"/>
            <path id="facebook-2" data-name="facebook" d="M392.45,30.3H350.72a7,7,0,0,0-7,7V79.08a7,7,0,0,0,7,7h21V67h-7V58.29h7v-7a10.49,10.49,0,0,1,10.48-10.5h7v8.7h-3.49c-1.9,0-3.5-.2-3.5,1.7v7h8.69L387.36,67h-5.2V86.07h10.39a7,7,0,0,0,7-7h0V37.3A7.16,7.16,0,0,0,392.45,30.3Z" style="fill: #f34500"/>
          </g>
        </g>
      </g>
      <g id="Layer_1-2-4" data-name="Layer 1-2">
        <path id="twitter" d="M70,35a26.17,26.17,0,0,1-6.09,1.7,10.13,10.13,0,0,0,4.59-5.79,20.59,20.59,0,0,1-6.68,2.49A10.75,10.75,0,0,0,54,30.09,10.59,10.59,0,0,0,43.43,40.68h0a9.08,9.08,0,0,0,.3,2.3A30.14,30.14,0,0,1,21.86,32,10.25,10.25,0,0,0,25,46a11.38,11.38,0,0,1-4.79-1.3v.1a10.6,10.6,0,0,0,8.48,10.4,13.22,13.22,0,0,1-2.79.39,6.45,6.45,0,0,1-2-.3,10.62,10.62,0,0,0,9.88,7.3,21.62,21.62,0,0,1-13.17,4.5,20.08,20.08,0,0,1-2.5-.1,29.38,29.38,0,0,0,16.27,4.7c19.57,0,30.25-16,30.25-30v-1.4A17,17,0,0,0,70,35Z" style="fill: #fff"/>
      </g>
      <g id="instagram-on">
        <path id="Path_936" data-name="Path 936" d="M627.68,175.38H615.8a10,10,0,0,0-10,10v11.9a10,10,0,0,0,10,10h11.88a10,10,0,0,0,10-10v-11.9a10,10,0,0,0-10-10Zm7,21.89a7,7,0,0,1-7,7H615.8a7,7,0,0,1-7-7v-11.9a7,7,0,0,1,7-7h11.88a7,7,0,0,1,7,7Z" style="fill: #fff"/>
        <path id="Path_937" data-name="Path 937" d="M621.79,183.38a8,8,0,1,0,8,8,8,8,0,0,0-8-8Zm0,12.89a5,5,0,1,1,5-5h0a5.08,5.08,0,0,1-5,5Z" style="fill: #fff"/>
        <circle id="Ellipse_98" data-name="Ellipse 98" cx="630.27" cy="182.78" r="1.1" style="fill: #fff"/>
      </g>
      <rect width="652" height="221" style="fill: none"/>
    </g>
  </g>
</svg>
