<svg xmlns="http://www.w3.org/2000/svg" width="52" height="52">
  <path fill="none" d="M0 0h52v52H0z"/>
  <circle cx="26" cy="26" r="25" fill="#f34500"/>
  <path d="M40.2 17.2a10.1 10.1 0 0 1-3.4.9 5.9 5.9 0 0 0 2.6-3.2 9.8 9.8 0 0 1-3.7 1.4 6 6 0 0 0-4.3-1.8 5.8 5.8 0 0 0-5.8 5.8 5.1 5.1 0 0 0 .2 1.3 16.5 16.5 0 0 1-12-6 5.5 5.5 0 0 0-.8 2.9 5.9 5.9 0 0 0 2.6 4.8 5.9 5.9 0 0 1-2.6-.7 5.9 5.9 0 0 0 4.6 5.7l-1.5.2H15a5.9 5.9 0 0 0 5.4 4 11.8 11.8 0 0 1-7.2 2.5h-1.4a17.1 17.1 0 0 0 8.9 2.6A16.4 16.4 0 0 0 37.3 21v-.8a11.8 11.8 0 0 0 2.9-3z" fill="#fff"/>
</svg>
