<svg xmlns="http://www.w3.org/2000/svg" width="972" height="329" viewBox="0 0 972 329">
  <title>social-hdr</title>
  <g id="Layer_2" data-name="Layer 2">
    <g id="Layer_1-2" data-name="Layer 1">
      <path id="Path_935" data-name="Path 935" d="M348.85,187.49,116.54,111.65l1.78-5.06,232.32,75.92Z" style="fill: #f34500"/>
      <polygon id="Rectangle_299" data-name="Rectangle 299" points="605.46 128.12 684.6 64.8 687.94 68.99 608.81 132.3 605.46 128.12" style="fill: #f34500"/>
      <rect id="Rectangle_296" data-name="Rectangle 296" x="587.72" y="185.55" width="274.74" height="4.32" style="fill: #f34500"/>
      <polygon id="Rectangle_297" data-name="Rectangle 297" points="803.35 160.26 806.4 157.21 942.57 293.36 939.53 296.41 803.35 160.26" style="fill: #f34500"/>
      <ellipse id="Ellipse_83" data-name="Ellipse 83" cx="483.39" cy="172.32" rx="134.99" ry="134.96" style="fill: #f37949"/>
      <path id="Path_899" data-name="Path 899" d="M536.37,255.79V238.68L427.86,178a16.12,16.12,0,0,0-6.26-3.42h0A9.91,9.91,0,0,0,409.14,181a.36.36,0,0,1,0,.11,11.43,11.43,0,0,0-.44,3.13v64.13a16.76,16.76,0,0,0,1.64,6,6.46,6.46,0,0,0,.73,1.34l.89,1.34,4.92,6.55,5.65,7.59h0l1.64,2.08a31.94,31.94,0,0,1,6.4,19.19V314a2,2,0,0,0,1.94,1.94h74.86a2,2,0,0,0,1.93-1.94V291.05C509.58,291.2,536.37,277.82,536.37,255.79Z" style="fill: #fce0a2"/>
      <path id="Path_900" data-name="Path 900" d="M536.37,255.79V238.68l-21.12-11.91v28.87c0,22-26.83,35.41-26.83,35.41V314a2,2,0,0,1-1.94,1.94h21.14a2,2,0,0,0,1.92-1.94V291.05C509.58,291.2,536.37,277.82,536.37,255.79Z" style="fill: #f2ca91"/>
      <path id="Path_901" data-name="Path 901" d="M421.18,303.11v17.26a3.66,3.66,0,0,0,3.58,3.72h90.49a3.66,3.66,0,0,0,3.71-3.58h0V303.26a3.65,3.65,0,0,0-3.56-3.72H424.88a3.49,3.49,0,0,0-3.72,3.23c0,.12,0,.23,0,.34Z" style="fill: #404040"/>
      <path id="Path_902" data-name="Path 902" d="M519,303.11a3.65,3.65,0,0,0-3.56-3.72H497.93v24.55h17.41a3.65,3.65,0,0,0,3.71-3.57h0V303.11Z" style="fill: #333"/>
      <path id="Path_903" data-name="Path 903" d="M533.41,255.79l-102.26-.15a5.34,5.34,0,0,1-5.35-5.32v0l.3-165.42a5.33,5.33,0,0,1,5.32-5.35h0l102.26.15A5.33,5.33,0,0,1,539.06,85v0l-.3,165.62A5.42,5.42,0,0,1,533.41,255.79Z" style="fill: #fff"/>
      <path id="Path_904" data-name="Path 904" d="M457.05,138.69H438.59a3.69,3.69,0,0,1-3.71-3.65V116.65a3.67,3.67,0,0,1,3.65-3.7h18.52a3.68,3.68,0,0,1,3.73,3.63v18.53a3.68,3.68,0,0,1-3.73,3.58Z" style="fill: #a8a8a8"/>
      <path id="Path_905" data-name="Path 905" d="M457.05,179H438.59a3.67,3.67,0,0,1-3.71-3.64V156.83a3.68,3.68,0,0,1,3.64-3.72h18.53a3.7,3.7,0,0,1,3.73,3.66v18.52a3.7,3.7,0,0,1-3.67,3.72Z" style="fill: #a8a8a8"/>
      <path id="Path_906" data-name="Path 906" d="M457.05,222.31H438.59a3.69,3.69,0,0,1-3.71-3.65V200.14a3.68,3.68,0,0,1,3.64-3.72h18.53a3.7,3.7,0,0,1,3.73,3.66v18.5a3.91,3.91,0,0,1-3.73,3.73Z" style="fill: #a8a8a8"/>
      <path id="Path_907" data-name="Path 907" d="M493.66,138.69H475.21a3.69,3.69,0,0,1-3.72-3.65V116.65a3.68,3.68,0,0,1,3.66-3.7h18.51a3.68,3.68,0,0,1,3.73,3.63v18.53A3.67,3.67,0,0,1,493.66,138.69Z" style="fill: #a8a8a8"/>
      <path id="Path_908" data-name="Path 908" d="M493.66,179H475.21a3.68,3.68,0,0,1-3.72-3.64V156.83a3.69,3.69,0,0,1,3.64-3.72h18.53a3.7,3.7,0,0,1,3.73,3.66v18.52a3.69,3.69,0,0,1-3.67,3.72Z" style="fill: #a8a8a8"/>
      <path id="Path_909" data-name="Path 909" d="M493.66,222.31H475.21a3.69,3.69,0,0,1-3.72-3.65V200.14a3.68,3.68,0,0,1,3.64-3.72h18.53a3.7,3.7,0,0,1,3.73,3.66v18.5A3.9,3.9,0,0,1,493.66,222.31Z" style="fill: #a8a8a8"/>
      <path id="Path_910" data-name="Path 910" d="M508.69,112.8a3.67,3.67,0,0,0-3.71,3.64V135a3.68,3.68,0,0,0,3.64,3.73h9V112.8Z" style="fill: #a8a8a8"/>
      <path id="Path_911" data-name="Path 911" d="M508.69,153.11a3.68,3.68,0,0,0-3.71,3.65v18.53a3.67,3.67,0,0,0,3.64,3.72h9v-25.9Z" style="fill: #a8a8a8"/>
      <path id="Path_912" data-name="Path 912" d="M508.69,196.27a3.67,3.67,0,0,0-3.71,3.65v18.52a3.68,3.68,0,0,0,3.64,3.72h8.85V196.27Z" style="fill: #a8a8a8"/>
      <path id="Path_913" data-name="Path 913" d="M533.71,79.76H512.57a5.32,5.32,0,0,1,5.35,5.29V113h9.38a3.67,3.67,0,0,1,3.72,3.63v18.53a3.7,3.7,0,0,1-3.67,3.73h-9.43v14.27h9.38a3.69,3.69,0,0,1,3.72,3.66v18.52a3.68,3.68,0,0,1-3.67,3.72h-9.58v17.26h9.53a3.68,3.68,0,0,1,3.72,3.66v18.51a3.7,3.7,0,0,1-3.67,3.72h-9.58v28.28a5.31,5.31,0,0,1-4.76,5.21h20.55a5.33,5.33,0,0,0,5.35-5.31V84.86a5.15,5.15,0,0,0-5.19-5.1Z" style="fill: #dcdcdc"/>
      <path id="Path_914" data-name="Path 914" d="M531,135V116.65a3.67,3.67,0,0,0-3.65-3.7h-9.45v25.89h9.38A3.81,3.81,0,0,0,531,135Z" style="fill: #7e7e7e"/>
      <path id="Path_915" data-name="Path 915" d="M531,175.29V156.83a3.69,3.69,0,0,0-3.67-3.72h-9.43V179h9.52A3.65,3.65,0,0,0,531,175.29Z" style="fill: #7e7e7e"/>
      <path id="Path_916" data-name="Path 916" d="M531,218.44V200a3.69,3.69,0,0,0-3.67-3.72h-9.58v25.89h9.53a3.6,3.6,0,0,0,3.72-3.48Z" style="fill: #7e7e7e"/>
      <path id="Path_917" data-name="Path 917" d="M426,238.53v11.75a5.34,5.34,0,0,0,5.31,5.36h0l102.26.15a5.34,5.34,0,0,0,5.35-5.32V238.68Z" style="fill: #404040"/>
      <path id="Path_918" data-name="Path 918" d="M538.76,238.68H517.62v11.91a5.31,5.31,0,0,1-4.76,5.21h21a4.91,4.91,0,0,0,2.84-1.23,5.59,5.59,0,0,0,1.94-4.17Z" style="fill: #333"/>
      <path id="Path_919" data-name="Path 919" d="M538.91,99.85V85a5.33,5.33,0,0,0-5.32-5.34h0L431.3,79.47A5.33,5.33,0,0,0,426,84.78v15Z" style="fill: #404040"/>
      <path id="Path_920" data-name="Path 920" d="M533.71,79.76H512.57a5.32,5.32,0,0,1,5.35,5.29v14.8h21.14V85a5.28,5.28,0,0,0-3-4.75A6.24,6.24,0,0,0,533.71,79.76Z" style="fill: #256984"/>
      <path id="Path_921" data-name="Path 921" d="M422.67,271.27,412.1,257a17,17,0,0,1-3.26-10V184.21a10,10,0,0,1,10-10h0a9.41,9.41,0,0,1,3,.45h0a17.16,17.16,0,0,1,11.93,14.42L438,226.47s22,13,22,34.53Z" style="fill: #fce0a2"/>
      <g id="Group_187" data-name="Group 187">
        <path id="Path_922" data-name="Path 922" d="M524.28,246.15l-1.19-1.63a10.76,10.76,0,0,1,2.63-15l0,0L538,221a10.75,10.75,0,0,1,15,2.61l.06.07,1.19,1.64a10.75,10.75,0,0,1-2.57,15l0,0-12.21,8.48a10.76,10.76,0,0,1-15-2.6l0-.08Z" style="fill: #fce0a2"/>
        <path id="Path_923" data-name="Path 923" d="M521.6,219.37l-1.19-1.63a10.74,10.74,0,0,1,2.61-15l.07,0,12.2-8.48a10.78,10.78,0,0,1,15,2.61l.05.07,1.19,1.64a10.77,10.77,0,0,1-2.66,15l0,0-12.21,8.48A11,11,0,0,1,521.6,219.37Z" style="fill: #fce0a2"/>
        <path id="Path_924" data-name="Path 924" d="M519.66,191.85l-1.19-1.64a10.79,10.79,0,0,1,2.67-15h0l12.21-8.47a10.76,10.76,0,0,1,15,2.61l0,.07,1.19,1.64a10.74,10.74,0,0,1-2.64,15l0,0-12.21,8.49a10.76,10.76,0,0,1-15-2.61Z" style="fill: #fce0a2"/>
      </g>
      <path id="Path_925" data-name="Path 925" d="M487.86,93.3H477.14a3.67,3.67,0,0,1-3.72-3.58h0A3.78,3.78,0,0,1,477.14,86h10.72a3.66,3.66,0,0,1,3.72,3.57h0a3.7,3.7,0,0,1-3.64,3.73Z" style="fill: #fff"/>
      <path id="Path_926" data-name="Path 926" d="M839.32,189.87h36.91L874.14,192a2,2,0,0,0-.16,2.82l.16.16h0a1.49,1.49,0,0,0,1.49.59,1.91,1.91,0,0,0,1.5-.59l6-5.81h0l.15-.15h0a1.69,1.69,0,0,0,.45-1.19v-.29a1.73,1.73,0,0,0-.45-1.2h0l-.15-.14h0l-6-5.8a2.21,2.21,0,0,0-3.14,3.12h0l2.09,2.08h-37l26-26v3a2.16,2.16,0,0,0,2.08,2.23h0a2.15,2.15,0,0,0,2.23-2.08h0V154.3h0v-.15A1.74,1.74,0,0,0,869,153a.15.15,0,0,0-.15-.15l-.15-.15a1.75,1.75,0,0,0-1.2-.44h-8.18a2,2,0,0,0-2.09,2v.24a2.17,2.17,0,0,0,2.24,2.09h3l-26,26V145.68l2.08,2.09a1.52,1.52,0,0,0,1.49.58,2.08,2.08,0,0,0,1.66-3.4c0-.06-.11-.11-.16-.16h0l-5.82-5.95h-.15a.15.15,0,0,1-.15-.15h0a2.06,2.06,0,0,0-1-.3h-.44a2.76,2.76,0,0,0-1,.3h0a.15.15,0,0,0-.15.15h-.14l-5.82,5.95a2.16,2.16,0,0,0,3,3.13l2.14-2v36.89l-26-26h3a2.16,2.16,0,1,0,.15-4.31h-8.39a3.2,3.2,0,0,0-1.18.29h-.15a.15.15,0,0,0-.15.15l-.15.15a1.74,1.74,0,0,0-.44,1.19v.15h0v8.34a2.15,2.15,0,0,0,2.22,2.08h0a2,2,0,0,0,2.08-2,.14.14,0,0,0,0-.09v-3.13l26.09,26" style="fill: #f34500"/>
      <path id="Path_928" data-name="Path 928" d="M828.67,189.87l-26,26v-3a2.16,2.16,0,0,0-2.08-2.23h0a2.17,2.17,0,0,0-2.22,2.08h0v8.33h0v.14a1.73,1.73,0,0,0,.45,1.2.15.15,0,0,0,.15.14l.15.15h9.51a2.16,2.16,0,1,0-.15-4.31h-3l26-26v36.92l-2.08-2.09a2.17,2.17,0,0,0-3.06-.07l-.08.07a2.2,2.2,0,0,0,0,3.1l0,0h0l5.82,5.95h.15a.15.15,0,0,1,.15.15h0a2.1,2.1,0,0,0,1,.3h.45a2.66,2.66,0,0,0,1-.3h0a.15.15,0,0,0,.15-.15h.14L841,230.3a2.21,2.21,0,0,0-3.13-3.13h0l-2.09,2.09V192.4" style="fill: #f34500"/>
      <circle id="Ellipse_85" data-name="Ellipse 85" cx="833.89" cy="124.84" r="9.23" style="fill: #333"/>
      <g id="Group_188" data-name="Group 188">
        <circle id="Ellipse_86" data-name="Ellipse 86" cx="833.94" cy="250.64" r="9.23" style="fill: #333"/>
        <circle id="Ellipse_87" data-name="Ellipse 87" cx="896.89" cy="187.69" r="9.23" style="fill: #333"/>
      </g>
      <ellipse id="Ellipse_88" data-name="Ellipse 88" cx="927.05" cy="284.06" rx="44.95" ry="44.94" style="fill: #f36831"/>
      <ellipse id="Ellipse_89" data-name="Ellipse 89" cx="66.67" cy="73.51" rx="66.67" ry="66.66" style="fill: #bf3600"/>
      <g id="Group_189" data-name="Group 189">
        <circle id="Ellipse_90" data-name="Ellipse 90" cx="789.5" cy="143.2" r="9.23" style="fill: #333"/>
        <circle id="Ellipse_91" data-name="Ellipse 91" cx="789.5" cy="232.18" r="9.23" style="fill: #333"/>
      </g>
      <circle id="Ellipse_92" data-name="Ellipse 92" cx="878.54" cy="143.15" r="9.23" style="fill: #b9b9b9"/>
      <path d="M715.3,56.58a30.92,30.92,0,0,1,17.55,5.34h0l.3.22.81.59.44.34.71.59.43.37c.24.2.46.41.69.62l.39.37c.25.24.49.49.72.74l.29.3c.32.35.64.71.94,1.08l.17.21c.25.31.48.61.71.92.1.14.2.27.29.41s.36.51.53.77l.3.46c.16.26.31.52.46.78l.27.47c.15.27.29.55.43.83s.16.29.23.44c.16.35.31.69.46,1l.12.27c.17.44.34.88.49,1.33.05.12.08.25.12.37.11.33.21.67.3,1,0,.17.09.34.13.51s.15.59.21.9.08.36.11.54.09.5.13.75a44.79,44.79,0,1,0-57.46.06C688.5,66.42,700.63,56.58,715.3,56.58Zm0-35.29A16.81,16.81,0,1,1,698.49,38.1,16.81,16.81,0,0,1,715.3,21.29Z" style="fill: #f34500"/>
      <ellipse cx="715.3" cy="38.1" rx="16.82" ry="16.81" style="fill: #dcdcdc"/>
      <path d="M733.15,62.13l.81.59Z" style="fill: #dcdcdc"/>
      <path d="M735.54,64c.24.2.46.41.69.62C736,64.43,735.78,64.22,735.54,64Z" style="fill: #dcdcdc"/>
      <path d="M734.4,63.06l.71.59Z" style="fill: #dcdcdc"/>
      <path d="M736.62,65c.25.24.49.49.72.74C737.11,65.5,736.87,65.25,736.62,65Z" style="fill: #dcdcdc"/>
      <path d="M742,72.42c.16.35.31.69.46,1C742.27,73.11,742.12,72.77,742,72.42Z" style="fill: #dcdcdc"/>
      <path d="M741.3,71.15c.15.27.29.55.43.83C741.59,71.7,741.45,71.42,741.3,71.15Z" style="fill: #dcdcdc"/>
      <path d="M743.58,76.94c.08.3.15.59.21.9C743.73,77.53,743.66,77.24,743.58,76.94Z" style="fill: #dcdcdc"/>
      <path d="M742.54,73.73c.17.44.34.88.49,1.33C742.88,74.61,742.71,74.17,742.54,73.73Z" style="fill: #dcdcdc"/>
      <path d="M743.15,75.43c.11.33.21.67.3,1C743.36,76.1,743.26,75.76,743.15,75.43Z" style="fill: #dcdcdc"/>
      <path d="M732.85,61.92a30.92,30.92,0,0,0-17.55-5.34c-14.67,0-26.8,9.84-28.73,22.61A44.54,44.54,0,0,0,714.2,89.56,52.58,52.58,0,0,0,732.85,61.92Z" style="fill: #dcdcdc"/>
      <path d="M738.74,67.34c.25.31.48.61.71.92C739.22,68,739,67.65,738.74,67.34Z" style="fill: #dcdcdc"/>
      <path d="M739.74,68.67c.18.26.36.51.53.77C740.1,69.18,739.92,68.93,739.74,68.67Z" style="fill: #dcdcdc"/>
      <path d="M737.63,66.05c.32.35.64.71.94,1.08C738.27,66.76,738,66.4,737.63,66.05Z" style="fill: #dcdcdc"/>
      <path d="M740.57,69.9c.16.26.31.52.46.78C740.88,70.42,740.73,70.16,740.57,69.9Z" style="fill: #dcdcdc"/>
      <path d="M741,70.68l.27.47Z" style="fill: #b9b9b9"/>
      <path d="M742.42,73.46l.12.27Z" style="fill: #b9b9b9"/>
      <path d="M741.73,72c.08.15.16.29.23.44C741.89,72.27,741.81,72.13,741.73,72Z" style="fill: #b9b9b9"/>
      <path d="M743.45,76.43c0,.17.09.34.13.51C743.54,76.77,743.5,76.6,743.45,76.43Z" style="fill: #b9b9b9"/>
      <path d="M743.79,77.84c0,.18.08.36.11.54C743.87,78.2,743.83,78,743.79,77.84Z" style="fill: #b9b9b9"/>
      <path d="M743,75.06c.05.12.08.25.12.37C743.11,75.31,743.08,75.18,743,75.06Z" style="fill: #b9b9b9"/>
      <path d="M737.34,65.75l.29.3Z" style="fill: #b9b9b9"/>
      <path d="M735.11,63.65l.43.37Z" style="fill: #b9b9b9"/>
      <path d="M734,62.72l.44.34Z" style="fill: #b9b9b9"/>
      <path d="M740.27,69.44l.3.46Z" style="fill: #b9b9b9"/>
      <path d="M732.85,61.91h0l.3.21Z" style="fill: #b9b9b9"/>
      <path d="M739.45,68.26c.1.14.2.27.29.41C739.65,68.53,739.55,68.4,739.45,68.26Z" style="fill: #b9b9b9"/>
      <path d="M738.57,67.13l.17.21Z" style="fill: #b9b9b9"/>
      <path d="M736.23,64.64l.39.37Z" style="fill: #b9b9b9"/>
      <path d="M743.79,77.84c-.06-.31-.13-.6-.21-.9s-.08-.34-.13-.51c-.09-.33-.19-.67-.3-1,0-.12-.07-.25-.12-.37-.15-.45-.32-.89-.49-1.33l-.12-.27c-.15-.35-.3-.69-.46-1-.07-.15-.15-.29-.23-.44s-.28-.56-.43-.83l-.27-.47c-.15-.26-.3-.52-.46-.78l-.3-.46c-.17-.26-.35-.51-.53-.77s-.19-.27-.29-.41c-.23-.31-.46-.61-.71-.92l-.17-.21c-.3-.37-.62-.73-.94-1.08l-.29-.3c-.23-.25-.47-.5-.72-.74l-.39-.37c-.23-.21-.45-.42-.69-.62l-.43-.37-.71-.59-.44-.34-.81-.59-.3-.21A52.58,52.58,0,0,1,714.2,89.56l1.06,0A44.58,44.58,0,0,0,744,79.13q0-.37-.12-.75C743.87,78.2,743.83,78,743.79,77.84Z" style="fill: #b9b9b9"/>
      <polygon id="Rectangle_298" data-name="Rectangle 298" points="291.34 269.65 365.13 237.08 367.3 241.99 293.51 274.55 291.34 269.65" style="fill: #f34500"/>
      <g id="Group_190" data-name="Group 190">
        <g id="Layer_2-2" data-name="Layer 2-2">
          <g id="Layer_1-2-2" data-name="Layer 1-2-2">
            <rect id="Rectangle_300" data-name="Rectangle 300" x="503.83" y="43.44" width="100.46" height="86.45" style="fill: none"/>
            <path id="facebook" d="M569.48,127.8H585a10.29,10.29,0,0,0,10.26-10.19h0V55.78a10.3,10.3,0,0,0-10.28-10.26H523.18a10.44,10.44,0,0,0-10.44,10.26v61.83A10.3,10.3,0,0,0,523,127.86h46.46Z" style="fill: #fff"/>
          </g>
        </g>
        <g id="Layer_2-3" data-name="Layer 2-3">
          <g id="Layer_1-2-3" data-name="Layer 1-2-3">
            <rect id="Rectangle_301" data-name="Rectangle 301" x="503.5" y="43.17" width="101.06" height="86.89" style="fill: none"/>
            <path id="facebook-2" d="M585.06,45.11H522.85a10.42,10.42,0,0,0-10.43,10.42v62.2a10.43,10.43,0,0,0,10.43,10.42h31.31V99.74H543.72v-13h10.44V76.35a15.63,15.63,0,0,1,15.62-15.63h10.44v13H575c-2.84,0-5.22-.3-5.22,2.53V86.63h13l-5.27,13.11h-7.76v28.39h15.49a10.42,10.42,0,0,0,10.44-10.42h0V55.53A10.67,10.67,0,0,0,585.06,45.11Z" style="fill: #f34500"/>
          </g>
        </g>
      </g>
      <g id="Layer_1-2-4" data-name="Layer 1-2-4">
        <path id="twitter" d="M104.36,52.1a38.92,38.92,0,0,1-9.08,2.53A15.08,15.08,0,0,0,102.12,46a30.88,30.88,0,0,1-10,3.7A16.05,16.05,0,0,0,80.5,44.79,15.78,15.78,0,0,0,64.75,60.56h0A13.54,13.54,0,0,0,65.19,64a44.93,44.93,0,0,1-32.6-16.34,15.25,15.25,0,0,0,4.68,20.84,16.85,16.85,0,0,1-7.14-1.94v.15A15.8,15.8,0,0,0,42.77,82.18a20.14,20.14,0,0,1-4.16.58,10,10,0,0,1-3-.45A15.83,15.83,0,0,0,50.36,93.18a32.28,32.28,0,0,1-19.63,6.7A33.14,33.14,0,0,1,27,99.73a43.79,43.79,0,0,0,24.25,7c29.18,0,45.1-23.81,45.1-44.66V60A25.32,25.32,0,0,0,104.36,52.1Z" style="fill: #fff"/>
      </g>
      <g id="instagram-on">
        <path id="Path_936" data-name="Path 936" d="M935.74,261.09H918A14.89,14.89,0,0,0,903.13,276v17.72A14.9,14.9,0,0,0,918,308.58h17.71a14.9,14.9,0,0,0,14.91-14.89V276A14.89,14.89,0,0,0,935.74,261.09Zm10.44,32.58a10.42,10.42,0,0,1-10.44,10.42H918a10.42,10.42,0,0,1-10.43-10.42V276A10.42,10.42,0,0,1,918,265.54h17.71A10.42,10.42,0,0,1,946.18,276Z" style="fill: #fff"/>
        <path id="Path_937" data-name="Path 937" d="M927,273a11.91,11.91,0,1,0,11.93,11.91A11.92,11.92,0,0,0,927,273Zm0,19.18a7.44,7.44,0,1,1,7.46-7.44h0A7.57,7.57,0,0,1,927,292.18Z" style="fill: #fff"/>
        <circle id="Ellipse_98" data-name="Ellipse 98" cx="939.6" cy="272.1" r="1.64" style="fill: #fff"/>
      </g>
      <rect width="972" height="329" style="fill: none"/>
      <path d="M834,193.57a15.79,15.79,0,0,1,9,2.74h0l.15.11.42.31a1.84,1.84,0,0,1,.22.17l.37.3.22.19.35.32.2.19c.13.12.25.25.37.38l.15.15.48.55.09.11.36.47.15.21.27.4.15.23.24.4.14.24.22.42.11.23q.14.27.24.54l.06.13c.09.23.18.45.26.68a1.52,1.52,0,0,0,.06.2q.08.24.15.51a2.33,2.33,0,0,0,.07.25c0,.16.07.31.1.46l.06.29.06.38a22.94,22.94,0,1,0-29.41,0C820.31,198.61,826.51,193.57,834,193.57Zm0-18.07a8.61,8.61,0,1,1-8.61,8.61A8.62,8.62,0,0,1,834,175.5Z" style="fill: #f34500"/>
      <ellipse cx="834.03" cy="184.11" rx="8.61" ry="8.6" style="fill: #dcdcdc"/>
      <path d="M843.16,196.41l.42.31Z" style="fill: #dcdcdc"/>
      <path d="M844.39,197.38l.35.32Z" style="fill: #dcdcdc"/>
      <path d="M843.8,196.89l.37.3Z" style="fill: #dcdcdc"/>
      <path d="M844.94,197.89c.13.12.25.25.37.38C845.19,198.14,845.07,198,844.94,197.89Z" style="fill: #dcdcdc"/>
      <path d="M847.67,201.68q.14.27.24.54Q847.81,202,847.67,201.68Z" style="fill: #dcdcdc"/>
      <path d="M847.34,201l.22.42Z" style="fill: #dcdcdc"/>
      <path d="M848.51,204c0,.16.07.31.1.46C848.58,204.3,848.54,204.15,848.51,204Z" style="fill: #dcdcdc"/>
      <path d="M848,202.35c.09.23.18.45.26.68C848.15,202.8,848.06,202.58,848,202.35Z" style="fill: #dcdcdc"/>
      <path d="M848.29,203.23q.08.24.15.51Q848.37,203.47,848.29,203.23Z" style="fill: #dcdcdc"/>
      <path d="M843,196.31a15.79,15.79,0,0,0-9-2.74c-7.52,0-13.72,5-14.71,11.58a22.86,22.86,0,0,0,14.14,5.31A26.94,26.94,0,0,0,843,196.31Z" style="fill: #dcdcdc"/>
      <path d="M846,199.08l.36.47Z" style="fill: #dcdcdc"/>
      <path d="M846.54,199.76l.27.4Z" style="fill: #dcdcdc"/>
      <path d="M845.46,198.42l.48.55Z" style="fill: #dcdcdc"/>
      <path d="M847,200.39l.24.4Z" style="fill: #dcdcdc"/>
      <path d="M847.2,200.79l.14.24Z" style="fill: #b9b9b9"/>
      <path d="M847.91,202.22l.06.13Z" style="fill: #b9b9b9"/>
      <path d="M847.56,201.45l.11.23Z" style="fill: #b9b9b9"/>
      <path d="M848.44,203.74a2.33,2.33,0,0,0,.07.25A2.33,2.33,0,0,1,848.44,203.74Z" style="fill: #b9b9b9"/>
      <path d="M848.61,204.45l.06.29Z" style="fill: #b9b9b9"/>
      <path d="M848.23,203a1.52,1.52,0,0,0,.06.2A1.52,1.52,0,0,1,848.23,203Z" style="fill: #b9b9b9"/>
      <path d="M845.31,198.27l.15.15Z" style="fill: #b9b9b9"/>
      <path d="M844.17,197.19l.22.19Z" style="fill: #b9b9b9"/>
      <path d="M843.58,196.72a1.84,1.84,0,0,1,.22.17A1.84,1.84,0,0,0,843.58,196.72Z" style="fill: #b9b9b9"/>
      <path d="M846.81,200.16l.15.23Z" style="fill: #b9b9b9"/>
      <path d="M843,196.3h0l.15.1Z" style="fill: #b9b9b9"/>
      <path d="M846.39,199.55l.15.21Z" style="fill: #b9b9b9"/>
      <path d="M845.94,199l.09.11Z" style="fill: #b9b9b9"/>
      <path d="M844.74,197.7l.2.19Z" style="fill: #b9b9b9"/>
      <path d="M848.61,204.45c0-.15-.07-.3-.1-.46a2.33,2.33,0,0,1-.07-.25q-.08-.27-.15-.51a1.52,1.52,0,0,1-.06-.2c-.08-.23-.17-.45-.26-.68l-.06-.13q-.1-.27-.24-.54l-.11-.23-.22-.42-.14-.24-.24-.4-.15-.23-.27-.4-.15-.21-.36-.47-.09-.11-.48-.55-.15-.15c-.12-.13-.24-.26-.37-.38l-.2-.19-.35-.32-.22-.19-.37-.3a1.84,1.84,0,0,0-.22-.17l-.42-.31-.15-.1a26.94,26.94,0,0,1-9.55,14.15H834a22.83,22.83,0,0,0,14.72-5.35l-.06-.38Z" style="fill: #b9b9b9"/>
      <path d="M263.94,291.68a21.73,21.73,0,0,1,12.32,3.75h0l.21.15.57.42.31.24.5.41.3.26c.17.14.33.29.48.44a3.45,3.45,0,0,1,.28.26l.51.52.2.2c.23.25.45.51.66.77l.12.14c.17.22.34.43.5.65s.13.19.2.29.25.35.37.54l.21.32.33.54.19.34.3.58c.05.1.11.2.16.31s.22.49.32.73a1.42,1.42,0,0,1,.08.18c.13.31.24.63.35.94,0,.09.06.18.08.26.08.24.15.47.22.7l.09.36c.05.21.1.42.14.63s.06.26.08.38l.09.53a31.45,31.45,0,1,0-40.34,0C245.13,298.59,253.64,291.68,263.94,291.68Zm0-24.78a11.8,11.8,0,1,1-11.8,11.8A11.8,11.8,0,0,1,263.94,266.9Z" style="fill: #f34500"/>
      <ellipse cx="263.94" cy="278.7" rx="11.81" ry="11.8" style="fill: #dcdcdc"/>
      <path d="M276.47,295.57l.57.42Z" style="fill: #dcdcdc"/>
      <path d="M278.15,296.9c.17.14.33.29.48.44C278.48,297.19,278.32,297,278.15,296.9Z" style="fill: #dcdcdc"/>
      <path d="M277.35,296.23l.5.41Z" style="fill: #dcdcdc"/>
      <path d="M278.91,297.6l.51.52Z" style="fill: #dcdcdc"/>
      <path d="M282.66,302.8c.11.24.22.49.32.73C282.88,303.29,282.77,303,282.66,302.8Z" style="fill: #dcdcdc"/>
      <path d="M282.2,301.91l.3.58Z" style="fill: #dcdcdc"/>
      <path d="M283.8,306c.05.21.1.42.14.63C283.9,306.39,283.85,306.18,283.8,306Z" style="fill: #dcdcdc"/>
      <path d="M283.06,303.71c.13.31.24.63.35.94C283.3,304.34,283.19,304,283.06,303.71Z" style="fill: #dcdcdc"/>
      <path d="M283.49,304.91c.08.24.15.47.22.7C283.64,305.38,283.57,305.15,283.49,304.91Z" style="fill: #dcdcdc"/>
      <path d="M276.26,295.43a21.73,21.73,0,0,0-12.32-3.75c-10.3,0-18.81,6.91-20.17,15.87a31.28,31.28,0,0,0,19.4,7.28A36.93,36.93,0,0,0,276.26,295.43Z" style="fill: #dcdcdc"/>
      <path d="M280.4,299.23c.17.22.34.43.5.65C280.74,299.66,280.57,299.45,280.4,299.23Z" style="fill: #dcdcdc"/>
      <path d="M281.1,300.17c.13.17.25.35.37.54C281.35,300.52,281.23,300.34,281.1,300.17Z" style="fill: #dcdcdc"/>
      <path d="M279.62,298.32c.23.25.45.51.66.77C280.07,298.83,279.85,298.57,279.62,298.32Z" style="fill: #dcdcdc"/>
      <path d="M281.68,301l.33.54Z" style="fill: #dcdcdc"/>
      <path d="M282,301.57l.19.34Z" style="fill: #b9b9b9"/>
      <path d="M283,303.53a1.42,1.42,0,0,1,.08.18A1.42,1.42,0,0,0,283,303.53Z" style="fill: #b9b9b9"/>
      <path d="M282.5,302.49c.05.1.11.2.16.31C282.61,302.69,282.55,302.59,282.5,302.49Z" style="fill: #b9b9b9"/>
      <path d="M283.71,305.61l.09.36Z" style="fill: #b9b9b9"/>
      <path d="M283.94,306.6c0,.13.06.26.08.38C284,306.86,284,306.73,283.94,306.6Z" style="fill: #b9b9b9"/>
      <path d="M283.41,304.65c0,.09.06.18.08.26C283.47,304.83,283.44,304.74,283.41,304.65Z" style="fill: #b9b9b9"/>
      <path d="M279.42,298.12l.2.2Z" style="fill: #b9b9b9"/>
      <path d="M277.85,296.64l.3.26Z" style="fill: #b9b9b9"/>
      <path d="M277,296l.31.24Z" style="fill: #b9b9b9"/>
      <path d="M281.47,300.71l.21.32Z" style="fill: #b9b9b9"/>
      <path d="M276.26,295.42h0l.21.14Z" style="fill: #b9b9b9"/>
      <path d="M280.9,299.88c.07.09.13.19.2.29C281,300.07,281,300,280.9,299.88Z" style="fill: #b9b9b9"/>
      <path d="M280.28,299.09l.12.14Z" style="fill: #b9b9b9"/>
      <path d="M278.63,297.34a3.45,3.45,0,0,1,.28.26A3.45,3.45,0,0,0,278.63,297.34Z" style="fill: #b9b9b9"/>
      <path d="M283.94,306.6c0-.21-.09-.42-.14-.63l-.09-.36c-.07-.23-.14-.46-.22-.7,0-.08-.05-.17-.08-.26-.11-.31-.22-.63-.35-.94a1.42,1.42,0,0,0-.08-.18c-.1-.24-.21-.49-.32-.73s-.11-.21-.16-.31l-.3-.58-.19-.34-.33-.54-.21-.32c-.12-.19-.24-.37-.37-.54s-.13-.2-.2-.29-.33-.43-.5-.65l-.12-.14c-.21-.26-.43-.52-.66-.77l-.2-.2-.51-.52a3.45,3.45,0,0,0-.28-.26c-.15-.15-.31-.3-.48-.44l-.3-.26-.5-.41L277,296l-.57-.42-.21-.14a36.93,36.93,0,0,1-13.09,19.4l.75,0a31.35,31.35,0,0,0,20.19-7.34L284,307C284,306.86,284,306.73,283.94,306.6Z" style="fill: #b9b9b9"/>
    </g>
  </g>
</svg>
