<svg xmlns="http://www.w3.org/2000/svg" width="52" height="52" viewBox="0 0 52 52"><defs><style>.cls-3{fill:#fff}</style></defs><g id="Layer_2" data-name="Layer 2"><g id="Layer_5" data-name="Layer 5"><path d="M0 0h52v52H0z" fill="none"/><circle cx="26" cy="26" r="25" fill="#f34500"/><path class="cls-3" d="M36.8 20.5h5.4v2.7h-5.4v5.5h-2.7v-5.5h-5.5v-2.7h5.5V15h2.7z"/><path class="cls-3" d="M25.3 28.7c-.8-.6-2.3-1.9-2.3-2.7s.3-1.4 1.7-2.5a6.1 6.1 0 0 0 2.5-4.5c0-2.2-1-4.4-2.9-5.1h2.8l1.9-1.4h-8.6c-3.9 0-7.6 3-7.6 6.4a6.3 6.3 0 0 0 6.293 6.307c.1 0 .2 0 .307-.007h.8a4.19 4.19 0 0 0-.4 1.6 3.1 3.1 0 0 0 1.2 2.4h-1.5c-4.8 0-8.5 3.1-8.5 6.2s4 5.1 8.8 5.1 8.5-3.1 8.5-6.2a5.9 5.9 0 0 0-3-5.6zm-4.6-4.4c-2.2-.1-4.4-2.5-4.8-5.4s1.2-5.2 3.4-5.1 4.3 2.4 4.7 5.3-1.1 5.3-3.3 5.2zm-.9 14.9c-3.3 0-5.7-2.1-5.7-4.7s3-4.5 6.3-4.5a4.61 4.61 0 0 1 2.1.4c1.8 1.2 3.2 1.9 3.5 3.4a2.21 2.21 0 0 1 .1.8c0 2.6-1.6 4.6-6.3 4.6z"/></g></g></svg>