<svg xmlns="http://www.w3.org/2000/svg" width="22" height="19.41" viewBox="0 0 22 19.41"><g data-name="Layer 2"><g data-name="Layer 1"><path d="M0 0h22v19.41H0z" fill="none"/><path d="M20.8 10.5a1.8 1.8 0 0 0-1.1-3.2h-4.8a14.621 14.621 0 0 0 .4-2.9A9.213 9.213 0 0 0 14.2 1a1.9 1.9 0 0 0-1.9-.6c-1.2.3-1.3 1-1.3 1.2s.1 2 .1 2.6a24.436 24.436 0 0 1-3 4.6H1.5a.9.9 0 0 0-.9.9V18a.9.9 0 0 0 .9.8h5.4a.9.9 0 0 0 .9-.9v-.3h.3a2.5 2.5 0 0 0 1.3.5h8.2c3 0 2.7-2.7 2.4-3.1a2.1 2.1 0 0 0 .4-2.3 2.2 2.2 0 0 0 .4-2.2zM6.7 17.9H1.5V9.5h5.2zm12.7-7.5v.2c1.4.4.7 2-.3 2.1v.2c1.4.4.7 2-.3 2.1v.2c1.1.2.9 2.1-.8 2.1H9.4c-.5 0-1.1-.7-1.5-.7h-.4v-6.4l1.4-1a22.125 22.125 0 0 0 3-5V1.6a1.4 1.4 0 0 1 1.6-.2 9.6 9.6 0 0 1 1 3.1 35.73 35.73 0 0 1-.7 3.7h5.8c1.4 0 1.1 2-.2 2.2z" fill="#f34500"/></g></g></svg>