<svg xmlns="http://www.w3.org/2000/svg" width="400" height="128" viewBox="0 0 400 128">
  <title>trend-alert</title>
  <g id="Layer_2" data-name="Layer 2">
    <g id="Layer_1-2" data-name="Layer 1">
      <path id="Path_161" data-name="Path 161" d="M200.17,46.29h0A26.72,26.72,0,0,0,173.46,73v35.12h53.42V73A26.71,26.71,0,0,0,200.17,46.29Z" style="fill: #f36831"/>
      <path id="Path_162" data-name="Path 162" d="M205.77,46.9a25.36,25.36,0,0,0-5.6-.61h0A26.72,26.72,0,0,0,173.46,73h0v35.12h11.21V73A26.67,26.67,0,0,1,205.77,46.9Z" style="fill: #f35618"/>
      <rect id="Rectangle_105" data-name="Rectangle 105" x="195.97" y="92.03" width="7.8" height="16.11" style="fill: #d93e00"/>
      <path id="Path_163" data-name="Path 163" d="M232.18,106.14v10.41H168.26V106.14a2,2,0,0,1,2-2h59.92A2,2,0,0,1,232.18,106.14Z" style="fill: #4f4f4f"/>
      <path id="Path_164" data-name="Path 164" d="M173.56,104.14v12.41h-5.4V106.14a2,2,0,0,1,2-2Z" style="fill: #333"/>
      <path id="Path_165" data-name="Path 165" d="M237.68,115.25V126a2,2,0,0,1-2,2h-71a2,2,0,0,1-2-2V115.25a2,2,0,0,1,2-2h71A2,2,0,0,1,237.68,115.25Z" style="fill: #727272"/>
      <path id="Path_166" data-name="Path 166" d="M168.16,113.25v14.61h-3.5a2,2,0,0,1-2-2V115.25a2,2,0,0,1,2-2Z" style="fill: #595959"/>
      <path id="Path_167" data-name="Path 167" d="M200.17,37.59a1.9,1.9,0,0,1-1.9-1.9h0V3.86a1.9,1.9,0,0,1,1.9-1.9,1.84,1.84,0,0,1,1.9,1.9V35.79a1.88,1.88,0,0,1-1.9,1.8Z" style="fill: #f38b61"/>
      <path id="Path_168" data-name="Path 168" d="M189,40.09a1.78,1.78,0,0,1-1.6-1L171.86,11.27a1.83,1.83,0,0,1,.7-2.51,1.81,1.81,0,0,1,2.5.71l15.51,27.92a1.82,1.82,0,0,1-.7,2.5,2.92,2.92,0,0,1-.9.2Z" style="fill: #f38b61"/>
      <path id="Path_169" data-name="Path 169" d="M181.16,46.09a2.92,2.92,0,0,1-.9-.2L152.15,31a1.82,1.82,0,0,1-.7-2.5,1.94,1.94,0,0,1,2.5-.8l28.21,14.91a1.85,1.85,0,0,1,.8,2.5,2.23,2.23,0,0,1-1.8,1Z" style="fill: #f38b61"/>
      <path id="Path_170" data-name="Path 170" d="M211.37,40.09a1.9,1.9,0,0,1-1.9-1.9,2.92,2.92,0,0,1,.2-.9L225.18,9.37a1.81,1.81,0,0,1,2.5-.71,1.83,1.83,0,0,1,.7,2.51h0l-15.5,27.92A1.43,1.43,0,0,1,211.37,40.09Z" style="fill: #f38b61"/>
      <path id="Path_171" data-name="Path 171" d="M219.18,46.09a1.9,1.9,0,0,1-1.9-1.9,2.06,2.06,0,0,1,1-1.7l28.21-14.91a1.86,1.86,0,0,1,1.7,3.3L220,45.79A1.14,1.14,0,0,1,219.18,46.09Z" style="fill: #f38b61"/>
      <ellipse id="Ellipse_17" data-name="Ellipse 17" cx="199.87" cy="86.73" rx="9.5" ry="9.51" style="fill: #f34500"/>
      <path id="Path_161-2" data-name="Path 161-2" d="M360.63,63.91h0a20.9,20.9,0,0,0-20.91,20.92h0v27.52h41.92V84.93A21,21,0,0,0,360.63,63.91Z" style="fill: #f36831"/>
      <path id="Path_162-2" data-name="Path 162-2" d="M365,64.41a21.18,21.18,0,0,0-4.4-.5h0a20.9,20.9,0,0,0-20.91,20.92h0v27.52h8.8V84.93A20.92,20.92,0,0,1,365,64.41Z" style="fill: #f35618"/>
      <rect id="Rectangle_105-2" data-name="Rectangle 105-2" x="357.33" y="99.74" width="6.1" height="12.61" style="fill: #d93e00"/>
      <path id="Path_163-2" data-name="Path 163-2" d="M385.74,110.85V119H335.62v-8.1a1.59,1.59,0,0,1,1.6-1.61h47A1.57,1.57,0,0,1,385.74,110.85Z" style="fill: #4f4f4f"/>
      <path id="Path_164-2" data-name="Path 164-2" d="M339.82,109.24V119h-4.2v-8.1a1.59,1.59,0,0,1,1.6-1.61h2.6Z" style="fill: #333"/>
      <path id="Path_165-2" data-name="Path 165-2" d="M390,118v8.41a1.58,1.58,0,0,1-1.6,1.6H332.72a1.58,1.58,0,0,1-1.6-1.6h0V118a1.58,1.58,0,0,1,1.6-1.6h55.72A1.72,1.72,0,0,1,390,118Z" style="fill: #727272"/>
      <path id="Path_166-2" data-name="Path 166-2" d="M335.62,116.45V128h-2.8a1.58,1.58,0,0,1-1.6-1.6h0V118a1.58,1.58,0,0,1,1.6-1.6h0Z" style="fill: #595959"/>
      <path id="Path_167-2" data-name="Path 167-2" d="M360.63,57.1a1.54,1.54,0,0,1-1.5-1.5v-25a1.5,1.5,0,1,1,3,0v25a1.47,1.47,0,0,1-1.5,1.5Z" style="fill: #f38b61"/>
      <path id="Path_168-2" data-name="Path 168-2" d="M351.82,59.1a1.56,1.56,0,0,1-1.3-.8l-12.2-21.81a1.48,1.48,0,0,1,2.6-1.4h0L353.13,56.9a1.52,1.52,0,0,1-1.31,2.2Z" style="fill: #f38b61"/>
      <path id="Path_169-2" data-name="Path 169-2" d="M345.82,63.81a1.85,1.85,0,0,1-.7-.2L323,51.9a1.49,1.49,0,0,1-.6-2,1.47,1.47,0,0,1,2-.6l22,11.71a1.49,1.49,0,0,1,.6,2,1.3,1.3,0,0,1-1.2.8Z" style="fill: #f38b61"/>
      <path id="Path_170-2" data-name="Path 170-2" d="M369.43,59.1a1.54,1.54,0,0,1-1.5-1.5,1.85,1.85,0,0,1,.2-.7L380.34,35a1.48,1.48,0,1,1,2.6,1.4h0L370.73,58.2A1.48,1.48,0,0,1,369.43,59.1Z" style="fill: #f38b61"/>
      <path id="Path_171-2" data-name="Path 171-2" d="M375.53,63.81a1.54,1.54,0,0,1-1.5-1.5,1.56,1.56,0,0,1,.8-1.3L396.94,49.3a1.48,1.48,0,1,1,1.4,2.6L376.23,63.61A1.85,1.85,0,0,1,375.53,63.81Z" style="fill: #f38b61"/>
      <circle id="Ellipse_17-2" data-name="Ellipse 17-2" cx="360.43" cy="95.53" r="7.4" style="fill: #f34500"/>
      <path id="Path_161-3" data-name="Path 161-3" d="M39.51,63.91h0a20.9,20.9,0,0,0-20.9,20.92h0v27.52H60.52V84.93A21,21,0,0,0,39.51,63.91Z" style="fill: #f36831"/>
      <path id="Path_162-3" data-name="Path 162-3" d="M43.92,64.41a21.36,21.36,0,0,0-4.41-.5h0a20.9,20.9,0,0,0-20.9,20.92h0v27.52h8.8V84.93A20.91,20.91,0,0,1,43.92,64.41Z" style="fill: #f35618"/>
      <rect id="Rectangle_105-3" data-name="Rectangle 105-3" x="36.21" y="99.74" width="6.1" height="12.61" style="fill: #d93e00"/>
      <path id="Path_163-3" data-name="Path 163-3" d="M64.62,110.85V119H14.5v-8.1a1.6,1.6,0,0,1,1.61-1.61h47A1.57,1.57,0,0,1,64.62,110.85Z" style="fill: #4f4f4f"/>
      <path id="Path_164-3" data-name="Path 164-3" d="M18.71,109.24V119H14.5v-8.1a1.6,1.6,0,0,1,1.61-1.61h2.6Z" style="fill: #333"/>
      <path id="Path_165-3" data-name="Path 165-3" d="M68.92,118v8.41a1.58,1.58,0,0,1-1.6,1.6H11.7a1.58,1.58,0,0,1-1.6-1.6h0V118a1.58,1.58,0,0,1,1.6-1.6H67.42A1.71,1.71,0,0,1,68.92,118Z" style="fill: #727272"/>
      <path id="Path_166-3" data-name="Path 166-3" d="M14.5,116.45V128H11.7a1.58,1.58,0,0,1-1.6-1.6h0V118a1.58,1.58,0,0,1,1.6-1.6h0Z" style="fill: #595959"/>
      <path id="Path_167-3" data-name="Path 167-3" d="M39.51,57.1A1.54,1.54,0,0,1,38,55.6v-25a1.5,1.5,0,0,1,3,0v25a1.47,1.47,0,0,1-1.5,1.5Z" style="fill: #f38b61"/>
      <path id="Path_168-3" data-name="Path 168-3" d="M30.71,59.1a1.56,1.56,0,0,1-1.3-.8L17.31,36.49a1.48,1.48,0,1,1,2.6-1.4h0L32.11,56.9a1.49,1.49,0,0,1-.6,2,2.35,2.35,0,0,1-.8.2Z" style="fill: #f38b61"/>
      <path id="Path_169-3" data-name="Path 169-3" d="M24.71,63.81a1.85,1.85,0,0,1-.7-.2L1.9,51.9a1.49,1.49,0,0,1-.6-2,1.46,1.46,0,0,1,2-.6L25.31,61a1.49,1.49,0,0,1,.6,2,1.3,1.3,0,0,1-1.2.8Z" style="fill: #f38b61"/>
      <path id="Path_170-3" data-name="Path 170-3" d="M48.32,59.1a1.54,1.54,0,0,1-1.5-1.5,1.85,1.85,0,0,1,.2-.7L59.22,35a1.48,1.48,0,0,1,2.6,1.4h0L49.62,58.3A1.56,1.56,0,0,1,48.32,59.1Z" style="fill: #f38b61"/>
      <path id="Path_171-3" data-name="Path 171-3" d="M54.42,63.81a1.54,1.54,0,0,1-1.5-1.5,1.56,1.56,0,0,1,.8-1.3L75.83,49.3a1.48,1.48,0,1,1,1.4,2.6L55.12,63.61A1.85,1.85,0,0,1,54.42,63.81Z" style="fill: #f38b61"/>
      <circle id="Ellipse_17-3" data-name="Ellipse 17-3" cx="39.31" cy="95.53" r="7.4" style="fill: #f34500"/>
      <rect width="400" height="128" style="fill: none"/>
    </g>
  </g>
</svg>
