<svg xmlns="http://www.w3.org/2000/svg" width="30" height="96" viewBox="0 0 30 96"><g data-name="Layer 2"><path data-name="Path 193" d="M13.81 18.63a2.21 2.21 0 0 1-2.17-2.21V6.57A5.35 5.35 0 0 1 17 1.15a5.35 5.35 0 0 1 5.32 5.42v9.85a2.21 2.21 0 0 1-2.17 2.21h-6.3z" fill="#f34500"/><path data-name="Path 194" d="M11.74 33.79V15.31h10.64v18.48z" fill="#f35618"/><path data-name="Path 195" d="M11.74 49.06V29.57h10.64v19.49z" fill="#f36831"/><path data-name="Path 196" d="M22.38 43.83v28.73a12 12 0 0 1 5.12 16.07 11.67 11.67 0 0 1-15.76 5.22 12 12 0 0 1-5.13-16.07 11.82 11.82 0 0 1 5.13-5.22V43.83z" fill="#f37949"/><path data-name="Path 197" d="M22.38 58.09v14.47a12 12 0 0 1 5.12 16.07 11.67 11.67 0 0 1-15.76 5.22 12 12 0 0 1-5.13-16.07 11.82 11.82 0 0 1 5.13-5.22V58.09z" fill="#f38b61"/><path data-name="Path 198" d="M22.58 72.66l-.1-.1H11.74a12 12 0 0 0-5.13 16.07.1.1 0 0 0 .1.1 11.65 11.65 0 0 0 15.87-5 12.14 12.14 0 0 0 0-11.07z" fill="#f39c79"/><path data-name="Path 199" d="M14.89 11.5L7.5 18a1.06 1.06 0 0 1-.69.3H3a2.22 2.22 0 0 1-2.2-2.18V5.27A2.22 2.22 0 0 1 3 3.06h3.81a.89.89 0 0 1 .69.3l7.29 6.53a1 1 0 0 1 .1 1.51z" fill="#4f4f4f"/><path fill="none" d="M0 0h30v96H0z"/></g></svg>