<svg xmlns="http://www.w3.org/2000/svg" width="972" height="385" viewBox="0 0 972 385">
  <title>tv-hdr</title>
  <g id="Layer_2" data-name="Layer 2">
    <g id="Group_165" data-name="Group 165">
      <path id="Path_733" data-name="Path 733" d="M202.86,295.32l-4.41,12-27.87,74a4,4,0,0,1-4.76,2.37,4,4,0,0,1-2.89-4.74h0l18.52-71.42,3.06-12,18.35-.17Z" style="fill: #959595"/>
      <path id="Path_734" data-name="Path 734" d="M202.86,295.32h0l-4.41,12h-17l3.06-12Z" style="fill: #595959"/>
      <path id="Path_735" data-name="Path 735" d="M512.11,383.67a4,4,0,0,1-4.75-2.37l-27.87-74-4.42-12h18.35l3.06,12L515,378.76A4.14,4.14,0,0,1,512.11,383.67Z" style="fill: #959595"/>
      <path id="Path_736" data-name="Path 736" d="M496.48,307.34h-17l-4.42-12h18.35Z" style="fill: #595959"/>
      <path id="Path_738" data-name="Path 738" d="M271,93.24H168.88a6.05,6.05,0,0,1-6.12-5.93h0v.17a6,6,0,0,1,6-6.09H270.83A6,6,0,0,1,277,87.31h0v-.17a5.84,5.84,0,0,1-5.95,6.1Z" style="fill: #333"/>
      <rect id="Rectangle_281" data-name="Rectangle 281" x="189.27" y="18.94" width="15.12" height="62.11" style="fill: #727272"/>
      <rect id="Rectangle_282" data-name="Rectangle 282" x="204.39" y="29.6" width="15.12" height="51.62" style="fill: #959595"/>
      <rect id="Rectangle_283" data-name="Rectangle 283" x="219.68" y="22.32" width="15.12" height="58.9" style="fill: #b9b9b9"/>
      <rect id="Rectangle_284" data-name="Rectangle 284" x="234.98" y="3.71" width="15.12" height="77.69" style="fill: #dcdcdc"/>
      <g id="Group_150" data-name="Group 150">
        <rect id="Rectangle_294" data-name="Rectangle 294" x="24.79" y="96.97" width="1.7" height="58.22" style="fill: #4f4f4f"/>
        <ellipse id="Ellipse_61" data-name="Ellipse 61" cx="25.64" cy="156.04" rx="3.57" ry="3.55" style="fill: #4f4f4f"/>
        <path id="Path_750" data-name="Path 750" d="M109.75,355.75a24.25,24.25,0,0,1-15.29-4.91C85.62,344.58,81,333.75,81,322.92V117.11H69.65V323.43a33.79,33.79,0,0,1-10.54,25.21,24.5,24.5,0,0,1-18,7.11,10.49,10.49,0,0,0-11.38,9.65v13.2H121V365.91a10.43,10.43,0,0,0-10.7-10.16C109.92,355.58,109.75,355.75,109.75,355.75Z" style="fill: #b9b9b9"/>
        <g id="Group_147" data-name="Group 147">
          <path id="Path_751" data-name="Path 751" d="M137.78,14.72H12.38A11.36,11.36,0,0,0,1,26.06H1V105.6a11.36,11.36,0,0,0,11.38,11.34H138a11.36,11.36,0,0,0,11.39-11.34h0V26.06A11.4,11.4,0,0,0,137.78,14.72Z" style="fill: #f39c79"/>
        </g>
        <g id="Group_148" data-name="Group 148">
          <path id="Path_752" data-name="Path 752" d="M80.87,128.38H69.49V117H80.87Z" style="fill: #959595"/>
        </g>
        <g id="Group_149" data-name="Group 149">
          <path id="Path_753" data-name="Path 753" d="M115,88.58a17.09,17.09,0,0,1-17.17,17.1l-74.08-.17a11.62,11.62,0,0,0-11.55,11.34h0l125.56.17a11.63,11.63,0,0,0,11.56-11.34h0l.17-79.55h0a34.34,34.34,0,0,0-34.32,34L115,88.58Z" style="fill: #f38b61"/>
        </g>
      </g>
      <g id="Group_151" data-name="Group 151">
        <path id="Path_754" data-name="Path 754" d="M623,377H595.12a4.49,4.49,0,0,1-4.41-4.4v-19h36.87v19A4.53,4.53,0,0,1,623,377Z" style="fill: #404040"/>
        <path id="Path_755" data-name="Path 755" d="M801.41,377H773.54a4.49,4.49,0,0,1-4.42-4.4v-19H806v19A4.64,4.64,0,0,1,801.41,377Z" style="fill: #404040"/>
      </g>
      <path id="Path_756" data-name="Path 756" d="M846.51,303.78l-12.23,35.38-6.8,19.46H569.21l-5.78-19.46-18.35-61.61,270-12.19Z" style="fill: #f34500"/>
      <path id="Path_757" data-name="Path 757" d="M846.51,303.78l-12.23,35.38h-271l-18.35-61.61,270-12.19Z" style="fill: #b63400"/>
      <path id="Path_758" data-name="Path 758" d="M698.34,282.12V189.54A19.32,19.32,0,0,0,679,170.25H588.58a19.17,19.17,0,0,0-19.37,19.12V293.46H698.34V282.12Z" style="fill: #f34500"/>
      <path id="Path_759" data-name="Path 759" d="M580.59,189.54A19.32,19.32,0,0,1,600,170.25H588.58a19.17,19.17,0,0,0-19.37,19.12V293.46h11.38V189.54Z" style="fill: #b63400"/>
      <path id="Path_760" data-name="Path 760" d="M827.48,282.12V189.54a19.32,19.32,0,0,0-19.37-19.29H717.72a19.18,19.18,0,0,0-19.38,19.12V293.46H827.65V282.12Z" style="fill: #f34500"/>
      <path id="Path_761" data-name="Path 761" d="M709.73,189.54a19.32,19.32,0,0,1,19.37-19.29H717.72a19.18,19.18,0,0,0-19.38,19.12V293.46h11.39V189.54Z" style="fill: #b63400"/>
      <g id="Group_152" data-name="Group 152">
        <path id="Path_762" data-name="Path 762" d="M850.24,358.56H827.47V237a7.1,7.1,0,0,1,7.31-7.11,6,6,0,0,1,2.88.68l25.15,11.17a7,7,0,0,1,4.25,7.27L857.54,352A7.35,7.35,0,0,1,850.24,358.56Z" style="fill: #7a2300"/>
        <path id="Path_763" data-name="Path 763" d="M546.42,358.56h22.77V237a7.31,7.31,0,0,0-7.3-7.11,6,6,0,0,0-2.89.68l-25.15,11.17a7.17,7.17,0,0,0-4.25,7.27L539.12,352A7.12,7.12,0,0,0,546.42,358.56Z" style="fill: #7a2300"/>
      </g>
      <path id="Path_764" data-name="Path 764" d="M826.29,336.11H570.4a8.87,8.87,0,0,1-8.84-8.8V302.43a8.87,8.87,0,0,1,8.84-8.8H826.29a8.87,8.87,0,0,1,8.84,8.8v24.88A9,9,0,0,1,826.29,336.11Z" style="fill: #f56a33"/>
      <path id="Path_765" data-name="Path 765" d="M580.76,327.14V302.26a8.87,8.87,0,0,1,8.84-8.8H570.4a8.87,8.87,0,0,0-8.84,8.8v24.88a8.87,8.87,0,0,0,8.84,8.8h19.2a8.65,8.65,0,0,1-8.84-8.8Z" style="fill: #c55d33"/>
      <g id="Group_153" data-name="Group 153">
        <path id="Path_766" data-name="Path 766" d="M736.4,212.56a5.1,5.1,0,0,1-4.93-3.73,5.08,5.08,0,0,1,9-4.4,5.19,5.19,0,0,1,1,3.56A5,5,0,0,1,736.4,212.56Z" style="fill: #333"/>
        <path id="Path_767" data-name="Path 767" d="M789.24,212.56a5.1,5.1,0,0,1-4.93-3.73,5.41,5.41,0,0,1,1.7-5.41,5.35,5.35,0,0,1,7.31.84,5.14,5.14,0,0,1-.85,7.28,6.6,6.6,0,0,1-3.23,1Z" style="fill: #333"/>
        <path id="Path_768" data-name="Path 768" d="M736.4,261.47a5.25,5.25,0,0,1-5.1-5.25,5.43,5.43,0,0,1,1.7-3.72,5.16,5.16,0,0,1,7.31.51,4.69,4.69,0,0,1,1.19,3.89A4.9,4.9,0,0,1,736.4,261.47Z" style="fill: #333"/>
        <path id="Path_769" data-name="Path 769" d="M789.24,261.47a5.08,5.08,0,1,1,5.1-5.08v.68A5.12,5.12,0,0,1,789.24,261.47Z" style="fill: #333"/>
        <path id="Path_770" data-name="Path 770" d="M607.26,212.56a5.14,5.14,0,0,1-5.1-5.25,5,5,0,0,1,1.87-3.89,5.18,5.18,0,0,1,7.31.84,5.87,5.87,0,0,1,1.19,3.39A5.48,5.48,0,0,1,607.26,212.56Z" style="fill: #333"/>
        <path id="Path_771" data-name="Path 771" d="M659.93,212.56a5.1,5.1,0,0,1-4.92-3.73,5.39,5.39,0,0,1,1.7-5.41,5.33,5.33,0,0,1,7.3,1,5.19,5.19,0,0,1,1,3.56A5,5,0,0,1,659.93,212.56Z" style="fill: #333"/>
        <path id="Path_772" data-name="Path 772" d="M607.26,261.47a5.18,5.18,0,0,1-5.1-5.41,5.37,5.37,0,0,1,1.36-3.39,5.19,5.19,0,0,1,6-1,5.44,5.44,0,0,1,2.89,5.08A5,5,0,0,1,607.26,261.47Z" style="fill: #333"/>
        <path id="Path_773" data-name="Path 773" d="M659.93,261.47a5.14,5.14,0,0,1-5.09-5.25,5.43,5.43,0,0,1,1.7-3.72,5.15,5.15,0,0,1,7.3.51,5.57,5.57,0,0,1,1.19,4.57A4.94,4.94,0,0,1,659.93,261.47Z" style="fill: #333"/>
      </g>
      <path id="Path_774" data-name="Path 774" d="M957.64,381a4.26,4.26,0,0,1-4.93,3.55,4.31,4.31,0,0,1-3.57-3.55l-2.88-15.57-1.7-8.63h10.7l.85,8.63,1.53,14.22Z" style="fill: #959595"/>
      <path id="Path_775" data-name="Path 775" d="M956.28,365.56H946.09l-1.53-8.63h10.7Z" style="fill: #595959"/>
      <path id="Path_776" data-name="Path 776" d="M836.15,356.93l-1.7,8.63-2.89,15.57a4.52,4.52,0,0,1-3.57,3.55,4.26,4.26,0,0,1-4.93-3.55v-1l1.53-14.21.85-8.63,10.71-.34Z" style="fill: #959595"/>
      <g id="Group_154" data-name="Group 154">
        <path id="Path_777" data-name="Path 777" d="M825.23,356.83h10.7l-1.69,8.63h-10Z" style="fill: #595959"/>
        <rect id="Rectangle_295" data-name="Rectangle 295" x="817.07" y="309.95" width="146.47" height="21.16" style="fill: #595959"/>
      </g>
      <g id="Group_155" data-name="Group 155">
        <path id="Path_778" data-name="Path 778" d="M966.31,315.46H814.4a2.68,2.68,0,0,1-2.72-2.71V280.6a2.68,2.68,0,0,1,2.72-2.71H966.31A2.67,2.67,0,0,1,969,280.6v32.15A2.79,2.79,0,0,1,966.31,315.46Z" style="fill: #f39c79"/>
        <path id="Path_779" data-name="Path 779" d="M966.31,361.5H814.4a2.68,2.68,0,0,1-2.72-2.71V326.63a2.68,2.68,0,0,1,2.72-2.71H966.31a2.68,2.68,0,0,1,2.71,2.71v32.16A2.79,2.79,0,0,1,966.31,361.5Z" style="fill: #f39c79"/>
      </g>
      <g id="Group_156" data-name="Group 156">
        <path id="Path_780" data-name="Path 780" d="M969,308.07v4.57a2.68,2.68,0,0,1-2.71,2.71H814.4a2.68,2.68,0,0,1-2.72-2.71v-4.57a2.68,2.68,0,0,0,2.72,2.71H966.31a2.6,2.6,0,0,0,2.71-2.37Z" style="fill: #f35618"/>
        <path id="Path_781" data-name="Path 781" d="M969,354.1v4.57a2.67,2.67,0,0,1-2.71,2.71H814.4a2.68,2.68,0,0,1-2.72-2.71V354.1a2.68,2.68,0,0,0,2.72,2.71H966.31a2.59,2.59,0,0,0,2.71-2.37Z" style="fill: #f35618"/>
      </g>
      <g id="Group_157" data-name="Group 157">
        <path id="Path_782" data-name="Path 782" d="M915.28,353.7a2.32,2.32,0,0,1-2.38-2.37h0v-1H867.71v1a2.38,2.38,0,0,1-4.76,0v-3.56a2.32,2.32,0,0,1,2.38-2.37h49.95a2.32,2.32,0,0,1,2.38,2.37h0v3.56a2.15,2.15,0,0,1-2,2.37Z" style="fill: #595959"/>
        <path id="Path_783" data-name="Path 783" d="M915.28,308.34A2.32,2.32,0,0,1,912.9,306h0v-1H867.71v1a2.38,2.38,0,0,1-4.76,0v-3.55a2.32,2.32,0,0,1,2.38-2.37h49.95a2.32,2.32,0,0,1,2.38,2.37h0V306a2.15,2.15,0,0,1-2,2.37Z" style="fill: #595959"/>
      </g>
      <g id="Group_163" data-name="Group 163">
        <path id="Path_784" data-name="Path 784" d="M519.57,366.45a1.7,1.7,0,0,1-1.7-1.7,1.83,1.83,0,0,1,1.7-1.69,5.36,5.36,0,0,0,5.44-5.41,5.47,5.47,0,0,0-5.44-5.42,8.9,8.9,0,0,1-9-8.8,8.66,8.66,0,0,1,8.67-9h.17a1.69,1.69,0,1,1,0,3.38,5.42,5.42,0,1,0,0,10.84h0a8.89,8.89,0,1,1,.17,17.77Z" style="fill: #4f4f4f"/>
        <path id="Path_785" data-name="Path 785" d="M478.62,367a3.84,3.84,0,0,0-3.91,3.89V379H471a2.61,2.61,0,0,0-2.55,2.54h0v1.35a1.16,1.16,0,0,0,1.19,1.19h10.2a2.61,2.61,0,0,0,2.55-2.54h0V370.85A3.62,3.62,0,0,0,479,367Z" style="fill: #404040"/>
        <path id="Path_786" data-name="Path 786" d="M510.39,354.6h-33.3v16.92A11.54,11.54,0,0,0,488.64,383h21.92v-.17a14.33,14.33,0,0,0,14.28-14.21A14.56,14.56,0,0,0,510.39,354.6Z" style="fill: #4f4f4f"/>
        <path id="Path_787" data-name="Path 787" d="M495.44,354.6v8.29a2.89,2.89,0,0,0,5.78,0V354.6Z" style="fill: #f39c79"/>
        <path id="Path_788" data-name="Path 788" d="M505.3,354.6v8.29a2.89,2.89,0,0,0,5.77,0V354.6Z" style="fill: #f39c79"/>
        <path id="Path_789" data-name="Path 789" d="M511.75,364.25a9.84,9.84,0,0,0-9.85,9.81,9.33,9.33,0,0,0,1.19,4.74h-1a2.61,2.61,0,0,0-2.55,2.54h0v1.36a1.16,1.16,0,0,0,1.19,1.18h11a9.82,9.82,0,1,0,0-19.63Z" style="fill: #595959"/>
        <path id="Path_790" data-name="Path 790" d="M491.53,367a3.84,3.84,0,0,0-3.91,3.89V379h-3.73a2.61,2.61,0,0,0-2.55,2.54h0v1.35a1.16,1.16,0,0,0,1.19,1.19h10.19a2.61,2.61,0,0,0,2.55-2.54h0V370.85a3.62,3.62,0,0,0-3.4-3.89Z" style="fill: #595959"/>
        <path id="Path_791" data-name="Path 791" d="M496.8,343.26v-6.6a1.3,1.3,0,0,0-1.19-1.35h-.17a2.4,2.4,0,0,0-1,.33l-5.1,5.08a12.39,12.39,0,0,0-13.59,0l-5.1-5.08a.76.76,0,0,0-.85-.17,1.13,1.13,0,0,0-1.36,1.19v16.25c0,7.78,6.29,15.06,14.11,15.06s14.1-7.28,14.1-15.06l.17-9.65Z" style="fill: #4f4f4f"/>
        <path id="Path_792" data-name="Path 792" d="M485.41,352.57h-5.6a3,3,0,1,0,0,6.09h0a3.15,3.15,0,0,1,4.25-1.35,2.56,2.56,0,0,1,1.35,1.35,3,3,0,0,0,3.06-3v-.17A3,3,0,0,0,485.41,352.57Z" style="fill: #fff"/>
        <ellipse id="Ellipse_62" data-name="Ellipse 62" cx="474.54" cy="349.86" rx="1.36" ry="1.35" style="fill: #333"/>
        <ellipse id="Ellipse_63" data-name="Ellipse 63" cx="490.68" cy="349.86" rx="1.36" ry="1.35" style="fill: #333"/>
        <path id="Path_793" data-name="Path 793" d="M484.4,354.6a2.37,2.37,0,0,1-3.23.17l-.17-.17-1-1c-1-1-.68-1.69.68-1.69h3.74c1.18,0,1.69.85.68,1.69Z" style="fill: #333"/>
        <g id="Group_160" data-name="Group 160">
          <path id="Path_794" data-name="Path 794" d="M473,357.49c-.17,0-.17,0-.34-.17,0-.17,0-.34.17-.34l5.61-1.35c.17,0,.34,0,.34.17s0,.34-.17.34Z" style="fill: #333"/>
          <path id="Path_795" data-name="Path 795" d="M474.54,360.2c-.17,0-.17,0-.34-.17s0-.34.17-.34l4.76-2.54c.17-.17.34,0,.34.17.17.17,0,.34-.17.34Z" style="fill: #333"/>
          <path id="Path_796" data-name="Path 796" d="M478.28,355h0l-5.61-.17a.37.37,0,0,1-.34-.34c0-.16.17-.16.17-.16l5.61.33c.17,0,.34.17.17.34Z" style="fill: #333"/>
        </g>
        <g id="Group_161" data-name="Group 161">
          <path id="Path_797" data-name="Path 797" d="M492.14,357.49h0l-5.61-1.35c-.17,0-.34-.17-.17-.34,0-.17.17-.34.34-.17l5.61,1.35c0,.17.17.34-.17.51Z" style="fill: #333"/>
          <path id="Path_798" data-name="Path 798" d="M490.61,360.2h0l-4.76-2.71c-.17-.17-.17-.17-.17-.34s.17-.17.34-.17l4.59,2.71a.59.59,0,0,1,.17.34Z" style="fill: #333"/>
          <path id="Path_799" data-name="Path 799" d="M486.87,355c-.17,0-.34,0-.34-.17a.59.59,0,0,1,.17-.34h0l5.78-.16c.17,0,.34.16.17.33a.17.17,0,0,1-.17.17Z" style="fill: #333"/>
        </g>
        <path id="Path_800" data-name="Path 800" d="M482.53,338.69a16.75,16.75,0,0,0-2.89.34v3.89a2.86,2.86,0,0,0,2.89,2.88,2.72,2.72,0,0,0,2.88-2.71V339.2A7.85,7.85,0,0,0,482.53,338.69Z" style="fill: #f39c79"/>
      </g>
      <g id="Group_164" data-name="Group 164">
        <path id="Path_801" data-name="Path 801" d="M915.63,249.64a4.63,4.63,0,0,1-1.35-3.22v-.17A4.23,4.23,0,0,1,916,242.7a3.64,3.64,0,0,1,3.57-1,38.89,38.89,0,0,0,6.29.17,4.87,4.87,0,0,1,3.74,1,5.42,5.42,0,0,1,1.7,3.55,4.72,4.72,0,0,1-3.91,4.57,26.72,26.72,0,0,1-9,0A4.67,4.67,0,0,1,915.63,249.64Z" style="fill: #bf3600"/>
        <path id="Path_802" data-name="Path 802" d="M922.94,243.71a35.9,35.9,0,0,1-4.42-.34,4.73,4.73,0,0,1-3.91-4.74h0a4.25,4.25,0,0,1,1.7-3.55,4.34,4.34,0,0,1,3.57-1,25.74,25.74,0,0,0,6.29.17,4.59,4.59,0,0,1,3.57,1.19,5.42,5.42,0,0,1,1.7,3.55,4.72,4.72,0,0,1-3.91,4.57C925.83,243.54,924.47,243.71,922.94,243.71Z" style="fill: #bf3600"/>
      </g>
      <path id="Path_803" data-name="Path 803" d="M929.6,235.41a6.17,6.17,0,0,0-2.89-1.19v9.31a.62.62,0,0,0,.51-.17,4.72,4.72,0,0,0,3.91-4.57A3.62,3.62,0,0,0,929.6,235.41Z" style="fill: #f38b61"/>
      <path id="Path_804" data-name="Path 804" d="M937.42,277.55H916.18v-1.69a4.2,4.2,0,0,0-4.25-4.23v-2.88H941.5v2.88a4.2,4.2,0,0,0-4.25,4.23l.17,1.69Z" style="fill: #595959"/>
      <path id="Path_805" data-name="Path 805" d="M926.88,277.55h10.54v-1.69a4.2,4.2,0,0,1,4.25-4.23v-2.88H926.88v8.8Z" style="fill: #404040"/>
      <path id="Path_806" data-name="Path 806" d="M911.93,251.65a4.63,4.63,0,0,1-3.23-1.35h0a4.14,4.14,0,0,1-1.36-3.55,5,5,0,0,1,1.7-3.39,22.44,22.44,0,0,0,4.59-4.4,4.46,4.46,0,0,1,3.4-1.69,4.2,4.2,0,0,1,3.57,1.35,4.84,4.84,0,0,1,.34,6.1,27.68,27.68,0,0,1-6.29,6.26A8,8,0,0,1,911.93,251.65Z" style="fill: #f38b61"/>
      <path id="Path_807" data-name="Path 807" d="M935.89,251.65a36,36,0,0,1-4.42-.33,4.72,4.72,0,0,1-3.91-4.57v-.17a4.25,4.25,0,0,1,1.7-3.56,3.66,3.66,0,0,1,3.57-1,38.89,38.89,0,0,0,6.29.17,4.51,4.51,0,0,1,3.57,1,5.44,5.44,0,0,1,1.7,3.56,4.72,4.72,0,0,1-3.91,4.57A41.66,41.66,0,0,1,935.89,251.65Z" style="fill: #f37949"/>
      <path id="Path_808" data-name="Path 808" d="M936.91,244.55a4.17,4.17,0,0,1-2.72-1,27.48,27.48,0,0,1-6.29-6.26,4.83,4.83,0,0,1,.34-6.09h0a4.17,4.17,0,0,1,3.57-1.36,5.09,5.09,0,0,1,3.4,1.69,22.2,22.2,0,0,0,4.42,4.57,4.42,4.42,0,0,1,1.7,3.39A4.14,4.14,0,0,1,940,243,3.43,3.43,0,0,1,936.91,244.55Z" style="fill: #f39c79"/>
      <path id="Path_811" data-name="Path 811" d="M926.88,248.78a35.88,35.88,0,0,1-4.41-.34,4.72,4.72,0,0,1-3.91-4.57v-.17a4.23,4.23,0,0,1,1.7-3.55,3.64,3.64,0,0,1,3.57-1,38.77,38.77,0,0,0,6.28.17,4.51,4.51,0,0,1,3.57,1,5.46,5.46,0,0,1,1.7,3.56,4.72,4.72,0,0,1-3.91,4.57A41.68,41.68,0,0,1,926.88,248.78Z" style="fill: #f34500"/>
      <path id="Path_812" data-name="Path 812" d="M934,240.31a4.41,4.41,0,0,0-3.74-1.18,22.78,22.78,0,0,1-3.4.17V249a41.68,41.68,0,0,0,4.59-.34,4.75,4.75,0,0,0,4.08-4.74A4.12,4.12,0,0,0,934,240.31Z" style="fill: #f36831"/>
      <path id="Path_401" data-name="Path 401" d="M496.82,298.37H179.92a5.94,5.94,0,0,1-5.77-5.76V198.17a5.94,5.94,0,0,1,5.77-5.75h316.9a5.94,5.94,0,0,1,5.78,5.75v94.44a5.72,5.72,0,0,1-5.78,5.76Z" style="fill: #f34500"/>
      <rect id="Rectangle_236" data-name="Rectangle 236" x="289.52" y="196.65" width="50.81" height="101.72" style="fill: #a7b5bd"/>
      <rect id="Rectangle_237" data-name="Rectangle 237" x="345.76" y="202.06" width="7.65" height="37.74" style="fill: #4f4f4f"/>
      <rect id="Rectangle_238" data-name="Rectangle 238" x="268.96" y="202.06" width="7.65" height="37.74" style="fill: #4f4f4f"/>
      <rect id="Rectangle_239" data-name="Rectangle 239" x="289.52" y="192.76" width="4.59" height="4.06" style="fill: #bf3600"/>
      <rect id="Rectangle_240" data-name="Rectangle 240" x="289.52" y="196.65" width="4.59" height="102.06" style="fill: #7d888e"/>
      <rect id="Rectangle_241" data-name="Rectangle 241" x="289.52" y="260.96" width="50.81" height="3.72" style="fill: #595959"/>
      <path id="Path_402" data-name="Path 402" d="M226.48,148.58,202,151.46v41H251v-41Z" style="fill: #b9b9b9"/>
      <path id="Path_403" data-name="Path 403" d="M226.48,148.58v43.84H251v-41Z" style="fill: #727272"/>
      <path id="Path_404" data-name="Path 404" d="M226.48,129,202,151.63H251Z" style="fill: #dcdcdc"/>
      <path id="Path_405" data-name="Path 405" d="M226.48,129v22.68H251Z" style="fill: #b9b9b9"/>
      <path id="Path_406" data-name="Path 406" d="M228.18,170.58a10.51,10.51,0,0,0-3.74-6.6,10.27,10.27,0,0,0-7.3-1.69,15.73,15.73,0,0,0-3.91.68l-1.36.51V165a14.34,14.34,0,0,0,.51,3.89,10.46,10.46,0,0,0,3.74,6.6,10,10,0,0,0,6.11,1.86h1.19a29.6,29.6,0,0,0,3.91-.67l1.36-.51v-1.52C228.52,173.12,228.35,171.77,228.18,170.58Z" style="fill: #f39c79"/>
      <path id="Path_407" data-name="Path 407" d="M241.26,164.83v-1.52l-1.35-.51a26.72,26.72,0,0,0-3.91-.68A9.7,9.7,0,0,0,225,169.74a1,1,0,0,1-.17.68,15,15,0,0,0-.34,3.89v1.52l1.36.51a26.72,26.72,0,0,0,3.91.68h1.19a8.77,8.77,0,0,0,6.12-1.87,10.45,10.45,0,0,0,3.73-6.6A9.39,9.39,0,0,0,241.26,164.83Z" style="fill: #f34500"/>
      <path id="Path_408" data-name="Path 408" d="M214.76,174.14l4.75,18.28h13.94l4.76-18.28Z" style="fill: #595959"/>
      <path id="Path_409" data-name="Path 409" d="M226.48,174.14v18.28h7l4.76-18.28Z" style="fill: #333"/>
      <rect id="Rectangle_243" data-name="Rectangle 243" x="289.52" y="226.94" width="50.81" height="3.72" style="fill: #595959"/>
      <rect id="Rectangle_244" data-name="Rectangle 244" x="289.52" y="226.94" width="4.59" height="3.72" style="fill: #333"/>
      <rect id="Rectangle_245" data-name="Rectangle 245" x="289.52" y="260.96" width="4.59" height="3.72" style="fill: #333"/>
      <path id="Path_809" data-name="Path 809" d="M940,272H913.63a10.63,10.63,0,0,1-10.7-10.66V248.78h47.91V261.3A10.77,10.77,0,0,1,940,272Z" style="fill: #959595"/>
      <path id="Path_810" data-name="Path 810" d="M926.88,248.78V272h13.26a10.63,10.63,0,0,0,10.7-10.66V248.78Z" style="fill: #595959"/>
      <rect id="Rectangle_266" data-name="Rectangle 266" x="310.42" y="56.51" width="226.33" height="112.55" style="fill: #383838"/>
      <path id="Path_676" data-name="Path 676" d="M429.36,189V168.72H417.13V189H388.24v3.9h70.18V189Z" style="fill: #666"/>
      <path id="Path_677" data-name="Path 677" d="M417.13,170.08v18.61s1.36,2.2,6.12,2.2,6.11-2,6.11-2S420.87,190.56,417.13,170.08Z" style="fill: #555"/>
      <path id="Path_678" data-name="Path 678" d="M540.83,173.12H305.66V52.45h235V173.12ZM311.1,167.54H535.22V57.86H311.1Z"/>
      <rect id="Rectangle_267" data-name="Rectangle 267" x="319.6" y="73.6" width="70.52" height="12.69" style="fill: #a8a8a8"/>
      <rect id="Rectangle_268" data-name="Rectangle 268" x="319.6" y="97.98" width="70.52" height="12.69" style="fill: #a8a8a8"/>
      <rect id="Rectangle_269" data-name="Rectangle 269" x="319.6" y="119.81" width="70.52" height="12.69" style="fill: #a8a8a8"/>
      <rect id="Rectangle_270" data-name="Rectangle 270" x="319.6" y="142.83" width="70.52" height="12.69" style="fill: #a8a8a8"/>
      <rect id="Rectangle_271" data-name="Rectangle 271" x="402.69" y="117.44" width="37.72" height="37.57" style="fill: #959595"/>
      <rect id="Rectangle_272" data-name="Rectangle 272" x="444.32" y="117.61" width="37.72" height="37.57" style="fill: #f34500"/>
      <rect id="Rectangle_273" data-name="Rectangle 273" x="485.78" y="117.44" width="37.72" height="37.57" style="fill: #959595"/>
      <rect id="Rectangle_274" data-name="Rectangle 274" x="444.32" y="73.94" width="37.72" height="37.57" style="fill: #959595"/>
      <rect id="Rectangle_276" data-name="Rectangle 276" x="402.69" y="73.94" width="37.72" height="37.57" style="fill: #f34500"/>
      <rect id="Rectangle_276-2" data-name="Rectangle 276" x="485.74" y="73.94" width="37.72" height="37.57" style="fill: #f34500"/>
      <path id="Path_718" data-name="Path 718" d="M466.24,97.3h2.21v-9h-2.21Zm-3.91-2.54a.45.45,0,0,1-.51.51h-1.19a.45.45,0,0,1-.51-.51h0V91.21h-2.21v3.72a2.24,2.24,0,0,0,2,2.37h2.55a2.11,2.11,0,0,0,2.21-2V91.21H462.5A22.55,22.55,0,0,0,462.33,94.76ZM474.73,91v3.55a.45.45,0,0,1-.51.51H473a.45.45,0,0,1-.51-.51h0V91h-2.21v3.72a2.24,2.24,0,0,0,2,2.37h2.55a2.11,2.11,0,0,0,2.21-2V91Zm-21.07,0H452.3c-.34,0-.51,0-.68.17v-3h-2.21V97.3h2.21V93.75a.45.45,0,0,1,.51-.51h1.19a.45.45,0,0,1,.51.51h0V97.3H456V93.24c.17-1.53-1-2.2-2.38-2.2Z" style="fill: #fff"/>
      <rect x="1" y="1" width="970" height="383" style="fill: none"/>
      <path d="M410.79,96.13c-.46.08-.93.1-1.42.17L407.88,92v4.54c-.46,0-.89.11-1.32.17V88.35h1.23l1.69,4.72V88.35h1.31v7.78Zm2.56-4.74,1.74,0v1.3c-.58,0-1.25,0-1.74,0v1.94c.77,0,1.53-.12,2.3-.14v1.25l-3.6.28V88.35h3.6v1.3h-2.3Zm7.14-1.74h-1.35v6h-1.3v-6h-1.35v-1.3h4Zm2.11,1.65h1.78v1.3H422.6v3h-1.27v-7.2H425v1.3H422.6Zm4.47,3.11c.74,0,1.49.08,2.21.12v1.28c-1.16-.07-2.32-.14-3.51-.17V88.35h1.3v6.06Zm3.31,1.49c.42,0,.85,0,1.28.1V88.35h-1.28Zm7-7.55-1.65,4,1.65,4.36c-.49-.06-1-.15-1.47-.23L435,94,434,96.23c-.48-.08-.93-.1-1.4-.17l1.67-3.81-1.51-3.9h1.4l.85,2.18.91-2.18Z" style="fill: #fff"/>
      <g id="g4">
        <path id="path3115" d="M496.58,128.43a2.52,2.52,0,0,0,.42,4l6.93,4.75-3.36-7.7a2.44,2.44,0,0,0-4-1.06" style="fill: #fff"/>
        <path id="path3117" d="M502.54,124.69a2.47,2.47,0,0,0-2.06,3.41l3.47,8.2,1.22-8.62a2.45,2.45,0,0,0-2.63-3" style="fill: #fff"/>
        <path id="path3119" d="M505.72,127.35h.65s.35,0,.4.17c-.26.21-1,.23-.87,1.36L507,136.3l3.45-8.22a2.5,2.5,0,0,0-2.09-3.41h-.19a2.44,2.44,0,0,0-2.46,2.69" style="fill: #fff"/>
        <path id="path3121" d="M510.32,129.56l-3.26,7.61,6.92-4.78a2.47,2.47,0,1,0-3.66-2.83" style="fill: #fff"/>
        <path id="path3123" d="M513.21,133.47,506.7,138h8a2.46,2.46,0,0,0,2.23-3.25,2.5,2.5,0,0,0-2.32-1.74,2.55,2.55,0,0,0-1.41.45" style="fill: #fff"/>
        <path id="path3125" d="M496.39,138h7.89l-6.51-4.54a2.46,2.46,0,0,0-3.8,1.2,2.53,2.53,0,0,0,2.42,3.34" style="fill: #fff"/>
        <path id="path3127" d="M505.13,144.23h1.47a1,1,0,0,1,.93,1,1.05,1.05,0,0,1-1,1h-1.44v-2.06m0-3.24h1.2a.91.91,0,0,1,.9.89,1,1,0,0,1-.84,1h-1.26V141m-1.65-1.35v8h3.88a2.18,2.18,0,0,0,2-2.13,2.29,2.29,0,0,0-1.34-2.13,2,2,0,0,0,.91-1.75,2.05,2.05,0,0,0-2-2h-3.43" style="fill: #fff"/>
        <polygon id="polygon3129" points="497.5 147.64 497.5 143.03 502.54 147.94 502.54 139.64 500.85 139.64 500.85 144.13 495.81 139.31 495.81 147.64 497.5 147.64" style="fill: #fff"/>
        <path id="path3131" d="M509.63,143.55a4.28,4.28,0,0,0,4.2,4.42,4.82,4.82,0,0,0,1.74-.33V146a2.92,2.92,0,0,1-1.52.43,2.68,2.68,0,0,1-2.69-2.95,2.74,2.74,0,0,1,2.72-2.61,2.66,2.66,0,0,1,1.49.46v-1.59a4.46,4.46,0,0,0-1.64-.32,4.36,4.36,0,0,0-4.3,4.12" style="fill: #fff"/>
      </g>
      <g>
        <path d="M517.59,89.66A3.42,3.42,0,0,0,517,88.1a2.25,2.25,0,0,0-1.59-.67c-2.22-.16-5.55-.16-5.55-.16h0s-3.33,0-5.55.16a2.24,2.24,0,0,0-1.59.67,3.3,3.3,0,0,0-.63,1.56,23.65,23.65,0,0,0-.16,2.56v1.19A23.65,23.65,0,0,0,502,96a3.36,3.36,0,0,0,.63,1.57,2.63,2.63,0,0,0,1.75.67c1.27.12,5.39.16,5.39.16s3.34,0,5.56-.16a2.3,2.3,0,0,0,1.59-.67,3.48,3.48,0,0,0,.63-1.57,23.65,23.65,0,0,0,.16-2.56V92.22a23.65,23.65,0,0,0-.16-2.56" style="fill: #fff"/>
        <g>
          <path d="M501.06,96.25h-1v-.58a1.49,1.49,0,0,1-1.06.66.63.63,0,0,1-.63-.41,2,2,0,0,1-.12-.78V90.89h1v4.35c0,.15.09.21.22.21s.37-.17.58-.47V90.89h1Z" style="fill: #fff"/>
          <path d="M496.49,94.66c.05.53-.11.79-.43.79s-.47-.26-.42-.79V92.53c-.05-.53.11-.78.42-.78s.48.25.43.78Zm1-2a2.15,2.15,0,0,0-.32-1.27,1.34,1.34,0,0,0-1.12-.52,1.26,1.26,0,0,0-1.11.52,2.09,2.09,0,0,0-.32,1.28v1.9a1.93,1.93,0,0,0,.31,1.23,1.37,1.37,0,0,0,1.12.56,1.41,1.41,0,0,0,1.14-.56,1.94,1.94,0,0,0,.3-1.23Z" style="fill: #fff"/>
          <path d="M493.51,93.33v2.92h-1.06V93.33s-1.1-3.58-1.33-4.25h1.12l.74,2.8.75-2.8h1.11Z" style="fill: #fff"/>
        </g>
        <g>
          <path d="M514.5,92.37c0-.49.14-.63.46-.63s.45.15.45.64V93h-.91Zm1.92,1.39V92.67a2.09,2.09,0,0,0-.31-1.25,1.37,1.37,0,0,0-1.14-.56,1.39,1.39,0,0,0-1.15.56,2.1,2.1,0,0,0-.33,1.27v1.86a2,2,0,0,0,.34,1.23,1.38,1.38,0,0,0,1.16.54,1.35,1.35,0,0,0,1.17-.57,1.46,1.46,0,0,0,.22-.58,5.36,5.36,0,0,0,0-.63v-.15h-1c0,.39,0,.62,0,.67a.41.41,0,0,1-.43.39c-.33,0-.47-.25-.47-.74v-.95Z" style="fill: #f34500"/>
          <path d="M511.85,94.71c0,.53-.13.74-.41.74a.73.73,0,0,1-.5-.25V92a.8.8,0,0,1,.5-.24c.28,0,.41.16.41.69Zm.11-3.85a1.35,1.35,0,0,0-1,.6V89.14H510v7.11h.95v-.53a1.41,1.41,0,0,0,1,.6.79.79,0,0,0,.79-.6,4.19,4.19,0,0,0,.11-1.06V92.53a3.78,3.78,0,0,0-.13-1,.78.78,0,0,0-.77-.62" style="fill: #f34500"/>
          <path d="M509.19,96.25h-1v-.58a1.49,1.49,0,0,1-1.06.66.63.63,0,0,1-.63-.41,2,2,0,0,1-.12-.78v-4.2h1v4.3c0,.15.09.21.22.21s.37-.17.58-.47v-4h1Z" style="fill: #f34500"/>
          <path d="M505.36,96.25H504.3V90.14h-1.11v-1h3.34v1h-1.17Z" style="fill: #f34500"/>
        </g>
      </g>
      <g>
        <path d="M462,139.8a3.68,3.68,0,0,0-3.78,3.71,3.78,3.78,0,1,0,7.55,0A3.64,3.64,0,0,0,462,139.8Zm0,7.14a3.29,3.29,0,0,1-3.24-3.42,3.24,3.24,0,1,1,6.48,0A3.3,3.3,0,0,1,462,146.94Z" style="fill: #fff"/>
        <polygon points="474.79 139.93 472.74 146.38 470.76 140 470.74 139.93 470.37 139.93 468.41 146.38 466.36 139.99 466.34 139.93 465.8 139.93 468.12 147.22 468.69 147.22 470.56 141.09 472.43 147.22 472.99 147.22 475.32 139.93 474.79 139.93" style="fill: #fff"/>
        <polygon points="456.65 146.38 451.91 139.94 451.22 139.94 451.22 147.23 451.73 147.23 451.73 140.57 456.61 147.23 457.16 147.23 457.16 139.94 456.65 139.94 456.65 146.38" style="fill: #fff"/>
        <polygon points="458.12 138.65 455.47 138.65 455.47 134.86 453.74 134.86 453.74 138.65 451.02 138.65 451.01 128.88 453.75 128.88 453.75 132.51 455.47 132.51 455.47 128.88 458.13 128.88 458.13 138.65 458.12 138.65" style="fill: #fff"/>
        <circle cx="470.29" cy="133.69" r="1.95" style="fill: #fff"/>
        <path d="M470.29,128.71a4.92,4.92,0,0,0-4.48,2.82,2.84,2.84,0,0,0-2.61-2.66h-4.53v9.77h4.23a3,3,0,0,0,2.92-2.74,5,5,0,0,0,4.47,2.79,5,5,0,0,0,5-5A4.94,4.94,0,0,0,470.29,128.71Zm-7.74,7.66H461.2v-1.66h1.35a.84.84,0,0,1,0,1.65Zm0-3.67h-1.34V131h1.34a.84.84,0,0,1,0,1.65Zm1.79,1a2.16,2.16,0,0,0,1-.61,4.14,4.14,0,0,0,0,1.36A1.9,1.9,0,0,0,464.34,133.68Zm6,2.49a2.49,2.49,0,1,1,2.48-2.49A2.49,2.49,0,0,1,470.29,136.17Z" style="fill: #fff"/>
      </g>
      <g>
        <path d="M421.58,147.74A17.11,17.11,0,0,1,409.63,143a.78.78,0,0,1-.23-.25.3.3,0,0,1,0-.26.27.27,0,0,1,.26-.05,3.46,3.46,0,0,1,.6.32,22.31,22.31,0,0,0,12.35,3.07,21.74,21.74,0,0,0,7.81-1.82c.29-.12.66-.44.9,0s-.21.56-.46.74a16,16,0,0,1-7.6,2.86C422.63,147.7,422,147.72,421.58,147.74Z" style="fill: #fff"/>
        <path d="M420.85,136.77c0-.6,0-1.15,0-1.7s.12-.59.55-.54c.22,0,.45,0,.71,0v6.54c-.44-.1-.94.26-1.2-.29a5,5,0,0,1-1,.35,1.65,1.65,0,0,1-2-1.33,4.7,4.7,0,0,1,0-2,1.76,1.76,0,0,1,2.58-1.17Zm0,2c0-.31,0-.62,0-.93a.45.45,0,0,0-.1-.3,1.1,1.1,0,0,0-1.47.24,2.24,2.24,0,0,0,0,1.94c.18.4.61.51,1.14.41s.47-.41.45-.77C420.84,139.19,420.85,139,420.85,138.8Z" style="fill: #fff"/>
        <path d="M427.67,138.83a2.18,2.18,0,0,1,3-2.29,1.42,1.42,0,0,1,.36.14,2.7,2.7,0,0,1,.77,3.54,2.35,2.35,0,0,1-3.2.62A2.27,2.27,0,0,1,427.67,138.83Zm1.26,0a7.25,7.25,0,0,0,.16.81.77.77,0,0,0,.77.57.71.71,0,0,0,.8-.57,6.36,6.36,0,0,0,0-1.63.72.72,0,0,0-.79-.59.78.78,0,0,0-.8.59A7,7,0,0,0,428.93,138.83Z" style="fill: #fff"/>
        <path d="M426.72,140.07c.16.7.1.84-.55,1a5.23,5.23,0,0,1-1.31.09,1.72,1.72,0,0,1-1.69-1.49,4.4,4.4,0,0,1,.06-1.77,2.12,2.12,0,0,1,3-1.16,1.3,1.3,0,0,1,.67,1.35,1.06,1.06,0,0,1-.91,1c-.57.11-1.15.11-1.74.17-.05.54.25.9.89.92A13.38,13.38,0,0,0,426.72,140.07Zm-2.47-1.68a6.14,6.14,0,0,0,1.14,0,.61.61,0,0,0,.39-.45.69.69,0,0,0-.38-.52C424.82,137.16,424.33,137.58,424.25,138.39Z" style="fill: #fff"/>
        <path d="M412.82,139.74c.24-.82.49-1.64.73-2.47s.66-1,1.5-.59c-.28.72-.55,1.45-.82,2.17s-.51,1.27-.73,1.92c-.11.31-.34.32-.59.29s-.69.17-.85-.26c-.52-1.33-1-2.67-1.52-4,0,0,0-.1,0-.24a6,6,0,0,1,1,0c.13,0,.27.25.33.42.28.91.54,1.84.81,2.76Z" style="fill: #fff"/>
        <path d="M428.81,143.12a3.23,3.23,0,0,1,.44-.39,4.89,4.89,0,0,1,3.59-.48.59.59,0,0,1,.53.69,5.91,5.91,0,0,1-1.27,3.51,4.56,4.56,0,0,1-.5.48l-.14-.07c0-.15,0-.31.08-.47.22-.79.49-1.58.66-2.38.12-.59,0-.81-.64-.84s-1.49.05-2.24.07h-.45Z" style="fill: #fff"/>
        <path d="M416.92,138.81c0,.62,0,1.24,0,1.86,0,.28-.07.43-.38.4h-.05c-1,0-.84.06-.85-.82,0-1.07,0-2.15,0-3.22,0-.35.09-.53.47-.49a2.14,2.14,0,0,0,.44,0c.31,0,.39.12.38.4C416.91,137.57,416.92,138.19,416.92,138.81Z" style="fill: #fff"/>
        <g>
          <path d="M422.18,129c1.26-.68,1.87-.68,2.5-.1a14.91,14.91,0,0,1,1.8-.38,1,1,0,0,1,1.07.9c.05,1.15,0,2.3,0,3.44l-.11,0c-1,.16-1.09.11-1.09-.91,0-.63,0-1.27,0-1.91,0-.48-.18-.65-.6-.65-.62,0-.82.16-.82.66,0,.78,0,1.56,0,2.34,0,.34-.08.5-.47.5-.78,0-.78,0-.78-.78s0-1.37,0-2c0-.53-.16-.68-.62-.67-.62,0-.81.19-.81.68v2.72l-.13.07c-1,.16-1.1.11-1.1-.9s0-1.81,0-2.71c0-.23-.18-.6.21-.67S422,128.46,422.18,129Z" style="fill: #fff"/>
          <path d="M411.5,128.93a6.91,6.91,0,0,1,1-.39,1.61,1.61,0,0,1,2,1.27,4.51,4.51,0,0,1,0,1.83,1.71,1.71,0,0,1-2.55,1.18l-.3-.14c0,.59,0,1.11,0,1.63,0,.29-.1.41-.39.38a1.53,1.53,0,0,0-.37,0c-.37.05-.49-.1-.48-.47,0-1.64,0-3.27,0-4.91,0-.23-.17-.6.21-.67S411.35,128.46,411.5,128.93Zm1.85,1.95c0-1.24-.61-1.73-1.49-1.33a.53.53,0,0,0-.26.36c0,.58,0,1.15,0,1.73a.45.45,0,0,0,.14.31,1,1,0,0,0,1.54-.59C413.32,131.16,413.33,131,413.35,130.88Z" style="fill: #fff"/>
          <path d="M429.38,131.12c.48,1.52,1.59.89,2.49.87.2.65.13.82-.48.95a4.94,4.94,0,0,1-1.15.12,1.76,1.76,0,0,1-1.77-1.21,2.65,2.65,0,0,1,.39-2.69,2.09,2.09,0,0,1,2.22-.57,1.29,1.29,0,0,1,1,1.37,1.2,1.2,0,0,1-1.15,1.15A13.82,13.82,0,0,1,429.38,131.12Zm.1-.74c.35,0,.7,0,1,0a.45.45,0,0,0,.45-.5.5.5,0,0,0-.49-.52C429.91,129.28,429.51,129.65,429.48,130.38Z" style="fill: #fff"/>
          <path d="M416.57,129.25a1.59,1.59,0,0,1,1.56-.61,2.57,2.57,0,0,1,.05.4c0,.75,0,.73-.64.68a1.83,1.83,0,0,0-.33,0c-.39,0-.63.17-.59.66.06.7,0,1.4,0,2.1,0,.32-.08.45-.41.44-1,0-.81.05-.82-.78,0-1,0-2,0-3,0-.22-.08-.52.3-.51s.72-.15.8.38C416.52,129.06,416.54,129.12,416.57,129.25Z" style="fill: #fff"/>
          <path d="M418.77,130.78c0-.58,0-1.15,0-1.73,0-.31.08-.47.42-.43h.42c.27,0,.4.07.39.37,0,1.19,0,2.39,0,3.59,0,.26-.09.35-.35.36-.88.05-.88.05-.88-.81Z" style="fill: #fff"/>
          <path d="M420.09,127.31a.64.64,0,0,1-.71.64.63.63,0,0,1-.7-.68.65.65,0,0,1,.73-.62A.64.64,0,0,1,420.09,127.31Z" style="fill: #fff"/>
        </g>
        <path d="M417,135.15a.66.66,0,0,1-.7.7.69.69,0,1,1,.7-.7Z" style="fill: #fff"/>
      </g>
      <rect width="972" height="385" style="fill: none"/>
    </g>
  </g>
</svg>
