<svg xmlns="http://www.w3.org/2000/svg" width="58" height="46" viewBox="0 0 58 46">
  <title>twitter-chrt</title>
  <g id="Layer_2" data-name="Layer 2">
    <g id="facebook">
      <path id="twitter-2" d="M57,5.85a24.42,24.42,0,0,1-6.61,1.78,11.24,11.24,0,0,0,5-6.27,22.82,22.82,0,0,1-7.28,2.73A11.5,11.5,0,0,0,28.56,14.46,32.68,32.68,0,0,1,4.88,2.59,11.28,11.28,0,0,0,8.42,17.76,11.59,11.59,0,0,1,3.23,16.4v.12a11.42,11.42,0,0,0,9.19,11.15,11.27,11.27,0,0,1-3,.38,10.08,10.08,0,0,1-2.18-.27A11.61,11.61,0,0,0,18,35.69,23.28,23.28,0,0,1,3.73,40.57,20.85,20.85,0,0,1,1,40.4a32.52,32.52,0,0,0,17.6,5.1c21.13,0,32.69-17.3,32.69-32.29V11.73A22.8,22.8,0,0,0,57,5.85Z" style="fill: #999"/>
      <rect width="58" height="46" style="fill: none"/>
    </g>
  </g>
</svg>
